<?xml version="1.0" encoding="UTF-8" standalone="no"?>
<!DOCTYPE svg PUBLIC "-//W3C//DTD SVG 1.1//EN" "http://www.w3.org/Graphics/SVG/1.1/DTD/svg11.dtd">
<svg width="100%" height="100%" viewBox="0 0 8 8" version="1.1" xmlns="http://www.w3.org/2000/svg" xmlns:xlink="http://www.w3.org/1999/xlink" xml:space="preserve" xmlns:serif="http://www.serif.com/" style="fill-rule:evenodd;clip-rule:evenodd;stroke-linejoin:round;stroke-miterlimit:1.41421;">
    <path d="M4.09,0C4.04,0 3.99,0.04 3.96,0.09L3.02,1.9C3,1.95 2.95,1.99 2.89,1.99L1.48,1.99C0.65,1.99 -0.02,2.66 -0.02,3.49L-0.02,7.9C-0.02,7.95 0.02,7.99 0.07,7.99L7.88,7.99C7.93,7.99 7.97,7.95 7.97,7.9L7.97,2.09C7.97,2.03 7.93,2 7.88,2L7.07,2C7.02,2 6.97,1.96 6.94,1.91L6,0.1C5.97,0.05 5.93,0.01 5.87,0.01L4.06,0.01L4.09,0ZM1.5,3C1.78,3 2,3.22 2,3.5C2,3.78 1.78,4 1.5,4C1.22,4 1,3.78 1,3.5C1,3.22 1.22,3 1.5,3ZM5,3C6.1,3 7,3.9 7,5C7,6.1 6.1,7 5,7C3.9,7 3,6.1 3,5C3,3.9 3.9,3 5,3ZM5,4C4.45,4 4,4.45 4,5C4,5.55 4.45,6 5,6C5.55,6 6,5.55 6,5C6,4.45 5.55,4 5,4Z" style="fill:white;fill-rule:nonzero;"/>
</svg>
