<?xml version="1.0" encoding="UTF-8" standalone="no"?><!DOCTYPE svg PUBLIC "-//W3C//DTD SVG 1.1//EN" "http://www.w3.org/Graphics/SVG/1.1/DTD/svg11.dtd"><svg width="100%" height="100%" viewBox="0 0 199 125" version="1.1" xmlns="http://www.w3.org/2000/svg" xmlns:xlink="http://www.w3.org/1999/xlink" xml:space="preserve" xmlns:serif="http://www.serif.com/" style="fill-rule:evenodd;clip-rule:evenodd;stroke-linejoin:round;stroke-miterlimit:1.41421;"><g id="Layer2"><path d="M197.151,61.007l0,61.29l-196.385,0l0,-61.29l196.385,0Zm-90.776,47.566c0.304,0 0.456,-0.171 0.456,-0.513l0,-37.848c0,-0.266 -0.133,-0.399 -0.399,-0.399l-8.322,0c-0.266,0 -0.399,0.152 -0.399,0.456l0,37.335c0,0.646 0.209,0.969 0.627,0.969l8.037,0Zm18.411,-7.695l0,-30.666c0,-0.266 -0.133,-0.399 -0.399,-0.399l-8.322,0c-0.266,0 -0.399,0.152 -0.399,0.456l0,37.905c0,0.266 0.209,0.399 0.627,0.399l24.054,0c0.342,0 0.541,-0.085 0.598,-0.256c0.057,-0.171 0.086,-0.39 0.086,-0.656l0,-5.985c0,-0.152 -0.048,-0.323 -0.143,-0.513c-0.095,-0.19 -0.313,-0.285 -0.655,-0.285l-15.447,0Zm-84.588,7.695c1.558,0 2.983,-0.152 4.275,-0.456c1.292,-0.304 2.394,-0.769 3.306,-1.396c0.912,-0.627 1.624,-1.425 2.137,-2.394c0.513,-0.969 0.77,-2.138 0.77,-3.506l0,-6.669c0,-1.14 -0.428,-2.156 -1.283,-3.049c-0.855,-0.893 -1.947,-1.53 -3.277,-1.91l0,-0.399c1.482,-0.722 2.565,-1.491 3.249,-2.308c0.684,-0.817 1.026,-1.891 1.026,-3.221l0,-5.928c0,-1.292 -0.228,-2.403 -0.684,-3.334c-0.456,-0.931 -1.083,-1.71 -1.881,-2.337c-0.798,-0.627 -1.729,-1.093 -2.793,-1.397c-1.064,-0.304 -2.223,-0.456 -3.477,-0.456l-19.38,0c-0.532,0 -0.855,0.105 -0.969,0.314c-0.114,0.209 -0.171,0.484 -0.171,0.826l0,36.195c0,0.95 0.361,1.425 1.083,1.425l18.069,0Zm40.014,0c2.508,0 4.579,-0.731 6.213,-2.194c1.634,-1.463 2.451,-3.791 2.451,-6.983l0,-28.842c0,-0.494 -0.19,-0.741 -0.57,-0.741l-7.98,0c-0.304,0 -0.475,0.095 -0.513,0.285c-0.038,0.19 -0.057,0.437 -0.057,0.741l0,28.272c0,0.608 -0.067,1.055 -0.2,1.34c-0.133,0.285 -0.427,0.427 -0.883,0.427l-10.317,0c-0.304,0 -0.57,-0.142 -0.798,-0.427c-0.228,-0.285 -0.342,-0.77 -0.342,-1.454l0,-28.5c0,-0.228 -0.086,-0.399 -0.257,-0.513c-0.171,-0.114 -0.294,-0.171 -0.37,-0.171l-7.524,0c-0.266,0 -0.494,0.057 -0.684,0.171c-0.19,0.114 -0.285,0.399 -0.285,0.855l0,29.469c0,1.254 0.199,2.394 0.598,3.42c0.399,1.026 0.941,1.9 1.625,2.622c0.684,0.722 1.472,1.273 2.365,1.653c0.893,0.38 1.834,0.57 2.822,0.57l14.706,0Zm82.536,0c4.332,0 7.733,-1.064 10.203,-3.192c2.47,-2.128 3.705,-5.358 3.705,-9.69l0,-12.939c0,-2.128 -0.333,-3.999 -0.998,-5.614c-0.665,-1.615 -1.586,-2.964 -2.764,-4.047c-1.178,-1.083 -2.565,-1.9 -4.161,-2.451c-1.596,-0.551 -3.325,-0.827 -5.187,-0.827l-16.53,0c-0.532,0.076 -0.855,0.2 -0.969,0.371c-0.114,0.171 -0.171,0.427 -0.171,0.769l0,36.195c0,0.95 0.361,1.425 1.083,1.425l15.789,0Zm-124.374,-16.188c1.33,0 2.194,0.276 2.593,0.827c0.399,0.551 0.599,1.32 0.599,2.308l0,2.964c0,1.938 -0.95,2.907 -2.85,2.907l-8.55,0l0,-9.006l8.208,0Zm122.835,-14.877c0.912,0 1.748,0.076 2.508,0.228c0.76,0.152 1.425,0.428 1.995,0.827c0.57,0.399 1.016,0.94 1.339,1.624c0.323,0.684 0.485,1.558 0.485,2.622l0,12.882c0,1.634 -0.428,2.907 -1.283,3.819c-0.855,0.912 -2.137,1.368 -3.847,1.368l-7.41,0l0,-23.37l6.213,0Zm-123.405,-0.399c1.026,0 1.909,0.2 2.65,0.599c0.741,0.399 1.112,1.206 1.112,2.422l0,2.679c0,1.026 -0.171,1.739 -0.513,2.138c-0.342,0.399 -0.855,0.598 -1.539,0.598l-9.348,0l0,-8.436l7.638,0Z" style="fill:#fff;"/><g><path d="M61.037,31.614c0.002,1.921 -1.706,3.68 -5.123,5.277c-7.745,3.585 -16.435,5.707 -26.07,6.364c-1.172,0.066 -2.247,0.099 -3.223,0.1c-6.869,0.004 -10.304,-1.866 -10.306,-5.609c-0.001,-0.912 0.243,-1.921 0.73,-3.028c0.65,-1.563 1.757,-2.263 3.319,-2.102c1.563,0.195 2.247,0.91 2.052,2.147c-0.129,0.782 0.058,1.425 0.563,1.929c0.505,0.504 1.164,0.788 1.978,0.853c3.972,0.323 9.635,-0.397 16.991,-2.159c1.79,-0.489 4.524,-1.207 8.202,-2.154c2.115,-0.522 3.254,-1.206 3.416,-2.053c0.13,-0.781 -0.326,-1.415 -1.368,-1.903c-0.814,-0.358 -1.644,-0.552 -2.491,-0.584c-4.232,-0.226 -10.547,-0.498 -18.945,-0.819l-10.401,-0.188c-2.214,-0.031 -3.89,-0.112 -5.029,-0.241c-2.279,-0.227 -3.875,-0.681 -4.786,-1.364c-1.433,-1.041 -2.297,-3.108 -2.592,-6.2c-0.099,-1.074 1.414,-2.198 4.539,-3.372c4.296,-1.63 9.194,-3.115 14.694,-4.453c7.063,-1.664 13.312,-3.068 18.747,-4.211c0.619,-0.13 1.286,-0.147 2.002,-0.05c0.652,0.097 1.124,0.878 1.418,2.343c0.065,0.423 0.098,0.83 0.098,1.221c0.001,0.814 -0.275,1.619 -0.828,2.417c-0.553,0.798 -1.22,1.279 -2.001,1.442c-0.749,-0.293 -1.482,-0.601 -2.198,-0.926c-0.651,-0.228 -1.498,-0.26 -2.539,-0.096c-7.291,1.209 -13.866,2.694 -19.724,4.455c-3.417,1.044 -5.126,1.875 -5.125,2.494c-0.033,0.423 1.156,0.683 3.565,0.779c1.269,0.064 2.946,0.079 5.029,0.045c1.693,-0.001 3.255,0.015 4.687,0.046c11.361,0.286 19.125,0.965 23.293,2.036c1.953,0.52 3.614,1.398 4.982,2.634c1.628,1.431 2.443,3.075 2.444,4.93Z" style="fill:#fff;fill-rule:nonzero;"/><path d="M98.633,7.421c0.196,1.106 0.115,1.92 -0.243,2.441c-0.357,0.521 -1.09,0.831 -2.196,0.929c-4.46,0.394 -11.132,1.114 -20.018,2.161c0.915,5.924 1.586,11.848 2.013,17.772c0.197,2.767 0.313,6.087 0.348,9.961c0.002,3.646 -0.094,6.625 -0.288,8.936c-0.161,1.986 -0.958,2.751 -2.391,2.296c-2.279,-0.714 -3.354,-1.918 -3.225,-3.611c0.033,-0.553 0.309,-1.302 0.829,-2.247c0.455,-0.846 0.699,-1.595 0.731,-2.246c0.128,-4.33 0.027,-8.757 -0.301,-13.281c-0.394,-5.501 -0.967,-10.774 -1.719,-15.819c-0.033,-0.163 -0.131,-0.505 -0.294,-1.026c-6.054,1.111 -10.643,2.465 -13.767,4.062c-0.553,0.261 -1.008,0.749 -1.366,1.465c-0.455,0.815 -0.846,1.368 -1.171,1.661c-0.586,0.489 -1.334,0.669 -2.246,0.539c-0.879,-0.13 -1.652,-0.805 -2.32,-2.025c-0.668,-1.22 -0.791,-2.189 -0.368,-2.905c0.357,-0.586 0.829,-1.107 1.415,-1.563c3.253,-2.574 9.535,-4.759 18.843,-6.555c0.423,-0.684 1.123,-1.124 2.099,-1.32c0.944,-0.163 1.611,0.048 2.002,0.634c2.832,-0.458 5.615,-0.867 8.349,-1.226l7.47,-0.933c0.651,-0.098 1.384,-0.383 2.197,-0.856c0.814,-0.472 1.481,-0.741 2.002,-0.807c1.952,-0.294 3.158,0.894 3.615,3.563Z" style="fill:#fff;fill-rule:nonzero;"/><path d="M143.476,16.23c0.131,0.651 0.196,1.221 0.197,1.709c0,1.563 -0.65,2.523 -1.952,2.882c-0.651,0.163 -1.383,0.164 -2.197,0.001c-0.879,-0.162 -1.628,-0.178 -2.246,-0.047c-11.782,2.807 -25.647,6.641 -41.595,11.501c0.001,0.163 -0.032,0.342 -0.097,0.537c-0.227,0.977 -0.259,1.774 -0.096,2.393c0.359,1.399 2.361,2.261 6.008,2.584c1.432,0.129 2.832,0.161 4.199,0.095c1.302,-0.066 2.246,-0.148 2.832,-0.246c6.477,-1.111 13.637,-3.573 21.479,-7.387c0.586,-0.293 1.131,-0.757 1.635,-1.392c0.504,-0.635 0.935,-1.067 1.293,-1.295c0.619,-0.359 1.351,-0.44 2.197,-0.246c0.847,0.228 1.515,1.025 2.004,2.392c0.261,0.716 0.391,1.302 0.392,1.757c0,0.456 -0.114,0.814 -0.341,1.075c-0.456,0.521 -0.993,0.961 -1.611,1.319c-3.221,1.858 -7.452,3.667 -12.692,5.428c-4.947,1.663 -9.389,2.838 -13.328,3.524c-2.473,0.425 -4.719,0.638 -6.738,0.639c-6.347,0.004 -10.125,-2.256 -11.332,-6.78c-0.261,-0.976 -0.392,-1.969 -0.392,-2.978c-0.098,0.032 -0.391,0.114 -0.879,0.244c-0.651,0.196 -1.318,0.262 -2.002,0.197c-0.651,-0.065 -1.14,-0.829 -1.466,-2.294c-0.262,-1.204 -0.14,-2.27 0.364,-3.198c0.504,-0.928 1.358,-1.491 2.562,-1.687c0.521,-0.065 1.465,-0.098 2.832,-0.099c0.26,-0.749 0.748,-2.084 1.463,-4.005c0.065,-0.195 0.097,-0.358 0.097,-0.488c0,-0.488 -0.407,-0.765 -1.221,-0.83c-1.042,-0.031 -1.612,-0.519 -1.71,-1.463c-0.098,-0.847 0.015,-1.726 0.34,-2.637c0.39,-1.075 0.959,-1.661 1.708,-1.759c0.586,-0.196 1.643,-0.278 3.173,-0.246c1.433,0.031 2.474,-0.067 3.125,-0.295c15.264,-5.804 26.085,-8.936 32.465,-9.396c1.107,-0.098 1.904,0.04 2.393,0.414c0.488,0.374 0.798,1.131 0.929,2.27c0.295,2.539 -0.535,3.89 -2.488,4.054c-0.716,0.066 -1.513,0.017 -2.392,-0.145c-0.782,-0.162 -1.921,-0.113 -3.418,0.149c-1.172,0.196 -2.344,0.392 -3.515,0.588c-2.832,0.392 -7.454,1.762 -13.865,4.11c-3.222,1.174 -6.639,2.592 -10.251,4.255c-0.325,0.944 -0.829,2.36 -1.511,4.249c0,0.097 -0.033,0.195 -0.098,0.293c14.093,-3.492 28.186,-7.456 42.278,-11.892c0.651,-0.196 1.318,-0.261 2.002,-0.197c0.651,0.098 1.14,0.879 1.466,2.343Z" style="fill:#fff;fill-rule:nonzero;"/><path d="M180.154,7.369c0.196,1.107 0.115,1.921 -0.243,2.442c-0.358,0.521 -1.09,0.83 -2.197,0.929c-4.459,0.393 -11.132,1.114 -20.018,2.161c0.915,5.924 1.587,11.848 2.013,17.772c0.197,2.767 0.314,6.087 0.349,9.961c0.002,3.646 -0.094,6.624 -0.288,8.936c-0.161,1.985 -0.958,2.751 -2.391,2.296c-2.279,-0.715 -3.354,-1.919 -3.225,-3.611c0.032,-0.554 0.309,-1.303 0.829,-2.247c0.455,-0.847 0.699,-1.595 0.731,-2.246c0.127,-4.33 0.027,-8.757 -0.302,-13.282c-0.394,-5.501 -0.967,-10.774 -1.719,-15.819c-0.032,-0.163 -0.13,-0.504 -0.293,-1.025c-6.054,1.111 -10.643,2.464 -13.767,4.061c-0.553,0.261 -1.009,0.75 -1.366,1.466c-0.456,0.814 -0.846,1.368 -1.171,1.661c-0.586,0.489 -1.334,0.668 -2.246,0.539c-0.879,-0.13 -1.652,-0.805 -2.321,-2.025c-0.668,-1.221 -0.79,-2.189 -0.368,-2.905c0.358,-0.587 0.83,-1.108 1.415,-1.564c3.254,-2.573 9.535,-4.758 18.844,-6.555c0.423,-0.684 1.122,-1.123 2.099,-1.319c0.944,-0.164 1.611,0.047 2.002,0.633c2.832,-0.457 5.615,-0.866 8.349,-1.226l7.47,-0.932c0.651,-0.098 1.383,-0.384 2.197,-0.856c0.813,-0.473 1.48,-0.742 2.001,-0.807c1.953,-0.294 3.158,0.893 3.616,3.562Z" style="fill:#fff;fill-rule:nonzero;"/><path d="M189.026,40.518c-0.423,0.554 -0.944,0.977 -1.562,1.27c0.065,0.293 0.098,0.57 0.098,0.83c0.001,1.628 -0.877,2.491 -2.635,2.59l-4.736,0.296c-1.4,0.098 -2.279,-0.65 -2.638,-2.245c-0.098,-0.358 -0.147,-0.683 -0.147,-0.976c-0.001,-1.074 0.487,-1.872 1.463,-2.393l6.492,-3.471c0.618,-0.326 1.253,-0.522 1.904,-0.588c0.651,-0.065 1.205,0.569 1.661,1.904c0.457,1.334 0.49,2.262 0.1,2.783Z" style="fill:#fff;fill-rule:nonzero;"/></g></g></svg>