<?xml version="1.0" encoding="UTF-8" standalone="no"?>
<!DOCTYPE svg PUBLIC "-//W3C//DTD SVG 1.1//EN" "http://www.w3.org/Graphics/SVG/1.1/DTD/svg11.dtd">
<svg width="100%" height="100%" viewBox="0 0 800 800" version="1.1" xmlns="http://www.w3.org/2000/svg" xmlns:xlink="http://www.w3.org/1999/xlink" xml:space="preserve" xmlns:serif="http://www.serif.com/" style="fill-rule:evenodd;clip-rule:evenodd;stroke-linejoin:round;stroke-miterlimit:1.41421;">
    <g>
        <g>
            <clipPath id="_clip1">
                <path d="M397.466,28.108C399.137,27.679 399.9,28.602 399.99,29.715C400.232,32.425 395.788,33.054 396.007,29.79C396.055,29.053 396.412,28.373 397.466,28.108Z"/>
            </clipPath>
            <g clip-path="url(#_clip1)">
                <rect x="386" y="18" width="24" height="24" style="fill:white;fill-opacity:0.403922;fill-rule:nonzero;"/>
            </g>
            <clipPath id="_clip2">
                <path d="M352.763,28.045C353.304,27.896 353.692,28.148 353.823,28.416C354.687,30.15 352.103,30.589 352.004,29.087C351.984,28.689 352.004,28.256 352.763,28.045Z"/>
            </clipPath>
            <g clip-path="url(#_clip2)">
                <rect x="342" y="18" width="22" height="22" style="fill:white;fill-opacity:0.403922;fill-rule:nonzero;"/>
            </g>
            <clipPath id="_clip3">
                <path d="M375.429,50.061C381.864,49.187 381.012,58.084 375.931,58C371.328,57.922 370.278,50.76 375.429,50.061Z"/>
            </clipPath>
            <g clip-path="url(#_clip3)">
                <rect x="362" y="40" width="28" height="28" style="fill:white;fill-opacity:0.403922;fill-rule:nonzero;"/>
            </g>
            <clipPath id="_clip4">
                <path d="M331.273,50.169C332.466,49.727 333.63,50.182 333.909,51.217C334.786,54.598 328.953,55.27 330.166,51.148C330.293,50.767 330.713,50.381 331.273,50.169Z"/>
            </clipPath>
            <g clip-path="url(#_clip4)">
                <rect x="320" y="40" width="24" height="24" style="fill:white;fill-opacity:0.403922;fill-rule:nonzero;"/>
            </g>
            <clipPath id="_clip5">
                <path d="M396.767,70.097C400.227,69.543 403.443,71.442 403.901,73.963C405.353,82.126 390.287,81.957 392.161,73.788C392.61,71.809 394.615,70.443 396.767,70.097Z"/>
            </clipPath>
            <g clip-path="url(#_clip5)">
                <rect x="382" y="60" width="32" height="30" style="fill:white;fill-opacity:0.403922;fill-rule:nonzero;"/>
            </g>
            <clipPath id="_clip6">
                <path d="M353.104,70.114C358.945,68.948 359.537,77.154 355,77.935C350.076,78.779 347.656,71.2 353.104,70.114Z"/>
            </clipPath>
            <g clip-path="url(#_clip6)">
                <rect x="340" y="60" width="28" height="28" style="fill:white;fill-opacity:0.403922;fill-rule:nonzero;"/>
            </g>
            <clipPath id="_clip7">
                <path d="M374.714,90.127C378.106,89.508 381.353,91.172 381.926,94.737C382.52,98.387 379.48,103.148 374.178,101.751C368.58,100.281 368.458,91.259 374.714,90.127Z"/>
            </clipPath>
            <g clip-path="url(#_clip7)">
                <rect x="360" y="80" width="32" height="32" style="fill:white;fill-opacity:0.403922;fill-rule:nonzero;"/>
            </g>
            <clipPath id="_clip8">
                <path d="M330.357,94.062C338.004,93.09 337.483,103.929 331.174,104C324.812,104.074 324.058,94.867 330.357,94.062Z"/>
            </clipPath>
            <g clip-path="url(#_clip8)">
                <rect x="316" y="84" width="30" height="30" style="fill:white;fill-opacity:0.403922;fill-rule:nonzero;"/>
            </g>
            <clipPath id="_clip9">
                <path d="M398.607,114.012C406.07,113.614 411.518,123.477 405.276,129.612C400.002,134.813 390.009,131.023 390,123.036C389.991,120.594 391.451,117.656 392.738,116.397C393.807,115.36 395.259,114.192 398.607,114.012Z"/>
            </clipPath>
            <g clip-path="url(#_clip9)">
                <rect x="380" y="104" width="38" height="38" style="fill:white;fill-opacity:0.403922;fill-rule:nonzero;"/>
            </g>
            <clipPath id="_clip10">
                <path d="M352.1,114.063C360.528,113.104 363.049,123.433 355.529,125.658C350.117,127.26 344.167,123.018 346.534,117.621C347.29,115.92 348.833,114.436 352.1,114.063Z"/>
            </clipPath>
            <g clip-path="url(#_clip10)">
                <rect x="336" y="104" width="34" height="32" style="fill:white;fill-opacity:0.403922;fill-rule:nonzero;"/>
            </g>
            <clipPath id="_clip11">
                <path d="M374.611,134.013C379.661,133.745 383.997,137.685 384,142.99C384.002,154.988 366.005,155.002 366,143.043C365.997,137.773 369.699,134.276 374.611,134.013Z"/>
            </clipPath>
            <g clip-path="url(#_clip11)">
                <rect x="356" y="124" width="38" height="38" style="fill:white;fill-opacity:0.403922;fill-rule:nonzero;"/>
            </g>
            <clipPath id="_clip12">
                <path d="M328.838,136.119C330.151,135.866 331.873,136.051 332.588,136.353C336.749,138.084 337.579,145.69 332.394,147.635C329.097,148.879 325.337,146.746 324.396,144.25C324.166,143.614 323.591,141.608 324.478,139.464C324.797,138.745 326.273,136.604 328.838,136.119Z"/>
            </clipPath>
            <g clip-path="url(#_clip12)">
                <rect x="314" y="126" width="32" height="32" style="fill:white;fill-opacity:0.403922;fill-rule:nonzero;"/>
            </g>
            <clipPath id="_clip13">
                <path d="M404.891,159.067C402.62,156.819 399.291,155.636 395.555,156.1C390.371,156.744 386.66,160.686 386.092,165.465C385.115,173.853 392.087,178.535 398.266,177.952C399.768,177.808 401.215,177.335 402.514,176.585L404.891,159.067Z"/>
            </clipPath>
            <g clip-path="url(#_clip13)">
                <rect x="376" y="146" width="38.891" height="42" style="fill:white;fill-opacity:0.403922;fill-rule:nonzero;"/>
            </g>
            <clipPath id="_clip14">
                <path d="M441.553,156.1C448.086,155.29 453.372,159.511 453.94,165.66C454.59,172.415 449.797,177.427 444.267,177.951C438.086,178.537 431.112,173.852 432.092,165.467C432.661,160.689 436.369,156.744 441.553,156.1Z"/>
            </clipPath>
            <g clip-path="url(#_clip14)">
                <rect x="422" y="146" width="42" height="42" style="fill:white;fill-opacity:0.403922;fill-rule:nonzero;"/>
            </g>
            <clipPath id="_clip15">
                <path d="M351.981,156.059C357.465,155.557 360.569,158.386 361.522,160.834C365.08,170.135 347.681,173.644 344.473,165.242C342.52,160.184 346.918,156.527 351.981,156.059Z"/>
            </clipPath>
            <g clip-path="url(#_clip15)">
                <rect x="334" y="146" width="38" height="34" style="fill:white;fill-opacity:0.403922;fill-rule:nonzero;"/>
            </g>
            <clipPath id="_clip16">
                <path d="M564.14,232.963C565.207,224.554 573.074,218.724 581.495,220.241C589.996,221.77 595.168,229.934 593.773,237.61C592.246,245.963 584.248,251.197 576.263,249.765C568.013,248.283 563.088,241.305 564.14,232.963Z"/>
            </clipPath>
            <g clip-path="url(#_clip16)">
                <rect x="554" y="210" width="50" height="50" style="fill:white;fill-opacity:0.403922;fill-rule:nonzero;"/>
            </g>
            <clipPath id="_clip17">
                <path d="M592.104,272.425C593.056,263.985 600.779,258.749 608.716,260.259C626.884,263.715 621.678,291.188 603.313,287.694C595.501,286.207 591.268,279.859 592.104,272.425Z"/>
            </clipPath>
            <g clip-path="url(#_clip17)">
                <rect x="582" y="250" width="48" height="48" style="fill:white;fill-opacity:0.403922;fill-rule:nonzero;"/>
            </g>
            <clipPath id="_clip18">
                <path d="M604.066,209.135C604.9,198.246 619.28,193.665 625.958,203.135C629.657,208.374 628.201,216.767 622.628,220.374C617.343,223.804 608.697,221.423 605.728,216.827C604.447,214.836 603.777,212.832 604.066,209.135Z"/>
            </clipPath>
            <g clip-path="url(#_clip18)">
                <rect x="594" y="188" width="44" height="44" style="fill:white;fill-opacity:0.403922;fill-rule:nonzero;"/>
            </g>
            <clipPath id="_clip19">
                <path d="M618.063,148.1C618.523,143.32 623.001,139.228 628.469,140.125C641.086,142.2 636.295,159.67 625.503,157.871C620.544,157.036 617.518,153.652 618.063,148.1Z"/>
            </clipPath>
            <g clip-path="url(#_clip19)">
                <rect x="608" y="130" width="38" height="38" style="fill:white;fill-opacity:0.403922;fill-rule:nonzero;"/>
            </g>
            <clipPath id="_clip20">
                <path d="M636.012,83.757C636.439,77.735 646.84,79.64 645.945,84.641C645.132,89.17 635.61,89.353 636.012,83.757Z"/>
            </clipPath>
            <g clip-path="url(#_clip20)">
                <rect x="626" y="70" width="30" height="28" style="fill:white;fill-opacity:0.403922;fill-rule:nonzero;"/>
            </g>
            <clipPath id="_clip21">
                <path d="M632.003,246.975C632.177,239.406 638.668,234.172 646.53,236.601C653.172,238.667 655.089,245.389 653.442,250.601C651.508,256.744 645.02,259.216 639.345,257.436C634.615,255.968 631.881,252.317 632.003,246.975Z"/>
            </clipPath>
            <g clip-path="url(#_clip21)">
                <rect x="622" y="226" width="42" height="42" style="fill:white;fill-opacity:0.403922;fill-rule:nonzero;"/>
            </g>
            <clipPath id="_clip22">
                <path d="M644.03,186.28C644.974,173.825 663.887,176.129 661.845,188.469C659.942,199.972 643.185,197.548 644.03,186.28Z"/>
            </clipPath>
            <g clip-path="url(#_clip22)">
                <rect x="634" y="168" width="38" height="38" style="fill:white;fill-opacity:0.403922;fill-rule:nonzero;"/>
            </g>
            <clipPath id="_clip23">
                <path d="M658.222,122.519C658.222,122.519 657.967,122.414 658.003,122.239C659.321,115.221 671.296,117.705 669.884,123.971C668.532,129.974 657.54,129.089 658.222,122.519Z"/>
            </clipPath>
            <g clip-path="url(#_clip23)">
                <rect x="648" y="108" width="32" height="30" style="fill:white;fill-opacity:0.403922;fill-rule:nonzero;"/>
            </g>
            <clipPath id="_clip24">
                <path d="M670.003,223.316C669.668,206.652 694.993,214.895 686.109,228.146C684.176,231.033 679.063,234.013 673.426,230.188C672.363,229.444 670.073,226.953 670.003,223.316Z"/>
            </clipPath>
            <g clip-path="url(#_clip24)">
                <rect x="660" y="204" width="38" height="38" style="fill:white;fill-opacity:0.403922;fill-rule:nonzero;"/>
            </g>
            <clipPath id="_clip25">
                <path d="M686.064,158.29C687.217,150.281 701.321,154.723 697.271,161.539C694.949,165.448 685.111,164.94 686.064,158.29Z"/>
            </clipPath>
            <g clip-path="url(#_clip25)">
                <rect x="676" y="144" width="32" height="30" style="fill:white;fill-opacity:0.403922;fill-rule:nonzero;"/>
            </g>
            <clipPath id="_clip26">
                <path d="M700.007,96.143C699.921,95.041 700.562,94.345 701.146,94.171C704.907,92.995 704.776,98.296 701.772,97.987C700.981,97.933 700.128,97.753 700.007,96.143Z"/>
            </clipPath>
            <g clip-path="url(#_clip26)">
                <rect x="690" y="84" width="24" height="24" style="fill:white;fill-opacity:0.403922;fill-rule:nonzero;"/>
            </g>
            <clipPath id="_clip27">
                <path d="M710.01,196.827C710.238,191.868 716.534,190.318 719.022,194.132C723.785,201.36 709.567,206.177 710.01,196.827Z"/>
            </clipPath>
            <g clip-path="url(#_clip27)">
                <rect x="700" y="182" width="30" height="30" style="fill:white;fill-opacity:0.403922;fill-rule:nonzero;"/>
            </g>
            <clipPath id="_clip28">
                <path d="M726.007,134.152C725.921,133.028 726.562,132.365 727.15,132.162C730.904,131.021 730.778,136.294 727.773,135.988C726.983,135.904 726.13,135.752 726.007,134.152Z"/>
            </clipPath>
            <g clip-path="url(#_clip28)">
                <rect x="716" y="122" width="24" height="24" style="fill:white;fill-opacity:0.403922;fill-rule:nonzero;"/>
            </g>
            <clipPath id="_clip29">
                <path d="M738.037,234.592C737.709,231.311 739.594,230.104 741.396,230.008C747.886,229.689 747.477,239.998 740.402,237.653C739.381,237.298 738.218,236.45 738.037,234.592Z"/>
            </clipPath>
            <g clip-path="url(#_clip29)">
                <rect x="728" y="220" width="28" height="28" style="fill:white;fill-opacity:0.403922;fill-rule:nonzero;"/>
            </g>
            <clipPath id="_clip30">
                <path d="M750.007,172.157C749.923,171.036 750.564,170.345 751.147,170.169C754.906,169.003 754.778,174.27 751.77,173.99C750.983,173.907 750.135,173.731 750.007,172.157Z"/>
            </clipPath>
            <g clip-path="url(#_clip30)">
                <rect x="740" y="160" width="24" height="24" style="fill:white;fill-opacity:0.403922;fill-rule:nonzero;"/>
            </g>
            <clipPath id="_clip31">
                <path d="M119.273,384.17C120.468,383.726 121.629,384.183 121.909,385.216C122.786,388.599 116.952,389.27 118.167,385.147C118.292,384.768 118.714,384.38 119.273,384.17Z"/>
            </clipPath>
            <g clip-path="url(#_clip31)">
                <rect x="108" y="374" width="24" height="24" style="fill:white;fill-opacity:0.403922;fill-rule:nonzero;"/>
            </g>
            <clipPath id="_clip32">
                <path d="M145.881,410.142C153.181,408.685 153.92,418.942 148.251,419.919C142.095,420.974 139.069,411.5 145.881,410.142Z"/>
            </clipPath>
            <g clip-path="url(#_clip32)">
                <rect x="132" y="400" width="30" height="30" style="fill:white;fill-opacity:0.403922;fill-rule:nonzero;"/>
            </g>
            <clipPath id="_clip33">
                <path d="M91.279,410.171C92.46,409.726 93.646,410.179 93.909,411.218C94.79,414.597 88.948,415.27 90.168,411.148C90.274,410.767 90.718,410.381 91.279,410.171Z"/>
            </clipPath>
            <g clip-path="url(#_clip33)">
                <rect x="80" y="400" width="24" height="24" style="fill:white;fill-opacity:0.403922;fill-rule:nonzero;"/>
            </g>
            <clipPath id="_clip34">
                <path d="M121.227,438.074C130.406,436.909 129.78,449.915 122.206,450C114.575,450.088 113.671,439.039 121.227,438.074Z"/>
            </clipPath>
            <g clip-path="url(#_clip34)">
                <rect x="106" y="428" width="32" height="32" style="fill:white;fill-opacity:0.403922;fill-rule:nonzero;"/>
            </g>
            <clipPath id="_clip35">
                <path d="M61.582,440.098C62.917,439.734 63.927,440.411 63.993,441.796C64.242,447.075 56.858,441.381 61.582,440.098Z"/>
            </clipPath>
            <g clip-path="url(#_clip35)">
                <rect x="50" y="430" width="24" height="24" style="fill:white;fill-opacity:0.403922;fill-rule:nonzero;"/>
            </g>
            <clipPath id="_clip36">
                <path d="M147.842,464.094C158.679,462.656 161.92,478.152 152.249,481.486C145.292,483.89 137.643,477.527 140.686,469.429C141.656,466.878 143.64,464.654 147.842,464.094Z"/>
            </clipPath>
            <g clip-path="url(#_clip36)">
                <rect x="130" y="454" width="38" height="38" style="fill:white;fill-opacity:0.403922;fill-rule:nonzero;"/>
            </g>
            <clipPath id="_clip37">
                <path d="M89.86,466.158C98.288,464.428 97.855,477.57 89.689,475.844C85.564,474.97 83.969,467.36 89.86,466.158Z"/>
            </clipPath>
            <g clip-path="url(#_clip37)">
                <rect x="76" y="456" width="30" height="30" style="fill:white;fill-opacity:0.403922;fill-rule:nonzero;"/>
            </g>
            <clipPath id="_clip38">
                <path d="M33.529,468.089C34.617,467.793 35.367,468.293 35.656,468.831C37.36,472.302 32.179,473.178 32.01,470.172C31.967,469.382 31.981,468.512 33.529,468.089Z"/>
            </clipPath>
            <g clip-path="url(#_clip38)">
                <rect x="22" y="458" width="24" height="24" style="fill:white;fill-opacity:0.403922;fill-rule:nonzero;"/>
            </g>
            <clipPath id="_clip39">
                <path d="M115.643,490.137C117.176,489.846 119.184,490.059 120.019,490.412C124.874,492.431 125.842,501.308 119.792,503.574C115.948,505.026 111.557,502.538 110.462,499.628C110.195,498.883 109.521,496.544 110.558,494.041C110.929,493.204 112.651,490.706 115.643,490.137Z"/>
            </clipPath>
            <g clip-path="url(#_clip39)">
                <rect x="100" y="480" width="34" height="34" style="fill:white;fill-opacity:0.403922;fill-rule:nonzero;"/>
            </g>
            <clipPath id="_clip40">
                <path d="M61.382,496.055C67.302,495.241 67.514,503.883 62.108,503.999C57.51,504.102 56.106,496.779 61.382,496.055Z"/>
            </clipPath>
            <g clip-path="url(#_clip40)">
                <rect x="48" y="486" width="28" height="28" style="fill:white;fill-opacity:0.403922;fill-rule:nonzero;"/>
            </g>
            <clipPath id="_clip41">
                <path d="M146.868,518.084C152.958,517.365 156.409,521.406 157.47,524.906C161.422,538.19 142.09,543.206 138.526,531.204C136.356,523.978 141.239,518.753 146.868,518.084Z"/>
            </clipPath>
            <g clip-path="url(#_clip41)">
                <rect x="128" y="508" width="40" height="40" style="fill:white;fill-opacity:0.403922;fill-rule:nonzero;"/>
            </g>
            <clipPath id="_clip42">
                <path d="M86.695,520.141C90.711,519.282 94.892,522.43 93.833,527.563C92.385,534.469 80.372,533.229 82.186,524.441C82.546,522.772 83.837,520.754 86.695,520.141Z"/>
            </clipPath>
            <g clip-path="url(#_clip42)">
                <rect x="72" y="510" width="32" height="32" style="fill:white;fill-opacity:0.403922;fill-rule:nonzero;"/>
            </g>
            <clipPath id="_clip43">
                <path d="M31.581,524.096C32.919,523.736 33.927,524.416 33.993,525.798C34.242,531.073 26.858,525.383 31.581,524.096Z"/>
            </clipPath>
            <g clip-path="url(#_clip43)">
                <rect x="20" y="514" width="24" height="24" style="fill:white;fill-opacity:0.403922;fill-rule:nonzero;"/>
            </g>
            <clipPath id="_clip44">
                <path d="M427.58,530.097C428.918,529.735 429.925,530.412 429.993,531.795C430.239,537.076 422.86,531.38 427.58,530.097Z"/>
            </clipPath>
            <g clip-path="url(#_clip44)">
                <rect x="416" y="520" width="24" height="24" style="fill:white;fill-opacity:0.403922;fill-rule:nonzero;"/>
            </g>
            <clipPath id="_clip45">
                <path d="M214.681,554.212C214.263,555.591 214.029,557.076 214.002,558.644C213.859,566.947 220.124,573.849 228.74,573.998C236.27,574.127 243.84,568.387 243.997,559.163C244.146,550.362 237.056,543.536 228.309,544.025C225.325,544.19 222.656,545.061 220.454,546.491L214.681,554.212Z"/>
            </clipPath>
            <g clip-path="url(#_clip45)">
                <rect x="204" y="534" width="50" height="50" style="fill:white;fill-opacity:0.403922;fill-rule:nonzero;"/>
            </g>
            <clipPath id="_clip46">
                <path d="M184.955,552.707C184.928,552.649 184.901,552.591 184.873,552.532C182.826,548.243 178.47,545.258 172.068,546.163C167.314,546.843 164.292,550.515 163.428,552.164C159.591,559.541 164.245,566.315 168.422,568.493C170.989,569.839 173.488,570.218 175.757,569.889L184.955,552.707Z"/>
            </clipPath>
            <g clip-path="url(#_clip46)">
                <rect x="152" y="536" width="42.955" height="44" style="fill:white;fill-opacity:0.403922;fill-rule:nonzero;"/>
            </g>
            <clipPath id="_clip47">
                <path d="M290.952,548.858C293.679,549.956 295.672,552.018 296.884,554.529C301.381,563.957 291.552,576.34 280.417,570.49C280.293,570.425 280.168,570.357 280.044,570.284L290.952,548.858Z"/>
            </clipPath>
            <g clip-path="url(#_clip47)">
                <rect x="270.044" y="538.858" width="37.956" height="43.142" style="fill:white;fill-opacity:0.403922;fill-rule:nonzero;"/>
            </g>
            <clipPath id="_clip48">
                <path d="M117.05,548.185C123.359,547.005 129.277,551.571 127.759,559.31C125.853,569.041 111.472,567.477 110.136,558.998C109.311,553.65 112.311,549.069 117.05,548.185Z"/>
            </clipPath>
            <g clip-path="url(#_clip48)">
                <rect x="100" y="538" width="38" height="38" style="fill:white;fill-opacity:0.403922;fill-rule:nonzero;"/>
            </g>
            <clipPath id="_clip49">
                <path d="M341.021,550.185C347.331,549.005 353.278,553.57 351.76,561.309C349.825,571.042 335.443,569.475 334.136,561C333.311,555.653 336.311,551.075 341.021,550.185Z"/>
            </clipPath>
            <g clip-path="url(#_clip49)">
                <rect x="324" y="540" width="38" height="38" style="fill:white;fill-opacity:0.403922;fill-rule:nonzero;"/>
            </g>
            <clipPath id="_clip50">
                <path d="M62.351,550.043C67.202,549.438 69.812,555.387 66.552,558.482C60.373,564.401 53.205,551.183 62.351,550.043Z"/>
            </clipPath>
            <g clip-path="url(#_clip50)">
                <rect x="48" y="540" width="30" height="30" style="fill:white;fill-opacity:0.403922;fill-rule:nonzero;"/>
            </g>
            <clipPath id="_clip51">
                <path d="M398.355,556.044C403.202,555.435 405.811,561.39 402.552,564.48C396.35,570.405 389.215,557.181 398.355,556.044Z"/>
            </clipPath>
            <g clip-path="url(#_clip51)">
                <rect x="384" y="546" width="30" height="30" style="fill:white;fill-opacity:0.403922;fill-rule:nonzero;"/>
            </g>
            <clipPath id="_clip52">
                <path d="M190.334,586.777C191.587,591.958 196.223,595.969 201.992,596C208.234,596.029 213.96,590.815 213.999,583.906C214.036,577.059 208.359,571.677 201.582,572.016C201.508,572.019 201.435,572.023 201.361,572.028L190.334,586.777Z"/>
            </clipPath>
            <g clip-path="url(#_clip52)">
                <rect x="180.334" y="562" width="43.666" height="44" style="fill:white;fill-opacity:0.403922;fill-rule:nonzero;"/>
            </g>
            <clipPath id="_clip53">
                <path d="M145.5,576.019C153.17,575.55 158.516,584.016 154.78,591.025C150.457,599.224 135.814,597.136 136.001,585.899C136.088,580.693 139.496,576.382 145.5,576.019Z"/>
            </clipPath>
            <g clip-path="url(#_clip53)">
                <rect x="126" y="566" width="40" height="40" style="fill:white;fill-opacity:0.403922;fill-rule:nonzero;"/>
            </g>
            <clipPath id="_clip54">
                <path d="M313.494,578.019C321.159,577.558 326.501,586.015 322.796,593.027C318.447,601.222 303.814,599.135 304.001,587.903C304.088,582.699 307.494,578.381 313.494,578.019Z"/>
            </clipPath>
            <g clip-path="url(#_clip54)">
                <rect x="294" y="568" width="40" height="40" style="fill:white;fill-opacity:0.403922;fill-rule:nonzero;"/>
            </g>
            <clipPath id="_clip55">
                <path d="M87.511,578.032C95.615,577.289 96.462,589.91 88.152,590C80.553,590.079 79.599,578.754 87.511,578.032Z"/>
            </clipPath>
            <g clip-path="url(#_clip55)">
                <rect x="72" y="568" width="32" height="32" style="fill:white;fill-opacity:0.403922;fill-rule:nonzero;"/>
            </g>
            <clipPath id="_clip56">
                <path d="M369.488,582.032C377.618,581.286 378.465,593.913 370.153,594C362.555,594.085 361.605,582.754 369.488,582.032Z"/>
            </clipPath>
            <g clip-path="url(#_clip56)">
                <rect x="354" y="572" width="32" height="32" style="fill:white;fill-opacity:0.403922;fill-rule:nonzero;"/>
            </g>
            <clipPath id="_clip57">
                <path d="M31.576,580.096C32.915,579.736 33.927,580.415 33.993,581.797C34.242,587.073 26.863,581.384 31.576,580.096Z"/>
            </clipPath>
            <g clip-path="url(#_clip57)">
                <rect x="20" y="570" width="24" height="24" style="fill:white;fill-opacity:0.403922;fill-rule:nonzero;"/>
            </g>
            <clipPath id="_clip58">
                <path d="M425.582,588.096C426.919,587.735 427.927,588.416 427.993,589.796C428.242,595.074 420.858,589.383 425.582,588.096Z"/>
            </clipPath>
            <g clip-path="url(#_clip58)">
                <rect x="414" y="578" width="24" height="24" style="fill:white;fill-opacity:0.403922;fill-rule:nonzero;"/>
            </g>
            <clipPath id="_clip59">
                <path d="M229.28,602.026C236.559,601.591 242.115,606.851 241.998,613.213C241.732,627.772 217.733,627.545 218.002,612.83C218.116,606.571 222.867,602.409 229.28,602.026Z"/>
            </clipPath>
            <g clip-path="url(#_clip59)">
                <rect x="208" y="592" width="44" height="42" style="fill:white;fill-opacity:0.403922;fill-rule:nonzero;"/>
            </g>
            <clipPath id="_clip60">
                <path d="M174.522,602.346C173.399,602.039 172.184,601.926 170.906,602.05C167.856,602.346 166.309,603.186 164.859,604.526C161.486,607.631 160.81,615.08 164.391,618.928C164.653,619.21 164.931,619.472 165.223,619.715L174.522,602.346ZM177.605,603.803C182.287,607.11 183.925,614.257 179.034,619.18C175.616,622.623 169.458,622.952 165.527,619.957L177.605,603.803Z"/>
            </clipPath>
            <g clip-path="url(#_clip60)">
                <rect x="152" y="592" width="40" height="40" style="fill:white;fill-opacity:0.403922;fill-rule:nonzero;"/>
            </g>
            <clipPath id="_clip61">
                <path d="M282.929,606.05C291.999,605.166 297.843,616.325 291.031,623.178C287.26,626.977 280.155,626.988 276.381,622.928C272.8,619.08 273.504,611.631 276.849,608.526C278.3,607.186 279.851,606.346 282.929,606.05Z"/>
            </clipPath>
            <g clip-path="url(#_clip61)">
                <rect x="264" y="596" width="40" height="40" style="fill:white;fill-opacity:0.403922;fill-rule:nonzero;"/>
            </g>
            <clipPath id="_clip62">
                <path d="M116.488,606.023C120.241,605.718 123.966,608.599 123.999,612.936C124.044,622.95 110.042,621.686 110,613.113C109.961,609.173 112.183,606.373 116.488,606.023Z"/>
            </clipPath>
            <g clip-path="url(#_clip62)">
                <rect x="100" y="596" width="34" height="34" style="fill:white;fill-opacity:0.403922;fill-rule:nonzero;"/>
            </g>
            <clipPath id="_clip63">
                <path d="M340.511,608.023C344.238,607.716 347.966,610.596 347.999,614.938C348.067,624.95 334.039,623.684 334,615.115C333.987,611.176 336.182,608.376 340.511,608.023Z"/>
            </clipPath>
            <g clip-path="url(#_clip63)">
                <rect x="324" y="598" width="34" height="34" style="fill:white;fill-opacity:0.403922;fill-rule:nonzero;"/>
            </g>
            <clipPath id="_clip64">
                <path d="M61.842,608.011C66.8,607.664 67.818,615.852 62.174,615.999C57.064,616.136 56.291,608.392 61.842,608.011Z"/>
            </clipPath>
            <g clip-path="url(#_clip64)">
                <rect x="48" y="598" width="28" height="28" style="fill:white;fill-opacity:0.403922;fill-rule:nonzero;"/>
            </g>
            <clipPath id="_clip65">
                <path d="M397.577,612.038C403.578,611.365 403.186,619.867 398.125,619.999C393.541,620.122 391.996,612.66 397.577,612.038Z"/>
            </clipPath>
            <g clip-path="url(#_clip65)">
                <rect x="384" y="602" width="28" height="28" style="fill:white;fill-opacity:0.403922;fill-rule:nonzero;"/>
            </g>
            <clipPath id="_clip66">
                <path d="M200.326,632.139C207.137,631.093 212.845,636.074 211.896,643.504C211.083,649.775 205.358,652.554 200.431,651.909C194.618,651.156 191.388,645.738 192.096,640.372C192.673,635.904 195.518,632.884 200.326,632.139Z"/>
            </clipPath>
            <g clip-path="url(#_clip66)">
                <rect x="182" y="622" width="40" height="40" style="fill:white;fill-opacity:0.403922;fill-rule:nonzero;"/>
            </g>
            <clipPath id="_clip67">
                <path d="M256.324,632.139C263.137,631.093 268.845,636.074 267.896,643.5C267.083,649.774 261.36,652.557 256.429,651.909C250.619,651.152 247.386,645.734 248.097,640.372C248.67,635.904 251.516,632.878 256.324,632.139Z"/>
            </clipPath>
            <g clip-path="url(#_clip67)">
                <rect x="238" y="622" width="40" height="40" style="fill:white;fill-opacity:0.403922;fill-rule:nonzero;"/>
            </g>
            <clipPath id="_clip68">
                <path d="M144.31,632.042C153.991,631.117 154.839,645.942 145.092,646C136.003,646.054 135.549,632.878 144.31,632.042Z"/>
            </clipPath>
            <g clip-path="url(#_clip68)">
                <rect x="128" y="622" width="34" height="34" style="fill:white;fill-opacity:0.403922;fill-rule:nonzero;"/>
            </g>
            <clipPath id="_clip69">
                <path d="M312.31,636.041C321.991,635.124 322.839,649.942 313.092,650C304.003,650.056 303.549,636.88 312.31,636.041Z"/>
            </clipPath>
            <g clip-path="url(#_clip69)">
                <rect x="296" y="626" width="34" height="34" style="fill:white;fill-opacity:0.403922;fill-rule:nonzero;"/>
            </g>
            <clipPath id="_clip70">
                <path d="M86.361,636.044C91.215,635.432 93.796,641.386 90.564,644.482C84.353,650.402 77.208,637.181 86.361,636.044Z"/>
            </clipPath>
            <g clip-path="url(#_clip70)">
                <rect x="72" y="626" width="30" height="30" style="fill:white;fill-opacity:0.403922;fill-rule:nonzero;"/>
            </g>
            <clipPath id="_clip71">
                <path d="M368.635,640.227C368.635,640.227 368.701,640.001 368.883,640.001C376.024,639.904 375.359,650.106 368.945,650C362.8,649.897 362.028,640.769 368.635,640.227Z"/>
            </clipPath>
            <g clip-path="url(#_clip71)">
                <rect x="354" y="630" width="30" height="30" style="fill:white;fill-opacity:0.403922;fill-rule:nonzero;"/>
            </g>
            <clipPath id="_clip72">
                <path d="M232.964,662.752C235.471,663.81 237.367,665.966 237.89,669.106C238.778,674.587 234.19,681.722 226.247,679.626C225.686,679.477 225.161,679.278 224.674,679.035L232.964,662.752ZM221.744,676.522C218.416,671.887 219.781,663.979 226.428,662.322L221.744,676.522Z"/>
            </clipPath>
            <g clip-path="url(#_clip72)">
                <rect x="210" y="652.322" width="38" height="37.678" style="fill:white;fill-opacity:0.403922;fill-rule:nonzero;"/>
            </g>
            <clipPath id="_clip73">
                <path d="M169.591,662.21C182.393,659.725 179.522,680.241 168.068,675.2C165.575,674.108 162.57,670.587 164.755,665.756C165.184,664.838 166.794,662.748 169.591,662.21Z"/>
            </clipPath>
            <g clip-path="url(#_clip73)">
                <rect x="154" y="652" width="34" height="34" style="fill:white;fill-opacity:0.403922;fill-rule:nonzero;"/>
            </g>
            <clipPath id="_clip74">
                <path d="M283.588,666.21C296.404,663.724 293.511,684.24 282.064,679.2C279.572,678.108 276.573,674.586 278.753,669.751C279.182,668.836 280.791,666.751 283.588,666.21Z"/>
            </clipPath>
            <g clip-path="url(#_clip74)">
                <rect x="268" y="656" width="34" height="34" style="fill:white;fill-opacity:0.403922;fill-rule:nonzero;"/>
            </g>
            <clipPath id="_clip75">
                <path d="M114.889,662.01C122.99,661.608 120.696,673.92 113.341,671.742C109.129,670.498 108.133,662.348 114.889,662.01Z"/>
            </clipPath>
            <g clip-path="url(#_clip75)">
                <rect x="100" y="652" width="30" height="30" style="fill:white;fill-opacity:0.403922;fill-rule:nonzero;"/>
            </g>
            <clipPath id="_clip76">
                <path d="M340.883,668.01C348.992,667.608 346.698,679.918 339.336,677.743C335.116,676.498 334.151,668.346 340.883,668.01Z"/>
            </clipPath>
            <g clip-path="url(#_clip76)">
                <rect x="326" y="658" width="30" height="30" style="fill:white;fill-opacity:0.403922;fill-rule:nonzero;"/>
            </g>
            <clipPath id="_clip77">
                <path d="M59.536,666.087C60.601,665.795 61.381,666.291 61.645,666.833C63.383,670.302 58.18,671.177 58.01,668.172C57.967,667.38 57.981,666.516 59.536,666.087Z"/>
            </clipPath>
            <g clip-path="url(#_clip77)">
                <rect x="48" y="656" width="24" height="24" style="fill:white;fill-opacity:0.403922;fill-rule:nonzero;"/>
            </g>
            <clipPath id="_clip78">
                <path d="M397.541,672.089C398.604,671.793 399.382,672.293 399.646,672.832C401.38,676.304 396.188,677.177 396.019,674.17C395.949,673.382 395.989,672.509 397.541,672.089Z"/>
            </clipPath>
            <g clip-path="url(#_clip78)">
                <rect x="386" y="662" width="24" height="24" style="fill:white;fill-opacity:0.403922;fill-rule:nonzero;"/>
            </g>
            <clipPath id="_clip79">
                <path d="M198.58,692.204C209.392,689.97 207.774,706.952 197.691,703.548C193.496,702.133 191.762,693.618 198.58,692.204Z"/>
            </clipPath>
            <g clip-path="url(#_clip79)">
                <rect x="184" y="682" width="32" height="32" style="fill:white;fill-opacity:0.403922;fill-rule:nonzero;"/>
            </g>
            <clipPath id="_clip80">
                <path d="M254.58,692.204C265.392,689.97 263.774,706.955 253.691,703.547C249.496,702.132 247.762,693.616 254.58,692.204Z"/>
            </clipPath>
            <g clip-path="url(#_clip80)">
                <rect x="240" y="682" width="32" height="32" style="fill:white;fill-opacity:0.403922;fill-rule:nonzero;"/>
            </g>
            <clipPath id="_clip81">
                <path d="M144.355,692.043C149.202,691.438 151.811,697.391 148.553,700.481C142.35,706.404 135.215,693.183 144.355,692.043Z"/>
            </clipPath>
            <g clip-path="url(#_clip81)">
                <rect x="130" y="682" width="30" height="30" style="fill:white;fill-opacity:0.403922;fill-rule:nonzero;"/>
            </g>
            <clipPath id="_clip82">
                <path d="M310.351,696.044C315.202,695.435 317.812,701.388 314.551,704.483C308.375,710.4 301.204,697.18 310.351,696.044Z"/>
            </clipPath>
            <g clip-path="url(#_clip82)">
                <rect x="296" y="686" width="30" height="30" style="fill:white;fill-opacity:0.403922;fill-rule:nonzero;"/>
            </g>
            <clipPath id="_clip83">
                <path d="M87.526,696.089C88.612,695.793 89.387,696.292 89.646,696.833C91.376,700.3 86.206,701.178 86.008,698.172C85.968,697.38 86.008,696.517 87.526,696.089Z"/>
            </clipPath>
            <g clip-path="url(#_clip83)">
                <rect x="76" y="686" width="24" height="24" style="fill:white;fill-opacity:0.403922;fill-rule:nonzero;"/>
            </g>
            <clipPath id="_clip84">
                <path d="M367.529,700.089C368.617,699.791 369.367,700.296 369.656,700.834C371.36,704.3 366.179,705.178 366.01,702.173C365.967,701.381 365.981,700.515 367.529,700.089Z"/>
            </clipPath>
            <g clip-path="url(#_clip84)">
                <rect x="356" y="690" width="24" height="24" style="fill:white;fill-opacity:0.403922;fill-rule:nonzero;"/>
            </g>
            <clipPath id="_clip85">
                <path d="M227.371,722.055C233.317,721.236 233.499,729.881 228.121,729.999C223.495,730.099 222.119,722.774 227.371,722.055Z"/>
            </clipPath>
            <g clip-path="url(#_clip85)">
                <rect x="214" y="712" width="28" height="28" style="fill:white;fill-opacity:0.403922;fill-rule:nonzero;"/>
            </g>
            <clipPath id="_clip86">
                <path d="M170.706,722.258C173.918,721.358 175.474,722.972 175.873,724.711C177.25,730.951 166.943,732.386 168.089,725.098C168.239,724.043 168.918,722.77 170.706,722.258Z"/>
            </clipPath>
            <g clip-path="url(#_clip86)">
                <rect x="158" y="712" width="28" height="28" style="fill:white;fill-opacity:0.403922;fill-rule:nonzero;"/>
            </g>
            <clipPath id="_clip87">
                <path d="M282.736,726.258C285.949,725.358 287.469,726.973 287.867,728.707C289.279,734.951 278.944,736.387 280.088,729.1C280.271,728.042 280.917,726.764 282.736,726.258Z"/>
            </clipPath>
            <g clip-path="url(#_clip87)">
                <rect x="270" y="716" width="28" height="28" style="fill:white;fill-opacity:0.403922;fill-rule:nonzero;"/>
            </g>
            <clipPath id="_clip88">
                <path d="M113.532,722.087C114.617,721.794 115.367,722.292 115.656,722.833C117.36,726.299 112.179,727.181 112.01,724.168C111.967,723.375 111.981,722.511 113.532,722.087Z"/>
            </clipPath>
            <g clip-path="url(#_clip88)">
                <rect x="102" y="712" width="24" height="24" style="fill:white;fill-opacity:0.403922;fill-rule:nonzero;"/>
            </g>
            <clipPath id="_clip89">
                <path d="M341.525,728.089C342.61,727.793 343.385,728.29 343.647,728.832C345.374,732.302 340.204,733.178 340.009,730.169C339.966,729.379 340.006,728.515 341.525,728.089Z"/>
            </clipPath>
            <g clip-path="url(#_clip89)">
                <rect x="330" y="718" width="24" height="24" style="fill:white;fill-opacity:0.403922;fill-rule:nonzero;"/>
            </g>
            <clipPath id="_clip90">
                <path d="M199.542,752.09C200.605,751.792 201.384,752.288 201.644,752.836C203.382,756.302 198.188,757.177 198.019,754.172C197.949,753.383 197.989,752.513 199.542,752.09Z"/>
            </clipPath>
            <g clip-path="url(#_clip90)">
                <rect x="188" y="742" width="24" height="24" style="fill:white;fill-opacity:0.403922;fill-rule:nonzero;"/>
            </g>
            <clipPath id="_clip91">
                <path d="M253.536,756.089C254.601,755.793 255.381,756.293 255.645,756.831C257.383,760.303 252.18,761.178 252.01,758.17C251.967,757.384 251.981,756.511 253.536,756.089Z"/>
            </clipPath>
            <g clip-path="url(#_clip91)">
                <rect x="242" y="746" width="24" height="24" style="fill:white;fill-opacity:0.403922;fill-rule:nonzero;"/>
            </g>
            <clipPath id="_clip92">
                <path d="M620.035,436.045C628.199,435.25 633.458,445.293 627.328,451.461C623.936,454.877 617.541,454.89 614.145,451.236C610.92,447.773 611.553,441.067 614.565,438.272C615.871,437.068 617.266,436.31 620.035,436.045Z"/>
            </clipPath>
            <g clip-path="url(#_clip92)">
                <rect x="602" y="426" width="38" height="38" style="fill:white;fill-opacity:0.403922;fill-rule:nonzero;"/>
            </g>
            <clipPath id="_clip93">
                <path d="M665.582,440.02C668.775,439.757 671.971,442.225 671.999,445.946C672.058,454.53 660.033,453.443 660,446.099C659.988,442.723 661.87,440.32 665.582,440.02Z"/>
            </clipPath>
            <g clip-path="url(#_clip93)">
                <rect x="650" y="430" width="32" height="32" style="fill:white;fill-opacity:0.403922;fill-rule:nonzero;"/>
            </g>
            <clipPath id="_clip94">
                <path d="M707.788,442.038C710.788,441.366 710.594,449.865 708.061,449.999C705.771,450.122 704.998,442.664 707.788,442.038Z"/>
            </clipPath>
            <g clip-path="url(#_clip94)">
                <rect x="696" y="432" width="24" height="28" style="fill:white;fill-opacity:0.403922;fill-rule:nonzero;"/>
            </g>
            <clipPath id="_clip95">
                <path d="M595.828,460.098C600.597,459.365 604.593,462.851 603.927,468.048C603.358,472.439 599.351,474.39 595.9,473.936C591.835,473.405 589.573,469.613 590.067,465.859C590.471,462.732 592.462,460.613 595.828,460.098Z"/>
            </clipPath>
            <g clip-path="url(#_clip95)">
                <rect x="580" y="450" width="34" height="34" style="fill:white;fill-opacity:0.403922;fill-rule:nonzero;"/>
            </g>
            <clipPath id="_clip96">
                <path d="M639.408,462.035C647.708,461.25 648.433,473.951 640.079,474C632.287,474.05 631.901,462.755 639.408,462.035Z"/>
            </clipPath>
            <g clip-path="url(#_clip96)">
                <rect x="624" y="452" width="32" height="32" style="fill:white;fill-opacity:0.403922;fill-rule:nonzero;"/>
            </g>
            <clipPath id="_clip97">
                <path d="M685.71,464.18C685.71,464.18 685.761,464.001 685.906,464.001C691.618,463.923 691.088,472.084 685.954,472C681.04,471.919 680.422,464.614 685.71,464.18Z"/>
            </clipPath>
            <g clip-path="url(#_clip97)">
                <rect x="672" y="454" width="28" height="28" style="fill:white;fill-opacity:0.403922;fill-rule:nonzero;"/>
            </g>
            <clipPath id="_clip98">
                <path d="M616.788,484.18C627.775,482.05 625.295,499.634 615.484,495.315C613.347,494.377 610.775,491.359 612.647,487.216C613.013,486.431 614.394,484.643 616.788,484.18Z"/>
            </clipPath>
            <g clip-path="url(#_clip98)">
                <rect x="602" y="474" width="32" height="32" style="fill:white;fill-opacity:0.403922;fill-rule:nonzero;"/>
            </g>
            <clipPath id="_clip99">
                <path d="M663.907,486.008C670.394,485.686 668.557,495.533 662.669,493.794C659.294,492.798 658.519,486.279 663.907,486.008Z"/>
            </clipPath>
            <g clip-path="url(#_clip99)">
                <rect x="650" y="476" width="28" height="28" style="fill:white;fill-opacity:0.403922;fill-rule:nonzero;"/>
            </g>
            <clipPath id="_clip100">
                <path d="M706.77,488.044C707.302,487.897 707.69,488.147 707.822,488.418C708.69,490.152 706.094,490.589 706.009,489.084C705.974,488.692 705.994,488.255 706.77,488.044Z"/>
            </clipPath>
            <g clip-path="url(#_clip100)">
                <rect x="696" y="478" width="22" height="22" style="fill:white;fill-opacity:0.403922;fill-rule:nonzero;"/>
            </g>
            <clipPath id="_clip101">
                <path d="M639.48,508.035C643.362,507.548 645.449,512.308 642.841,514.786C637.901,519.522 632.163,508.945 639.48,508.035Z"/>
            </clipPath>
            <g clip-path="url(#_clip101)">
                <rect x="626" y="498" width="28" height="28" style="fill:white;fill-opacity:0.403922;fill-rule:nonzero;"/>
            </g>
            <clipPath id="_clip102">
                <path d="M684.765,512.045C685.308,511.896 685.683,512.148 685.827,512.418C686.681,514.15 684.089,514.59 684.004,513.086C683.984,512.691 683.991,512.258 684.765,512.045Z"/>
            </clipPath>
            <g clip-path="url(#_clip102)">
                <rect x="674" y="502" width="22" height="22" style="fill:white;fill-opacity:0.403922;fill-rule:nonzero;"/>
            </g>
            <clipPath id="_clip103">
                <path d="M615.368,532.13C616.974,531.679 617.733,532.487 617.933,533.353C618.639,536.476 613.472,537.194 614.044,533.55C614.134,533.021 614.458,532.382 615.368,532.13Z"/>
            </clipPath>
            <g clip-path="url(#_clip103)">
                <rect x="604" y="522" width="24" height="24" style="fill:white;fill-opacity:0.403922;fill-rule:nonzero;"/>
            </g>
            <clipPath id="_clip104">
                <path d="M662.763,534.045C663.304,533.896 663.692,534.146 663.823,534.417C664.687,536.152 662.103,536.589 662.004,535.085C661.984,534.691 662.004,534.258 662.763,534.045Z"/>
            </clipPath>
            <g clip-path="url(#_clip104)">
                <rect x="652" y="524" width="22" height="22" style="fill:white;fill-opacity:0.403922;fill-rule:nonzero;"/>
            </g>
            <clipPath id="_clip105">
                <path d="M686.403,332L689,316.805L678,306.043L693.2,303.826L700,290L706.799,303.826L722,306.043L711,316.805L713.598,332L700,324.825L686.403,332Z"/>
            </clipPath>
            <g clip-path="url(#_clip105)">
                <rect x="668" y="280" width="64" height="62" style="fill:white;fill-opacity:0.403922;fill-rule:nonzero;"/>
            </g>
            <clipPath id="_clip106">
                <path d="M512.403,604L515,588.804L504,578.044L519.2,575.824L526,562L532.799,575.824L548,578.044L537,588.804L539.596,604L526,596.827L512.403,604Z"/>
            </clipPath>
            <g clip-path="url(#_clip106)">
                <rect x="494" y="552" width="64" height="62" style="fill:white;fill-opacity:0.403922;fill-rule:nonzero;"/>
            </g>
            <clipPath id="_clip107">
                <path d="M134,256L128.175,235.671L108,228.908L125.683,217.133L125.93,196L142.683,209.049L163.012,202.752L155.683,222.594L168,239.834L146.717,239.048L134,256Z"/>
            </clipPath>
            <g clip-path="url(#_clip107)">
                <rect x="98" y="186" width="80" height="80" style="fill:white;fill-opacity:0.403922;fill-rule:nonzero;"/>
            </g>
        </g>
        <path d="M214.145,285.098C204.641,293.165 195.786,301.514 187.63,310.068L162.706,293.012C189.094,253.831 224.678,216.058 268.093,183.343C317.496,146.115 370.398,120.439 421.078,106.767L423.148,191.225L423.147,191.225L423.797,217.732C443.319,215.561 462.082,215.443 479.561,217.313L505.593,190.454C483.277,187.386 459.01,187.178 433.635,189.928L425.235,105.672C515.73,82.374 598.602,97.581 641.03,153.884C689.102,217.678 672.148,316.84 606.95,406.519C604.723,405.965 602.326,405.347 599.759,404.664L598.781,404.403C631.365,356.129 641.714,305.039 622.03,262.941C608.218,233.405 581.486,212.278 546.7,200.136L584,140L562.374,164.799L521.079,221.772L521.079,221.772L518.401,225.467C532.164,230.003 544.518,236.147 555.066,243.852C553.012,246.956 551.086,249.955 549.288,252.848C546.841,256.786 543.612,262.113 539.602,268.828C535.591,275.543 532.108,281.35 529.152,286.248C526.196,291.147 522.76,296.749 518.842,303.056L518.601,302.943C519.853,299.106 521.14,294.382 522.462,288.771C523.785,283.159 525.057,277.799 526.279,272.69C527.501,267.582 528.908,262.547 530.501,257.587C532.093,252.627 534.031,247.699 536.313,242.804C537.501,240.256 538.444,238.339 539.142,237.052L506.061,236.5C502.278,242.308 497.637,250.401 492.137,260.782C486.638,271.162 479.825,284.33 471.7,300.288C463.575,316.246 458.702,325.728 457.081,328.733L482.584,331.943C484.109,327.573 486.181,322.58 488.8,316.963C491.663,310.824 494.88,304.356 498.453,297.559C502.025,290.762 505.557,284.38 509.048,278.412L509.479,278.43C509.034,282.057 508.332,286.639 507.374,292.176C506.416,297.713 505.456,302.901 504.494,307.74C503.532,312.58 502.357,318.058 500.97,324.177C499.582,330.295 498.456,334.911 497.59,338.024L521.017,340.266C527.055,329.99 533.909,318.996 541.581,307.284C549.252,295.572 557.049,284.615 564.97,274.411C568.386,270.009 571.623,266.083 574.681,262.633C578.922,268.029 582.544,273.88 585.481,280.177C601.604,314.74 594.145,356.381 568.972,396.188C566.816,395.587 564.707,394.997 562.646,394.42C556.297,392.642 551.98,391.443 549.693,390.822L533.044,412.505C536.074,412.664 540.215,413.006 545.467,413.532C549.905,413.976 553.223,414.559 555.425,415.282C540.227,434.557 520.931,453.032 498.246,469.631L504.315,451.915C501.745,452.124 497.176,452.344 490.606,452.573C484.035,452.802 479.263,452.98 476.288,453.106C473.313,453.233 471.031,453.42 469.441,453.669C469.587,452.544 469.996,450.812 470.666,448.473C472.177,443.205 474.758,437.045 478.409,429.992L503.966,429.066L509.003,413.341L484.541,413.789L492.344,396.942L517.594,397.546L522.118,384.646C517.114,383.981 509.661,383.126 499.758,382.08C489.855,381.035 481.35,380.472 474.241,380.393C470.425,388.786 466.329,397.891 461.951,407.707C457.574,417.524 453.3,427.342 449.13,437.164C444.96,446.985 441.95,454.546 440.099,459.849L450.775,479.155C455.1,478.964 462.332,478.556 472.472,477.931C478.426,477.563 483.588,477.21 487.959,476.87C472.334,487.444 455.278,497.131 436.996,505.622C388.795,528.007 339.707,538.526 296.491,537.98L283.258,563.97C333.966,564.696 391.618,552.417 448.226,526.191C474.508,514.015 498.625,499.731 520.132,484.009C520.83,483.95 521.559,483.891 522.321,483.831C527.11,483.456 531.724,483.198 536.164,483.057C527.768,490.322 519.015,497.399 509.918,504.254C423.766,569.174 326.971,598.965 249.879,591.228L259.319,562.61L259.319,562.61L268.124,535.918C256.102,534.269 244.742,531.647 234.224,528.074L215.02,553.76C225.152,556.934 235.915,559.38 247.195,561.084L239.875,589.997C221.54,587.313 204.451,582.398 189.046,575.217L206.856,541.952L201.601,548.98L201.602,548.98L189.989,564.513L185.845,573.68C182.632,572.092 179.496,570.402 176.441,568.61L203.525,518.021C206.982,519.74 209.765,521.103 211.872,522.108C212.72,519.692 213.759,516.395 214.989,512.219C216.219,508.042 217.341,504.438 218.353,501.408C219.366,498.377 220.581,495.287 221.997,492.137C207.407,488.224 197.934,485.461 193.578,483.847C196.694,476.367 198.034,468.771 197.6,461.058C197.165,453.345 195.403,446.583 192.314,440.773C188.331,433.282 183.602,429.278 178.127,428.762C172.131,428.12 166.096,429.321 160.02,432.365C160.387,413.703 165.746,394.169 175.435,374.769L151.563,356.369C123.494,402.009 115.473,449.505 133.969,489.062C141.501,505.172 152.878,518.779 167.308,529.792L167.41,530.022C170.194,536.295 172.946,542.53 175.666,548.728C176.843,547.269 177.941,545.914 178.962,544.664L169.961,564.575C157.288,556.203 146.183,545.925 136.981,533.713C98.619,482.805 101.667,409.373 137.596,336.213L183.053,361.458L187,355L139.204,332.982C140.882,329.654 142.628,326.329 144.441,323.006L165.988,335.38L165.988,335.38L185.921,346.826L169.196,328.234L147.288,317.888C149.334,314.279 151.459,310.676 153.661,307.081L157.32,310.557L174.548,324.678L174.548,324.678L176.752,326.484L192.059,339.031L192.059,339.031L195.453,341.813L195.453,341.813L196.86,342.966L202,336L155.108,304.739C157.003,301.694 158.955,298.655 160.961,295.625L183.913,314.034L183.913,314.034L204.977,330.929C209.165,326.036 213.618,321.205 218.323,316.455C221.204,334.809 224.614,351.012 228.552,365.063L253.346,347.991C252.964,346.689 251.753,342.851 249.715,336.476C247.677,330.102 245.977,324.313 244.614,319.11C243.252,313.907 242.122,308.538 241.223,303.005C240.869,300.824 240.573,298.61 240.337,296.363C241.152,295.689 241.972,295.017 242.797,294.348C244.108,298.044 245.572,301.892 247.189,305.894C252.819,319.83 259.648,334.427 267.675,349.686L281.337,340.334C279.562,333.579 277.836,326.159 276.158,318.076C274.479,309.992 273.107,301.779 272.04,293.436C271.116,286.212 270.685,279.733 270.749,273.999L271.209,273.698L271.768,273.335C272.798,276.337 273.917,279.704 275.125,283.434C276.615,288.037 278.317,293.27 280.232,299.133C282.147,304.996 284.057,310.593 285.96,315.924C287.863,321.255 289.669,326.034 291.377,330.262C293.699,336.009 295.815,340.775 297.728,344.563L319.436,326.41C316.794,320.816 313.491,313.115 309.528,303.304C306.775,296.49 304.053,289.413 301.362,282.073C298.67,274.733 296.195,267.586 293.935,260.633L293.78,260.155C301.276,256.019 309.022,252.085 317.002,248.379C318.371,247.743 319.74,247.117 321.111,246.501C318.883,251.435 317.343,256.311 316.489,261.128C315.56,266.372 315.023,271.771 314.878,277.326C314.748,282.833 315.127,288.104 316.015,293.14C317.383,300.901 319.851,307.697 323.42,313.53C326.988,319.363 331.403,323.653 336.664,326.401C341.924,329.148 347.639,329.978 353.808,328.89C360.459,327.088 365.997,324.752 370.425,321.88C374.852,319.009 378.399,315.192 381.066,310.429C383.732,305.666 385.568,299.667 386.574,292.432C387.58,285.196 387.811,276.277 387.267,265.674C387.05,261.891 386.693,258.594 386.197,255.782C384.84,248.087 382.498,241.465 379.171,235.915C377.238,232.69 375.069,229.972 372.665,227.76C380.616,225.54 388.52,223.638 396.346,222.052L399.989,195.2C369.803,201.359 338.633,211.511 307.773,225.809C300.596,229.134 293.581,232.616 286.736,236.242C285.177,230.321 283.906,224.817 282.923,219.728L256.159,241.678C256.14,245.781 256.19,249.888 256.309,253.997C253.104,256.051 249.946,258.137 246.838,260.253C246.657,259.613 246.478,258.969 246.303,258.319C244.712,252.433 243.217,245.689 241.818,238.09L212.266,266.61C212.848,272.953 213.474,279.116 214.145,285.098ZM301.99,487.831L276.03,502.539C273.649,496.172 271.859,491.196 270.66,487.614C269.461,484.031 268.166,479.627 266.776,474.402C261.348,477.211 256.929,480.122 253.518,483.133C253.755,486.02 254.33,489.339 255.244,493.088C256.158,496.838 256.759,499.514 257.048,501.115L233.386,511.573C232.482,505.382 231.584,497.741 230.69,488.65C229.796,479.559 228.982,469.803 228.247,459.38C227.512,448.957 226.942,438.977 226.536,429.437C226.13,419.898 225.958,411.978 226.018,405.677C229.064,403.051 232.366,400.73 235.924,398.714C239.481,396.698 243.687,394.545 248.542,392.254C253.397,389.964 256.368,388.53 257.457,387.953C260.858,397.267 265.366,408.536 270.98,421.761C282.505,448.911 292.841,470.935 301.99,487.831ZM341.769,391.324L330.057,411.851C326.066,402.54 322.728,398.269 320.044,399.039C317.237,399.844 315.521,402.669 314.896,407.515C314.272,412.36 314.3,417.756 314.982,423.702C315.663,429.648 316.589,435.622 317.761,441.626C318.765,446.357 319.629,449.983 320.352,452.505C323.816,464.586 327.297,470.126 330.796,469.122C332.504,468.633 334.164,466.82 335.774,463.683C337.384,460.547 338.701,456.967 339.726,452.942C340.751,448.917 341.302,445.54 341.378,442.811L358.055,458.599C357.11,464.13 354.505,469.687 350.239,475.268C345.973,480.85 340.271,484.664 333.132,486.711C315.343,491.306 303.04,481.715 296.222,457.938C296.106,457.531 295.945,456.895 295.741,456.029C295.537,455.163 295.367,454.496 295.233,454.029C292.756,444.085 292.206,434.376 293.584,424.901C294.961,415.427 297.424,407.226 300.974,400.298C304.523,393.37 308.059,388.487 311.582,385.65C314.512,383.357 317.401,381.802 320.249,380.986C324.723,379.703 328.872,380.027 332.694,381.957C336.516,383.888 339.541,387.01 341.769,391.324ZM169.483,475.83C168.577,473.245 167.62,470.494 166.612,467.577C164.944,462.749 163.851,459.646 163.334,458.267C164.078,457.368 165.01,456.621 166.131,456.025C167.626,455.23 169.086,455.047 170.512,455.475C171.938,455.903 173.117,456.995 174.051,458.751C174.637,459.854 175.054,460.998 175.301,462.184C176.246,466.259 176.642,470.35 176.489,474.457C176.37,477.659 175.936,481.399 175.189,485.677C173.088,482.531 171.183,479.249 169.483,475.83ZM441.727,387.355C424.63,404.452 413.501,417.232 408.338,425.695C410.94,431.493 414.913,438.174 420.256,445.738C425.598,453.302 431.073,460.353 436.68,466.892L419.002,485.109C417.246,482.74 414.358,478.947 410.337,473.731C406.317,468.515 403.376,464.67 401.514,462.194C399.652,459.719 397.721,457.079 395.722,454.276C393.722,451.472 391.644,448.356 389.485,444.929C389.041,450.07 388.819,455.222 388.819,460.385C388.819,461.676 388.84,463.464 388.882,465.749C388.925,468.034 388.946,469.716 388.946,470.795L388.946,474.953L366.602,481.713C366.517,479.555 366.475,476.096 366.475,471.335C366.475,461.009 366.761,449.848 367.332,437.851C367.903,425.854 368.697,414.359 369.712,403.367C370.728,392.375 371.818,383.695 372.981,377.326L401.324,369.804C399.885,373.994 398.626,379.267 397.547,385.626C396.468,391.984 395.251,400.178 393.897,410.207C407.46,390.762 418.039,376.469 425.635,367.329L441.727,387.355ZM249.836,423.529L249.486,423.678C249.202,427.614 249.252,431.846 249.633,436.373C250.015,440.9 250.647,446.964 251.529,454.566C252.411,462.168 252.922,467.893 253.061,471.741C256.527,469.834 260.361,467.873 264.563,465.859C263.296,461.846 261.583,456.89 259.424,450.991C257.265,445.092 255.387,439.936 253.789,435.522C252.192,431.109 250.874,427.111 249.836,423.529ZM585.075,422.92L588.774,423.602C590.377,423.897 591.836,424.184 593.152,424.463C580.649,439.864 566.708,454.884 551.421,469.284C552.129,467.752 552.902,466.127 553.74,464.409C556.374,459.009 559.153,453.657 562.079,448.352C570.421,440.067 578.102,431.566 585.075,422.92ZM466.735,274.662C464.697,285.081 462.315,293.68 459.589,300.456C456.863,307.233 453.63,312.61 449.89,316.587C446.151,320.563 441.786,323.409 436.795,325.124C431.805,326.838 425.865,327.766 418.977,327.905C412.728,327.468 407.383,325.28 402.943,321.342C398.504,317.404 395.258,312.173 393.207,305.65C391.155,299.127 390.405,291.935 390.954,284.074C391.311,278.973 392.219,273.767 393.677,268.455C395.161,263.1 396.989,257.991 399.159,253.128C401.33,248.265 404.307,243.53 408.091,238.924C411.875,234.318 416.694,230.533 422.548,227.57C428.402,224.607 435.29,223.124 443.212,223.124C448.644,223.504 453.342,225.502 457.305,229.118C461.268,232.735 464.193,237.638 466.079,243.828C467.965,250.017 468.635,257.01 468.09,264.804C467.891,267.653 467.439,270.939 466.735,274.662ZM362.517,275.028C362.368,269.975 361.823,264.778 360.881,259.437C359.747,253.006 358.294,247.828 356.524,243.904C354.753,239.979 352.766,238.211 350.565,238.599C347.729,239.728 345.482,242.378 343.824,246.548C342.165,250.717 341.063,255.62 340.517,261.257C339.972,266.894 339.838,272.475 340.115,278C340.368,282.496 340.885,286.957 341.665,291.382C343.899,304.047 347.75,309.954 353.219,309.102C355.093,308.771 356.775,306.772 358.264,303.104C359.752,299.437 360.875,295.002 361.632,289.8C362.39,284.598 362.685,279.674 362.517,275.028ZM440.457,277.75C441.535,272.811 442.263,267.636 442.641,262.226C443.097,255.712 442.94,250.337 442.171,246.1C441.403,241.864 439.903,239.668 437.673,239.512C434.648,239.921 431.827,241.949 429.209,245.593C426.591,249.238 424.336,253.729 422.442,259.066C420.549,264.403 419.069,269.786 418.001,275.215C417.16,279.638 416.582,284.091 416.269,288.574C415.371,301.403 417.679,308.066 423.192,308.562C425.091,308.695 427.206,307.162 429.538,303.963C431.87,300.765 434.032,296.733 436.025,291.869C438.019,287.005 439.496,282.298 440.457,277.75ZM258.237,282.569C258.462,284.698 258.706,286.828 258.968,288.959L258.549,288.985C257.673,287.412 256.827,285.811 256.011,284.181C256.749,283.642 257.491,283.104 258.237,282.569ZM528.018,194.66L532.103,190.517L578,118L559.31,139.005L504.293,216.229L504.293,216.229L501.064,220.762C501.397,220.834 501.73,220.908 502.063,220.982L528.018,194.66L528.018,194.66Z" style="fill:white;fill-opacity:0.403922;"/>
        <g>
            <clipPath id="_clip108">
                <path d="M292.923,231.728C294.082,237.729 295.642,244.309 297.603,251.467C299.564,258.624 301.674,265.68 303.935,272.633C306.195,279.586 308.67,286.733 311.362,294.073C314.053,301.413 316.775,308.49 319.528,315.304C323.491,325.115 326.794,332.816 329.436,338.41L307.728,356.563C305.815,352.775 303.699,348.009 301.377,342.262C299.669,338.034 297.863,333.255 295.96,327.924C294.057,322.593 292.147,316.996 290.232,311.133C288.317,305.27 286.615,300.037 285.125,295.434C283.635,290.832 282.28,286.783 281.06,283.29L280.814,283.389C280.564,289.745 280.973,297.094 282.04,305.436C283.107,313.779 284.479,321.992 286.158,330.076C287.836,338.159 289.562,345.579 291.337,352.334L277.675,361.686C269.648,346.427 262.819,331.83 257.189,317.894C254.262,310.649 251.836,303.906 249.911,297.665L249.665,297.764C249.805,303.724 250.324,309.471 251.223,315.005C252.122,320.538 253.252,325.907 254.614,331.11C255.977,336.313 257.677,342.102 259.715,348.476C261.753,354.851 262.964,358.689 263.346,359.991L238.552,377.063C231.364,351.414 225.935,318.597 222.266,278.61L251.818,250.09C253.217,257.689 254.712,264.433 256.303,270.319C257.893,276.206 259.709,281.674 261.748,286.723C263.763,291.71 266.03,296.464 268.549,300.985L268.968,300.959C267.023,285.153 266.087,269.393 266.159,253.678L292.923,231.728Z"/>
            </clipPath>
            <g clip-path="url(#_clip108)">
                <path d="M182.684,265.482L298.448,218.71L351.377,349.713L235.613,396.484L182.684,265.482Z" style="fill:white;fill-rule:nonzero;"/>
            </g>
            <clipPath id="_clip109">
                <path d="M397.267,277.674C397.811,288.277 397.58,297.196 396.574,304.432C395.568,311.667 393.732,317.666 391.066,322.429C388.399,327.192 384.852,331.009 380.425,333.88C375.997,336.752 370.459,339.088 363.808,340.89C357.639,341.978 351.924,341.148 346.664,338.401C341.403,335.653 336.988,331.363 333.42,325.53C329.851,319.697 327.383,312.901 326.015,305.14C325.127,300.104 324.748,294.833 324.878,289.326C325.023,283.771 325.56,278.372 326.489,273.128C327.419,267.884 329.162,262.57 331.719,257.186C334.276,251.801 338.037,246.963 343,242.671C347.964,238.379 354.289,235.275 361.975,233.358C367.338,232.412 372.379,233.215 377.099,235.765C381.82,238.316 385.844,242.366 389.171,247.915C392.498,253.465 394.84,260.087 396.197,267.782C396.693,270.594 397.05,273.891 397.267,277.674ZM372.517,287.028C372.368,281.975 371.823,276.778 370.881,271.437C369.747,265.006 368.294,259.828 366.524,255.904C364.753,251.979 362.766,250.211 360.565,250.599C357.729,251.728 355.482,254.378 353.824,258.548C352.165,262.717 351.063,267.62 350.517,273.257C349.972,278.894 349.838,284.475 350.115,290C350.368,294.496 350.885,298.957 351.665,303.382C353.899,316.047 357.75,321.954 363.219,321.102C365.093,320.771 366.775,318.772 368.264,315.104C369.752,311.437 370.875,307.002 371.632,301.8C372.39,296.598 372.685,291.674 372.517,287.028Z"/>
            </clipPath>
            <g clip-path="url(#_clip109)">
                <path d="M303.239,233.56L397.39,216.959L419.307,341.258L325.156,357.86L303.239,233.56Z" style="fill:white;fill-rule:nonzero;"/>
            </g>
            <clipPath id="_clip110">
                <path d="M476.735,286.662C474.697,297.081 472.315,305.68 469.589,312.456C466.863,319.233 463.63,324.61 459.89,328.587C456.151,332.563 451.786,335.409 446.795,337.124C441.805,338.838 435.865,339.766 428.977,339.905C422.728,339.468 417.383,337.28 412.943,333.342C408.504,329.404 405.258,324.173 403.207,317.65C401.155,311.127 400.405,303.935 400.954,296.074C401.311,290.973 402.219,285.767 403.677,280.455C405.161,275.1 406.989,269.991 409.159,265.128C411.33,260.265 414.307,255.53 418.091,250.924C421.875,246.318 426.694,242.533 432.548,239.57C438.402,236.607 445.29,235.124 453.212,235.124C458.644,235.504 463.342,237.502 467.305,241.118C471.268,244.735 474.193,249.638 476.079,255.828C477.965,262.017 478.635,269.01 478.09,276.804C477.891,279.653 477.439,282.939 476.735,286.662ZM450.457,289.75C451.535,284.811 452.263,279.636 452.641,274.226C453.097,267.712 452.94,262.337 452.171,258.1C451.403,253.864 449.903,251.668 447.673,251.512C444.648,251.921 441.827,253.949 439.209,257.593C436.591,261.238 434.336,265.729 432.442,271.066C430.549,276.403 429.069,281.786 428.001,287.215C427.16,291.638 426.582,296.091 426.269,300.574C425.371,313.403 427.679,320.066 433.192,320.562C435.091,320.695 437.206,319.162 439.538,315.963C441.87,312.765 444.032,308.733 446.025,303.869C448.019,299.005 449.496,294.298 450.457,289.75Z"/>
            </clipPath>
            <g clip-path="url(#_clip110)">
                <path d="M396.172,221.111L491.542,227.78L482.738,353.689L387.367,347.02L396.172,221.111Z" style="fill:white;fill-rule:nonzero;"/>
            </g>
            <clipPath id="_clip111">
                <path d="M595.837,263.463C589.846,268.558 582.89,276.207 574.97,286.411C567.049,296.615 559.252,307.572 551.581,319.284C543.909,330.996 537.055,341.99 531.017,352.266L507.59,350.024C508.456,346.911 509.582,342.295 510.97,336.177C512.357,330.058 513.532,324.58 514.494,319.74C515.456,314.901 516.416,309.713 517.374,304.176C518.332,298.639 519.034,294.057 519.479,290.43L519.048,290.412C515.557,296.38 512.025,302.762 508.453,309.559C504.88,316.356 501.663,322.824 498.8,328.963C496.181,334.58 494.109,339.573 492.584,343.943L467.081,340.733C468.702,337.728 473.575,328.246 481.7,312.288C489.825,296.33 496.638,283.162 502.137,272.782C507.637,262.401 512.278,254.308 516.061,248.5L549.142,249.052C548.444,250.339 547.501,252.256 546.313,254.804C544.031,259.699 542.093,264.627 540.501,269.587C538.908,274.547 537.501,279.582 536.279,284.69C535.057,289.799 533.785,295.159 532.462,300.771C531.14,306.382 529.853,311.106 528.601,314.943L528.842,315.056C532.76,308.749 536.196,303.147 539.152,298.248C542.108,293.35 545.591,287.543 549.602,280.828C553.612,274.113 556.841,268.786 559.288,264.848C561.736,260.909 564.42,256.775 567.342,252.447C575.824,254.79 583.776,257.692 591.199,261.153C593.345,262.154 594.891,262.924 595.837,263.463Z"/>
            </clipPath>
            <g clip-path="url(#_clip111)">
                <path d="M514.893,214.537L609.182,258.505L548.081,389.538L453.791,345.57L514.893,214.537Z" style="fill:white;fill-rule:nonzero;"/>
            </g>
        </g>
        <g>
            <clipPath id="_clip112">
                <path d="M215.997,480.137C214.581,483.287 213.366,486.377 212.353,489.408C211.341,492.438 210.219,496.042 208.989,500.219C207.759,504.395 206.72,507.692 205.872,510.108C203.496,508.975 200.262,507.387 196.169,505.346C192.076,503.305 187.858,501.162 183.514,498.919C179.169,496.675 176.348,495.12 175.048,494.254C176.642,497.792 178.509,502.227 180.649,507.559C182.789,512.891 184.465,516.877 185.676,519.516C183.458,520.887 181.249,522.84 179.051,525.375C176.852,527.91 173.724,531.695 169.666,536.728C166.946,530.53 164.194,524.295 161.41,518.022C158.626,511.75 154.881,503.197 150.175,492.364C145.469,481.53 141.382,471.883 137.914,463.422C134.446,454.962 131.557,447.5 129.246,441.036C138.193,431.271 146.141,424.54 153.09,420.845C159.48,417.448 165.825,416.087 172.127,416.762C177.602,417.278 182.331,421.282 186.314,428.773C189.403,434.583 191.165,441.345 191.6,449.058C192.034,456.771 190.694,464.367 187.578,471.847C191.934,473.461 201.407,476.224 215.997,480.137ZM169.301,450.184C169.054,448.998 168.637,447.854 168.051,446.751C167.117,444.995 165.938,443.903 164.512,443.475C163.086,443.047 161.626,443.23 160.131,444.025C159.01,444.621 158.078,445.368 157.334,446.267C157.851,447.646 158.944,450.749 160.612,455.577C162.281,460.406 163.81,464.78 165.2,468.702C166.591,472.624 167.684,475.536 168.479,477.437C169.666,471.558 170.336,466.565 170.489,462.457C170.642,458.35 170.246,454.259 169.301,450.184Z"/>
            </clipPath>
            <g clip-path="url(#_clip112)">
                <path d="M104.453,435.38L181.689,394.313L242.768,509.185L165.531,550.252L104.453,435.38Z" style="fill:white;fill-rule:nonzero;"/>
            </g>
            <clipPath id="_clip113">
                <path d="M293.99,475.831L268.03,490.539C265.649,484.172 263.859,479.196 262.66,475.614C261.461,472.031 260.166,467.627 258.776,462.402C253.348,465.211 248.929,468.122 245.518,471.133C245.755,474.02 246.33,477.339 247.244,481.088C248.158,484.838 248.759,487.514 249.048,489.115L225.386,499.573C224.482,493.382 223.584,485.741 222.69,476.65C221.796,467.559 220.982,457.803 220.247,447.38C219.512,436.957 218.942,426.977 218.536,417.437C218.13,407.898 217.958,399.978 218.018,393.677C221.064,391.051 224.366,388.73 227.924,386.714C231.481,384.698 235.687,382.545 240.542,380.254C245.397,377.964 248.368,376.53 249.457,375.953C252.858,385.267 257.366,396.536 262.98,409.761C274.505,436.911 284.841,458.935 293.99,475.831ZM241.836,411.529L241.486,411.678C241.202,415.614 241.252,419.846 241.633,424.373C242.015,428.9 242.647,434.964 243.529,442.566C244.411,450.168 244.922,455.893 245.061,459.741C248.527,457.834 252.361,455.873 256.563,453.859C255.296,449.846 253.583,444.89 251.424,438.991C249.265,433.092 247.387,427.936 245.789,423.522C244.192,419.109 242.874,415.111 241.836,411.529Z"/>
            </clipPath>
            <g clip-path="url(#_clip113)">
                <path d="M171.487,398.186L256.566,362.072L308.429,484.255L223.35,520.368L171.487,398.186Z" style="fill:white;fill-rule:nonzero;"/>
            </g>
            <clipPath id="_clip114">
                <path d="M333.769,379.324L322.057,399.851C318.066,390.54 314.728,386.269 312.044,387.039C309.237,387.844 307.521,390.669 306.896,395.515C306.272,400.36 306.3,405.756 306.982,411.702C307.663,417.648 308.589,423.622 309.761,429.626C310.765,434.357 311.629,437.983 312.352,440.505C315.816,452.586 319.297,458.126 322.796,457.122C324.504,456.633 326.164,454.82 327.774,451.683C329.384,448.547 330.701,444.967 331.726,440.942C332.751,436.917 333.302,433.54 333.378,430.811L350.055,446.599C349.11,452.13 346.505,457.687 342.239,463.268C337.973,468.85 332.271,472.664 325.132,474.711C307.343,479.306 295.04,469.715 288.222,445.938C288.106,445.531 287.945,444.895 287.741,444.029C287.537,443.163 287.367,442.496 287.233,442.029C284.756,432.085 284.206,422.376 285.584,412.901C286.961,403.427 289.424,395.226 292.974,388.298C296.523,381.37 300.059,376.487 303.582,373.65C306.512,371.357 309.401,369.802 312.249,368.986C316.723,367.703 320.872,368.027 324.694,369.957C328.516,371.888 331.541,375.01 333.769,379.324Z"/>
            </clipPath>
            <g clip-path="url(#_clip114)">
                <path d="M257.289,374.342L336.251,351.7L370.755,472.032L291.794,494.674L257.289,374.342Z" style="fill:white;fill-rule:nonzero;"/>
            </g>
            <clipPath id="_clip115">
                <path d="M433.727,375.355C416.63,392.452 405.501,405.232 400.338,413.695C402.94,419.493 406.913,426.174 412.256,433.738C417.598,441.302 423.073,448.353 428.68,454.892L411.002,473.109C409.246,470.74 406.358,466.947 402.337,461.731C398.317,456.515 395.376,452.67 393.514,450.194C391.652,447.719 389.721,445.079 387.722,442.276C385.722,439.472 383.644,436.356 381.485,432.929C381.041,438.07 380.819,443.222 380.819,448.385C380.819,449.676 380.84,451.464 380.882,453.749C380.925,456.034 380.946,457.716 380.946,458.795L380.946,462.953L358.602,469.713C358.517,467.555 358.475,464.096 358.475,459.335C358.475,449.009 358.761,437.848 359.332,425.851C359.903,413.854 360.697,402.359 361.712,391.367C362.728,380.375 363.818,371.695 364.981,365.326L393.324,357.804C391.885,361.994 390.626,367.267 389.547,373.626C388.468,379.984 387.251,388.178 385.897,398.207C399.46,378.762 410.039,364.469 417.635,355.329L433.727,375.355Z"/>
            </clipPath>
            <g clip-path="url(#_clip115)">
                <rect x="348.475" y="345.329" width="95.252" height="137.78" style="fill:white;fill-rule:nonzero;"/>
            </g>
            <clipPath id="_clip116">
                <path d="M488.004,464.176C482.455,464.72 474.611,465.305 464.472,465.931C454.332,466.556 447.1,466.964 442.775,467.155L432.099,447.849C433.95,442.546 436.96,434.985 441.13,425.164C445.3,415.342 449.574,405.524 453.951,395.707C458.329,385.891 462.425,376.786 466.241,368.393C473.35,368.472 481.855,369.035 491.758,370.08C501.661,371.126 509.114,371.981 514.118,372.646L509.594,385.546L484.344,384.942L476.541,401.789L501.003,401.341L495.966,417.066L470.409,417.992C466.758,425.045 464.177,431.205 462.666,436.473C461.996,438.812 461.587,440.544 461.441,441.669C463.031,441.42 465.313,441.233 468.288,441.106C471.263,440.98 476.035,440.802 482.606,440.573C489.176,440.344 493.745,440.124 496.315,439.915L488.004,464.176Z"/>
            </clipPath>
            <g clip-path="url(#_clip116)">
                <path d="M451.4,344.259L527.86,366.183L491.886,491.64L415.426,469.715L451.4,344.259Z" style="fill:white;fill-rule:nonzero;"/>
            </g>
            <clipPath id="_clip117">
                <path d="M593.048,414.71C591.184,413.801 587.093,412.765 580.774,411.602C574.456,410.439 571.244,409.843 571.14,409.816C568.61,412.349 564.816,417.884 559.757,426.422C554.698,434.96 550.026,443.622 545.74,452.409C541.548,461.004 538.974,467.271 538.019,471.207C536.21,470.96 533.034,470.906 528.493,471.046C523.952,471.185 519.228,471.447 514.321,471.831C509.413,472.216 505.849,472.584 503.629,472.937C506.389,467.81 509.787,461.94 513.824,455.328C517.861,448.716 521.947,442.269 526.082,435.988C530.217,429.706 534.284,423.697 538.282,417.961C542.28,412.225 545.695,407.469 548.525,403.694C546.405,402.778 542.72,402.057 537.467,401.532C532.215,401.006 528.074,400.664 525.044,400.505L541.693,378.822C543.98,379.443 548.297,380.642 554.646,382.42C560.994,384.198 567.797,386.092 575.056,388.102C582.316,390.113 587.883,391.633 591.759,392.664C595.635,393.695 599.123,394.579 602.225,395.315C600.856,398.508 597.797,404.973 593.048,414.71Z"/>
            </clipPath>
            <g clip-path="url(#_clip117)">
                <path d="M537.316,352.531L615.825,390.822L557.527,510.351L479.018,472.06L537.316,352.531Z" style="fill:white;fill-rule:nonzero;"/>
            </g>
            <clipPath id="_clip118">
                <path d="M651.496,415.407C647.823,418.196 641.592,423.192 632.802,430.396C624.013,437.6 615.379,444.989 606.9,452.563C598.42,460.137 592.924,465.68 590.41,469.193L573.733,465.451C575.583,462.337 579.411,456.833 585.219,448.938C591.027,441.043 596.59,433.595 601.907,426.594C607.225,419.593 611.137,414.473 613.644,411.235C617.056,410.855 620.834,410.823 624.978,411.14C629.122,411.456 633.171,411.933 637.126,412.57C641.081,413.208 644.225,413.78 646.559,414.286C648.893,414.792 650.538,415.166 651.496,415.407ZM583.61,495.627C577.189,501.361 569.827,502.68 561.523,499.586C558.469,498.226 556.516,496.291 555.665,493.781C554.814,491.271 554.969,488.712 556.131,486.102C556.716,484.788 557.4,483.668 558.183,482.742C561.22,479.301 564.805,477.324 568.935,476.812C573.066,476.3 576.59,476.694 579.509,477.993C582.57,479.495 584.78,481.527 586.14,484.09C587.501,486.653 587.613,489.21 586.477,491.761C585.806,493.269 584.85,494.558 583.61,495.627Z"/>
            </clipPath>
            <g clip-path="url(#_clip118)">
                <path d="M593.108,378.465L664.699,410.339L610.402,532.294L538.81,500.419L593.108,378.465Z" style="fill:white;fill-rule:nonzero;"/>
            </g>
        </g>
    </g>
</svg>
