<?xml version="1.0" encoding="UTF-8" standalone="no"?><!DOCTYPE svg PUBLIC "-//W3C//DTD SVG 1.1//EN" "http://www.w3.org/Graphics/SVG/1.1/DTD/svg11.dtd"><svg width="100%" height="100%" viewBox="0 0 439 63" version="1.1" xmlns="http://www.w3.org/2000/svg" xmlns:xlink="http://www.w3.org/1999/xlink" xml:space="preserve" xmlns:serif="http://www.serif.com/" style="fill-rule:evenodd;clip-rule:evenodd;stroke-linejoin:round;stroke-miterlimit:1.41421;"><g><path d="M7.995,43.862c0.218,1.906 -0.563,2.859 -2.344,2.859c-1.813,0 -2.781,-0.656 -2.906,-1.969c-0.063,-0.625 -0.024,-1.539 0.117,-2.742c0.14,-1.203 0.195,-2.102 0.164,-2.695c-0.281,-3.782 -0.641,-7.516 -1.078,-11.203l-1.36,-11.344c-0.218,-1.875 0.485,-2.828 2.11,-2.86c1.843,-0.031 2.859,0.766 3.047,2.391c0,0.375 -0.102,0.93 -0.305,1.664c-0.203,0.734 -0.289,1.305 -0.258,1.711c0.219,3.188 0.641,7.219 1.266,12.094c0.906,7.031 1.422,11.062 1.547,12.094Z" style="fill:#fff;fill-rule:nonzero;"/><path d="M53.088,45.033c-0.093,1 -1.047,1.657 -2.859,1.969c-0.469,0.094 -0.891,0.141 -1.266,0.141c-1.531,0 -2.375,-1.031 -2.531,-3.094c-0.094,-0.875 -0.453,-1.641 -1.078,-2.297c-1.25,-1.25 -3.109,-2.859 -5.578,-4.828c-2.844,-2.125 -7.11,-5.359 -12.797,-9.703c-1.969,-1.531 -3.75,-3.047 -5.344,-4.547c0.219,2.281 0.406,4.875 0.563,7.781c0.218,5.407 0.156,10.438 -0.188,15.094c-0.094,0.969 -0.25,1.594 -0.469,1.875c-0.343,0.438 -0.953,0.531 -1.828,0.281c-2.125,-0.562 -3.125,-1.687 -3,-3.375c0.032,-0.5 0.274,-1.109 0.727,-1.828c0.453,-0.719 0.695,-1.359 0.726,-1.922c0.094,-1.875 0.172,-3.578 0.235,-5.109c0.125,-3.469 -0.063,-6.938 -0.563,-10.406l-0.656,-5.016c-0.094,-0.531 -0.367,-1.156 -0.82,-1.875c-0.453,-0.719 -0.727,-1.344 -0.821,-1.875c-0.218,-1.031 0.563,-2 2.344,-2.906c0.906,-0.469 1.656,-0.703 2.25,-0.703c0.531,0 0.914,0.195 1.149,0.586c0.234,0.39 0.601,1.304 1.101,2.742c0.344,0.969 0.906,1.812 1.688,2.531c2.062,1.906 5.609,4.703 10.64,8.391c3.25,2.406 5.578,4.172 6.985,5.297c2.593,2.062 4.765,4.031 6.515,5.906c0,-1.594 0.016,-3.235 0.047,-4.922c0.031,-2.781 -0.187,-6.016 -0.656,-9.703c-0.5,-3.188 -0.984,-6.391 -1.453,-9.61c-0.094,-0.562 -0.469,-1.179 -1.125,-1.851c-0.656,-0.672 -1.031,-1.352 -1.125,-2.039c-0.156,-0.813 0.125,-1.563 0.844,-2.25c0.625,-0.594 1.375,-0.969 2.25,-1.125c0.843,-0.156 1.453,0.015 1.828,0.515c0.25,0.313 0.468,0.954 0.656,1.922c1.219,7.344 2.047,13.703 2.484,19.078c0.313,4.125 0.453,7.75 0.422,10.875c-0.031,0.625 0.086,1.602 0.352,2.93c0.265,1.328 0.383,2.352 0.351,3.07Z" style="fill:#fff;fill-rule:nonzero;"/><path d="M121.432,41.94c0,0.531 -0.25,1.14 -0.75,1.828c-0.687,0.937 -1.406,1.437 -2.156,1.5c-1.375,0.125 -2.141,-0.75 -2.297,-2.625c-0.063,-0.688 -0.234,-1.235 -0.516,-1.641c-0.406,-0.375 -0.812,-0.765 -1.218,-1.172l-1.079,-1.078c-0.437,0 -0.953,-0.14 -1.546,-0.422c-1.344,-0.812 -3.188,-1.218 -5.532,-1.218c-4.343,0.031 -9.672,0.906 -15.984,2.625c-2.875,0.781 -5.422,1.515 -7.641,2.203c-0.562,0.187 -1.257,0.617 -2.086,1.289c-0.828,0.672 -1.492,1.07 -1.992,1.195c-0.5,0.125 -0.937,0.047 -1.312,-0.234c-0.094,0.062 -0.157,0.125 -0.188,0.187c-0.406,0.406 -0.679,0.969 -0.82,1.688c-0.141,0.718 -0.399,1.265 -0.774,1.64c-0.468,0.469 -1.14,0.735 -2.015,0.797c-0.844,0.063 -1.61,-0.461 -2.297,-1.57c-0.688,-1.11 -0.859,-2.008 -0.516,-2.695c0.344,-0.688 0.735,-1.25 1.172,-1.688c7.094,-7 13.11,-14.547 18.047,-22.641c0.188,-0.781 0.219,-1.546 0.094,-2.296c-0.094,-0.438 -0.141,-0.844 -0.141,-1.219c0,-2.188 1.891,-3.875 5.672,-5.063c0.969,-0.312 1.781,-0.109 2.438,0.61c0.375,0.375 0.562,0.812 0.562,1.312c0,0.438 -0.391,1.453 -1.172,3.047l-0.89,1.734c1.343,1.969 3.64,4.344 6.89,7.125c0.031,0.032 2.656,2.141 7.875,6.329c0.719,0.562 1.5,1.203 2.344,1.921c0.312,0.157 0.578,0.375 0.797,0.657c1.656,1.343 2.719,2.218 3.187,2.625c1.282,1.156 2.219,2.14 2.813,2.953c0.687,0.969 1.031,1.734 1.031,2.297Zm-16.359,-9.797c-5.125,-3.781 -8.75,-7.094 -10.875,-9.938c-3.157,4.719 -6.532,9.36 -10.125,13.922c6.5,-1.531 9.968,-2.344 10.406,-2.437c4,-0.813 7.531,-1.328 10.594,-1.547Z" style="fill:#fff;fill-rule:nonzero;"/><path d="M163.948,31.44c-1.532,3.562 -7.735,7.422 -18.61,11.578c-5.5,2.125 -10.843,3.515 -16.031,4.172c-0.781,0.093 -1.656,0.453 -2.625,1.078c-0.844,0.562 -1.641,0.844 -2.391,0.844c-0.656,0 -1.562,-0.625 -2.718,-1.875c-1.157,-1.25 -1.703,-2.219 -1.641,-2.907c0.031,-0.468 0.188,-1.187 0.469,-2.156c0.25,-0.875 0.359,-1.609 0.328,-2.203c-0.031,-1.469 -0.516,-6.844 -1.453,-16.125c-0.938,0.281 -1.516,0.469 -1.735,0.562c-0.625,0.282 -1.093,0.688 -1.406,1.219c-0.312,0.531 -0.719,0.875 -1.219,1.031c-0.281,0.125 -0.562,0.188 -0.843,0.188c-1.438,0 -2.438,-1.016 -3,-3.047c-0.282,-1.031 -0.282,-1.812 0,-2.344c0.281,-0.531 0.922,-0.984 1.922,-1.359c1.218,-0.406 3.046,-1.016 5.484,-1.828c-0.625,-3.594 -1.125,-6.297 -1.5,-8.11c-0.156,-0.718 -0.203,-1.375 -0.141,-1.968c0.032,-0.625 0.547,-1.063 1.547,-1.313c0.813,-0.219 1.633,-0.125 2.461,0.281c0.828,0.407 1.352,1.016 1.57,1.829c0.094,0.343 -0.031,0.796 -0.375,1.359c-0.343,0.562 -0.484,1.062 -0.421,1.5c0.281,1.594 0.546,3.344 0.796,5.25c7.938,-2.25 15.36,-3.688 22.266,-4.313c1.688,-0.156 3.219,-0.234 4.594,-0.234c3.969,0 6.172,0.578 6.609,1.734c0.156,0.688 0.235,1.375 0.235,2.063c0,3.125 -1.438,5.969 -4.313,8.531c3.5,-0.375 6.109,-0.453 7.828,-0.234c3.313,0.469 4.969,1.812 4.969,4.031c0,0.813 -0.219,1.734 -0.656,2.766Zm-5.953,-1.5c-0.594,-0.063 -1.672,-0.094 -3.235,-0.094c-2.594,0 -5.906,0.391 -9.937,1.172c-3.375,0.656 -8.235,2.031 -14.578,4.125c-0.25,0.094 -0.485,0.14 -0.704,0.14c-1,0 -1.671,-0.765 -2.015,-2.296c-0.063,-0.344 -0.094,-0.657 -0.094,-0.938c0,-1.281 0.594,-2.109 1.781,-2.484l10.594,-3.094c3.031,-0.844 5.531,-1.969 7.5,-3.375c1.719,-1.719 2.578,-3.047 2.578,-3.984c0,-1.219 -1.172,-1.829 -3.515,-1.829c-0.719,0 -1.532,0.079 -2.438,0.235c-7.969,1.469 -14.875,3.14 -20.719,5.015c0.625,4.625 1.094,9.125 1.407,13.5c0.156,2.157 0.234,4.125 0.234,5.907c5.5,0.031 11.25,-1.047 17.25,-3.235c5.687,-2.062 10.437,-4.422 14.25,-7.078c1.25,-0.875 1.875,-1.39 1.875,-1.547c0,-0.062 -0.078,-0.109 -0.234,-0.14Z" style="fill:#fff;fill-rule:nonzero;"/><path d="M214.432,21.127c0.125,0.625 0.188,1.172 0.188,1.641c0,1.5 -0.625,2.422 -1.875,2.765c-0.625,0.157 -1.329,0.157 -2.11,0c-0.844,-0.156 -1.562,-0.171 -2.156,-0.046c-11.313,2.687 -24.625,6.359 -39.938,11.015c0,0.156 -0.031,0.328 -0.093,0.516c-0.219,0.937 -0.25,1.703 -0.094,2.297c0.344,1.343 2.266,2.172 5.766,2.484c1.375,0.125 2.718,0.156 4.031,0.094c1.25,-0.063 2.156,-0.141 2.719,-0.235c6.218,-1.062 13.093,-3.421 20.625,-7.078c0.562,-0.281 1.086,-0.726 1.57,-1.336c0.484,-0.609 0.898,-1.023 1.242,-1.242c0.594,-0.344 1.297,-0.422 2.109,-0.234c0.813,0.219 1.454,0.984 1.922,2.297c0.25,0.687 0.375,1.25 0.375,1.687c0,0.438 -0.109,0.781 -0.328,1.031c-0.437,0.5 -0.953,0.922 -1.547,1.266c-3.093,1.781 -7.156,3.516 -12.187,5.203c-4.75,1.594 -9.016,2.719 -12.797,3.375c-2.375,0.406 -4.531,0.61 -6.469,0.61c-6.094,0 -9.719,-2.172 -10.875,-6.516c-0.25,-0.938 -0.375,-1.891 -0.375,-2.859c-0.094,0.031 -0.375,0.109 -0.844,0.234c-0.625,0.187 -1.265,0.25 -1.921,0.187c-0.625,-0.062 -1.094,-0.796 -1.407,-2.203c-0.25,-1.156 -0.132,-2.179 0.352,-3.07c0.484,-0.891 1.305,-1.43 2.461,-1.617c0.5,-0.063 1.406,-0.094 2.719,-0.094c0.25,-0.719 0.718,-2 1.406,-3.844c0.062,-0.187 0.094,-0.343 0.094,-0.468c0,-0.469 -0.391,-0.735 -1.172,-0.797c-1,-0.032 -1.547,-0.5 -1.641,-1.407c-0.094,-0.812 0.016,-1.656 0.328,-2.531c0.375,-1.031 0.922,-1.594 1.641,-1.687c0.562,-0.188 1.578,-0.266 3.047,-0.235c1.375,0.032 2.375,-0.062 3,-0.281c14.656,-5.562 25.047,-8.562 31.172,-9c1.062,-0.094 1.828,0.039 2.296,0.398c0.469,0.36 0.766,1.086 0.891,2.18c0.281,2.438 -0.516,3.735 -2.391,3.891c-0.687,0.062 -1.453,0.015 -2.296,-0.141c-0.75,-0.156 -1.844,-0.109 -3.282,0.141c-1.125,0.187 -2.25,0.375 -3.375,0.562c-2.718,0.375 -7.156,1.688 -13.312,3.938c-3.094,1.125 -6.375,2.484 -9.844,4.078c-0.312,0.906 -0.797,2.266 -1.453,4.078c0,0.094 -0.031,0.188 -0.094,0.281c13.531,-3.343 27.063,-7.14 40.594,-11.39c0.625,-0.188 1.266,-0.25 1.922,-0.188c0.625,0.094 1.094,0.844 1.406,2.25Z" style="fill:#fff;fill-rule:nonzero;"/><path d="M251.557,13.205c0.469,1.032 0.703,1.922 0.703,2.672c0,0.906 -0.328,1.625 -0.984,2.156c-0.406,0.219 -1.016,0.407 -1.828,0.563c-0.813,0.156 -1.391,0.344 -1.735,0.562c-3.093,1.75 -5,2.86 -5.718,3.329c-2.125,1.406 -3.782,2.828 -4.969,4.265c-0.375,0.438 -0.828,1.172 -1.36,2.203c-0.437,0.875 -0.984,1.641 -1.64,2.297l1.734,19.453c0.063,0.969 0.016,1.641 -0.14,2.016c-0.219,0.562 -0.766,0.844 -1.641,0.844c-2.031,0.031 -3.109,-0.735 -3.234,-2.297l0.562,-4.453l-1.547,-17.203c-1.687,-1.688 -4.734,-3.641 -9.14,-5.86c-3.5,-1.75 -7.125,-3.406 -10.875,-4.969c-1.563,-0.625 -2.344,-1.546 -2.344,-2.765c0,-0.313 0.031,-0.641 0.094,-0.985c0.187,-1.343 0.703,-2.156 1.546,-2.437c0.875,-0.281 1.641,-0.281 2.297,0c0.438,0.187 0.883,0.57 1.336,1.148c0.453,0.578 0.899,0.961 1.336,1.149c6.75,3.062 12.735,6.265 17.953,9.609l16.172,-12.094c0.531,-0.406 1.094,-0.687 1.688,-0.843c0.593,-0.125 1.172,0.422 1.734,1.64Z" style="fill:#fff;fill-rule:nonzero;"/><path d="M294.26,41.94c0,0.531 -0.25,1.14 -0.75,1.828c-0.687,0.937 -1.406,1.437 -2.156,1.5c-1.375,0.125 -2.141,-0.75 -2.297,-2.625c-0.062,-0.688 -0.234,-1.235 -0.516,-1.641c-0.406,-0.375 -0.812,-0.765 -1.218,-1.172l-1.078,-1.078c-0.438,0 -0.954,-0.14 -1.547,-0.422c-1.344,-0.812 -3.188,-1.218 -5.532,-1.218c-4.343,0.031 -9.671,0.906 -15.984,2.625c-2.875,0.781 -5.422,1.515 -7.641,2.203c-0.562,0.187 -1.257,0.617 -2.085,1.289c-0.829,0.672 -1.493,1.07 -1.993,1.195c-0.5,0.125 -0.937,0.047 -1.312,-0.234c-0.094,0.062 -0.156,0.125 -0.188,0.187c-0.406,0.406 -0.679,0.969 -0.82,1.688c-0.141,0.718 -0.398,1.265 -0.773,1.64c-0.469,0.469 -1.141,0.735 -2.016,0.797c-0.844,0.063 -1.609,-0.461 -2.297,-1.57c-0.687,-1.11 -0.859,-2.008 -0.516,-2.695c0.344,-0.688 0.735,-1.25 1.172,-1.688c7.094,-7 13.11,-14.547 18.047,-22.641c0.188,-0.781 0.219,-1.546 0.094,-2.296c-0.094,-0.438 -0.141,-0.844 -0.141,-1.219c0,-2.188 1.891,-3.875 5.672,-5.063c0.969,-0.312 1.781,-0.109 2.438,0.61c0.375,0.375 0.562,0.812 0.562,1.312c0,0.438 -0.39,1.453 -1.172,3.047l-0.89,1.734c1.343,1.969 3.64,4.344 6.89,7.125c0.032,0.032 2.657,2.141 7.875,6.329c0.719,0.562 1.5,1.203 2.344,1.921c0.313,0.157 0.578,0.375 0.797,0.657c1.656,1.343 2.719,2.218 3.187,2.625c1.282,1.156 2.219,2.14 2.813,2.953c0.687,0.969 1.031,1.734 1.031,2.297Zm-16.359,-9.797c-5.125,-3.781 -8.75,-7.094 -10.875,-9.938c-3.156,4.719 -6.531,9.36 -10.125,13.922c6.5,-1.531 9.969,-2.344 10.406,-2.437c4,-0.813 7.531,-1.328 10.594,-1.547Z" style="fill:#fff;fill-rule:nonzero;"/><path d="M327.026,45.033c-0.094,1 -1.047,1.657 -2.86,1.969c-0.468,0.094 -0.89,0.141 -1.265,0.141c-1.531,0 -2.375,-1.031 -2.531,-3.094c-0.094,-0.875 -0.454,-1.641 -1.079,-2.297c-1.25,-1.25 -3.109,-2.859 -5.578,-4.828c-2.843,-2.125 -7.109,-5.359 -12.797,-9.703c-1.968,-1.531 -3.75,-3.047 -5.343,-4.547c0.218,2.281 0.406,4.875 0.562,7.781c0.219,5.407 0.156,10.438 -0.187,15.094c-0.094,0.969 -0.25,1.594 -0.469,1.875c-0.344,0.438 -0.953,0.531 -1.828,0.281c-2.125,-0.562 -3.125,-1.687 -3,-3.375c0.031,-0.5 0.273,-1.109 0.726,-1.828c0.454,-0.719 0.696,-1.359 0.727,-1.922c0.094,-1.875 0.172,-3.578 0.234,-5.109c0.125,-3.469 -0.062,-6.938 -0.562,-10.406l-0.656,-5.016c-0.094,-0.531 -0.368,-1.156 -0.821,-1.875c-0.453,-0.719 -0.726,-1.344 -0.82,-1.875c-0.219,-1.031 0.562,-2 2.344,-2.906c0.906,-0.469 1.656,-0.703 2.25,-0.703c0.531,0 0.914,0.195 1.148,0.586c0.235,0.39 0.602,1.304 1.102,2.742c0.343,0.969 0.906,1.812 1.687,2.531c2.063,1.906 5.61,4.703 10.641,8.391c3.25,2.406 5.578,4.172 6.984,5.297c2.594,2.062 4.766,4.031 6.516,5.906c0,-1.594 0.015,-3.235 0.047,-4.922c0.031,-2.781 -0.188,-6.016 -0.657,-9.703c-0.5,-3.188 -0.984,-6.391 -1.453,-9.61c-0.093,-0.562 -0.468,-1.179 -1.125,-1.851c-0.656,-0.672 -1.031,-1.352 -1.125,-2.039c-0.156,-0.813 0.125,-1.563 0.844,-2.25c0.625,-0.594 1.375,-0.969 2.25,-1.125c0.844,-0.156 1.453,0.015 1.828,0.515c0.25,0.313 0.469,0.954 0.656,1.922c1.219,7.344 2.047,13.703 2.485,19.078c0.312,4.125 0.453,7.75 0.422,10.875c-0.032,0.625 0.086,1.602 0.351,2.93c0.266,1.328 0.383,2.352 0.352,3.07Z" style="fill:#fff;fill-rule:nonzero;"/><path d="M379.713,27.455c-0.406,0.532 -0.922,0.969 -1.547,1.313c-7.125,4.031 -15.359,7.859 -24.703,11.484c-5.125,2 -10.031,3.547 -14.718,4.641c-2.438,0.594 -4.579,0.89 -6.422,0.89c-2.813,0 -4.766,-0.593 -5.86,-1.781c-0.937,-1.031 -1.406,-2.187 -1.406,-3.469c0,-2.406 1.75,-5.328 5.25,-8.765c3.406,-3.344 7.859,-7.055 13.359,-11.133c5.5,-4.078 10.594,-6.883 15.282,-8.414c1.187,-0.375 2.297,-0.563 3.328,-0.563c1.406,0 2.672,0.36 3.797,1.079c0.562,0.406 0.797,1.281 0.703,2.625c-0.063,1.031 -0.344,1.843 -0.844,2.437c-0.594,0.656 -1.391,0.859 -2.391,0.609c-0.5,-0.218 -1.015,-0.429 -1.546,-0.632c-0.532,-0.204 -1.094,-0.227 -1.688,-0.071c-4.719,1.344 -9.672,3.953 -14.859,7.828c-4.719,3.532 -8.875,7.172 -12.469,10.922c-1.406,1.5 -2.109,2.5 -2.109,3c0,0.188 0.078,0.328 0.234,0.422c0.656,0.375 1.859,0.485 3.609,0.328c5.063,-0.468 11.407,-2.25 19.032,-5.343c6.031,-2.438 12.109,-5.375 18.234,-8.813c0.75,-0.406 1.273,-1 1.57,-1.781c0.297,-0.781 0.68,-1.344 1.149,-1.688c0.375,-0.187 0.812,-0.281 1.312,-0.281c0.406,0 0.844,0.047 1.313,0.141c0.937,0.218 1.711,0.945 2.32,2.179c0.609,1.235 0.633,2.18 0.07,2.836Z" style="fill:#fff;fill-rule:nonzero;"/><path d="M430.104,21.127c0.125,0.625 0.187,1.172 0.187,1.641c0,1.5 -0.625,2.422 -1.875,2.765c-0.625,0.157 -1.328,0.157 -2.109,0c-0.844,-0.156 -1.562,-0.171 -2.156,-0.046c-11.313,2.687 -24.625,6.359 -39.938,11.015c0,0.156 -0.031,0.328 -0.093,0.516c-0.219,0.937 -0.25,1.703 -0.094,2.297c0.344,1.343 2.265,2.172 5.765,2.484c1.375,0.125 2.719,0.156 4.032,0.094c1.25,-0.063 2.156,-0.141 2.718,-0.235c6.219,-1.062 13.094,-3.421 20.625,-7.078c0.563,-0.281 1.086,-0.726 1.571,-1.336c0.484,-0.609 0.898,-1.023 1.242,-1.242c0.594,-0.344 1.297,-0.422 2.109,-0.234c0.813,0.219 1.453,0.984 1.922,2.297c0.25,0.687 0.375,1.25 0.375,1.687c0,0.438 -0.109,0.781 -0.328,1.031c-0.437,0.5 -0.953,0.922 -1.547,1.266c-3.094,1.781 -7.156,3.516 -12.187,5.203c-4.75,1.594 -9.016,2.719 -12.797,3.375c-2.375,0.406 -4.531,0.61 -6.469,0.61c-6.094,0 -9.719,-2.172 -10.875,-6.516c-0.25,-0.938 -0.375,-1.891 -0.375,-2.859c-0.094,0.031 -0.375,0.109 -0.844,0.234c-0.625,0.187 -1.265,0.25 -1.922,0.187c-0.625,-0.062 -1.093,-0.796 -1.406,-2.203c-0.25,-1.156 -0.133,-2.179 0.352,-3.07c0.484,-0.891 1.304,-1.43 2.461,-1.617c0.5,-0.063 1.406,-0.094 2.718,-0.094c0.25,-0.719 0.719,-2 1.407,-3.844c0.062,-0.187 0.093,-0.343 0.093,-0.468c0,-0.469 -0.39,-0.735 -1.171,-0.797c-1,-0.032 -1.547,-0.5 -1.641,-1.407c-0.094,-0.812 0.016,-1.656 0.328,-2.531c0.375,-1.031 0.922,-1.594 1.641,-1.687c0.562,-0.188 1.578,-0.266 3.047,-0.235c1.375,0.032 2.375,-0.062 3,-0.281c14.656,-5.562 25.046,-8.562 31.171,-9c1.063,-0.094 1.829,0.039 2.297,0.398c0.469,0.36 0.766,1.086 0.891,2.18c0.281,2.438 -0.516,3.735 -2.391,3.891c-0.687,0.062 -1.453,0.015 -2.297,-0.141c-0.75,-0.156 -1.843,-0.109 -3.281,0.141c-1.125,0.187 -2.25,0.375 -3.375,0.562c-2.719,0.375 -7.156,1.688 -13.312,3.938c-3.094,1.125 -6.375,2.484 -9.844,4.078c-0.313,0.906 -0.797,2.266 -1.453,4.078c0,0.094 -0.031,0.188 -0.094,0.281c13.531,-3.343 27.063,-7.14 40.594,-11.39c0.625,-0.188 1.265,-0.25 1.922,-0.188c0.625,0.094 1.093,0.844 1.406,2.25Z" style="fill:#fff;fill-rule:nonzero;"/></g></svg>