<?xml version="1.0" encoding="UTF-8" standalone="no"?><!DOCTYPE svg PUBLIC "-//W3C//DTD SVG 1.1//EN" "http://www.w3.org/Graphics/SVG/1.1/DTD/svg11.dtd"><svg width="100%" height="100%" viewBox="0 0 237 138" version="1.1" xmlns="http://www.w3.org/2000/svg" xmlns:xlink="http://www.w3.org/1999/xlink" xml:space="preserve" xmlns:serif="http://www.serif.com/" style="fill-rule:evenodd;clip-rule:evenodd;stroke-linejoin:round;stroke-miterlimit:2;"><g id="Layer1"></g><g id="Layer3"></g><g id="Layer11" serif:id="Layer1"></g><g id="Layer2"><path d="M113.102,58.278l0.198,0l0.098,0.001l0.099,0l0.097,0.001l0.099,0.001l0.098,0.001l0.097,0.001l0.099,0.001l0.098,0.002l0.099,0.001l0.097,0.002l0.1,0.001l0.097,0.002l0.097,0.002l0.1,0.003l0.097,0.002l0.099,0.002l0.097,0.003l0.1,0.003l0.097,0.002l0.097,0.003l0.1,0.004l0.097,0.003l0.099,0.003l0.098,0.004l0.097,0.004l0.099,0.004l0.098,0.004l0.099,0.004l0.097,0.004l0.097,0.005l0.1,0.005l0.097,0.004l0.099,0.005l0.098,0.006l0.097,0.005l0.099,0.005l0.098,0.006l0.097,0.006l0.391,0.023l0.391,0.024l0.392,0.022l0.391,0.023l0.389,0.023l0.391,0.022l0.392,0.022l0.391,0.022l0.391,0.021l0.389,0.021l0.392,0.021l0.391,0.021l0.391,0.02l0.391,0.021l0.392,0.02l0.391,0.019l0.391,0.02l0.389,0.019l0.392,0.019l0.391,0.019l0.391,0.019l0.391,0.018l0.392,0.019l0.391,0.017l0.391,0.018l0.391,0.018l0.392,0.017l0.391,0.017l0.389,0.017l0.391,0.016l0.392,0.017l0.391,0.016l0.391,0.016l0.391,0.016l0.392,0.015l0.391,0.016l0.391,0.015l0.391,0.015l0.391,0.014l0.392,0.015l0.391,0.014l0.391,0.014l0.391,0.014l0.392,0.014l0.391,0.014l0.782,0.026l0.392,0.013l0.782,0.025l0.393,0.013l0.392,0.012l0.391,0.012l0.391,0.012l0.391,0.011l0.392,0.011l0.391,0.012l0.391,0.011l0.391,0.011l0.783,0.021l0.391,0.01l0.391,0.01l0.392,0.01l0.391,0.01l0.391,0.01l0.391,0.009l0.392,0.01l0.782,0.018l0.391,0.008l0.393,0.009l0.392,0.008l0.391,0.009l0.391,0.008l0.783,0.016l0.391,0.007l0.391,0.008l0.783,0.014l0.391,0.007l0.391,0.007l0.783,0.014l0.391,0.006l0.393,0.006l0.389,0.007l0.394,0.006l0.391,0.006l0.782,0.011l0.783,0.011l0.391,0.005l0.783,0.01l0.391,0.005l0.391,0.004l0.391,0.005l0.783,0.009l0.782,0.008l0.391,0.003l0.783,0.008l0.391,0.004l0.391,0.003l0.392,0.003l0.782,0.006l0.783,0.006l0.782,0.006l0.783,0.005l0.782,0.004l0.783,0.004l0.782,0.004l0.783,0.003l0.782,0.003l0.781,0.003l0.782,0.002l0.783,0.002l0.782,0.002l0.781,0.001l0.782,0.001l0.783,0l0.782,0.001l0.781,0l0.782,-0.001l0.78,0l0.783,-0.001l0.78,-0.001l0.783,-0.001l0.78,-0.002l0.783,-0.002l0.78,-0.002l0.781,-0.002l0.782,-0.002l0.781,-0.002l0.78,-0.003l0.781,-0.003l0.78,-0.003l0.781,-0.003l0.78,-0.003l0.783,-0.004l1.559,-0.007l1.561,-0.007l1.561,-0.007l1.559,-0.008l1.559,-0.008l3.118,-0.016l1.557,-0.007l1.557,-0.008l1.557,-0.007l1.557,-0.006l0.779,-0.003l0.778,-0.004l0.777,-0.002l0.778,-0.003l0.779,-0.003l0.776,-0.002l0.779,-0.002l0.776,-0.002l0.777,-0.002l0.776,-0.002l0.777,-0.001l0.778,-0.001l0.777,-0.001l0.774,-0.001l0.777,0l0.777,-0.001l0.542,0.075l0.478,0.217l0.356,0.331l0.188,0.407l0,0.433l-0.188,0.406l-0.356,0.332l-0.476,0.217l-0.544,0.075l-0.775,0l-0.775,0l-0.774,0.001l-0.777,0.001l-0.774,0.001l-0.777,0.001l-0.774,0.002l-0.777,0.002l-0.776,0.002l-0.777,0.002l-0.776,0.003l-0.777,0.002l-0.776,0.003l-0.777,0.003l-0.778,0.003l-0.777,0.003l-1.557,0.007l-1.555,0.007l-1.557,0.007l-1.557,0.008l-3.118,0.015l-1.559,0.008l-1.559,0.008l-1.561,0.007l-1.561,0.008l-1.563,0.007l-0.781,0.003l-0.78,0.003l-0.783,0.003l-0.78,0.003l-0.783,0.003l-0.78,0.003l-0.783,0.002l-0.782,0.003l-0.783,0.002l-0.782,0.002l-0.783,0.001l-0.782,0.002l-0.783,0.001l-0.782,0.001l-0.783,0.001l-0.782,0.001l-0.784,0l-0.783,0l-0.782,0l-0.785,-0.001l-0.782,-0.001l-0.785,-0.001l-0.782,-0.002l-0.785,-0.001l-0.784,-0.003l-0.785,-0.002l-0.782,-0.003l-0.785,-0.004l-0.784,-0.003l-0.785,-0.004l-0.784,-0.005l-0.785,-0.005l-0.784,-0.005l-0.785,-0.006l-0.786,-0.007l-0.391,-0.003l-0.394,-0.003l-0.393,-0.004l-0.391,-0.004l-0.393,-0.003l-0.391,-0.004l-0.394,-0.004l-0.393,-0.004l-0.391,-0.005l-0.393,-0.004l-0.394,-0.005l-0.393,-0.004l-0.391,-0.005l-0.393,-0.005l-0.394,-0.005l-0.393,-0.005l-0.391,-0.006l-0.393,-0.005l-0.393,-0.006l-0.394,-0.006l-0.391,-0.006l-0.393,-0.006l-0.393,-0.006l-0.394,-0.006l-0.393,-0.007l-0.391,-0.006l-0.393,-0.007l-0.394,-0.007l-0.393,-0.007l-0.393,-0.007l-0.393,-0.008l-0.393,-0.007l-0.392,-0.008l-0.393,-0.008l-0.393,-0.008l-0.393,-0.008l-0.394,-0.008l-0.393,-0.009l-0.393,-0.008l-0.393,-0.009l-0.394,-0.009l-0.393,-0.009l-0.393,-0.01l-0.391,-0.009l-0.395,-0.01l-0.394,-0.01l-0.391,-0.01l-0.393,-0.01l-0.393,-0.01l-0.394,-0.011l-0.393,-0.011l-0.393,-0.01l-0.393,-0.012l-0.394,-0.011l-0.393,-0.011l-0.393,-0.012l-0.393,-0.012l-0.393,-0.012l-0.394,-0.012l-0.393,-0.012l-0.393,-0.013l-0.393,-0.013l-0.394,-0.013l-0.393,-0.013l-0.393,-0.013l-0.395,-0.014l-0.394,-0.014l-0.393,-0.014l-0.393,-0.014l-0.393,-0.014l-0.393,-0.015l-0.394,-0.015l-0.393,-0.015l-0.393,-0.015l-0.393,-0.015l-0.394,-0.016l-0.393,-0.016l-0.393,-0.016l-0.393,-0.016l-0.394,-0.017l-0.395,-0.016l-0.393,-0.017l-0.393,-0.018l-0.393,-0.017l-0.394,-0.018l-0.393,-0.017l-0.393,-0.018l-0.393,-0.019l-0.394,-0.018l-0.393,-0.019l-0.393,-0.019l-0.395,-0.019l-0.393,-0.02l-0.394,-0.019l-0.393,-0.02l-0.393,-0.02l-0.393,-0.021l-0.394,-0.02l-0.393,-0.021l-0.393,-0.021l-0.395,-0.022l-0.394,-0.021l-0.393,-0.022l-0.393,-0.022l-0.393,-0.023l-0.393,-0.022l-0.394,-0.023l-0.393,-0.023l-0.393,-0.023l-0.393,-0.024l-0.092,-0.005l-0.091,-0.006l-0.091,-0.005l-0.092,-0.005l-0.091,-0.005l-0.091,-0.004l-0.092,-0.005l-0.091,-0.004l-0.092,-0.004l-0.091,-0.005l-0.093,-0.004l-0.092,-0.003l-0.091,-0.004l-0.091,-0.003l-0.094,-0.004l-0.091,-0.003l-0.091,-0.003l-0.094,-0.003l-0.091,-0.003l-0.093,-0.003l-0.092,-0.002l-0.091,-0.003l-0.093,-0.002l-0.092,-0.002l-0.093,-0.002l-0.094,-0.002l-0.091,-0.002l-0.093,-0.002l-0.094,-0.001l-0.091,-0.001l-0.093,-0.002l-0.094,-0.001l-0.091,-0.001l-0.093,-0.001l-0.094,-0.001l-0.093,0l-0.093,-0.001l-0.094,0l-0.091,0l-0.093,-0.001l-0.187,0l-0.189,0.001l-0.186,0l-0.187,0.002l-0.187,0.001l-0.188,0.002l-0.187,0.003l-0.189,0.003l-0.186,0.003l-0.189,0.004l-0.189,0.004l-0.188,0.004l-0.189,0.005l-0.189,0.005l-0.189,0.006l-0.19,0.005l-0.189,0.007l-0.189,0.006l-0.19,0.007l-0.189,0.007l-0.19,0.007l-0.191,0.008l-0.191,0.008l-0.188,0.008l-0.191,0.009l-0.191,0.008l-0.192,0.009l-0.191,0.01l-0.191,0.009l-0.19,0.01l-0.193,0.01l-0.191,0.01l-0.19,0.01l-0.193,0.01l-0.193,0.011l-0.19,0.011l-0.193,0.011l-0.193,0.011l-0.192,0.011l-0.191,0.012l-0.385,0.023l-0.387,0.024l-0.386,0.024l-0.385,0.024l-0.387,0.025l-0.388,0.024l-0.774,0.05l-0.387,0.025l-0.39,0.025l-0.387,0.024l-0.389,0.025l-0.389,0.024l-0.39,0.023l-0.194,0.012l-0.195,0.011l-0.195,0.012l-0.194,0.011l-0.195,0.011l-0.194,0.011l-0.195,0.011l-0.195,0.01l-0.196,0.011l-0.195,0.01l-0.195,0.01l-0.194,0.01l-0.195,0.009l-0.194,0.01l-0.197,0.009l-0.195,0.009l-0.194,0.008l-0.197,0.009l-0.195,0.008l-0.194,0.008l-0.195,0.007l-0.196,0.007l-0.195,0.007l-0.195,0.007l-0.196,0.006l-0.195,0.006l-0.195,0.006l-0.196,0.005l-0.195,0.005l-0.194,0.004l-0.195,0.004l-0.197,0.004l-0.194,0.003l-0.195,0.003l-0.197,0.003l-0.194,0.002l-0.195,0.001l-0.196,0.002l-0.195,0l-0.193,0l-0.671,0.001l-0.669,0l-0.668,0l-0.669,0.001l-0.669,0l-0.669,0.001l-0.668,0.001l-0.669,0.002l-0.669,0.001l-0.668,0.002l-0.669,0.001l-0.669,0.002l-0.667,0.002l-0.67,0.002l-0.669,0.002l-0.667,0.003l-0.67,0.002l-0.669,0.003l-0.667,0.002l-0.669,0.003l-1.337,0.006l-1.337,0.007l-1.336,0.006l-1.337,0.008l-1.336,0.007l-1.337,0.008l-1.337,0.009l-1.338,0.008l-1.337,0.01l-1.336,0.009l-1.337,0.009l-1.336,0.01l-1.337,0.01l-1.337,0.01l-1.336,0.011l-1.337,0.01l-2.673,0.021l-2.673,0.022l-2.673,0.022l-2.673,0.022l-2.674,0.022l-2.675,0.021l-1.336,0.01l-1.337,0.011l-1.336,0.01l-1.339,0.01l-1.337,0.01l-1.336,0.009l-1.339,0.01l-1.336,0.009l-1.339,0.008l-1.338,0.009l-1.338,0.008l-1.338,0.007l-1.338,0.008l-1.338,0.007l-1.338,0.006l-1.339,0.006l-0.669,0.003l-0.669,0.003l-0.67,0.002l-0.669,0.003l-0.67,0.002l-0.669,0.002l-0.67,0.002l-0.669,0.002l-0.67,0.002l-0.669,0.002l-0.67,0.001l-0.67,0.001l-0.669,0.002l-0.67,0.001l-0.67,0.001l-0.67,0l-0.67,0.001l-0.67,0l-0.669,0.001l-0.67,0l-0.544,-0.075l-0.478,-0.217l-0.354,-0.331l-0.189,-0.407l0,-0.433l0.188,-0.406l0.355,-0.332l0.478,-0.216l0.543,-0.076l0.669,0l0.669,0l0.669,0l0.669,-0.001l0.669,-0.001l0.669,-0.001l0.669,-0.001l0.669,-0.001l0.668,-0.001l0.669,-0.002l0.669,-0.001l0.669,-0.002l0.668,-0.002l0.669,-0.002l0.669,-0.002l0.668,-0.003l0.669,-0.002l0.669,-0.003l0.668,-0.002l0.669,-0.003l1.337,-0.006l1.337,-0.007l1.337,-0.007l1.337,-0.007l1.337,-0.008l1.337,-0.008l1.336,-0.008l1.337,-0.009l1.336,-0.009l1.337,-0.009l1.337,-0.01l1.336,-0.009l1.337,-0.01l1.336,-0.01l1.337,-0.011l1.337,-0.01l2.673,-0.022l2.673,-0.021l2.675,-0.022l2.673,-0.022l2.673,-0.022l2.673,-0.021l1.339,-0.011l1.337,-0.01l1.336,-0.01l1.337,-0.01l1.338,-0.01l1.337,-0.009l1.337,-0.01l1.338,-0.009l1.337,-0.008l1.338,-0.009l1.339,-0.008l1.336,-0.008l1.339,-0.007l1.339,-0.007l1.338,-0.006l1.337,-0.006l0.669,-0.003l0.669,-0.003l0.67,-0.002l0.669,-0.003l0.669,-0.002l0.669,-0.002l0.67,-0.002l0.671,-0.002l0.669,-0.002l0.67,-0.002l0.669,-0.001l0.669,-0.002l0.669,-0.001l0.67,-0.001l0.671,-0.001l0.669,0l0.669,-0.001l0.67,-0.001l0.671,0l0.667,0l0.187,0l0.187,-0.001l0.184,-0.001l0.187,-0.001l0.187,-0.002l0.186,-0.003l0.187,-0.002l0.187,-0.004l0.187,-0.003l0.186,-0.004l0.187,-0.004l0.189,-0.005l0.186,-0.005l0.189,-0.006l0.189,-0.005l0.188,-0.006l0.189,-0.007l0.189,-0.006l0.188,-0.007l0.189,-0.007l0.189,-0.008l0.19,-0.008l0.189,-0.008l0.191,-0.008l0.188,-0.009l0.191,-0.009l0.191,-0.009l0.19,-0.01l0.191,-0.009l0.191,-0.01l0.19,-0.01l0.191,-0.01l0.191,-0.011l0.192,-0.01l0.191,-0.011l0.19,-0.011l0.193,-0.011l0.191,-0.011l0.192,-0.011l0.193,-0.012l0.385,-0.023l0.384,-0.024l0.387,-0.024l0.385,-0.025l0.387,-0.024l0.388,-0.025l0.774,-0.05l0.388,-0.025l0.389,-0.024l0.389,-0.025l0.389,-0.024l0.39,-0.024l0.389,-0.023l0.194,-0.012l0.197,-0.011l0.195,-0.012l0.194,-0.011l0.197,-0.011l0.195,-0.011l0.194,-0.01l0.197,-0.011l0.194,-0.01l0.197,-0.01l0.195,-0.01l0.196,-0.01l0.195,-0.009l0.197,-0.01l0.194,-0.008l0.197,-0.009l0.196,-0.009l0.197,-0.008l0.195,-0.008l0.196,-0.007l0.197,-0.008l0.195,-0.007l0.196,-0.006l0.197,-0.007l0.196,-0.006l0.197,-0.005l0.195,-0.006l0.196,-0.005l0.197,-0.004l0.196,-0.005l0.197,-0.004l0.197,-0.003l0.194,-0.003l0.197,-0.003l0.197,-0.002l0.196,-0.002l0.197,-0.001l0.196,-0.001l0.197,0l0.195,0Z" style="fill:#fff;"/><path d="M17.797,54.658l0.425,0.276l0.278,0.374l0.099,0.426l0,0.012l0.001,0.007l0,0.008l0,0.009l0.001,0.009l0.001,0.011l0.001,0.012l0.001,0.012l0.002,0.014l0.001,0.014l0.002,0.015l0.002,0.016l0.003,0.016l0.003,0.017l0.003,0.019l0.003,0.018l0.003,0.019l0.004,0.02l0.004,0.021l0.004,0.021l0.004,0.021l0.005,0.023l0.005,0.022l0.005,0.022l0.011,0.05l0.012,0.049l0.013,0.052l0.014,0.053l0.014,0.055l0.015,0.056l0.016,0.058l0.017,0.059l0.017,0.06l0.018,0.061l0.019,0.063l0.019,0.063l0.019,0.065l0.02,0.065l0.041,0.134l0.043,0.137l0.043,0.139l0.044,0.142l0.045,0.144l0.045,0.145l0.022,0.073l0.022,0.074l0.022,0.074l0.022,0.074l0.022,0.074l0.022,0.075l0.021,0.074l0.021,0.075l0.02,0.075l0.02,0.075l0.02,0.074l0.019,0.075l0.019,0.075l0.018,0.075l0.018,0.075l0.016,0.074l0.009,0.038l0.016,0.075l0.007,0.038l0.008,0.037l0.007,0.037l0.007,0.038l0.007,0.037l0.006,0.038l0.006,0.037l0.007,0.037l0.005,0.038l0.006,0.037l0.005,0.038l0.005,0.037l0.005,0.037l0.005,0.038l0.004,0.037l0.004,0.038l0.003,0.036l0.009,0.095l0.008,0.094l0.008,0.094l0.008,0.093l0.016,0.188l0.007,0.094l0.008,0.094l0.007,0.093l0.007,0.094l0.013,0.188l0.014,0.187l0.012,0.187l0.012,0.188l0.011,0.187l0.011,0.188l0.01,0.187l0.01,0.187l0.009,0.188l0.009,0.187l0.008,0.187l0.007,0.187l0.008,0.188l0.006,0.187l0.007,0.187l0.005,0.187l0.006,0.187l0.005,0.187l0.004,0.187l0.004,0.187l0.004,0.187l0.004,0.187l0.002,0.187l0.003,0.187l0.002,0.187l0.002,0.187l0.002,0.187l0.001,0.186l0.001,0.187l0.001,0.187l0,0.186l0,0.187l0,0.187l-0.001,0.186l0,0.186l-0.001,0.187l-0.002,0.186l-0.001,0.187l-0.002,0.186l-0.002,0.186l-0.002,0.187l-0.002,0.186l-0.002,0.186l-0.003,0.186l-0.002,0.186l-0.006,0.372l-0.006,0.372l-0.007,0.372l-0.007,0.371l-0.007,0.371l-0.015,0.742l-0.015,0.741l-0.007,0.371l-0.007,0.37l-0.007,0.369l-0.006,0.37l-0.006,0.369l-0.002,0.185l-0.003,0.184l-0.002,0.185l-0.003,0.184l-0.001,0.184l-0.002,0.185l-0.002,0.184l-0.001,0.184l-0.001,0.184l-0.001,0.184l-0.001,0.184l-0.001,0.184l0,0.183l0,0.184l0.001,0.184l0,0.183l0.001,0.184l0.001,0.183l0.002,0.184l0.002,0.183l0.002,0.183l0.002,0.183l0.003,0.183l0.004,0.183l0.003,0.183l0.004,0.183l0.005,0.183l0.005,0.182l0.005,0.183l0.005,0.183l0.007,0.182l0.006,0.182l0.007,0.183l0.008,0.182l0.008,0.182l0.008,0.182l0.009,0.182l0.009,0.182l0.01,0.182l0.011,0.181l0.011,0.182l0.011,0.181l0.012,0.182l0.013,0.181l0.013,0.182l0.007,0.09l0.014,0.181l0.007,0.091l0.007,0.09l0.008,0.091l0.008,0.09l0.007,0.091l0.009,0.09l0.008,0.092l0.007,0.083l0.015,0.169l0.014,0.169l0.013,0.169l0.006,0.084l0.006,0.084l0.006,0.085l0.006,0.084l0.006,0.084l0.006,0.085l0.01,0.169l0.005,0.084l0.005,0.084l0.004,0.085l0.005,0.084l0.004,0.084l0.004,0.085l0.004,0.084l0.008,0.168l0.007,0.169l0.006,0.168l0.006,0.169l0.006,0.168l0.004,0.169l0.005,0.168l0.003,0.168l0.003,0.169l0.003,0.168l0.002,0.168l0.002,0.168l0.001,0.168l0.001,0.168l0,0.169l0,0.167l0,0.168l-0.001,0.168l-0.002,0.168l-0.001,0.168l-0.002,0.168l-0.003,0.168l-0.002,0.167l-0.004,0.168l-0.003,0.168l-0.004,0.167l-0.004,0.168l-0.004,0.167l-0.005,0.166l-0.005,0.169l-0.005,0.166l-0.005,0.169l-0.006,0.166l-0.006,0.167l-0.006,0.167l-0.006,0.168l-0.006,0.166l-0.007,0.167l-0.007,0.167l-0.014,0.333l-0.014,0.333l-0.015,0.334l-0.015,0.332l-0.016,0.333l-0.031,0.664l-0.015,0.331l-0.016,0.332l-0.015,0.33l-0.015,0.332l-0.014,0.33l-0.014,0.331l-0.007,0.165l-0.006,0.165l-0.007,0.165l-0.006,0.165l-0.006,0.164l-0.006,0.165l-0.005,0.163l-0.006,0.165l-0.005,0.166l-0.005,0.163l-0.004,0.165l-0.005,0.164l-0.004,0.163l-0.004,0.166l-0.003,0.163l-0.004,0.164l-0.002,0.163l-0.003,0.164l-0.002,0.163l-0.002,0.164l-0.001,0.163l-0.001,0.164l-0.001,0.162l0,0.164l0,0.163l0,0.162l0.001,0.164l0.002,0.162l0.002,0.163l0.002,0.162l0.003,0.162l0.003,0.162l0.004,0.162l0.004,0.164l0.005,0.162l0.006,0.162l0.006,0.16l0.006,0.162l0.007,0.162l0.008,0.162l0.004,0.081l0.004,0.08l0.004,0.081l0.009,0.162l0.005,0.079l0.005,0.081l0.005,0.081l0.005,0.08l0.012,0.162l0.005,0.079l0.006,0.081l0.006,0.081l0.006,0.079l0.007,0.081l0.006,0.08l0.007,0.081l0.007,0.079l0.007,0.081l0.007,0.08l0.008,0.081l0.007,0.079l0.008,0.081l0.016,0.159l0.016,0.159l0.016,0.16l0.017,0.159l0.017,0.161l0.017,0.16l0.018,0.161l0.017,0.16l0.018,0.159l0.019,0.162l0.018,0.16l0.019,0.161l0.019,0.162l0.019,0.16l0.019,0.162l0.02,0.161l0.039,0.324l0.021,0.162l0.041,0.324l0.02,0.162l0.042,0.324l0.043,0.325l0.043,0.326l0.043,0.326l0.044,0.327l0.045,0.327l0.044,0.327l0.045,0.327l0.046,0.327l0.09,0.657l0.092,0.658l0.091,0.659l0.045,0.328l0.045,0.331l0.045,0.33l0.044,0.33l0.044,0.33l0.044,0.331l0.043,0.33l0.043,0.33l0.021,0.165l0.021,0.165l0.021,0.165l0.021,0.167l0.02,0.165l0.021,0.165l0.04,0.331l0.019,0.165l0.02,0.166l0.019,0.165l0.019,0.166l0.019,0.165l0.037,0.33l0.018,0.167l0.018,0.165l0.018,0.165l0.017,0.165l0.017,0.165l0.017,0.165l0.017,0.165l0.016,0.165l0.015,0.166l0.016,0.165l0.015,0.165l0.015,0.165l0.015,0.165l0.014,0.165l0.014,0.165l0.014,0.165l0.013,0.165l0.013,0.166l0.012,0.163l0.012,0.165l0.012,0.165l0.011,0.166l0.011,0.163l0.011,0.165l0.01,0.165l0.01,0.164l0.009,0.165l0.008,0.164l0.009,0.163l0.008,0.165l0.007,0.164l0.007,0.165l0.007,0.163l0.006,0.164l0.005,0.164l0.005,0.163l0.005,0.165l0.004,0.162l0.003,0.164l0.003,0.163l0.003,0.164l0.002,0.163l0.001,0.164l0.001,0.162l0,0.162l-0.095,0.427l-0.275,0.374l-0.422,0.279l-0.518,0.149l-0.552,0l-0.519,-0.148l-0.423,-0.277l-0.277,-0.374l-0.096,-0.427l-0.001,-0.157l0,-0.157l-0.002,-0.156l-0.001,-0.158l-0.003,-0.157l-0.003,-0.157l-0.003,-0.158l-0.004,-0.157l-0.005,-0.157l-0.004,-0.158l-0.006,-0.158l-0.005,-0.158l-0.007,-0.159l-0.007,-0.159l-0.007,-0.157l-0.007,-0.159l-0.008,-0.159l-0.009,-0.16l-0.009,-0.159l-0.009,-0.159l-0.01,-0.16l-0.01,-0.159l-0.011,-0.161l-0.011,-0.16l-0.011,-0.159l-0.012,-0.16l-0.012,-0.161l-0.013,-0.16l-0.012,-0.161l-0.014,-0.162l-0.013,-0.16l-0.014,-0.161l-0.014,-0.162l-0.015,-0.16l-0.015,-0.162l-0.015,-0.161l-0.016,-0.162l-0.016,-0.162l-0.016,-0.162l-0.016,-0.162l-0.017,-0.162l-0.017,-0.162l-0.017,-0.162l-0.018,-0.162l-0.018,-0.163l-0.018,-0.162l-0.018,-0.162l-0.019,-0.164l-0.018,-0.162l-0.019,-0.163l-0.02,-0.162l-0.019,-0.164l-0.02,-0.163l-0.02,-0.162l-0.02,-0.164l-0.02,-0.163l-0.02,-0.164l-0.021,-0.164l-0.021,-0.163l-0.02,-0.164l-0.043,-0.327l-0.043,-0.327l-0.043,-0.327l-0.044,-0.329l-0.044,-0.327l-0.045,-0.329l-0.044,-0.328l-0.046,-0.327l-0.09,-0.658l-0.091,-0.657l-0.091,-0.657l-0.046,-0.329l-0.045,-0.329l-0.045,-0.328l-0.045,-0.329l-0.044,-0.329l-0.044,-0.328l-0.043,-0.329l-0.043,-0.327l-0.042,-0.329l-0.021,-0.164l-0.021,-0.165l-0.021,-0.163l-0.02,-0.164l-0.02,-0.163l-0.02,-0.164l-0.02,-0.163l-0.02,-0.166l-0.019,-0.163l-0.02,-0.164l-0.019,-0.163l-0.019,-0.164l-0.018,-0.162l-0.018,-0.163l-0.018,-0.164l-0.018,-0.163l-0.018,-0.164l-0.017,-0.162l-0.017,-0.164l-0.017,-0.163l-0.016,-0.162l-0.016,-0.164l-0.008,-0.084l-0.008,-0.084l-0.008,-0.084l-0.008,-0.086l-0.007,-0.084l-0.008,-0.084l-0.007,-0.084l-0.007,-0.084l-0.006,-0.084l-0.007,-0.086l-0.006,-0.084l-0.006,-0.084l-0.006,-0.084l-0.006,-0.084l-0.006,-0.086l-0.005,-0.084l-0.006,-0.084l-0.005,-0.084l-0.005,-0.085l-0.005,-0.084l-0.004,-0.084l-0.005,-0.085l-0.004,-0.085l-0.005,-0.084l-0.003,-0.084l-0.004,-0.084l-0.008,-0.168l-0.007,-0.168l-0.006,-0.169l-0.005,-0.169l-0.005,-0.169l-0.005,-0.168l-0.004,-0.168l-0.003,-0.168l-0.003,-0.169l-0.003,-0.168l-0.002,-0.168l-0.001,-0.168l-0.001,-0.169l-0.001,-0.168l0,-0.166l0,-0.169l0.001,-0.168l0.001,-0.168l0.001,-0.168l0.002,-0.167l0.003,-0.168l0.002,-0.169l0.003,-0.166l0.003,-0.168l0.004,-0.167l0.004,-0.168l0.004,-0.169l0.005,-0.166l0.004,-0.167l0.005,-0.168l0.006,-0.167l0.005,-0.167l0.006,-0.168l0.006,-0.166l0.006,-0.167l0.006,-0.167l0.007,-0.168l0.006,-0.167l0.007,-0.166l0.014,-0.334l0.015,-0.333l0.015,-0.332l0.015,-0.333l0.015,-0.332l0.016,-0.333l0.031,-0.664l0.015,-0.33l0.015,-0.332l0.015,-0.33l0.014,-0.33l0.014,-0.331l0.007,-0.165l0.006,-0.165l0.007,-0.165l0.006,-0.165l0.006,-0.164l0.006,-0.165l0.005,-0.165l0.005,-0.163l0.005,-0.166l0.005,-0.163l0.005,-0.165l0.004,-0.164l0.004,-0.163l0.004,-0.164l0.003,-0.165l0.003,-0.163l0.003,-0.164l0.002,-0.164l0.002,-0.163l0.002,-0.164l0.001,-0.163l0.001,-0.163l0.001,-0.163l0,-0.163l-0.001,-0.163l0,-0.163l-0.002,-0.163l-0.001,-0.163l-0.002,-0.162l-0.003,-0.162l-0.003,-0.163l-0.003,-0.162l-0.004,-0.162l-0.005,-0.162l-0.005,-0.162l-0.006,-0.162l-0.006,-0.162l-0.007,-0.162l-0.007,-0.162l-0.004,-0.08l-0.004,-0.081l-0.004,-0.081l-0.004,-0.08l-0.005,-0.081l-0.004,-0.08l-0.005,-0.081l-0.005,-0.081l-0.005,-0.08l-0.005,-0.081l-0.006,-0.08l-0.005,-0.081l-0.006,-0.08l-0.006,-0.081l-0.006,-0.08l-0.006,-0.08l-0.007,-0.081l-0.006,-0.08l-0.007,-0.08l-0.007,-0.08l-0.007,-0.081l-0.007,-0.081l-0.008,-0.093l-0.009,-0.093l-0.008,-0.094l-0.008,-0.094l-0.007,-0.094l-0.008,-0.093l-0.008,-0.094l-0.007,-0.094l-0.007,-0.094l-0.007,-0.094l-0.014,-0.187l-0.013,-0.187l-0.012,-0.188l-0.012,-0.187l-0.012,-0.188l-0.01,-0.187l-0.011,-0.187l-0.009,-0.188l-0.009,-0.187l-0.009,-0.187l-0.008,-0.188l-0.008,-0.187l-0.007,-0.187l-0.007,-0.187l-0.006,-0.188l-0.006,-0.187l-0.005,-0.187l-0.005,-0.187l-0.005,-0.187l-0.004,-0.187l-0.004,-0.187l-0.003,-0.187l-0.003,-0.187l-0.003,-0.187l-0.002,-0.186l-0.002,-0.187l-0.001,-0.187l-0.001,-0.187l-0.001,-0.186l-0.001,-0.187l0,-0.187l0,-0.186l0,-0.187l0,-0.187l0.001,-0.186l0.001,-0.186l0.001,-0.187l0.002,-0.186l0.001,-0.187l0.002,-0.186l0.002,-0.186l0.002,-0.186l0.003,-0.187l0.002,-0.186l0.003,-0.186l0.006,-0.372l0.006,-0.372l0.007,-0.371l0.007,-0.372l0.007,-0.371l0.015,-0.742l0.015,-0.741l0.007,-0.37l0.007,-0.37l0.006,-0.37l0.007,-0.37l0.005,-0.369l0.003,-0.184l0.003,-0.185l0.002,-0.184l0.002,-0.185l0.002,-0.184l0.002,-0.184l0.001,-0.184l0.002,-0.184l0.001,-0.184l0.001,-0.184l0.001,-0.184l0,-0.184l0,-0.184l0,-0.184l0,-0.183l-0.001,-0.184l-0.001,-0.183l-0.001,-0.184l-0.001,-0.183l-0.002,-0.183l-0.002,-0.184l-0.003,-0.183l-0.003,-0.183l-0.003,-0.183l-0.004,-0.183l-0.004,-0.183l-0.004,-0.182l-0.005,-0.183l-0.005,-0.183l-0.006,-0.182l-0.006,-0.183l-0.007,-0.182l-0.007,-0.182l-0.007,-0.182l-0.008,-0.182l-0.008,-0.182l-0.009,-0.182l-0.01,-0.182l-0.01,-0.182l-0.01,-0.182l-0.011,-0.181l-0.012,-0.182l-0.012,-0.181l-0.012,-0.182l-0.013,-0.181l-0.007,-0.091l-0.007,-0.09l-0.007,-0.091l-0.007,-0.09l-0.008,-0.091l-0.007,-0.09l-0.008,-0.091l-0.008,-0.09l-0.008,-0.091l-0.008,-0.088l-0.002,-0.023l-0.002,-0.021l-0.003,-0.021l-0.002,-0.023l-0.003,-0.023l-0.003,-0.023l-0.004,-0.023l-0.003,-0.025l-0.004,-0.024l-0.004,-0.025l-0.005,-0.026l-0.004,-0.026l-0.005,-0.026l-0.005,-0.026l-0.005,-0.027l-0.006,-0.028l-0.005,-0.028l-0.006,-0.028l-0.006,-0.028l-0.006,-0.028l-0.014,-0.059l-0.014,-0.06l-0.014,-0.06l-0.016,-0.062l-0.016,-0.062l-0.016,-0.064l-0.018,-0.064l-0.017,-0.065l-0.019,-0.066l-0.019,-0.066l-0.019,-0.067l-0.02,-0.068l-0.02,-0.067l-0.02,-0.069l-0.021,-0.069l-0.021,-0.068l-0.043,-0.14l-0.043,-0.14l-0.044,-0.14l-0.044,-0.141l-0.044,-0.141l-0.043,-0.139l-0.021,-0.07l-0.021,-0.07l-0.021,-0.069l-0.021,-0.07l-0.02,-0.069l-0.019,-0.068l-0.02,-0.069l-0.018,-0.068l-0.019,-0.068l-0.018,-0.067l-0.017,-0.068l-0.017,-0.067l-0.016,-0.067l-0.015,-0.065l-0.007,-0.034l-0.008,-0.033l-0.007,-0.033l-0.006,-0.033l-0.007,-0.033l-0.006,-0.033l-0.006,-0.033l-0.006,-0.033l-0.006,-0.033l-0.005,-0.033l-0.006,-0.033l-0.004,-0.033l-0.005,-0.034l-0.004,-0.033l-0.004,-0.033l-0.004,-0.034l-0.003,-0.034l-0.003,-0.033l-0.003,-0.034l-0.002,-0.035l-0.002,-0.034l-0.001,-0.035l-0.001,-0.035l0,-0.028l0.092,-0.427l0.274,-0.376l0.42,-0.28l0.517,-0.151l0.552,-0.002l0.52,0.145Z" style="fill:#fff;"/><path d="M213.677,117.903l0.272,0l0.135,0.002l0.137,0l0.27,0.003l0.137,0.001l0.135,0.002l0.137,0.002l0.135,0.001l0.137,0.002l0.27,0.006l0.138,0.001l0.27,0.007l0.137,0.004l0.135,0.003l0.137,0.004l0.27,0.009l0.137,0.003l0.135,0.005l0.135,0.006l0.137,0.005l0.135,0.004l0.135,0.006l0.135,0.005l0.137,0.006l0.27,0.013l0.135,0.008l0.135,0.006l0.137,0.006l0.676,0.039l0.135,0.009l0.135,0.008l0.27,0.019l0.133,0.009l0.27,0.019l0.135,0.011l0.135,0.009l0.133,0.011l0.27,0.022l0.133,0.011l0.135,0.012l0.133,0.011l0.135,0.013l0.134,0.012l0.135,0.013l0.266,0.024l0.133,0.014l0.135,0.013l0.399,0.042l0.133,0.016l0.131,0.014l0.167,0.018l0.081,0.008l0.084,0.009l0.083,0.008l0.084,0.01l0.427,0.039l0.087,0.007l0.085,0.008l0.088,0.008l0.087,0.006l0.088,0.008l0.087,0.006l0.089,0.008l0.088,0.006l0.089,0.006l0.087,0.007l0.358,0.025l0.087,0.004l0.09,0.006l0.089,0.005l0.091,0.006l0.09,0.005l0.087,0.005l0.09,0.004l0.091,0.005l0.179,0.009l0.087,0.005l0.089,0.003l0.09,0.005l0.089,0.003l0.09,0.005l0.087,0.003l0.089,0.003l0.175,0.006l0.089,0.003l0.088,0.003l0.087,0.002l0.086,0.003l0.087,0.002l0.085,0.003l0.088,0.001l0.256,0.005l0.25,0.005l0.084,0l0.083,0.001l0.081,0l0.082,0.002l0.284,0l0.038,0.001l0.037,0l0.04,0.002l0.074,0.001l0.081,0.005l0.085,0.003l0.092,0.005l0.095,0.004l0.099,0.007l0.104,0.006l0.21,0.012l0.107,0.008l0.108,0.006l0.105,0.008l0.103,0.008l0.101,0.008l0.098,0.008l0.093,0.007l0.048,0.005l0.043,0.005l0.044,0.003l0.044,0.005l0.042,0.004l0.043,0.005l0.042,0.005l0.044,0.006l0.047,0.006l0.052,0.008l0.054,0.009l0.043,0.009l0.044,0.008l0.054,0.013l0.069,0.018l0.091,0.028l0.056,0.021l0.139,0.059l0.002,0.001l0.234,0.134l0,0.002l0.243,0.21l0,0.002l0.168,0.238l0.002,0.002l0.11,0.316l0,0.001l-0.01,0.376l0,0.001l-0.135,0.331l-0.207,0.252l0,0.002l-0.294,0.215l-0.002,0l-0.25,0.116l-0.004,0.002l-0.169,0.053l-0.061,0.017l-0.1,0.02l-0.073,0.011l-0.06,0.008l-0.045,0.005l-0.042,0.004l-0.04,0.003l-0.055,0.004l-0.056,0.001l-0.054,0.003l-0.051,0l-0.056,0.002l-0.057,0l-0.056,0l-0.542,-0.073l-0.058,-0.027l-0.065,-0.005l-0.096,-0.006l-0.097,-0.006l-0.095,-0.006l-0.096,-0.006l-0.091,-0.007l-0.089,-0.004l-0.082,-0.004l-0.077,-0.004l-0.068,-0.003l-0.059,-0.002l-0.048,-0.001l-0.014,-0.002l-0.012,0l-0.006,0l-0.004,0l-0.081,0l-0.088,0l-0.089,0l-0.087,-0.002l-0.092,0l-0.089,-0.001l-0.089,0l-0.092,-0.002l-0.089,-0.001l-0.092,-0.002l-0.091,-0.001l-0.093,-0.003l-0.092,-0.002l-0.093,-0.002l-0.093,-0.003l-0.094,-0.001l-0.093,-0.003l-0.093,-0.003l-0.094,-0.004l-0.093,-0.003l-0.095,-0.003l-0.096,-0.003l-0.093,-0.003l-0.095,-0.005l-0.096,-0.003l-0.095,-0.004l-0.095,-0.004l-0.096,-0.004l-0.095,-0.005l-0.095,-0.005l-0.098,-0.004l-0.095,-0.005l-0.095,-0.006l-0.098,-0.005l-0.095,-0.006l-0.095,-0.005l-0.098,-0.006l-0.095,-0.006l-0.095,-0.006l-0.096,-0.007l-0.097,-0.006l-0.095,-0.006l-0.096,-0.006l-0.095,-0.008l-0.095,-0.006l-0.096,-0.008l-0.095,-0.006l-0.095,-0.008l-0.094,-0.008l-0.095,-0.008l-0.095,-0.008l-0.093,-0.009l-0.094,-0.008l-0.093,-0.008l-0.096,-0.009l-0.091,-0.008l-0.093,-0.009l-0.094,-0.009l-0.091,-0.01l-0.093,-0.009l-0.092,-0.009l-0.091,-0.01l-0.091,-0.011l-0.088,-0.009l-0.127,-0.014l-0.125,-0.014l-0.125,-0.012l-0.125,-0.015l-0.127,-0.012l-0.125,-0.012l-0.126,-0.013l-0.127,-0.012l-0.125,-0.013l-0.127,-0.011l-0.125,-0.012l-0.127,-0.011l-0.127,-0.011l-0.127,-0.011l-0.127,-0.011l-0.125,-0.011l-0.128,-0.009l-0.129,-0.009l-0.127,-0.011l-0.127,-0.01l-0.127,-0.009l-0.127,-0.009l-0.127,-0.008l-0.129,-0.009l-0.127,-0.008l-0.129,-0.008l-0.128,-0.009l-0.129,-0.008l-0.127,-0.008l-0.129,-0.006l-0.127,-0.008l-0.129,-0.006l-0.129,-0.006l-0.129,-0.008l-0.129,-0.006l-0.127,-0.007l-0.13,-0.004l-0.129,-0.007l-0.129,-0.004l-0.129,-0.007l-0.129,-0.004l-0.129,-0.005l-0.129,-0.005l-0.131,-0.004l-0.129,-0.005l-0.129,-0.003l-0.129,-0.005l-0.13,-0.003l-0.131,-0.003l-0.129,-0.003l-0.129,-0.003l-0.131,-0.003l-0.129,-0.003l-0.129,-0.003l-0.131,-0.002l-0.129,-0.002l-0.131,-0.001l-0.129,-0.003l-0.131,-0.002l-0.13,0l-0.131,-0.001l-0.129,-0.002l-0.131,0l-0.129,-0.001l-0.131,0l-0.131,0l-0.129,0l-0.131,0l-0.129,0l-0.131,0l-0.131,0.001l-0.13,0l-0.131,0.002l-0.131,0.001l-0.129,0.002l-0.131,0.001l-0.131,0.002l-0.129,0.001l-0.131,0.002l-0.131,0.002l-0.129,0.003l-0.131,0.001l-0.131,0.003l-0.129,0.003l-0.132,0.004l-0.131,0.003l-0.129,0.003l-0.131,0.003l-0.129,0.005l-0.131,0.003l-0.131,0.004l-0.129,0.003l-0.131,0.005l-0.129,0.005l-0.131,0.004l-0.129,0.005l-0.132,0.005l-0.129,0.005l-0.131,0.006l-0.129,0.004l-0.129,0.005l-0.131,0.006l-0.129,0.007l-0.131,0.006l-0.129,0.006l-0.129,0.006l-0.129,0.005l-0.131,0.008l-0.13,0.006l-0.129,0.006l-0.129,0.008l-0.129,0.006l-0.131,0.008l-0.129,0.008l-0.129,0.006l-0.129,0.008l-0.129,0.008l-0.129,0.007l-0.127,0.008l-0.13,0.008l-0.129,0.009l-0.129,0.008l-0.129,0.008l-0.127,0.009l-0.129,0.01l-0.127,0.007l-0.129,0.01l-0.129,0.009l-0.193,0.014l-0.195,0.013l-0.194,0.014l-0.195,0.014l-0.194,0.012l-0.193,0.012l-0.195,0.014l-0.194,0.013l-0.195,0.012l-0.193,0.013l-0.194,0.012l-0.195,0.013l-0.193,0.012l-0.194,0.011l-0.195,0.013l-0.192,0.011l-0.195,0.012l-0.195,0.011l-0.192,0.012l-0.195,0.011l-0.193,0.011l-0.194,0.011l-0.193,0.011l-0.195,0.011l-0.192,0.009l-0.195,0.011l-0.192,0.011l-0.195,0.009l-0.193,0.01l-0.194,0.011l-0.193,0.009l-0.195,0.009l-0.192,0.01l-0.193,0.009l-0.195,0.009l-0.192,0.01l-0.195,0.009l-0.192,0.009l-0.388,0.018l-0.385,0.017l-0.387,0.017l-0.386,0.015l-0.387,0.016l-0.385,0.016l-0.387,0.014l-0.386,0.014l-0.387,0.014l-0.385,0.014l-0.386,0.012l-0.385,0.014l-0.385,0.011l-0.387,0.012l-0.386,0.011l-0.385,0.011l-0.385,0.011l-0.385,0.011l-0.386,0.009l-0.385,0.01l-0.385,0.011l-0.386,0.007l-0.385,0.01l-0.385,0.008l-0.385,0.007l-0.384,0.008l-0.385,0.008l-0.385,0.006l-0.386,0.006l-0.385,0.007l-0.383,0.006l-0.386,0.006l-0.385,0.005l-0.385,0.004l-0.383,0.007l-0.386,0.003l-0.385,0.004l-0.383,0.005l-0.386,0.003l-0.385,0.005l-0.383,0.003l-0.385,0.003l-0.386,0.002l-0.383,0.003l-0.385,0.003l-0.386,0.002l-0.383,0.001l-0.385,0.002l-0.383,0.001l-0.386,0.002l-0.385,0.001l-0.383,0l-0.386,0.002l-0.385,0l-0.383,0.001l-0.385,0l-0.386,0l-0.383,0l-0.385,0l-0.386,0l-0.385,-0.001l-0.383,0l-0.385,0l-0.771,-0.002l-0.769,-0.003l-0.77,-0.001l-0.771,-0.003l-0.77,-0.004l-0.771,-0.003l-0.771,-0.003l-1.543,-0.008l-1.543,-0.007l-1.545,-0.007l-0.772,-0.003l-0.773,-0.004l-0.775,-0.004l-0.774,-0.001l-0.775,-0.003l-0.774,-0.002l-0.775,-0.001l-0.389,-0.002l-0.387,0l-0.387,-0.001l-0.39,0l-0.387,0l-0.389,0l-1.146,0l-1.146,0l-1.148,-0.002l-1.146,-0.002l-1.146,-0.001l-1.148,-0.002l-1.146,-0.001l-1.148,-0.002l-2.293,-0.003l-2.296,-0.005l-1.148,-0.001l-1.146,-0.002l-1.148,-0.001l-1.148,0l-1.148,-0.002l-1.148,-0.001l-1.148,0l-1.148,0l-1.15,0l-0.571,0.001l-0.576,0l-0.574,0l-0.574,0.002l-0.574,0l-0.574,0.001l-0.574,0.002l-0.574,0l-0.574,0.001l-0.574,0.002l-0.574,0.002l-0.574,0.003l-0.574,0.001l-0.574,0.002l-0.574,0.003l-0.574,0.003l-0.574,0.003l-0.574,0.003l-0.574,0.003l-0.574,0.003l-0.574,0.004l-0.574,0.003l-0.573,0.004l-0.574,0.005l-0.574,0.005l-0.574,0.004l-0.574,0.005l-0.574,0.005l-0.574,0.006l-0.574,0.005l-0.574,0.006l-0.574,0.006l-0.572,0.006l-0.574,0.008l-0.574,0.006l-0.574,0.008l-0.574,0.008l-0.574,0.008l-0.572,0.008l-0.574,0.009l-0.574,0.008l-0.574,0.009l-0.574,0.009l-0.572,0.011l-0.574,0.01l-0.574,0.01l-0.571,0.011l-0.574,0.011l-0.572,0.011l-0.574,0.013l-0.574,0.012l-0.572,0.011l-0.574,0.014l-0.572,0.013l-0.574,0.014l-0.572,0.014l-0.574,0.014l-0.572,0.015l-0.574,0.016l-0.572,0.015l-0.572,0.016l-0.574,0.015l-0.572,0.018l-0.572,0.017l-0.574,0.018l-0.572,0.018l-0.572,0.018l-0.572,0.019l-0.572,0.02l-0.572,0.02l-0.574,0.021l-0.572,0.02l-0.286,0.011l-0.286,0.009l-0.286,0.013l-0.286,0.011l-0.286,0.01l-0.286,0.011l-0.285,0.011l-0.286,0.011l-0.284,0.013l-0.288,0.011l-0.284,0.012l-0.286,0.011l-0.286,0.012l-0.286,0.013l-0.286,0.012l-0.286,0.013l-0.286,0.012l-0.286,0.013l-0.286,0.012l-0.284,0.013l-0.286,0.014l-0.286,0.012l-0.286,0.014l-0.286,0.013l-0.286,0.014l-0.284,0.014l-0.286,0.012l-0.286,0.016l-0.157,0.006l-0.157,0.008l-0.157,0.007l-0.157,0.007l-0.157,0.007l-0.157,0.007l-0.158,0.006l-0.157,0.006l-0.157,0.006l-0.157,0.007l-0.157,0.004l-0.157,0.007l-0.157,0.004l-0.157,0.006l-0.159,0.005l-0.156,0.005l-0.157,0.004l-0.157,0.005l-0.157,0.003l-0.159,0.005l-0.157,0.005l-0.157,0.003l-0.157,0.003l-0.159,0.004l-0.157,0.004l-0.156,0.003l-0.159,0.001l-0.157,0.003l-0.157,0.003l-0.157,0.002l-0.159,0.003l-0.157,0.002l-0.157,0.003l-0.159,0.001l-0.156,0.002l-0.157,0.002l-0.159,0l-0.157,0.001l-0.159,0.002l-0.157,0l-0.157,0.001l-0.159,0l-0.157,0l-0.158,0.002l-0.157,0l-0.157,0l-0.159,0l-0.157,-0.002l-0.159,0l-0.157,0l-0.159,-0.001l-0.157,0l-0.156,-0.002l-0.159,-0.001l-0.157,-0.002l-0.159,-0.002l-0.157,-0.001l-0.159,-0.002l-0.157,-0.001l-0.159,-0.002l-0.157,-0.003l-0.158,-0.002l-0.157,-0.003l-0.159,-0.001l-0.157,-0.003l-0.159,-0.003l-0.157,-0.002l-0.159,-0.003l-0.157,-0.003l-0.159,-0.003l-0.156,-0.003l-0.159,-0.005l-0.316,-0.006l-0.316,-0.008l-0.316,-0.009l-0.315,-0.008l-0.316,-0.01l-0.316,-0.009l-0.316,-0.009l-0.315,-0.011l-0.316,-0.011l-0.316,-0.011l-0.316,-0.011l-0.316,-0.012l-0.315,-0.013l-0.316,-0.012l-0.316,-0.013l-0.316,-0.014l-0.313,-0.012l-0.316,-0.014l-0.316,-0.014l-0.316,-0.016l-0.316,-0.014l-0.315,-0.015l-0.316,-0.016l-0.314,-0.016l-0.316,-0.015l-0.315,-0.016l-0.316,-0.017l-0.314,-0.015l-0.316,-0.018l-0.316,-0.017l-0.313,-0.017l-0.316,-0.017l-0.314,-0.019l-0.316,-0.017l-0.313,-0.019l-0.316,-0.018l-0.314,-0.017l-0.314,-0.019l-0.316,-0.019l-0.313,-0.018l-0.314,-0.019l-0.314,-0.02l-0.628,-0.038l-0.627,-0.039l-0.628,-0.039l-0.625,-0.04l-0.628,-0.039l-1.249,-0.08l-1.249,-0.077l-0.624,-0.041l-0.622,-0.039l-0.623,-0.039l-0.622,-0.037l-0.621,-0.039l-0.31,-0.019l-0.31,-0.019l-0.31,-0.018l-0.31,-0.019l-0.309,-0.017l-0.308,-0.019l-0.31,-0.017l-0.31,-0.019l-0.308,-0.017l-0.308,-0.017l-0.309,-0.017l-0.308,-0.017l-0.308,-0.016l-0.308,-0.017l-0.308,-0.015l-0.308,-0.018l-0.305,-0.015l-0.308,-0.016l-0.306,-0.014l-0.308,-0.015l-0.306,-0.014l-0.306,-0.014l-0.141,-0.008l-0.139,-0.006l-0.141,-0.005l-0.139,-0.006l-0.141,-0.006l-0.139,-0.007l-0.141,-0.004l-0.141,-0.007l-0.139,-0.004l-0.141,-0.005l-0.139,-0.006l-0.141,-0.005l-0.141,-0.005l-0.139,-0.004l-0.141,-0.005l-0.141,-0.005l-0.139,-0.003l-0.141,-0.004l-0.141,-0.003l-0.141,-0.005l-0.139,-0.003l-0.141,-0.005l-0.139,-0.003l-0.141,-0.003l-0.141,-0.003l-0.141,-0.003l-0.141,-0.003l-0.139,-0.004l-0.141,-0.003l-0.141,-0.001l-0.28,-0.005l-0.282,-0.005l-0.28,-0.004l-0.282,-0.003l-0.282,-0.004l-0.28,-0.003l-0.282,-0.003l-0.282,-0.001l-0.282,-0.002l-0.282,-0.001l-0.28,0l-0.282,0l-0.282,0l-0.282,0l-0.282,0.001l-0.282,0l-0.282,0.002l-0.282,0.001l-0.282,0.003l-0.282,0.002l-0.282,0.003l-0.282,0.003l-0.282,0.003l-0.282,0.005l-0.282,0.003l-0.284,0.005l-0.282,0.004l-0.282,0.005l-0.282,0.005l-0.284,0.006l-0.282,0.005l-0.282,0.006l-0.284,0.006l-0.282,0.006l-0.282,0.007l-0.284,0.006l-0.282,0.008l-0.284,0.006l-0.282,0.008l-0.284,0.006l-0.282,0.008l-0.284,0.007l-0.283,0.008l-0.283,0.01l-0.284,0.007l-0.283,0.008l-0.283,0.009l-0.567,0.018l-0.567,0.017l-0.567,0.018l-0.567,0.018l-0.568,0.018l-0.567,0.019l-0.568,0.019l-1.136,0.039l-0.568,0.018l-0.568,0.019l-0.568,0.019l-0.569,0.017l-0.568,0.019l-0.569,0.017l-0.569,0.017l-0.285,0.009l-0.284,0.008l-0.285,0.008l-0.284,0.007l-0.285,0.008l-0.285,0.008l-0.284,0.008l-0.285,0.008l-0.285,0.007l-0.284,0.007l-0.285,0.006l-0.285,0.008l-0.285,0.006l-0.285,0.006l-0.285,0.006l-0.285,0.005l-0.284,0.006l-0.285,0.005l-0.285,0.005l-0.285,0.004l-0.285,0.005l-0.285,0.005l-0.286,0.003l-0.285,0.004l-0.285,0.004l-0.285,0.003l-0.285,0.001l-0.285,0.003l-0.286,0.002l-0.285,0.001l-0.285,0.002l-0.286,0.002l-0.285,0l-0.284,0l-0.543,-0.075l-0.478,-0.217l-0.355,-0.33l-0.19,-0.407l0,-0.433l0.188,-0.406l0.354,-0.332l0.478,-0.216l0.543,-0.077l0.562,0l0.28,-0.001l0.28,-0.002l0.281,-0.001l0.28,-0.002l0.281,-0.003l0.28,-0.002l0.281,-0.003l0.281,-0.003l0.281,-0.003l0.281,-0.005l0.281,-0.003l0.281,-0.004l0.281,-0.005l0.281,-0.005l0.282,-0.006l0.281,-0.005l0.281,-0.006l0.282,-0.006l0.282,-0.005l0.282,-0.008l0.282,-0.006l0.281,-0.006l0.282,-0.006l0.283,-0.008l0.282,-0.008l0.282,-0.008l0.282,-0.008l0.283,-0.007l0.282,-0.008l0.283,-0.008l0.282,-0.008l0.283,-0.009l0.566,-0.016l0.566,-0.018l0.566,-0.017l0.566,-0.019l0.567,-0.019l0.567,-0.018l0.568,-0.019l1.136,-0.038l0.568,-0.018l0.568,-0.019l0.569,-0.019l0.569,-0.018l0.57,-0.019l0.569,-0.017l0.57,-0.017l0.285,-0.01l0.285,-0.007l0.286,-0.008l0.285,-0.01l0.285,-0.007l0.286,-0.008l0.284,-0.008l0.286,-0.006l0.286,-0.008l0.286,-0.008l0.286,-0.006l0.284,-0.008l0.286,-0.006l0.286,-0.006l0.286,-0.006l0.286,-0.005l0.286,-0.006l0.286,-0.005l0.286,-0.006l0.288,-0.005l0.286,-0.005l0.286,-0.003l0.286,-0.004l0.286,-0.004l0.288,-0.004l0.286,-0.003l0.286,-0.002l0.288,-0.003l0.286,-0.003l0.288,-0.002l0.286,-0.001l0.286,0l0.288,-0.002l1.148,0l0.288,0.002l0.286,0.001l0.288,0.002l0.576,0.006l0.286,0.003l0.288,0.003l0.864,0.014l0.143,0.004l0.145,0.003l0.143,0.003l0.144,0.003l0.143,0.003l0.145,0.003l0.143,0.003l0.145,0.003l0.143,0.005l0.145,0.003l0.143,0.005l0.145,0.003l0.143,0.005l0.145,0.004l0.143,0.005l0.145,0.005l0.143,0.004l0.145,0.005l0.143,0.005l0.145,0.004l0.145,0.007l0.143,0.004l0.145,0.006l0.143,0.005l0.29,0.013l0.143,0.006l0.145,0.006l0.143,0.006l0.145,0.006l0.31,0.016l0.31,0.014l0.619,0.031l0.312,0.016l0.62,0.031l0.312,0.017l0.309,0.016l0.312,0.017l0.31,0.017l0.624,0.034l0.309,0.019l0.312,0.017l0.312,0.019l0.312,0.017l0.31,0.019l1.871,0.112l0.623,0.039l0.626,0.039l0.623,0.039l0.624,0.04l1.249,0.078l1.251,0.079l0.626,0.039l0.624,0.041l0.625,0.039l0.626,0.037l0.625,0.039l0.624,0.037l0.314,0.019l0.623,0.038l0.314,0.018l0.312,0.017l0.312,0.019l0.313,0.017l0.312,0.019l0.624,0.034l0.314,0.016l0.623,0.034l0.312,0.016l0.312,0.017l0.623,0.031l0.312,0.014l0.312,0.015l1.559,0.071l0.312,0.012l0.31,0.012l0.623,0.025l0.31,0.013l0.312,0.011l0.31,0.011l0.312,0.011l0.309,0.009l0.312,0.009l0.62,0.019l0.31,0.008l0.311,0.008l0.62,0.015l0.93,0.019l0.152,0.003l0.155,0.001l0.155,0.004l0.155,0.001l0.155,0.003l0.155,0.002l0.153,0.001l0.62,0.007l0.152,0.001l0.155,0.002l0.153,0.001l0.155,0l0.155,0.002l0.308,0l0.155,0.001l0.461,0l0.155,-0.001l0.307,0l0.153,-0.002l0.155,0l0.153,-0.001l0.153,0l0.155,-0.002l0.153,-0.001l0.153,-0.002l0.155,-0.001l0.153,-0.004l0.153,-0.001l0.152,-0.002l0.153,-0.003l0.155,-0.001l0.153,-0.004l0.153,-0.003l0.153,-0.003l0.153,-0.003l0.153,-0.003l0.153,-0.003l0.153,-0.005l0.153,-0.003l0.153,-0.005l0.153,-0.003l0.152,-0.004l0.153,-0.005l0.153,-0.005l0.153,-0.004l0.153,-0.005l0.153,-0.006l0.151,-0.005l0.153,-0.006l0.153,-0.005l0.151,-0.006l0.153,-0.006l0.153,-0.007l0.151,-0.006l0.152,-0.006l0.153,-0.008l0.151,-0.006l0.153,-0.008l0.153,-0.006l0.286,-0.014l0.288,-0.014l0.286,-0.014l0.288,-0.014l0.288,-0.014l0.288,-0.013l0.286,-0.014l0.288,-0.012l0.288,-0.013l0.288,-0.014l0.286,-0.012l0.288,-0.012l0.288,-0.013l0.288,-0.012l0.288,-0.013l0.286,-0.011l0.288,-0.012l0.288,-0.013l0.288,-0.011l0.288,-0.012l0.288,-0.011l0.288,-0.011l0.286,-0.012l0.288,-0.011l0.288,-0.011l0.288,-0.011l0.287,-0.009l0.288,-0.011l0.574,-0.022l0.576,-0.02l0.576,-0.021l0.574,-0.018l0.576,-0.021l0.576,-0.017l0.576,-0.018l0.576,-0.018l0.574,-0.018l0.576,-0.016l0.576,-0.017l0.576,-0.015l0.574,-0.016l0.576,-0.016l0.576,-0.015l0.576,-0.014l0.576,-0.014l0.575,-0.014l0.576,-0.013l0.576,-0.014l0.574,-0.012l0.576,-0.013l0.576,-0.011l0.576,-0.012l0.576,-0.011l0.576,-0.011l0.576,-0.011l0.574,-0.009l0.576,-0.009l0.576,-0.011l0.576,-0.008l0.576,-0.009l0.576,-0.008l0.576,-0.01l0.575,-0.007l0.574,-0.008l0.576,-0.008l0.576,-0.006l0.576,-0.006l0.576,-0.008l0.576,-0.006l0.576,-0.005l0.574,-0.006l0.576,-0.007l0.576,-0.004l0.576,-0.005l0.576,-0.005l0.574,-0.004l0.576,-0.005l0.576,-0.003l0.576,-0.005l0.574,-0.003l0.575,-0.003l0.576,-0.003l0.576,-0.003l0.574,-0.003l0.576,-0.003l0.576,-0.004l0.574,-0.001l0.576,-0.002l0.576,-0.003l0.574,-0.001l0.576,-0.002l0.574,-0.001l0.576,0l0.576,-0.002l0.574,-0.002l0.576,0l0.574,-0.001l1.15,0l0.574,-0.002l3.449,0l1.148,0.002l1.15,0.001l1.148,0l2.296,0.004l1.15,0.001l2.293,0.005l2.296,0.003l6.876,0.009l3.459,0l0.39,0.002l0.389,0l0.389,0.001l1.553,0.003l1.553,0.007l0.775,0.001l0.774,0.005l0.773,0.003l1.547,0.006l1.543,0.008l1.541,0.008l0.771,0.003l0.769,0.003l0.77,0.003l0.769,0.003l0.768,0.002l0.767,0.003l0.768,0.002l0.767,0l0.383,0.001l1.917,0l0.381,-0.001l0.383,0l0.384,-0.002l0.383,0l0.381,-0.002l0.384,-0.001l0.381,-0.002l0.383,-0.001l0.384,-0.002l0.381,-0.001l0.383,-0.003l0.382,-0.004l0.383,-0.001l0.381,-0.003l0.381,-0.003l0.384,-0.005l0.381,-0.003l0.381,-0.005l0.384,-0.003l0.381,-0.005l0.381,-0.004l0.382,-0.007l0.383,-0.004l0.381,-0.006l0.382,-0.007l0.381,-0.006l0.381,-0.006l0.381,-0.006l0.384,-0.008l0.381,-0.008l0.381,-0.008l0.382,-0.008l0.381,-0.007l0.381,-0.01l0.382,-0.009l0.381,-0.009l0.381,-0.01l0.382,-0.011l0.383,-0.011l0.381,-0.01l0.382,-0.011l0.381,-0.011l0.381,-0.013l0.381,-0.012l0.382,-0.013l0.381,-0.014l0.381,-0.014l0.382,-0.014l0.383,-0.014l0.381,-0.015l0.382,-0.016l0.381,-0.015l0.381,-0.018l0.384,-0.015l0.381,-0.019l0.191,-0.008l0.19,-0.009l0.191,-0.009l0.19,-0.01l0.191,-0.009l0.193,-0.009l0.19,-0.01l0.191,-0.009l0.191,-0.009l0.19,-0.011l0.191,-0.01l0.193,-0.009l0.19,-0.011l0.191,-0.011l0.191,-0.009l0.19,-0.011l0.193,-0.011l0.191,-0.011l0.19,-0.011l0.191,-0.011l0.191,-0.012l0.192,-0.011l0.191,-0.011l0.191,-0.012l0.19,-0.011l0.193,-0.013l0.191,-0.012l0.19,-0.013l0.193,-0.011l0.19,-0.014l0.191,-0.012l0.193,-0.013l0.19,-0.012l0.191,-0.012l0.191,-0.014l0.192,-0.013l0.191,-0.014l0.193,-0.014l0.131,-0.009l0.133,-0.01l0.131,-0.007l0.133,-0.01l0.133,-0.009l0.133,-0.009l0.131,-0.008l0.133,-0.008l0.133,-0.009l0.133,-0.008l0.133,-0.008l0.133,-0.008l0.134,-0.008l0.133,-0.007l0.135,-0.008l0.133,-0.008l0.133,-0.008l0.135,-0.006l0.133,-0.008l0.133,-0.006l0.135,-0.006l0.135,-0.008l0.133,-0.006l0.135,-0.006l0.133,-0.007l0.135,-0.004l0.133,-0.007l0.135,-0.006l0.135,-0.004l0.135,-0.007l0.136,-0.004l0.135,-0.005l0.135,-0.005l0.133,-0.004l0.135,-0.007l0.135,-0.003l0.135,-0.004l0.135,-0.005l0.135,-0.003l0.137,-0.005l0.135,-0.003l0.135,-0.003l0.135,-0.003l0.135,-0.003l0.135,-0.003l0.135,-0.004l0.137,-0.003l0.135,-0.001l0.135,-0.003l0.135,-0.002l0.137,-0.001l0.136,-0.002l0.135,-0.002l0.137,-0.001l0.135,-0.002l0.135,-0.001l0.137,0l0.135,-0.002l0.544,0Z" style="fill:#fff;"/><path d="M213.395,55.426l0,0l0.504,0.172l0,0l0.344,0.241l0,0.001l0.214,0.26l0,0.001l0.098,0.201l0.002,0.002l0.033,0.115l0.01,0.042l0.01,0.069l0.004,0.048l0.002,0.037l0.002,0.033l0,0.018l-0.091,0.427l-0.004,0.004l-0.004,0.03l-0.008,0.038l-0.008,0.041l-0.006,0.045l-0.008,0.047l-0.008,0.05l-0.008,0.052l-0.01,0.056l-0.008,0.058l-0.007,0.06l-0.008,0.063l-0.01,0.065l-0.008,0.068l-0.01,0.07l-0.008,0.072l-0.01,0.074l-0.008,0.077l-0.01,0.078l-0.008,0.081l-0.008,0.083l-0.01,0.085l-0.008,0.086l-0.008,0.089l-0.008,0.09l-0.008,0.093l-0.008,0.094l-0.007,0.096l-0.008,0.097l-0.006,0.1l-0.008,0.101l-0.006,0.102l-0.006,0.104l-0.006,0.105l-0.006,0.107l-0.006,0.109l-0.004,0.109l-0.006,0.112l-0.004,0.112l-0.004,0.114l-0.002,0.115l-0.004,0.116l-0.002,0.117l-0.002,0.118l0,0.12l-0.002,0.12l0,0.47l-0.002,0.174l0,0.175l-0.002,0.174l0,0.174l-0.002,0.174l-0.002,0.175l-0.002,0.174l-0.002,0.174l-0.004,0.174l-0.002,0.174l-0.002,0.174l-0.004,0.174l-0.004,0.174l-0.002,0.174l-0.004,0.175l-0.004,0.174l-0.006,0.174l-0.004,0.174l-0.004,0.174l-0.005,0.174l-0.004,0.174l-0.006,0.173l-0.006,0.174l-0.004,0.174l-0.006,0.174l-0.006,0.174l-0.006,0.174l-0.008,0.174l-0.006,0.173l-0.006,0.174l-0.008,0.174l-0.006,0.174l-0.008,0.173l-0.006,0.174l-0.008,0.174l-0.008,0.174l-0.016,0.347l-0.016,0.347l-0.015,0.347l-0.018,0.347l-0.018,0.347l-0.018,0.347l-0.018,0.346l-0.02,0.347l-0.02,0.346l-0.02,0.347l-0.019,0.346l-0.02,0.346l-0.022,0.346l-0.01,0.157l-0.008,0.157l-0.01,0.158l-0.008,0.157l-0.008,0.157l-0.008,0.157l-0.008,0.157l-0.008,0.157l-0.008,0.157l-0.006,0.158l-0.007,0.157l-0.006,0.157l-0.006,0.157l-0.006,0.158l-0.006,0.157l-0.006,0.157l-0.004,0.158l-0.006,0.157l-0.004,0.158l-0.004,0.157l-0.006,0.158l-0.004,0.157l-0.004,0.158l-0.002,0.157l-0.004,0.158l-0.004,0.157l-0.002,0.158l-0.004,0.158l-0.002,0.157l-0.002,0.158l-0.002,0.158l-0.002,0.157l-0.002,0.158l0,0.158l-0.002,0.158l0,0.158l-0.002,0.157l0,0.948l0.002,0.158l0,0.158l0.002,0.158l0,0.158l0.008,0.632l0.002,0.159l0.002,0.158l0.002,0.158l0.002,0.158l0.008,0.317l0.002,0.158l0.008,0.317l0.002,0.158l0.004,0.159l0.004,0.158l0.006,0.158l0.012,0.475l0.006,0.159l0.01,0.317l0.01,0.317l0.023,0.634l0.012,0.318l0.014,0.317l0.012,0.318l0.014,0.317l0.014,0.318l0.016,0.317l0.014,0.318l0.016,0.318l0.017,0.318l0.016,0.318l0.016,0.318l0.054,0.954l0.018,0.318l0.02,0.319l0.017,0.318l0.02,0.318l0.02,0.32l0.04,0.635l0.04,0.639l0.021,0.318l0.02,0.319l0.022,0.319l0.042,0.637l0.087,1.278l0.042,0.637l0.087,1.279l0.088,1.277l0.043,0.64l0.042,0.639l0.022,0.321l0.022,0.319l0.02,0.319l0.02,0.321l0.019,0.32l0.022,0.319l0.02,0.321l0.018,0.319l0.02,0.321l0.02,0.319l0.018,0.321l0.019,0.32l0.036,0.641l0.018,0.32l0.016,0.321l0.016,0.319l0.018,0.321l0.016,0.321l0.014,0.319l0.015,0.321l0.014,0.321l0.014,0.319l0.028,0.642l0.012,0.321l0.012,0.319l0.012,0.321l0.02,0.642l0.006,0.16l0.008,0.321l0.005,0.161l0.004,0.158l0.016,0.642l0.002,0.161l0.008,0.321l0.004,0.32l0.004,0.161l0.004,0.321l0.002,0.159l0.006,0.481l0,0.16l0.002,0.161l0,0.16l0.002,0.161l0,0.673l0.002,0.095l0,0.191l0.002,0.097l0.002,0.095l0,0.097l0.002,0.095l0.002,0.096l0.002,0.095l0.002,0.097l0.004,0.095l0.002,0.096l0.002,0.095l0.004,0.097l0.002,0.095l0.004,0.097l0.002,0.095l0.004,0.096l0.008,0.192l0.008,0.193l0.01,0.191l0.008,0.192l0.01,0.193l0.009,0.192l0.012,0.193l0.01,0.192l0.024,0.386l0.012,0.192l0.024,0.386l0.014,0.193l0.012,0.193l0.014,0.193l0.111,1.552l0.028,0.389l0.025,0.39l0.014,0.196l0.014,0.195l0.014,0.196l0.012,0.195l0.012,0.196l0.014,0.196l0.012,0.196l0.01,0.197l0.012,0.196l0.01,0.196l0.011,0.196l0.01,0.198l0.008,0.198l0.01,0.196l0.016,0.396l0.004,0.1l0.004,0.098l0.002,0.1l0.004,0.099l0.002,0.098l0.004,0.1l0.004,0.2l0.004,0.099l0.002,0.098l0.004,0.2l0,0.099l0.004,0.2l0,0.1l0.002,0.101l0,0.335l0.002,0.023l0,0.053l0.002,0.031l0.002,0.033l0.002,0.036l0.004,0.074l0.006,0.086l0.006,0.092l0.008,0.098l0.008,0.105l0.01,0.11l0.009,0.115l0.01,0.12l0.012,0.125l0.012,0.129l0.012,0.133l0.014,0.137l0.014,0.138l0.016,0.144l0.014,0.145l0.016,0.146l0.031,0.299l0.018,0.153l0.016,0.152l0.018,0.153l0.018,0.154l0.054,0.458l0.019,0.151l0.018,0.15l0.018,0.148l0.018,0.146l0.02,0.144l0.018,0.14l0.018,0.138l0.018,0.134l0.017,0.131l0.018,0.128l0.016,0.121l0.018,0.119l0.016,0.112l0.016,0.106l0.016,0.101l0.014,0.084l0.089,0.122l0.093,0.427l0,0.082l-0.002,0.042l-0.002,0.041l-0.002,0.042l-0.002,0.042l-0.004,0.042l-0.004,0.029l-0.004,0.027l-0.004,0.028l-0.005,0.036l-0.008,0.039l-0.012,0.043l-0.018,0.056l-0.026,0.075l-0.044,0.095l-0.032,0.052l-0.101,0.145l-0.002,0.003l-0.155,0.159l-0.002,0.001l-0.131,0.101l0,0.002l-0.196,0.115l-0.28,0.112l-0.274,0.063l-0.39,0.02l-0.002,0l-0.317,-0.039l-0.277,-0.08l-0.001,0l-0.281,-0.133l-0.002,-0.002l-0.238,-0.174l-0.002,-0.002l-0.121,-0.125l-0.042,-0.048l-0.059,-0.084l-0.038,-0.065l-0.028,-0.052l-0.02,-0.044l-0.018,-0.037l-0.013,-0.037l-0.016,-0.047l-0.016,-0.045l-0.012,-0.041l-0.01,-0.037l-0.008,-0.037l-0.01,-0.036l-0.008,-0.036l-0.008,-0.038l-0.008,-0.037l-0.008,-0.039l-0.008,-0.039l-0.008,-0.04l-0.008,-0.042l-0.005,-0.044l-0.008,-0.045l-0.016,-0.094l-0.016,-0.098l-0.018,-0.104l-0.016,-0.109l-0.018,-0.114l-0.018,-0.118l-0.018,-0.125l-0.017,-0.126l-0.018,-0.132l-0.018,-0.136l-0.018,-0.139l-0.02,-0.141l-0.018,-0.144l-0.02,-0.148l-0.018,-0.148l-0.019,-0.152l-0.018,-0.153l-0.018,-0.154l-0.02,-0.154l-0.018,-0.156l-0.018,-0.156l-0.018,-0.157l-0.018,-0.156l-0.017,-0.156l-0.018,-0.154l-0.016,-0.153l-0.016,-0.152l-0.016,-0.151l-0.016,-0.148l-0.016,-0.145l-0.014,-0.144l-0.014,-0.141l-0.013,-0.137l-0.012,-0.133l-0.012,-0.131l-0.012,-0.124l-0.01,-0.122l-0.01,-0.117l-0.008,-0.112l-0.008,-0.107l-0.008,-0.101l-0.006,-0.097l-0.002,-0.047l-0.004,-0.043l-0.002,-0.044l-0.002,-0.044l-0.002,-0.04l-0.002,-0.041l0,-0.039l-0.002,-0.037l0,-0.036l0,-0.034l0,-0.098l0,-0.097l0,-0.095l-0.002,-0.096l0,-0.095l-0.002,-0.097l0,-0.095l-0.002,-0.097l-0.002,-0.095l-0.002,-0.096l-0.002,-0.095l-0.002,-0.097l-0.004,-0.095l-0.002,-0.096l-0.002,-0.095l-0.004,-0.097l-0.002,-0.097l-0.003,-0.095l-0.002,-0.096l-0.004,-0.095l-0.008,-0.193l-0.008,-0.192l-0.01,-0.191l-0.008,-0.192l-0.01,-0.193l-0.01,-0.192l-0.01,-0.193l-0.012,-0.193l-0.012,-0.192l-0.012,-0.193l-0.012,-0.193l-0.012,-0.193l-0.011,-0.193l-0.014,-0.194l-0.012,-0.193l-0.014,-0.193l-0.028,-0.386l-0.028,-0.388l-0.028,-0.388l-0.027,-0.389l-0.028,-0.39l-0.026,-0.389l-0.014,-0.195l-0.014,-0.195l-0.014,-0.196l-0.012,-0.196l-0.012,-0.195l-0.013,-0.196l-0.012,-0.196l-0.01,-0.197l-0.012,-0.196l-0.01,-0.196l-0.012,-0.198l-0.01,-0.196l-0.008,-0.198l-0.01,-0.198l-0.008,-0.196l-0.008,-0.198l-0.004,-0.1l-0.004,-0.099l-0.002,-0.099l-0.004,-0.099l-0.002,-0.1l-0.004,-0.098l-0.002,-0.1l-0.002,-0.1l-0.004,-0.099l-0.002,-0.1l-0.002,-0.098l-0.002,-0.1l0,-0.099l-0.002,-0.1l-0.002,-0.1l0,-0.1l0,-0.101l-0.002,-0.099l0,-0.1l0,-0.098l0,-0.159l0,-0.159l0,-0.157l-0.001,-0.159l0,-0.158l-0.002,-0.157l0,-0.159l-0.002,-0.157l-0.002,-0.159l-0.002,-0.157l-0.002,-0.159l-0.002,-0.158l-0.002,-0.158l-0.004,-0.158l-0.002,-0.159l-0.002,-0.157l-0.004,-0.159l-0.002,-0.159l-0.004,-0.157l-0.004,-0.159l-0.004,-0.159l-0.004,-0.157l-0.004,-0.159l-0.004,-0.159l-0.004,-0.157l-0.006,-0.159l-0.004,-0.159l-0.004,-0.157l-0.01,-0.318l-0.012,-0.316l-0.01,-0.318l-0.012,-0.318l-0.014,-0.316l-0.012,-0.318l-0.013,-0.318l-0.014,-0.316l-0.014,-0.318l-0.014,-0.317l-0.016,-0.318l-0.016,-0.318l-0.016,-0.318l-0.018,-0.318l-0.016,-0.317l-0.017,-0.32l-0.018,-0.317l-0.018,-0.318l-0.018,-0.318l-0.018,-0.319l-0.02,-0.318l-0.02,-0.318l-0.018,-0.319l-0.019,-0.318l-0.022,-0.319l-0.02,-0.318l-0.02,-0.319l-0.02,-0.32l-0.022,-0.318l-0.021,-0.319l-0.042,-0.637l-0.044,-0.639l-0.042,-0.638l-0.043,-0.639l-0.088,-1.277l-0.043,-0.639l-0.044,-0.639l-0.044,-0.64l-0.041,-0.638l-0.022,-0.321l-0.02,-0.32l-0.022,-0.319l-0.02,-0.321l-0.02,-0.319l-0.02,-0.321l-0.019,-0.319l-0.02,-0.321l-0.02,-0.32l-0.02,-0.32l-0.018,-0.32l-0.018,-0.32l-0.02,-0.321l-0.016,-0.32l-0.017,-0.32l-0.018,-0.321l-0.016,-0.32l-0.016,-0.32l-0.016,-0.321l-0.016,-0.32l-0.016,-0.321l-0.014,-0.32l-0.014,-0.321l-0.013,-0.32l-0.012,-0.321l-0.014,-0.32l-0.01,-0.321l-0.012,-0.32l-0.012,-0.321l-0.01,-0.321l-0.004,-0.16l-0.006,-0.16l-0.004,-0.161l-0.004,-0.16l-0.004,-0.16l-0.004,-0.161l-0.004,-0.16l-0.004,-0.16l-0.004,-0.161l-0.004,-0.16l-0.002,-0.16l-0.004,-0.161l-0.002,-0.16l-0.004,-0.161l-0.002,-0.16l-0.002,-0.16l-0.002,-0.161l-0.001,-0.16l-0.002,-0.161l-0.002,-0.16l-0.002,-0.16l0,-0.161l-0.002,-0.16l0,-0.161l-0.002,-0.16l0,-0.16l0,-0.161l0,-0.16l0,-0.161l0,-0.16l0,-0.16l0.002,-0.161l0,-0.16l0.002,-0.161l0,-0.16l0.002,-0.161l0.002,-0.16l0.002,-0.16l0.001,-0.161l0.004,-0.16l0.002,-0.161l0.002,-0.16l0.004,-0.161l0.004,-0.16l0.004,-0.16l0.004,-0.161l0.004,-0.16l0.004,-0.161l0.004,-0.16l0.006,-0.161l0.004,-0.16l0.006,-0.16l0.006,-0.161l0.006,-0.16l0.006,-0.161l0.006,-0.16l0.006,-0.161l0.008,-0.16l0.006,-0.16l0.008,-0.161l0.008,-0.16l0.008,-0.161l0.008,-0.16l0.008,-0.161l0.009,-0.16l0.008,-0.16l0.01,-0.161l0.01,-0.159l0.02,-0.345l0.022,-0.345l0.02,-0.344l0.02,-0.345l0.018,-0.344l0.019,-0.344l0.018,-0.344l0.018,-0.344l0.018,-0.345l0.018,-0.344l0.016,-0.344l0.016,-0.344l0.016,-0.344l0.008,-0.172l0.007,-0.172l0.006,-0.172l0.008,-0.171l0.006,-0.172l0.008,-0.172l0.006,-0.172l0.006,-0.172l0.006,-0.172l0.006,-0.172l0.006,-0.172l0.006,-0.172l0.006,-0.172l0.006,-0.171l0.004,-0.172l0.006,-0.172l0.004,-0.172l0.004,-0.172l0.006,-0.171l0.004,-0.172l0.004,-0.172l0.004,-0.171l0.004,-0.172l0.002,-0.172l0.004,-0.171l0.002,-0.172l0.004,-0.172l0.002,-0.171l0.002,-0.172l0.002,-0.172l0.002,-0.171l0.002,-0.172l0,-0.171l0.002,-0.172l0,-0.171l0.001,-0.172l0,-0.171l0,-0.173l0,-0.129l0.002,-0.129l0,-0.128l0.002,-0.127l0.004,-0.126l0.002,-0.124l0.004,-0.123l0.004,-0.122l0.004,-0.12l0.006,-0.119l0.004,-0.118l0.006,-0.116l0.006,-0.115l0.006,-0.113l0.008,-0.111l0.006,-0.11l0.008,-0.108l0.008,-0.107l0.008,-0.104l0.008,-0.103l0.008,-0.102l0.01,-0.099l0.008,-0.098l0.008,-0.095l0.01,-0.094l0.009,-0.092l0.01,-0.09l0.008,-0.087l0.01,-0.086l0.01,-0.084l0.01,-0.081l0.01,-0.079l0.01,-0.077l0.01,-0.075l0.008,-0.073l0.01,-0.07l0.01,-0.068l0.01,-0.066l0.01,-0.064l0.009,-0.061l0.008,-0.058l0.01,-0.057l0.01,-0.054l0.008,-0.051l0.01,-0.05l0.008,-0.048l0.01,-0.045l0.008,-0.043l0.008,-0.041l0.01,-0.04l0.008,-0.038l0.01,-0.038l0.01,-0.04l0.012,-0.042l0.013,-0.044l0.012,-0.034l0.012,-0.034l0.02,-0.045l0.026,-0.056l0.018,-0.033l0.061,-0.101l0.002,-0.002l0.13,-0.159l0.001,-0.002l0.209,-0.177l0,0l0.312,-0.172l0,0l0.488,-0.13l0,0l0.318,-0.016l0.316,0.033Zm-1.716,1.893l0.06,0.056l-0.139,-0.186l0.079,0.13Zm-0.238,-0.63l0,0.019l0.002,0.025l0.004,0.039l0.01,0.06l0.021,0.093l0.056,0.156l-0.093,-0.396l0,0.004Z" style="fill:#fff;"/><path d="M213.358,61.007l0,58.203l-194.02,0l0,-58.203l194.02,0Zm-89.683,45.171c0.301,0 0.451,-0.162 0.451,-0.487l0,-35.942c0,-0.253 -0.132,-0.379 -0.394,-0.379l-8.222,0c-0.263,0 -0.394,0.144 -0.394,0.433l0,35.455c0,0.614 0.206,0.92 0.619,0.92l7.94,0Zm18.19,-7.307l0,-29.122c0,-0.253 -0.132,-0.379 -0.395,-0.379l-8.221,0c-0.263,0 -0.395,0.144 -0.395,0.433l0,35.996c0,0.253 0.207,0.379 0.62,0.379l23.764,0c0.338,0 0.535,-0.081 0.591,-0.243c0.057,-0.163 0.085,-0.37 0.085,-0.623l0,-5.683c0,-0.145 -0.047,-0.307 -0.141,-0.488c-0.094,-0.18 -0.31,-0.27 -0.647,-0.27l-15.261,0Zm-83.57,7.307c1.539,0 2.947,-0.144 4.224,-0.433c1.276,-0.288 2.365,-0.731 3.266,-1.326c0.901,-0.595 1.605,-1.353 2.112,-2.273c0.506,-0.921 0.76,-2.03 0.76,-3.329l0,-6.334c0,-1.082 -0.422,-2.047 -1.267,-2.896c-0.845,-0.848 -1.924,-1.452 -3.238,-1.813l0,-0.379c1.464,-0.685 2.534,-1.416 3.21,-2.192c0.675,-0.776 1.013,-1.795 1.013,-3.058l0,-5.63c0,-1.227 -0.225,-2.282 -0.675,-3.166c-0.451,-0.885 -1.07,-1.624 -1.859,-2.22c-0.788,-0.595 -1.708,-1.037 -2.759,-1.326c-1.051,-0.289 -2.196,-0.433 -3.435,-0.433l-19.147,0c-0.526,0 -0.845,0.099 -0.957,0.298c-0.113,0.198 -0.169,0.46 -0.169,0.785l0,34.372c0,0.902 0.356,1.353 1.07,1.353l17.851,0Zm39.532,0c2.478,0 4.524,-0.694 6.138,-2.084c1.615,-1.389 2.422,-3.599 2.422,-6.631l0,-27.389c0,-0.469 -0.188,-0.704 -0.563,-0.704l-7.884,0c-0.3,0 -0.469,0.09 -0.507,0.271c-0.037,0.18 -0.056,0.415 -0.056,0.703l0,26.849c0,0.577 -0.066,1.001 -0.197,1.272c-0.132,0.27 -0.423,0.406 -0.873,0.406l-10.193,0c-0.3,0 -0.563,-0.136 -0.788,-0.406c-0.226,-0.271 -0.338,-0.731 -0.338,-1.381l0,-27.064c0,-0.217 -0.085,-0.379 -0.254,-0.488c-0.169,-0.108 -0.291,-0.162 -0.366,-0.162l-7.433,0c-0.263,0 -0.488,0.054 -0.676,0.162c-0.188,0.109 -0.281,0.379 -0.281,0.812l0,27.985c0,1.191 0.197,2.274 0.591,3.248c0.394,0.975 0.929,1.805 1.605,2.49c0.676,0.686 1.455,1.209 2.337,1.57c0.882,0.361 1.811,0.541 2.787,0.541l14.529,0Zm81.542,0c4.28,0 7.64,-1.01 10.081,-3.031c2.44,-2.021 3.66,-5.088 3.66,-9.202l0,-12.288c0,-2.02 -0.329,-3.798 -0.986,-5.331c-0.657,-1.534 -1.567,-2.815 -2.731,-3.844c-1.164,-1.028 -2.534,-1.804 -4.111,-2.327c-1.576,-0.523 -3.285,-0.785 -5.124,-0.785l-16.331,0c-0.526,0.072 -0.845,0.189 -0.957,0.352c-0.113,0.162 -0.169,0.406 -0.169,0.731l0,34.372c0,0.902 0.356,1.353 1.07,1.353l15.598,0Zm-122.876,-15.373c1.314,0 2.168,0.262 2.562,0.785c0.395,0.524 0.592,1.254 0.592,2.193l0,2.814c0,1.841 -0.939,2.761 -2.816,2.761l-8.447,0l0,-8.553l8.109,0Zm121.356,-14.127c0.901,0 1.727,0.072 2.478,0.216c0.751,0.144 1.408,0.406 1.971,0.785c0.563,0.379 1.004,0.893 1.323,1.543c0.319,0.649 0.479,1.479 0.479,2.49l0,12.233c0,1.552 -0.423,2.761 -1.267,3.627c-0.845,0.866 -2.112,1.299 -3.801,1.299l-7.321,0l0,-22.193l6.138,0Zm-121.919,-0.379c1.014,0 1.887,0.189 2.619,0.568c0.732,0.379 1.098,1.146 1.098,2.301l0,2.544c0,0.974 -0.169,1.651 -0.507,2.029c-0.338,0.379 -0.845,0.569 -1.521,0.569l-9.235,0l0,-8.011l7.546,0Z" style="fill:#fff;"/><g><path d="M77.712,31.614c0.001,1.921 -1.706,3.68 -5.123,5.277c-7.746,3.585 -16.436,5.707 -26.071,6.364c-1.171,0.066 -2.246,0.099 -3.222,0.1c-6.869,0.004 -10.304,-1.866 -10.306,-5.609c-0.001,-0.912 0.242,-1.921 0.73,-3.028c0.65,-1.563 1.756,-2.263 3.319,-2.102c1.563,0.195 2.247,0.91 2.052,2.147c-0.13,0.782 0.058,1.425 0.563,1.929c0.505,0.504 1.164,0.788 1.978,0.853c3.972,0.323 9.635,-0.397 16.991,-2.159c1.79,-0.489 4.524,-1.207 8.202,-2.154c2.115,-0.522 3.254,-1.206 3.416,-2.053c0.13,-0.781 -0.326,-1.415 -1.368,-1.903c-0.814,-0.358 -1.644,-0.552 -2.491,-0.584c-4.232,-0.226 -10.547,-0.498 -18.946,-0.819l-10.4,-0.188c-2.214,-0.031 -3.89,-0.112 -5.029,-0.241c-2.279,-0.227 -3.875,-0.681 -4.787,-1.364c-1.432,-1.041 -2.296,-3.108 -2.591,-6.2c-0.099,-1.074 1.414,-2.198 4.539,-3.372c4.295,-1.63 9.194,-3.115 14.694,-4.453c7.063,-1.664 13.312,-3.068 18.747,-4.211c0.619,-0.13 1.286,-0.147 2.002,-0.05c0.651,0.097 1.124,0.878 1.418,2.343c0.065,0.423 0.098,0.83 0.098,1.221c0.001,0.814 -0.275,1.619 -0.828,2.417c-0.553,0.798 -1.22,1.279 -2.001,1.442c-0.749,-0.293 -1.482,-0.601 -2.198,-0.926c-0.651,-0.228 -1.498,-0.26 -2.539,-0.096c-7.291,1.209 -13.866,2.694 -19.724,4.455c-3.417,1.044 -5.126,1.875 -5.125,2.494c-0.033,0.423 1.156,0.683 3.564,0.779c1.27,0.064 2.946,0.079 5.03,0.045c1.692,-0.001 3.255,0.015 4.687,0.046c11.361,0.286 19.125,0.965 23.293,2.036c1.953,0.52 3.614,1.398 4.982,2.634c1.628,1.431 2.443,3.075 2.444,4.93Z" style="fill:#fff;fill-rule:nonzero;"/><path d="M115.308,7.421c0.196,1.106 0.115,1.92 -0.243,2.441c-0.357,0.521 -1.09,0.831 -2.196,0.929c-4.46,0.394 -11.132,1.114 -20.018,2.161c0.915,5.924 1.586,11.848 2.013,17.772c0.197,2.767 0.313,6.087 0.348,9.961c0.002,3.646 -0.094,6.625 -0.288,8.936c-0.161,1.986 -0.958,2.751 -2.391,2.296c-2.279,-0.714 -3.354,-1.918 -3.225,-3.611c0.033,-0.553 0.309,-1.302 0.829,-2.247c0.455,-0.846 0.699,-1.595 0.731,-2.246c0.127,-4.33 0.027,-8.757 -0.301,-13.281c-0.394,-5.501 -0.967,-10.774 -1.719,-15.819c-0.033,-0.163 -0.131,-0.505 -0.294,-1.026c-6.054,1.111 -10.643,2.465 -13.767,4.062c-0.553,0.261 -1.009,0.749 -1.366,1.465c-0.455,0.815 -0.846,1.368 -1.171,1.661c-0.586,0.489 -1.334,0.669 -2.246,0.539c-0.879,-0.13 -1.652,-0.805 -2.32,-2.025c-0.668,-1.22 -0.791,-2.189 -0.368,-2.905c0.357,-0.586 0.829,-1.107 1.415,-1.563c3.253,-2.574 9.534,-4.759 18.843,-6.555c0.423,-0.684 1.123,-1.124 2.099,-1.32c0.944,-0.163 1.611,0.048 2.002,0.634c2.832,-0.458 5.615,-0.867 8.349,-1.226l7.47,-0.933c0.651,-0.098 1.383,-0.383 2.197,-0.856c0.813,-0.472 1.481,-0.741 2.001,-0.807c1.953,-0.294 3.159,0.894 3.616,3.563Z" style="fill:#fff;fill-rule:nonzero;"/><path d="M160.151,16.23c0.131,0.651 0.196,1.221 0.196,1.709c0.001,1.563 -0.649,2.523 -1.951,2.882c-0.651,0.163 -1.383,0.164 -2.197,0.001c-0.879,-0.162 -1.628,-0.178 -2.246,-0.047c-11.782,2.807 -25.647,6.641 -41.595,11.501c0,0.163 -0.032,0.342 -0.097,0.537c-0.227,0.977 -0.259,1.774 -0.096,2.393c0.359,1.399 2.361,2.261 6.007,2.584c1.433,0.129 2.833,0.161 4.2,0.095c1.302,-0.066 2.246,-0.148 2.832,-0.246c6.477,-1.111 13.637,-3.573 21.479,-7.387c0.586,-0.293 1.131,-0.757 1.635,-1.392c0.504,-0.635 0.935,-1.067 1.293,-1.295c0.619,-0.359 1.351,-0.44 2.197,-0.246c0.847,0.228 1.515,1.025 2.004,2.392c0.261,0.716 0.391,1.302 0.392,1.757c0,0.456 -0.114,0.814 -0.342,1.075c-0.455,0.521 -0.992,0.961 -1.61,1.319c-3.222,1.858 -7.452,3.667 -12.692,5.428c-4.947,1.663 -9.389,2.838 -13.328,3.524c-2.473,0.425 -4.719,0.638 -6.738,0.639c-6.347,0.004 -10.125,-2.256 -11.332,-6.78c-0.261,-0.976 -0.392,-1.969 -0.393,-2.978c-0.097,0.032 -0.39,0.114 -0.878,0.244c-0.651,0.196 -1.319,0.262 -2.002,0.197c-0.651,-0.065 -1.14,-0.829 -1.466,-2.294c-0.262,-1.204 -0.14,-2.27 0.364,-3.198c0.504,-0.928 1.358,-1.491 2.562,-1.687c0.521,-0.065 1.465,-0.098 2.832,-0.099c0.26,-0.749 0.748,-2.084 1.462,-4.005c0.065,-0.195 0.098,-0.358 0.098,-0.488c0,-0.488 -0.408,-0.765 -1.221,-0.83c-1.042,-0.031 -1.612,-0.519 -1.71,-1.463c-0.099,-0.847 0.015,-1.726 0.34,-2.637c0.39,-1.075 0.959,-1.661 1.708,-1.759c0.586,-0.196 1.643,-0.278 3.173,-0.246c1.433,0.031 2.474,-0.067 3.125,-0.295c15.263,-5.804 26.085,-8.936 32.465,-9.396c1.107,-0.098 1.904,0.04 2.393,0.414c0.488,0.374 0.798,1.131 0.929,2.27c0.295,2.539 -0.535,3.89 -2.488,4.054c-0.716,0.066 -1.513,0.017 -2.392,-0.145c-0.782,-0.162 -1.921,-0.113 -3.418,0.149c-1.172,0.196 -2.344,0.392 -3.516,0.588c-2.831,0.392 -7.453,1.762 -13.864,4.11c-3.222,1.174 -6.639,2.592 -10.251,4.255c-0.325,0.944 -0.829,2.36 -1.511,4.249c0,0.097 -0.033,0.195 -0.098,0.293c14.093,-3.492 28.186,-7.456 42.278,-11.892c0.651,-0.196 1.318,-0.261 2.002,-0.197c0.651,0.098 1.14,0.879 1.466,2.343Z" style="fill:#fff;fill-rule:nonzero;"/><path d="M196.829,7.369c0.196,1.107 0.115,1.921 -0.243,2.442c-0.358,0.521 -1.09,0.83 -2.197,0.929c-4.459,0.393 -11.132,1.114 -20.018,2.161c0.915,5.924 1.586,11.848 2.013,17.772c0.197,2.767 0.313,6.087 0.348,9.961c0.003,3.646 -0.093,6.624 -0.287,8.936c-0.161,1.985 -0.958,2.751 -2.391,2.296c-2.279,-0.715 -3.354,-1.919 -3.225,-3.611c0.032,-0.554 0.308,-1.303 0.829,-2.247c0.455,-0.847 0.699,-1.595 0.731,-2.246c0.127,-4.33 0.027,-8.757 -0.302,-13.282c-0.394,-5.501 -0.967,-10.774 -1.719,-15.819c-0.032,-0.163 -0.13,-0.504 -0.293,-1.025c-6.054,1.111 -10.643,2.464 -13.767,4.061c-0.553,0.261 -1.009,0.75 -1.366,1.466c-0.456,0.814 -0.846,1.368 -1.171,1.661c-0.586,0.489 -1.335,0.668 -2.246,0.539c-0.879,-0.13 -1.653,-0.805 -2.321,-2.025c-0.668,-1.221 -0.79,-2.189 -0.368,-2.905c0.358,-0.587 0.83,-1.108 1.415,-1.564c3.254,-2.573 9.535,-4.758 18.844,-6.555c0.423,-0.684 1.122,-1.123 2.099,-1.319c0.944,-0.164 1.611,0.047 2.002,0.633c2.832,-0.457 5.615,-0.866 8.349,-1.226l7.47,-0.932c0.651,-0.098 1.383,-0.384 2.197,-0.856c0.813,-0.473 1.48,-0.742 2.001,-0.807c1.953,-0.294 3.158,0.893 3.616,3.562Z" style="fill:#fff;fill-rule:nonzero;"/><path d="M205.701,40.518c-0.423,0.554 -0.944,0.977 -1.562,1.27c0.065,0.293 0.098,0.57 0.098,0.83c0.001,1.628 -0.877,2.491 -2.635,2.59l-4.736,0.296c-1.4,0.098 -2.279,-0.65 -2.638,-2.245c-0.098,-0.358 -0.147,-0.683 -0.147,-0.976c-0.001,-1.074 0.487,-1.872 1.463,-2.393l6.492,-3.471c0.618,-0.326 1.253,-0.522 1.904,-0.588c0.651,-0.065 1.205,0.569 1.661,1.904c0.457,1.334 0.49,2.262 0.1,2.783Z" style="fill:#fff;fill-rule:nonzero;"/></g></g><g id="Layer4"></g></svg>