<?xml version="1.0" encoding="UTF-8" standalone="no"?>
<!DOCTYPE svg PUBLIC "-//W3C//DTD SVG 1.1//EN" "http://www.w3.org/Graphics/SVG/1.1/DTD/svg11.dtd">
<svg width="100%" height="100%" viewBox="0 0 8 8" version="1.1" xmlns="http://www.w3.org/2000/svg" xmlns:xlink="http://www.w3.org/1999/xlink" xml:space="preserve" xmlns:serif="http://www.serif.com/" style="fill-rule:evenodd;clip-rule:evenodd;stroke-linejoin:round;stroke-miterlimit:1.41421;">
    <path d="M4,0C2.9,0 2,1.12 2,2.5C2,3.88 2.9,5 4,5C5.1,5 6,3.88 6,2.5C6,1.12 5.1,0 4,0ZM1.91,5C0.85,5.05 0,5.92 0,7L0,8L8,8L8,7C8,5.92 7.16,5.05 6.09,5C5.55,5.61 4.81,6 4,6C3.19,6 2.45,5.61 1.91,5Z" style="fill:white;fill-rule:nonzero;"/>
</svg>
