<?xml version="1.0" encoding="UTF-8" standalone="no"?><!DOCTYPE svg PUBLIC "-//W3C//DTD SVG 1.1//EN" "http://www.w3.org/Graphics/SVG/1.1/DTD/svg11.dtd"><svg width="100%" height="100%" viewBox="0 0 600 150" version="1.1" xmlns="http://www.w3.org/2000/svg" xmlns:xlink="http://www.w3.org/1999/xlink" xml:space="preserve" xmlns:serif="http://www.serif.com/" style="fill-rule:evenodd;clip-rule:evenodd;stroke-linejoin:round;stroke-miterlimit:1.41421;"><g><path d="M77.317,25.887c6.881,0 9.481,-16.666 7.493,-16.36c-1.988,2.905 -13.15,2.752 -26.452,2.599c-1.682,-2.599 -8.869,-5.964 -12.844,-5.964c-0.918,0 -1.988,2.294 -3.058,5.964c-20.489,0.306 -40.519,2.905 -39.449,16.819c-2.905,3.058 -3.67,7.034 -2.447,10.398c2.905,7.798 15.902,9.021 17.584,5.045c-4.893,-1.376 -9.48,-5.657 -9.48,-10.091c0,-6.728 11.315,-8.257 30.275,-8.563c-5.351,24.006 -11.009,62.385 -10.244,69.571c0.611,4.282 11.314,8.41 14.984,6.728c-1.988,-13.608 4.893,-54.433 10.245,-76.299c7.186,0.153 14.831,0.153 23.393,0.153Z" style="fill:#fff;fill-rule:nonzero;"/><path d="M105.758,91.636c-7.187,0 3.67,-35.627 6.422,-40.366c-0.153,-2.753 -11.621,-11.468 -16.82,-11.468c-3.363,0 -14.678,15.29 -20.336,30.733c2.753,-20.795 10.856,-53.669 14.068,-58.256c-1.683,-2.6 -9.481,-5.963 -13.456,-5.963c-5.046,0 -16.667,66.207 -15.597,76.91c0.612,4.281 8.257,12.844 15.291,12.844c1.223,-19.724 11.315,-35.015 16.055,-41.895c2.293,-3.365 3.975,-3.059 3.058,0.152c-2.294,7.951 -5.963,22.324 -4.893,32.416c0.917,7.645 7.187,13.608 15.443,13.608c12.232,0 21.253,-32.874 21.407,-35.626c0.153,-1.071 -2.906,-2.447 -4.129,-2.141c0,0 -10.091,29.052 -16.513,29.052Z" style="fill:#fff;fill-rule:nonzero;"/><path d="M160.956,88.731c-3.976,0 -1.071,-15.597 3.058,-27.37c-1.07,-2.905 -3.823,-5.199 -6.728,-6.575l0.459,-0.611c3.822,-7.034 -13.303,-15.75 -19.724,-15.75c-16.055,0 -24.006,30.428 -22.325,45.871c1.377,11.468 9.48,16.361 14.679,16.361c7.186,0 11.315,-7.951 14.373,-17.89c0,0.306 0,0.765 0.153,1.07c0.765,7.645 5.963,13.609 14.22,13.609c12.691,0 21.254,-31.498 21.101,-32.568c0,-0.918 -2.447,-1.988 -3.67,-1.988l-0.459,0c0,0 -8.715,25.841 -15.137,25.841Zm-28.899,2.599c-6.422,0 1.223,-44.037 11.468,-44.037c2.446,0 3.976,2.753 4.892,8.41c-3.363,10.703 -11.62,35.627 -16.36,35.627Z" style="fill:#fff;fill-rule:nonzero;"/><path d="M213.86,90.566c-7.186,0 3.67,-34.71 6.269,-39.45c0,-2.752 -10.091,-11.468 -16.819,-11.468c-3.058,0 -12.691,14.068 -18.654,28.746c1.987,-8.715 4.74,-17.278 6.116,-20.489c-4.282,-3.975 -10.397,-4.74 -13.303,-4.74c-2.905,0 -8.409,30.275 -7.339,41.437c0.765,6.575 6.422,11.468 13.455,11.468c1.377,-19.724 11.468,-36.697 16.208,-43.577c2.447,-3.365 4.128,-3.058 3.211,0.152c-2.141,7.951 -6.422,22.936 -5.351,33.027c0.917,7.645 7.186,13.609 15.596,13.609c11.62,0 20.795,-31.651 20.947,-34.403c0.153,-1.07 -2.905,-2.294 -4.128,-1.988c0,0 -9.786,27.676 -16.208,27.676Z" style="fill:#fff;fill-rule:nonzero;"/><path d="M263.095,33.838c-1.988,0 -5.81,2.6 -6.575,5.964c-5.504,2.14 -14.373,20.029 -17.583,35.626c2.293,-20.336 11.162,-56.88 14.525,-61.62c-1.682,-2.599 -9.48,-5.963 -13.455,-5.963c-5.046,0 -16.666,66.207 -15.596,76.91c0.611,4.281 8.256,12.844 15.29,12.844c0.918,-7.34 2.753,-14.985 4.893,-21.865c0.153,0 0.306,0 0.611,0.152c1.989,14.373 8.41,23.395 19.725,23.395c14.985,0 22.63,-32.875 22.783,-34.403c0.153,-1.07 -2.447,-2.141 -4.129,-1.988c0,0 -9.174,26.758 -15.596,26.758c-4.281,0 -7.645,-10.397 -8.104,-16.361c8.104,-5.198 13.761,-15.902 13.761,-25.229c0,-6.728 -4.128,-12.538 -10.55,-14.22Zm-3.211,12.232c3.976,3.823 -0.459,18.808 -7.798,23.853c-1.987,-0.305 -4.128,-0.152 -5.657,0.153c4.893,-13.302 10.703,-23.241 13.455,-24.006Z" style="fill:#fff;fill-rule:nonzero;"/><path d="M343.981,21.912c-5.046,16.972 -12.691,51.987 -11.162,65.137c0.918,7.645 8.868,14.067 18.348,14.067c7.034,0 14.526,-15.749 20.643,-33.639c-2.906,18.654 -4.894,36.697 -4.588,46.177c0.153,5.81 12.691,8.104 14.221,5.046c-3.059,-19.113 13.608,-98.929 17.278,-106.421c-2.447,-3.517 -10.704,-5.046 -12.08,-5.046c-1.529,0 -3.517,5.352 -5.657,13.609c-5.199,14.373 -22.936,72.017 -32.722,72.017c-6.727,0 4.281,-46.177 9.939,-65.29c0,-7.95 -9.48,-14.984 -13.914,-14.984c-16.361,0.152 -41.284,19.724 -41.284,27.217c0,2.599 1.682,5.504 3.823,7.798c-0.153,0.764 -0.307,1.528 -0.307,2.293c0,3.67 2.753,7.951 8.717,7.951c4.892,0 10.396,-2.752 10.396,-5.046c0,-2.599 -7.798,0.765 -11.773,-4.587c4.282,-11.162 21.253,-23.853 30.122,-26.299Z" style="fill:#fff;fill-rule:nonzero;"/><path d="M453.46,64.572c0,-1.529 -3.823,-3.211 -3.975,-2.599c-2.447,8.256 -7.187,13.302 -12.692,14.984c0.612,-3.517 1.07,-7.186 1.07,-10.703c0,-7.951 -1.834,-14.526 -5.656,-17.89c-1.989,-1.682 -10.704,-7.492 -17.279,-7.492c-3.364,0 -6.728,2.599 -7.951,6.575l-0.306,0c-5.351,0 -12.079,15.749 -12.079,29.969c0,11.315 5.964,24.77 20.03,24.77c9.633,0 16.361,-7.798 20.031,-17.737c8.715,-1.529 16.819,-8.868 18.807,-19.877Zm-40.826,-0.612c1.835,-4.74 4.282,-8.257 6.728,-9.327c0.306,-0.306 0.306,-0.458 0.306,-0.765c0,-0.917 -1.376,-2.14 -3.211,-3.058c1.682,-1.529 3.517,-2.446 5.046,-2.446c3.517,0 5.046,4.893 5.046,11.467c0,4.894 -0.917,10.857 -2.294,16.362c-4.893,-2.141 -8.715,-6.27 -11.621,-12.233Zm9.328,19.572c-2.447,6.422 -5.658,11.009 -9.022,11.009c-3.363,0 -4.74,-3.975 -4.74,-9.633c0,-3.211 0.459,-6.881 1.224,-10.55c3.363,4.434 7.492,7.492 12.538,9.174Z" style="fill:#fff;fill-rule:nonzero;"/><path d="M489.545,102.186c7.339,0 21.865,-7.034 31.039,-7.034c4.434,0 6.422,1.682 6.422,4.893c0.459,0.306 3.823,0.154 3.823,-5.198c0,-4.74 -2.752,-13.15 -11.774,-13.15c-9.327,0 -25.993,9.327 -35.321,11.927c-0.152,-11.774 3.823,-34.71 8.105,-46.942c-2.905,-2.446 -10.092,-4.129 -12.233,-4.129c-2.14,0 -3.822,3.976 -5.045,9.481c-3.212,10.397 -11.315,34.403 -16.361,34.403c-0.917,0 -1.529,-0.765 -1.682,-2.446c-1.07,-8.105 7.033,-36.238 8.868,-39.603c-1.988,-3.058 -8.868,-5.81 -12.538,-5.81c-4.281,0 -11.162,34.251 -9.786,44.342c1.071,7.339 5.505,12.997 13.609,12.997c6.575,0 11.162,-7.34 14.373,-16.055c0,2.447 0,4.434 0.152,5.657c0.612,7.646 5.658,11.468 9.94,12.691c1.681,2.294 4.74,3.976 8.409,3.976Z" style="fill:#fff;fill-rule:nonzero;"/><path d="M549.789,82.309c-7.034,0 -9.48,10.244 -7.493,14.831c2.141,4.434 7.645,5.352 10.092,5.352c5.351,0 7.798,-6.881 8.104,-11.621c-0.153,-5.963 -7.339,-8.562 -10.703,-8.562Zm11.162,-8.716c3.058,-23.853 10.245,-55.963 12.996,-59.785c-1.681,-2.599 -9.479,-5.963 -13.455,-5.963c-3.517,0 -9.786,34.25 -13.149,59.479c-0.154,5.352 9.173,7.034 13.608,6.269Z" style="fill:#fff;fill-rule:nonzero;"/><path d="M554.223,117.935c-7.492,-1.682 -318.039,-7.186 -318.039,6.422c0,2.446 2.447,3.364 4.893,3.364c-0.153,-0.153 -0.153,-0.306 -0.153,-0.459c0,-6.269 318.039,0.459 318.039,5.351c0,0.307 0,0.765 -0.153,0.918c0.306,0.153 0.918,0.306 1.223,0.306c1.071,0 1.683,-1.376 1.683,-3.364c0,-4.281 -2.6,-11.315 -7.493,-12.538Z" style="fill:#fff;fill-rule:nonzero;"/></g></svg>