<?xml version="1.0" encoding="UTF-8" standalone="no"?>
<!DOCTYPE svg PUBLIC "-//W3C//DTD SVG 1.1//EN" "http://www.w3.org/Graphics/SVG/1.1/DTD/svg11.dtd">
<svg width="100%" height="100%" viewBox="0 0 100 125" version="1.1" xmlns="http://www.w3.org/2000/svg" xmlns:xlink="http://www.w3.org/1999/xlink" xml:space="preserve" xmlns:serif="http://www.serif.com/" style="fill-rule:evenodd;clip-rule:evenodd;stroke-linejoin:round;stroke-miterlimit:2;">
    <path d="M50.5,78C64.7,78 76.3,66.4 76.3,52.2C76.3,50.9 76.2,49.6 76,48.4C76.2,47.1 76.3,45.9 76.3,44.6C76.3,30.4 64.7,18.8 50.5,18.8C36.3,18.8 24.6,30.3 24.6,44.5C24.6,45.8 24.7,47.1 24.9,48.3C24.7,49.6 24.6,50.8 24.6,52.1C24.6,66.4 36.2,78 50.5,78ZM75.3,52.2C75.3,65.9 64.2,77 50.5,77C36.8,77 25.6,65.9 25.6,52.2C25.6,38.5 36.7,27.4 50.4,27.4C59.9,27.4 67.6,35.1 67.6,44.6C67.6,45.1 67.6,45.6 67.5,46.1C64.9,39 58.1,34.1 50.4,34.1C41.8,34.1 34.5,40.2 32.7,48.3L32.7,48.4C32.4,49.7 32.3,50.9 32.3,52.3C32.3,62.3 40.4,70.5 50.5,70.5C62.3,70.5 72.2,62.6 75.3,51.8L75.3,52.2ZM67.2,48.3C65.5,55.9 58.6,61.7 50.5,61.7C42.6,61.7 35.5,56.1 33.8,48.4C35.5,40.7 42.3,35 50.5,35C58.4,35 65.4,40.6 67.2,48.3ZM25.6,44.5C25.6,30.8 36.7,19.7 50.4,19.7C64.1,19.7 75.2,30.8 75.2,44.5C75.2,58.2 64.1,69.3 50.4,69.3C40.9,69.3 33.2,61.6 33.2,52.1C33.2,51.6 33.2,51.1 33.3,50.6C35.9,57.7 42.7,62.6 50.4,62.6C59,62.6 66.3,56.5 68.1,48.4L68.1,48.3C68.4,47 68.5,45.8 68.5,44.4C68.5,34.4 60.4,26.2 50.3,26.2C38.5,26.2 28.6,34.1 25.5,44.9C25.7,44.8 25.6,44.7 25.6,44.5Z" style="fill:rgb(204,204,204);fill-rule:nonzero;"/>
</svg>
