<?xml version="1.0" encoding="UTF-8" standalone="no"?><!DOCTYPE svg PUBLIC "-//W3C//DTD SVG 1.1//EN" "http://www.w3.org/Graphics/SVG/1.1/DTD/svg11.dtd"><svg width="100%" height="100%" viewBox="0 0 3334 3334" version="1.1" xmlns="http://www.w3.org/2000/svg" xmlns:xlink="http://www.w3.org/1999/xlink" xml:space="preserve" xmlns:serif="http://www.serif.com/" style="fill-rule:evenodd;clip-rule:evenodd;stroke-linejoin:round;stroke-miterlimit:2;"><g><clipPath id="_clip1"><path d="M2124.66,2101.06c579.954,-437.029 824.542,-1090.64 546.3,-1459.88c-278.241,-369.237 -973.946,-314.283 -1553.9,122.746c-579.954,437.025 -824.541,1090.63 -546.3,1459.88c278.242,369.238 973.946,314.284 1553.9,-122.746Z"/></clipPath><g clip-path="url(#_clip1)"><path d="M8.6,1547.04l2166.76,-1632.77l1057.76,1403.68l-2166.76,1632.77l-1057.75,-1403.68Z" style="fill:#c2efef;fill-rule:nonzero;"/></g><clipPath id="_clip2"><path d="M1656.11,117.117c6.963,-1.788 10.142,2.058 10.517,6.696c1.008,11.291 -17.508,13.912 -16.596,0.312c0.2,-3.071 1.688,-5.904 6.079,-7.008Z"/></clipPath><g clip-path="url(#_clip2)"><rect x="1608.33" y="75" width="100" height="100" style="fill:#58c2d1;fill-rule:nonzero;"/></g><clipPath id="_clip3"><path d="M1469.85,116.854c2.254,-0.621 3.871,0.429 4.416,1.546c3.601,7.225 -7.166,9.054 -7.579,2.796c-0.083,-1.658 0,-3.463 3.163,-4.342Z"/></clipPath><g clip-path="url(#_clip3)"><rect x="1425" y="75" width="91.667" height="91.667" style="fill:#58c2d1;fill-rule:nonzero;"/></g><clipPath id="_clip4"><path d="M1564.29,208.587c26.813,-3.641 23.263,33.43 2.092,33.08c-19.179,-0.325 -23.554,-30.167 -2.092,-33.08Z"/></clipPath><g clip-path="url(#_clip4)"><rect x="1508.33" y="166.667" width="116.667" height="116.667" style="fill:#58c2d1;fill-rule:nonzero;"/></g><clipPath id="_clip5"><path d="M1380.3,209.038c4.971,-1.842 9.821,0.054 10.983,4.366c3.655,14.088 -20.649,16.888 -15.595,-0.287c0.529,-1.588 2.279,-3.196 4.612,-4.079Z"/></clipPath><g clip-path="url(#_clip5)"><rect x="1333.33" y="166.667" width="100" height="100" style="fill:#58c2d1;fill-rule:nonzero;"/></g><clipPath id="_clip6"><path d="M1653.2,292.071c14.416,-2.308 27.816,5.604 29.725,16.108c6.05,34.013 -56.725,33.308 -48.917,-0.729c1.871,-8.246 10.225,-13.938 19.192,-15.379Z"/></clipPath><g clip-path="url(#_clip6)"><rect x="1591.67" y="250" width="133.333" height="125" style="fill:#58c2d1;fill-rule:nonzero;"/></g><clipPath id="_clip7"><path d="M1471.27,292.142c24.337,-4.859 26.804,29.333 7.9,32.587c-20.517,3.517 -30.6,-28.062 -7.9,-32.587Z"/></clipPath><g clip-path="url(#_clip7)"><rect x="1416.67" y="250" width="116.667" height="116.667" style="fill:#58c2d1;fill-rule:nonzero;"/></g><clipPath id="_clip8"><path d="M1561.31,375.529c14.134,-2.579 27.663,4.354 30.05,19.208c2.475,15.209 -10.191,35.046 -32.283,29.225c-23.325,-6.124 -23.833,-43.716 2.233,-48.433Z"/></clipPath><g clip-path="url(#_clip8)"><rect x="1500" y="333.333" width="133.333" height="133.333" style="fill:#58c2d1;fill-rule:nonzero;"/></g><clipPath id="_clip9"><path d="M1376.49,391.925c31.863,-4.05 29.692,41.113 3.405,41.408c-26.509,0.309 -29.65,-38.054 -3.405,-41.408Z"/></clipPath><g clip-path="url(#_clip9)"><rect x="1316.67" y="350" width="125" height="125" style="fill:#58c2d1;fill-rule:nonzero;"/></g><clipPath id="_clip10"><path d="M1660.86,475.05c31.096,-1.658 53.796,39.437 27.788,65c-21.975,21.671 -63.612,5.879 -63.65,-27.4c-0.038,-10.175 6.046,-22.417 11.408,-27.663c4.455,-4.32 10.505,-9.187 24.454,-9.937Z"/></clipPath><g clip-path="url(#_clip10)"><rect x="1583.33" y="433.333" width="158.333" height="158.333" style="fill:#58c2d1;fill-rule:nonzero;"/></g><clipPath id="_clip11"><path d="M1467.08,475.262c35.117,-3.995 45.621,39.042 14.288,48.313c-22.55,6.675 -47.342,-11 -37.479,-33.488c3.15,-7.087 9.579,-13.27 23.191,-14.825Z"/></clipPath><g clip-path="url(#_clip11)"><rect x="1400" y="433.333" width="141.667" height="133.333" style="fill:#58c2d1;fill-rule:nonzero;"/></g><clipPath id="_clip12"><path d="M1560.88,558.388c21.042,-1.117 39.109,15.299 39.121,37.404c0.008,49.991 -74.979,50.05 -75,0.221c-0.012,-21.959 15.413,-36.53 35.879,-37.625Z"/></clipPath><g clip-path="url(#_clip12)"><rect x="1483.33" y="516.667" width="158.333" height="158.333" style="fill:#58c2d1;fill-rule:nonzero;"/></g><clipPath id="_clip13"><path d="M1370.16,567.163c5.471,-1.055 12.646,-0.284 15.625,0.975c17.338,7.212 20.796,38.904 -0.808,47.008c-13.738,5.183 -29.404,-3.704 -33.325,-14.104c-0.958,-2.65 -3.354,-11.009 0.342,-19.942c1.329,-2.996 7.479,-11.917 18.166,-13.937Z"/></clipPath><g clip-path="url(#_clip13)"><rect x="1308.33" y="525" width="133.333" height="133.333" style="fill:#58c2d1;fill-rule:nonzero;"/></g><clipPath id="_clip14"><path d="M1687.05,662.779c-9.463,-9.367 -23.334,-14.296 -38.9,-12.362c-21.6,2.683 -37.063,19.108 -39.429,39.021c-4.071,34.95 24.979,54.458 50.725,52.029c6.258,-0.6 12.287,-2.571 17.7,-5.696l9.904,-72.992Z"/></clipPath><g clip-path="url(#_clip14)"><rect x="1566.67" y="608.333" width="162.046" height="175" style="fill:#58c2d1;fill-rule:nonzero;"/></g><clipPath id="_clip15"><path d="M1839.8,650.417c27.221,-3.375 49.246,14.212 51.613,39.833c2.708,28.146 -17.263,49.029 -40.305,51.212c-25.754,2.442 -54.812,-17.079 -50.729,-52.016c2.371,-19.908 17.821,-36.346 39.421,-39.029Z"/></clipPath><g clip-path="url(#_clip15)"><rect x="1758.33" y="608.333" width="175" height="175" style="fill:#58c2d1;fill-rule:nonzero;"/></g><clipPath id="_clip16"><path d="M1466.59,650.246c22.85,-2.092 35.784,9.696 39.755,19.896c14.825,38.754 -57.671,53.375 -71.038,18.366c-8.137,-21.075 10.188,-36.312 31.283,-38.262Z"/></clipPath><g clip-path="url(#_clip16)"><rect x="1391.67" y="608.333" width="158.333" height="141.667" style="fill:#58c2d1;fill-rule:nonzero;"/></g><clipPath id="_clip17"><path d="M2350.58,970.679c4.446,-35.037 37.225,-59.329 72.313,-53.008c35.421,6.371 56.971,40.387 51.158,72.371c-6.362,34.804 -39.687,56.612 -72.958,50.646c-34.375,-6.175 -54.896,-35.251 -50.513,-70.009Z"/></clipPath><g clip-path="url(#_clip17)"><rect x="2308.33" y="875" width="208.333" height="208.333" style="fill:#58c2d1;fill-rule:nonzero;"/></g><clipPath id="_clip18"><path d="M2467.1,1135.1c3.967,-35.167 36.146,-56.983 69.217,-50.692c75.7,14.401 54.008,128.871 -22.513,114.313c-32.55,-6.196 -50.187,-32.646 -46.704,-63.621Z"/></clipPath><g clip-path="url(#_clip18)"><rect x="2425" y="1041.67" width="200" height="200" style="fill:#58c2d1;fill-rule:nonzero;"/></g><clipPath id="_clip19"><path d="M2516.94,871.396c3.475,-45.371 63.391,-64.459 91.216,-25c15.413,21.829 9.346,56.8 -13.875,71.829c-22.02,14.292 -58.045,4.371 -70.416,-14.779c-5.338,-8.296 -8.13,-16.646 -6.925,-32.05Z"/></clipPath><g clip-path="url(#_clip19)"><rect x="2475" y="783.333" width="183.333" height="183.333" style="fill:#58c2d1;fill-rule:nonzero;"/></g><clipPath id="_clip20"><path d="M2575.26,617.083c1.917,-19.916 20.575,-36.966 43.359,-33.229c52.571,8.646 32.608,81.438 -12.359,73.942c-20.662,-3.479 -33.27,-17.579 -31,-40.713Z"/></clipPath><g clip-path="url(#_clip20)"><rect x="2533.33" y="541.667" width="158.333" height="158.333" style="fill:#58c2d1;fill-rule:nonzero;"/></g><clipPath id="_clip21"><path d="M2650.05,348.988c1.779,-25.092 45.117,-17.155 41.388,3.683c-3.388,18.871 -43.063,19.633 -41.388,-3.683Z"/></clipPath><g clip-path="url(#_clip21)"><rect x="2608.33" y="291.667" width="125" height="116.667" style="fill:#58c2d1;fill-rule:nonzero;"/></g><clipPath id="_clip22"><path d="M2633.35,1029.06c0.725,-31.537 27.771,-53.345 60.529,-43.224c27.675,8.608 35.662,36.616 28.8,58.333c-8.058,25.596 -35.092,35.896 -58.738,28.479c-19.708,-6.117 -31.1,-21.329 -30.591,-43.588Z"/></clipPath><g clip-path="url(#_clip22)"><rect x="2591.67" y="941.667" width="175" height="175" style="fill:#58c2d1;fill-rule:nonzero;"/></g><clipPath id="_clip23"><path d="M2683.46,776.167c3.934,-51.896 82.738,-42.296 74.229,9.12c-7.929,47.93 -77.75,37.83 -74.229,-9.12Z"/></clipPath><g clip-path="url(#_clip23)"><rect x="2641.67" y="700" width="158.333" height="158.333" style="fill:#58c2d1;fill-rule:nonzero;"/></g><clipPath id="_clip24"><path d="M2742.59,510.496c-0,-0 -1.063,-0.438 -0.913,-1.167c5.492,-29.241 55.388,-18.891 49.504,7.217c-5.633,25.012 -51.433,21.325 -48.591,-6.05Z"/></clipPath><g clip-path="url(#_clip24)"><rect x="2700" y="450" width="133.333" height="125" style="fill:#58c2d1;fill-rule:nonzero;"/></g><clipPath id="_clip25"><path d="M2791.68,930.483c-1.396,-69.433 104.125,-35.087 67.109,20.125c-8.055,12.03 -29.359,24.446 -52.846,8.509c-4.43,-3.1 -13.971,-13.479 -14.263,-28.634Z"/></clipPath><g clip-path="url(#_clip25)"><rect x="2750" y="850" width="158.333" height="158.333" style="fill:#58c2d1;fill-rule:nonzero;"/></g><clipPath id="_clip26"><path d="M2858.6,659.542c4.804,-33.371 63.571,-14.863 46.696,13.537c-9.675,16.288 -50.667,14.171 -46.696,-13.537Z"/></clipPath><g clip-path="url(#_clip26)"><rect x="2816.67" y="600" width="133.333" height="125" style="fill:#58c2d1;fill-rule:nonzero;"/></g><clipPath id="_clip27"><path d="M2916.7,400.596c-0.358,-4.592 2.312,-7.492 4.746,-8.217c15.67,-4.9 15.125,17.188 2.608,15.9c-3.296,-0.225 -6.85,-0.975 -7.354,-7.683Z"/></clipPath><g clip-path="url(#_clip27)"><rect x="2875" y="350" width="100" height="100" style="fill:#58c2d1;fill-rule:nonzero;"/></g><clipPath id="_clip28"><path d="M2958.38,820.113c0.95,-20.663 27.183,-27.121 37.55,-11.23c19.846,30.117 -39.396,50.188 -37.55,11.23Z"/></clipPath><g clip-path="url(#_clip28)"><rect x="2916.67" y="758.333" width="125" height="125" style="fill:#58c2d1;fill-rule:nonzero;"/></g><clipPath id="_clip29"><path d="M3025.03,558.967c-0.358,-4.684 2.313,-7.446 4.763,-8.292c15.641,-4.754 15.116,17.217 2.596,15.942c-3.292,-0.35 -6.846,-0.984 -7.359,-7.65Z"/></clipPath><g clip-path="url(#_clip29)"><rect x="2983.33" y="508.333" width="100" height="100" style="fill:#58c2d1;fill-rule:nonzero;"/></g><clipPath id="_clip30"><path d="M3075.15,977.467c-1.367,-13.671 6.488,-18.7 13.996,-19.1c27.042,-1.329 25.337,41.625 -4.142,31.854c-4.254,-1.479 -9.1,-5.013 -9.854,-12.754Z"/></clipPath><g clip-path="url(#_clip30)"><rect x="3033.33" y="916.667" width="116.667" height="116.667" style="fill:#58c2d1;fill-rule:nonzero;"/></g><clipPath id="_clip31"><path d="M3125.03,717.321c-0.35,-4.671 2.321,-7.55 4.75,-8.283c15.663,-4.859 15.129,17.087 2.596,15.92c-3.279,-0.346 -6.812,-1.079 -7.346,-7.637Z"/></clipPath><g clip-path="url(#_clip31)"><rect x="3083.33" y="666.667" width="100" height="100" style="fill:#58c2d1;fill-rule:nonzero;"/></g><clipPath id="_clip32"><path d="M496.971,1600.71c4.979,-1.85 9.816,0.055 10.983,4.359c3.654,14.095 -20.654,16.891 -15.592,-0.288c0.521,-1.579 2.28,-3.196 4.609,-4.071Z"/></clipPath><g clip-path="url(#_clip32)"><rect x="450" y="1558.33" width="100" height="100" style="fill:#ff9fc0;fill-rule:nonzero;"/></g><clipPath id="_clip33"><path d="M607.837,1708.92c30.417,-6.071 33.496,36.667 9.876,40.738c-25.65,4.395 -38.259,-35.08 -9.876,-40.738Z"/></clipPath><g clip-path="url(#_clip33)"><rect x="550" y="1666.67" width="125" height="125" style="fill:#ff9fc0;fill-rule:nonzero;"/></g><clipPath id="_clip34"><path d="M380.329,1709.05c4.921,-1.854 9.863,0.033 10.958,4.362c3.671,14.079 -20.67,16.884 -15.587,-0.291c0.442,-1.588 2.292,-3.196 4.629,-4.071Z"/></clipPath><g clip-path="url(#_clip34)"><rect x="333.333" y="1666.67" width="100" height="100" style="fill:#ff9fc0;fill-rule:nonzero;"/></g><clipPath id="_clip35"><path d="M505.112,1825.31c38.246,-4.854 35.638,49.338 4.08,49.692c-31.796,0.367 -35.563,-45.671 -4.08,-49.692Z"/></clipPath><g clip-path="url(#_clip35)"><rect x="441.667" y="1783.33" width="133.333" height="133.333" style="fill:#ff9fc0;fill-rule:nonzero;"/></g><clipPath id="_clip36"><path d="M256.592,1833.74c5.562,-1.517 9.77,1.304 10.046,7.075c1.037,21.996 -29.73,-1.729 -10.046,-7.075Z"/></clipPath><g clip-path="url(#_clip36)"><rect x="208.333" y="1791.67" width="100" height="100" style="fill:#ff9fc0;fill-rule:nonzero;"/></g><clipPath id="_clip37"><path d="M616.008,1933.73c45.155,-5.992 58.659,58.575 18.363,72.467c-28.988,10.016 -60.858,-16.496 -48.179,-50.238c4.041,-10.629 12.308,-19.896 29.816,-22.229Z"/></clipPath><g clip-path="url(#_clip37)"><rect x="541.667" y="1891.67" width="158.333" height="158.333" style="fill:#ff9fc0;fill-rule:nonzero;"/></g><clipPath id="_clip38"><path d="M374.417,1942.33c35.116,-7.208 33.312,47.55 -0.713,40.358c-17.187,-3.641 -23.833,-35.35 0.713,-40.358Z"/></clipPath><g clip-path="url(#_clip38)"><rect x="316.667" y="1900" width="125" height="125" style="fill:#ff9fc0;fill-rule:nonzero;"/></g><clipPath id="_clip39"><path d="M139.704,1950.37c4.534,-1.234 7.659,0.85 8.863,3.091c7.1,14.463 -14.488,18.113 -15.192,5.588c-0.179,-3.292 -0.121,-6.917 6.329,-8.679Z"/></clipPath><g clip-path="url(#_clip39)"><rect x="91.667" y="1908.33" width="100" height="100" style="fill:#ff9fc0;fill-rule:nonzero;"/></g><clipPath id="_clip40"><path d="M481.846,2042.24c6.387,-1.212 14.754,-0.325 18.233,1.146c20.229,8.413 24.263,45.4 -0.946,54.842c-16.016,6.05 -34.312,-4.317 -38.875,-16.442c-1.112,-3.104 -3.92,-12.85 0.4,-23.279c1.546,-3.487 8.721,-13.896 21.188,-16.267Z"/></clipPath><g clip-path="url(#_clip40)"><rect x="416.667" y="2000" width="141.667" height="141.667" style="fill:#ff9fc0;fill-rule:nonzero;"/></g><clipPath id="_clip41"><path d="M255.758,2066.9c24.667,-3.392 25.55,32.616 3.025,33.1c-19.158,0.429 -25.008,-30.084 -3.025,-33.1Z"/></clipPath><g clip-path="url(#_clip41)"><rect x="200" y="2025" width="116.667" height="116.667" style="fill:#ff9fc0;fill-rule:nonzero;"/></g><clipPath id="_clip42"><path d="M611.95,2158.68c25.375,-2.996 39.754,13.842 44.175,28.425c16.467,55.35 -64.083,76.25 -78.933,26.242c-9.042,-30.108 11.304,-51.879 34.758,-54.667Z"/></clipPath><g clip-path="url(#_clip42)"><rect x="533.333" y="2116.67" width="166.667" height="166.667" style="fill:#ff9fc0;fill-rule:nonzero;"/></g><clipPath id="_clip43"><path d="M361.229,2167.25c16.733,-3.579 34.154,9.538 29.742,30.925c-6.033,28.775 -56.088,23.609 -48.529,-13.008c1.5,-6.954 6.879,-15.363 18.787,-17.917Z"/></clipPath><g clip-path="url(#_clip43)"><rect x="300" y="2125" width="133.333" height="133.333" style="fill:#ff9fc0;fill-rule:nonzero;"/></g><clipPath id="_clip44"><path d="M131.587,2183.73c5.575,-1.5 9.775,1.334 10.051,7.092c1.037,21.979 -29.73,-1.729 -10.051,-7.092Z"/></clipPath><g clip-path="url(#_clip44)"><rect x="83.333" y="2141.67" width="100" height="100" style="fill:#ff9fc0;fill-rule:nonzero;"/></g><clipPath id="_clip45"><path d="M1781.58,2208.74c5.575,-1.508 9.771,1.313 10.055,7.076c1.025,22.004 -29.721,-1.73 -10.055,-7.076Z"/></clipPath><g clip-path="url(#_clip45)"><rect x="1733.33" y="2166.67" width="100" height="100" style="fill:#ff9fc0;fill-rule:nonzero;"/></g><clipPath id="_clip46"><path d="M894.504,2309.22c-1.741,5.746 -2.716,11.933 -2.829,18.466c-0.596,34.596 25.508,63.354 61.408,63.975c31.375,0.538 62.917,-23.379 63.571,-61.812c0.621,-36.671 -28.921,-65.113 -65.366,-63.075c-12.434,0.687 -23.555,4.317 -32.73,10.275l-24.054,32.171Z"/></clipPath><g clip-path="url(#_clip46)"><rect x="850" y="2225" width="208.333" height="208.333" style="fill:#ff9fc0;fill-rule:nonzero;"/></g><clipPath id="_clip47"><path d="M770.646,2302.95c-0.113,-0.242 -0.225,-0.483 -0.342,-0.729c-8.529,-17.871 -26.679,-30.309 -53.354,-26.538c-19.808,2.834 -32.4,18.133 -36,25.004c-15.987,30.738 3.404,58.963 20.808,68.038c10.696,5.608 21.109,7.187 30.563,5.817l38.325,-71.592Z"/></clipPath><g clip-path="url(#_clip47)"><rect x="633.333" y="2233.33" width="178.979" height="183.333" style="fill:#ff9fc0;fill-rule:nonzero;"/></g><clipPath id="_clip48"><path d="M1212.3,2286.91c11.362,4.575 19.667,13.167 24.717,23.63c18.737,39.283 -22.217,90.879 -68.613,66.504c-0.517,-0.271 -1.037,-0.555 -1.554,-0.859l45.45,-89.275Z"/></clipPath><g clip-path="url(#_clip48)"><rect x="1125.18" y="2245.24" width="158.15" height="179.758" style="fill:#ff9fc0;fill-rule:nonzero;"/></g><clipPath id="_clip49"><path d="M487.708,2284.1c26.288,-4.916 50.946,14.108 44.621,46.354c-7.942,40.546 -67.862,34.03 -73.429,-1.3c-3.438,-22.283 9.062,-41.37 28.808,-45.054Z"/></clipPath><g clip-path="url(#_clip49)"><rect x="416.667" y="2241.67" width="158.333" height="158.333" style="fill:#ff9fc0;fill-rule:nonzero;"/></g><clipPath id="_clip50"><path d="M1420.92,2292.44c26.291,-4.916 51.071,14.105 44.746,46.351c-8.063,40.554 -67.988,34.025 -73.434,-1.288c-3.437,-22.279 9.063,-41.354 28.688,-45.063Z"/></clipPath><g clip-path="url(#_clip50)"><rect x="1350" y="2250" width="158.333" height="158.333" style="fill:#ff9fc0;fill-rule:nonzero;"/></g><clipPath id="_clip51"><path d="M259.796,2291.85c20.212,-2.521 31.087,22.266 17.504,35.162c-25.746,24.663 -55.612,-30.412 -17.504,-35.162Z"/></clipPath><g clip-path="url(#_clip51)"><rect x="200" y="2250" width="125" height="125" style="fill:#ff9fc0;fill-rule:nonzero;"/></g><clipPath id="_clip52"><path d="M1659.81,2316.85c20.195,-2.538 31.066,22.275 17.487,35.15c-25.842,24.687 -55.571,-30.413 -17.487,-35.15Z"/></clipPath><g clip-path="url(#_clip52)"><rect x="1600" y="2275" width="125" height="125" style="fill:#ff9fc0;fill-rule:nonzero;"/></g><clipPath id="_clip53"><path d="M793.058,2444.9c5.221,21.588 24.538,38.3 48.575,38.429c26.009,0.121 49.867,-21.604 50.029,-50.391c0.155,-28.529 -23.5,-50.954 -51.737,-49.542c-0.308,0.012 -0.613,0.029 -0.921,0.05l-45.946,61.454Z"/></clipPath><g clip-path="url(#_clip53)"><rect x="751.392" y="2341.67" width="181.942" height="183.333" style="fill:#ff9fc0;fill-rule:nonzero;"/></g><clipPath id="_clip54"><path d="M606.25,2400.08c31.958,-1.954 54.233,33.321 38.667,62.525c-18.013,34.163 -79.025,25.463 -78.246,-21.358c0.362,-21.692 14.562,-39.654 39.579,-41.167Z"/></clipPath><g clip-path="url(#_clip54)"><rect x="525" y="2358.33" width="166.667" height="166.667" style="fill:#ff9fc0;fill-rule:nonzero;"/></g><clipPath id="_clip55"><path d="M1306.23,2408.41c31.937,-1.92 54.196,33.317 38.758,62.534c-18.121,34.146 -79.091,25.45 -78.312,-21.35c0.362,-21.683 14.554,-39.675 39.554,-41.184Z"/></clipPath><g clip-path="url(#_clip55)"><rect x="1225" y="2366.67" width="166.667" height="166.667" style="fill:#ff9fc0;fill-rule:nonzero;"/></g><clipPath id="_clip56"><path d="M364.629,2408.47c33.767,-3.096 37.296,49.491 2.671,49.866c-31.662,0.329 -35.638,-46.858 -2.671,-49.866Z"/></clipPath><g clip-path="url(#_clip56)"><rect x="300" y="2366.67" width="133.333" height="133.333" style="fill:#ff9fc0;fill-rule:nonzero;"/></g><clipPath id="_clip57"><path d="M1539.53,2425.13c33.875,-3.108 37.404,49.504 2.771,49.867c-31.658,0.354 -35.616,-46.858 -2.771,-49.867Z"/></clipPath><g clip-path="url(#_clip57)"><rect x="1475" y="2383.33" width="133.333" height="133.333" style="fill:#ff9fc0;fill-rule:nonzero;"/></g><clipPath id="_clip58"><path d="M131.567,2417.07c5.579,-1.5 9.795,1.329 10.071,7.087c1.037,21.983 -29.709,-1.721 -10.071,-7.087Z"/></clipPath><g clip-path="url(#_clip58)"><rect x="83.333" y="2375" width="100" height="100" style="fill:#ff9fc0;fill-rule:nonzero;"/></g><clipPath id="_clip59"><path d="M1773.26,2450.4c5.571,-1.504 9.771,1.333 10.046,7.083c1.038,21.992 -29.729,-1.721 -10.046,-7.083Z"/></clipPath><g clip-path="url(#_clip59)"><rect x="1725" y="2408.33" width="100" height="100" style="fill:#ff9fc0;fill-rule:nonzero;"/></g><clipPath id="_clip60"><path d="M955.333,2508.44c30.33,-1.813 53.48,20.104 52.992,46.612c-1.108,60.663 -101.104,59.717 -99.983,-1.596c0.475,-26.079 20.271,-43.421 46.991,-45.016Z"/></clipPath><g clip-path="url(#_clip60)"><rect x="866.667" y="2466.67" width="183.333" height="175" style="fill:#ff9fc0;fill-rule:nonzero;"/></g><clipPath id="_clip61"><path d="M727.175,2509.78c-4.679,-1.279 -9.742,-1.75 -15.067,-1.233c-12.708,1.233 -19.154,4.733 -25.196,10.316c-14.054,12.938 -16.87,43.975 -1.949,60.009c1.091,1.175 2.249,2.266 3.466,3.279l38.746,-72.371Zm12.846,6.071c19.508,13.779 26.333,43.558 5.954,64.071c-14.242,14.346 -39.9,15.716 -56.279,3.237l50.325,-67.308Z"/></clipPath><g clip-path="url(#_clip61)"><rect x="633.333" y="2466.67" width="166.667" height="166.667" style="fill:#ff9fc0;fill-rule:nonzero;"/></g><clipPath id="_clip62"><path d="M1178.87,2525.21c37.791,-3.683 62.141,42.813 33.758,71.367c-15.712,15.829 -45.317,15.875 -61.041,-1.042c-14.921,-16.033 -11.988,-47.071 1.949,-60.008c6.046,-5.583 12.509,-9.083 25.334,-10.317Z"/></clipPath><g clip-path="url(#_clip62)"><rect x="1100" y="2483.33" width="166.667" height="166.667" style="fill:#ff9fc0;fill-rule:nonzero;"/></g><clipPath id="_clip63"><path d="M485.367,2525.1c15.637,-1.271 31.158,10.733 31.296,28.804c0.187,41.725 -58.155,36.458 -58.33,0.738c-0.162,-16.417 9.096,-28.084 27.034,-29.542Z"/></clipPath><g clip-path="url(#_clip63)"><rect x="416.667" y="2483.33" width="141.667" height="141.667" style="fill:#ff9fc0;fill-rule:nonzero;"/></g><clipPath id="_clip64"><path d="M1418.8,2533.43c15.529,-1.279 31.062,10.721 31.2,28.813c0.283,41.716 -58.167,36.441 -58.329,0.737c-0.055,-16.412 9.091,-28.079 27.129,-29.55Z"/></clipPath><g clip-path="url(#_clip64)"><rect x="1350" y="2491.67" width="141.667" height="141.667" style="fill:#ff9fc0;fill-rule:nonzero;"/></g><clipPath id="_clip65"><path d="M257.675,2533.38c20.658,-1.446 24.9,32.671 1.383,33.283c-21.291,0.571 -24.512,-31.695 -1.383,-33.283Z"/></clipPath><g clip-path="url(#_clip65)"><rect x="200" y="2491.67" width="116.667" height="116.667" style="fill:#ff9fc0;fill-rule:nonzero;"/></g><clipPath id="_clip66"><path d="M1656.57,2550.16c25.004,-2.804 23.371,32.621 2.283,33.171c-19.1,0.513 -25.537,-30.579 -2.283,-33.171Z"/></clipPath><g clip-path="url(#_clip66)"><rect x="1600" y="2508.33" width="116.667" height="116.667" style="fill:#ff9fc0;fill-rule:nonzero;"/></g><clipPath id="_clip67"><path d="M834.692,2633.91c28.379,-4.359 52.162,16.395 48.208,47.354c-3.388,26.129 -27.242,37.708 -47.771,35.02c-24.221,-3.137 -37.679,-25.712 -34.729,-48.07c2.404,-18.617 14.258,-31.2 34.292,-34.304Z"/></clipPath><g clip-path="url(#_clip67)"><rect x="758.333" y="2591.67" width="166.667" height="166.667" style="fill:#ff9fc0;fill-rule:nonzero;"/></g><clipPath id="_clip68"><path d="M1068.02,2633.91c28.387,-4.359 52.171,16.395 48.216,47.337c-3.387,26.142 -27.233,37.738 -47.779,35.037c-24.208,-3.154 -37.679,-25.729 -34.716,-48.07c2.387,-18.617 14.245,-31.225 34.279,-34.304Z"/></clipPath><g clip-path="url(#_clip68)"><rect x="991.667" y="2591.67" width="166.667" height="166.667" style="fill:#ff9fc0;fill-rule:nonzero;"/></g><clipPath id="_clip69"><path d="M601.292,2633.51c40.337,-3.854 43.871,57.917 3.258,58.159c-37.871,0.225 -39.763,-54.675 -3.258,-58.159Z"/></clipPath><g clip-path="url(#_clip69)"><rect x="533.333" y="2591.67" width="141.667" height="141.667" style="fill:#ff9fc0;fill-rule:nonzero;"/></g><clipPath id="_clip70"><path d="M1301.29,2650.17c40.337,-3.821 43.87,57.921 3.258,58.162c-37.871,0.234 -39.762,-54.666 -3.258,-58.162Z"/></clipPath><g clip-path="url(#_clip70)"><rect x="1233.33" y="2608.33" width="141.667" height="141.667" style="fill:#ff9fc0;fill-rule:nonzero;"/></g><clipPath id="_clip71"><path d="M359.838,2650.18c20.224,-2.55 30.979,22.259 17.512,35.159c-25.879,24.666 -55.65,-30.421 -17.512,-35.159Z"/></clipPath><g clip-path="url(#_clip71)"><rect x="300" y="2608.33" width="125" height="125" style="fill:#ff9fc0;fill-rule:nonzero;"/></g><clipPath id="_clip72"><path d="M1535.98,2667.61c0,-0 0.275,-0.942 1.033,-0.942c29.755,-0.404 26.984,42.104 0.259,41.662c-25.604,-0.429 -28.821,-38.462 -1.292,-40.72Z"/></clipPath><g clip-path="url(#_clip72)"><rect x="1475" y="2625" width="125" height="125" style="fill:#ff9fc0;fill-rule:nonzero;"/></g><clipPath id="_clip73"><path d="M970.683,2761.47c10.446,4.408 18.346,13.391 20.525,26.475c3.7,22.837 -15.416,52.566 -48.512,43.833c-2.338,-0.621 -4.525,-1.45 -6.554,-2.462l34.541,-67.846Zm-46.75,57.375c-13.866,-19.313 -8.179,-52.263 19.517,-59.167l-19.517,59.167Z"/></clipPath><g clip-path="url(#_clip73)"><rect x="875" y="2718.01" width="158.333" height="156.992" style="fill:#ff9fc0;fill-rule:nonzero;"/></g><clipPath id="_clip74"><path d="M706.629,2759.21c53.342,-10.354 41.379,75.129 -6.346,54.125c-10.387,-4.55 -22.908,-19.22 -13.804,-39.35c1.788,-3.825 8.496,-12.533 20.15,-14.775Z"/></clipPath><g clip-path="url(#_clip74)"><rect x="641.667" y="2716.67" width="141.667" height="141.667" style="fill:#ff9fc0;fill-rule:nonzero;"/></g><clipPath id="_clip75"><path d="M1181.62,2775.88c53.4,-10.358 41.345,75.125 -6.35,54.125c-10.384,-4.55 -22.88,-19.225 -13.796,-39.371c1.787,-3.812 8.491,-12.5 20.146,-14.754Z"/></clipPath><g clip-path="url(#_clip75)"><rect x="1116.67" y="2733.33" width="141.667" height="141.667" style="fill:#ff9fc0;fill-rule:nonzero;"/></g><clipPath id="_clip76"><path d="M478.704,2758.38c33.754,-1.675 24.196,49.625 -6.45,40.55c-17.55,-5.183 -21.7,-39.142 6.45,-40.55Z"/></clipPath><g clip-path="url(#_clip76)"><rect x="416.667" y="2716.67" width="125" height="125" style="fill:#ff9fc0;fill-rule:nonzero;"/></g><clipPath id="_clip77"><path d="M1420.35,2783.38c33.787,-1.675 24.229,49.617 -6.446,40.554c-17.583,-5.187 -21.604,-39.154 6.446,-40.554Z"/></clipPath><g clip-path="url(#_clip77)"><rect x="1358.33" y="2741.67" width="125" height="125" style="fill:#ff9fc0;fill-rule:nonzero;"/></g><clipPath id="_clip78"><path d="M248.067,2775.36c4.437,-1.217 7.687,0.85 8.787,3.108c7.242,14.454 -14.437,18.1 -15.146,5.579c-0.179,-3.3 -0.121,-6.9 6.359,-8.687Z"/></clipPath><g clip-path="url(#_clip78)"><rect x="200" y="2733.33" width="100" height="100" style="fill:#ff9fc0;fill-rule:nonzero;"/></g><clipPath id="_clip79"><path d="M1656.42,2800.37c4.429,-1.234 7.671,0.85 8.771,3.096c7.225,14.466 -14.409,18.104 -15.113,5.575c-0.291,-3.284 -0.125,-6.921 6.342,-8.671Z"/></clipPath><g clip-path="url(#_clip79)"><rect x="1608.33" y="2758.33" width="100" height="100" style="fill:#ff9fc0;fill-rule:nonzero;"/></g><clipPath id="_clip80"><path d="M827.417,2884.18c45.05,-9.308 38.308,61.45 -3.705,47.267c-17.479,-5.896 -24.704,-41.375 3.705,-47.267Z"/></clipPath><g clip-path="url(#_clip80)"><rect x="766.667" y="2841.67" width="133.333" height="133.333" style="fill:#ff9fc0;fill-rule:nonzero;"/></g><clipPath id="_clip81"><path d="M1060.75,2884.18c45.05,-9.308 38.308,61.463 -3.704,47.263c-17.479,-5.896 -24.704,-41.379 3.704,-47.263Z"/></clipPath><g clip-path="url(#_clip81)"><rect x="1000" y="2841.67" width="133.333" height="133.333" style="fill:#ff9fc0;fill-rule:nonzero;"/></g><clipPath id="_clip82"><path d="M601.479,2883.51c20.196,-2.52 31.067,22.284 17.492,35.159c-25.846,24.679 -55.575,-30.409 -17.492,-35.159Z"/></clipPath><g clip-path="url(#_clip82)"><rect x="541.667" y="2841.67" width="125" height="125" style="fill:#ff9fc0;fill-rule:nonzero;"/></g><clipPath id="_clip83"><path d="M1293.13,2900.18c20.213,-2.537 31.088,22.267 17.5,35.163c-25.733,24.654 -55.612,-30.429 -17.5,-35.163Z"/></clipPath><g clip-path="url(#_clip83)"><rect x="1233.33" y="2858.33" width="125" height="125" style="fill:#ff9fc0;fill-rule:nonzero;"/></g><clipPath id="_clip84"><path d="M364.692,2900.37c4.525,-1.234 7.754,0.846 8.833,3.1c7.208,14.446 -14.333,18.104 -15.158,5.579c-0.167,-3.3 -0,-6.896 6.325,-8.679Z"/></clipPath><g clip-path="url(#_clip84)"><rect x="316.667" y="2858.33" width="100" height="100" style="fill:#ff9fc0;fill-rule:nonzero;"/></g><clipPath id="_clip85"><path d="M1531.37,2917.04c4.533,-1.241 7.658,0.863 8.862,3.105c7.1,14.441 -14.487,18.1 -15.191,5.579c-0.179,-3.3 -0.121,-6.909 6.329,-8.684Z"/></clipPath><g clip-path="url(#_clip85)"><rect x="1483.33" y="2875" width="100" height="100" style="fill:#ff9fc0;fill-rule:nonzero;"/></g><clipPath id="_clip86"><path d="M947.379,3008.56c24.775,-3.413 25.533,32.608 3.125,33.1c-19.275,0.416 -25.008,-30.105 -3.125,-33.1Z"/></clipPath><g clip-path="url(#_clip86)"><rect x="891.667" y="2966.67" width="116.667" height="116.667" style="fill:#ff9fc0;fill-rule:nonzero;"/></g><clipPath id="_clip87"><path d="M711.275,3009.41c13.383,-3.75 19.867,2.975 21.529,10.221c5.738,26 -37.208,31.979 -32.433,1.613c0.625,-4.396 3.454,-9.7 10.904,-11.834Z"/></clipPath><g clip-path="url(#_clip87)"><rect x="658.333" y="2966.67" width="116.667" height="116.667" style="fill:#ff9fc0;fill-rule:nonzero;"/></g><clipPath id="_clip88"><path d="M1178.07,3026.08c13.387,-3.75 19.72,2.979 21.379,10.204c5.883,26.017 -37.179,32 -32.413,1.638c0.763,-4.409 3.454,-9.734 11.034,-11.842Z"/></clipPath><g clip-path="url(#_clip88)"><rect x="1125" y="2983.33" width="116.667" height="116.667" style="fill:#ff9fc0;fill-rule:nonzero;"/></g><clipPath id="_clip89"><path d="M473.05,3008.7c4.521,-1.221 7.646,0.854 8.85,3.108c7.1,14.442 -14.487,18.117 -15.192,5.563c-0.179,-3.305 -0.12,-6.904 6.342,-8.671Z"/></clipPath><g clip-path="url(#_clip89)"><rect x="425" y="2966.67" width="100" height="100" style="fill:#ff9fc0;fill-rule:nonzero;"/></g><clipPath id="_clip90"><path d="M1423.02,3033.7c4.521,-1.233 7.75,0.838 8.842,3.096c7.195,14.458 -14.346,18.108 -15.159,5.571c-0.179,-3.292 -0.012,-6.892 6.317,-8.667Z"/></clipPath><g clip-path="url(#_clip90)"><rect x="1375" y="2991.67" width="100" height="100" style="fill:#ff9fc0;fill-rule:nonzero;"/></g><clipPath id="_clip91"><path d="M831.425,3133.71c4.429,-1.241 7.675,0.825 8.758,3.109c7.242,14.441 -14.4,18.087 -15.104,5.566c-0.291,-3.287 -0.125,-6.912 6.346,-8.675Z"/></clipPath><g clip-path="url(#_clip91)"><rect x="783.333" y="3091.67" width="100" height="100" style="fill:#ff9fc0;fill-rule:nonzero;"/></g><clipPath id="_clip92"><path d="M1056.4,3150.37c4.437,-1.234 7.687,0.85 8.788,3.092c7.241,14.466 -14.438,18.112 -15.146,5.579c-0.18,-3.275 -0.121,-6.913 6.358,-8.671Z"/></clipPath><g clip-path="url(#_clip92)"><rect x="1008.33" y="3108.33" width="100" height="100" style="fill:#ff9fc0;fill-rule:nonzero;"/></g><clipPath id="_clip93"><path d="M2583.48,1816.85c34.017,-3.312 55.929,38.533 30.388,64.233c-14.134,14.234 -40.779,14.288 -54.929,-0.937c-13.438,-14.429 -10.801,-42.371 1.75,-54.017c5.441,-5.016 11.254,-8.175 22.791,-9.279Z"/></clipPath><g clip-path="url(#_clip93)"><rect x="2508.33" y="1775" width="158.333" height="158.333" style="fill:#ff9fc0;fill-rule:nonzero;"/></g><clipPath id="_clip94"><path d="M2773.26,1833.42c13.305,-1.096 26.621,9.187 26.738,24.691c0.246,35.767 -49.858,31.238 -49.996,0.638c-0.05,-14.067 7.792,-24.079 23.258,-25.329Z"/></clipPath><g clip-path="url(#_clip94)"><rect x="2708.33" y="1791.67" width="133.333" height="133.333" style="fill:#ff9fc0;fill-rule:nonzero;"/></g><clipPath id="_clip95"><path d="M2949.12,1841.83c12.5,-2.8 11.691,32.612 1.137,33.171c-9.542,0.512 -12.762,-30.563 -1.137,-33.171Z"/></clipPath><g clip-path="url(#_clip95)"><rect x="2900" y="1800" width="100" height="116.667" style="fill:#ff9fc0;fill-rule:nonzero;"/></g><clipPath id="_clip96"><path d="M2482.62,1917.08c19.87,-3.054 36.521,11.471 33.746,33.125c-2.371,18.296 -19.067,26.425 -33.446,24.533c-16.938,-2.212 -26.363,-18.012 -24.304,-33.654c1.683,-13.029 9.979,-21.858 24.004,-24.004Z"/></clipPath><g clip-path="url(#_clip96)"><rect x="2416.67" y="1875" width="141.667" height="141.667" style="fill:#ff9fc0;fill-rule:nonzero;"/></g><clipPath id="_clip97"><path d="M2664.2,1925.15c34.583,-3.271 37.604,49.65 2.796,49.854c-32.467,0.208 -34.075,-46.854 -2.796,-49.854Z"/></clipPath><g clip-path="url(#_clip97)"><rect x="2600" y="1883.33" width="133.333" height="133.333" style="fill:#ff9fc0;fill-rule:nonzero;"/></g><clipPath id="_clip98"><path d="M2857.12,1934.08c0,0 0.212,-0.745 0.817,-0.745c23.8,-0.325 21.591,33.679 0.2,33.329c-20.475,-0.338 -23.05,-30.775 -1.017,-32.584Z"/></clipPath><g clip-path="url(#_clip98)"><rect x="2800" y="1891.67" width="116.667" height="116.667" style="fill:#ff9fc0;fill-rule:nonzero;"/></g><clipPath id="_clip99"><path d="M2569.95,2017.42c45.779,-8.875 35.446,64.391 -5.433,46.396c-8.905,-3.909 -19.621,-16.484 -11.821,-33.746c1.525,-3.271 7.279,-10.721 17.254,-12.65Z"/></clipPath><g clip-path="url(#_clip99)"><rect x="2508.33" y="1975" width="133.333" height="133.333" style="fill:#ff9fc0;fill-rule:nonzero;"/></g><clipPath id="_clip100"><path d="M2766.28,2025.03c27.029,-1.341 19.375,39.688 -5.158,32.442c-14.063,-4.15 -17.292,-31.313 5.158,-32.442Z"/></clipPath><g clip-path="url(#_clip100)"><rect x="2708.33" y="1983.33" width="116.667" height="116.667" style="fill:#ff9fc0;fill-rule:nonzero;"/></g><clipPath id="_clip101"><path d="M2944.88,2033.52c2.217,-0.613 3.833,0.429 4.383,1.558c3.617,7.225 -7.2,9.046 -7.554,2.775c-0.146,-1.633 -0.062,-3.454 3.171,-4.333Z"/></clipPath><g clip-path="url(#_clip101)"><rect x="2900" y="1991.67" width="91.667" height="91.667" style="fill:#ff9fc0;fill-rule:nonzero;"/></g><clipPath id="_clip102"><path d="M2664.5,2116.81c16.175,-2.03 24.871,17.804 14.004,28.129c-20.583,19.733 -44.491,-24.338 -14.004,-28.129Z"/></clipPath><g clip-path="url(#_clip102)"><rect x="2608.33" y="2075" width="116.667" height="116.667" style="fill:#ff9fc0;fill-rule:nonzero;"/></g><clipPath id="_clip103"><path d="M2853.19,2133.52c2.262,-0.621 3.824,0.429 4.425,1.554c3.558,7.217 -7.242,9.05 -7.596,2.783c-0.084,-1.645 -0.054,-3.45 3.171,-4.337Z"/></clipPath><g clip-path="url(#_clip103)"><rect x="2808.33" y="2091.67" width="91.667" height="91.667" style="fill:#ff9fc0;fill-rule:nonzero;"/></g><clipPath id="_clip104"><path d="M2564.03,2217.21c6.692,-1.879 9.854,1.488 10.688,5.096c2.941,13.013 -18.588,16.004 -16.204,0.821c0.375,-2.204 1.725,-4.867 5.516,-5.917Z"/></clipPath><g clip-path="url(#_clip104)"><rect x="2516.67" y="2175" width="100" height="100" style="fill:#ff9fc0;fill-rule:nonzero;"/></g><clipPath id="_clip105"><path d="M2761.51,2225.19c2.254,-0.621 3.87,0.42 4.416,1.549c3.6,7.23 -7.166,9.05 -7.579,2.784c-0.083,-1.642 0,-3.446 3.163,-4.333Z"/></clipPath><g clip-path="url(#_clip105)"><rect x="2716.67" y="2183.33" width="91.667" height="91.667" style="fill:#ff9fc0;fill-rule:nonzero;"/></g><clipPath id="_clip106"><path d="M2860.01,1383.33l10.82,-63.312l-45.833,-44.842l63.333,-9.237l28.334,-57.609l28.329,57.609l63.337,9.237l-45.833,44.842l10.825,63.312l-56.658,-29.895l-56.654,29.895Z"/></clipPath><g clip-path="url(#_clip106)"><rect x="2783.33" y="1166.67" width="266.667" height="258.333" style="fill:#58c2d1;fill-rule:nonzero;"/></g><clipPath id="_clip107"><path d="M2135.01,2516.67l10.82,-63.317l-45.833,-44.833l63.333,-9.25l28.334,-57.6l28.329,57.6l63.337,9.25l-45.833,44.833l10.817,63.317l-56.65,-29.888l-56.654,29.888Z"/></clipPath><g clip-path="url(#_clip107)"><rect x="2058.33" y="2300" width="266.667" height="258.333" style="fill:#ed5e8f;fill-rule:nonzero;"/></g><clipPath id="_clip108"><path d="M558.333,1066.67l-24.27,-84.704l-84.063,-28.18l73.679,-49.062l1.029,-88.054l69.804,54.371l84.705,-26.238l-30.538,82.675l51.321,71.833l-88.679,-3.275l-52.988,70.634Z"/></clipPath><g clip-path="url(#_clip108)"><rect x="408.333" y="775" width="333.333" height="333.333" style="fill:#ffa0c0;fill-rule:nonzero;"/></g><clipPath id="_clip109"><path d="M631.513,1484.87c-116.955,190.167 -150.376,388.067 -73.309,552.887c46.25,98.917 127.283,175.196 232.567,227.592l65.029,-121.467c-68.104,-42.912 -121.013,-99.654 -153.646,-169.616c-57.683,-123.667 -42.917,-269.08 28.825,-412.729l-99.466,-76.667Zm60.104,-87.454c6.079,-7.988 12.3,-15.95 18.666,-23.884l64.388,71.575l-83.054,-47.691Zm35.666,-44.592c3.98,-4.746 8.013,-9.479 12.096,-14.196l78.317,85.2c-0.488,0.634 -0.971,1.271 -1.454,1.909l-88.959,-72.913Zm39.021,-44.35c130.492,-141.617 306.808,-270.646 516.084,-367.604c128.583,-59.575 258.458,-101.875 384.233,-127.538l-15.179,111.884c-108.184,21.929 -219.954,58.308 -330.6,109.696c-193.021,89.637 -353.217,211.287 -466.771,343.958l-87.767,-70.396Zm73.7,978.942c1.704,0.683 3.413,1.362 5.125,2.037l16.771,-31.321l-21.896,29.284Zm55.913,19.916c57.108,17.892 119.021,30.229 184.579,36.875l36.687,-111.216c-50.091,-6.871 -97.425,-17.796 -141.25,-32.684l-80.016,107.025Zm869.904,-1400.12l-2.708,-110.446c121.57,-16.879 237.804,-17.746 343.524,-3.213l-108.466,111.913c-72.829,-7.792 -151.008,-7.3 -232.35,1.746Zm321.946,12.625l82.258,-115.463c10.133,2.084 20.15,4.317 30.05,6.704l-108.146,109.675c-1.387,-0.308 -2.775,-0.616 -4.162,-0.916Zm72.237,19.604l84.375,-116.409c161.279,48.309 285.5,140.155 347.413,272.55c161.604,345.621 -162.625,836.717 -724.184,1096.88c-235.866,109.275 -476.083,160.437 -687.366,157.412l55.137,-108.292c180.067,2.275 384.6,-41.554 585.438,-134.825c479.758,-222.804 756.762,-643.362 618.687,-939.354c-50.65,-108.587 -150.137,-185.325 -279.5,-227.958Z"/></clipPath><g clip-path="url(#_clip109)"><rect x="475" y="741.667" width="2200" height="1650" style="fill:#1d3643;fill-rule:nonzero;"/></g><clipPath id="_clip110"><path d="M2217.1,793.821l191.237,-302.154l-77.875,87.521l-229.237,321.766l5.946,4.35l109.929,-111.483Z"/></clipPath><g clip-path="url(#_clip110)"><rect x="2059.55" y="450" width="390.446" height="496.971" style="fill:#1d3643;fill-rule:nonzero;"/></g><clipPath id="_clip111"><path d="M360.946,1207.53l-10.946,-7.529l354.983,167.642l69.688,77.466l-413.725,-237.579Zm439.3,205.1l16.421,7.754l-2.279,3.838l-14.142,-11.592Z"/></clipPath><g clip-path="url(#_clip111)"><rect x="308.333" y="1158.33" width="550" height="328.442" style="fill:#1d3643;fill-rule:nonzero;"/></g><clipPath id="_clip112"><path d="M791.621,2352.14l-108.288,239.529l178.567,-333.534l-70.279,94.005Z"/></clipPath><g clip-path="url(#_clip112)"><rect x="641.667" y="2216.47" width="261.9" height="416.867" style="fill:#1d3643;fill-rule:nonzero;"/></g><clipPath id="_clip113"><path d="M682.7,2467.22l-82.7,124.45l210.971,-466.667l42.317,23.579l-170.588,318.638Z"/></clipPath><g clip-path="url(#_clip113)"><rect x="558.333" y="2083.33" width="336.621" height="550" style="fill:#1d3643;fill-rule:nonzero;"/></g><clipPath id="_clip114"><path d="M412.921,1311.81l-4.588,-3.475l370.834,170.834l-16.446,26.908l-349.8,-194.267Z"/></clipPath><g clip-path="url(#_clip114)"><rect x="366.667" y="1266.67" width="454.167" height="281.075" style="fill:#1d3643;fill-rule:nonzero;"/></g><clipPath id="_clip115"><path d="M2343.22,686.663l90.108,-103.33l-227.433,366.667l-34.738,-25.95l172.063,-237.387Z"/></clipPath><g clip-path="url(#_clip115)"><rect x="2129.5" y="541.667" width="345.504" height="450" style="fill:#1d3643;fill-rule:nonzero;"/></g><clipPath id="_clip116"><path d="M560.758,1143.62l-10.758,-10.284l308.333,210.996l-18.512,23.108l-279.063,-223.82Z"/></clipPath><g clip-path="url(#_clip116)"><rect x="508.333" y="1091.67" width="391.667" height="317.437" style="fill:#1d3643;fill-rule:nonzero;"/></g><clipPath id="_clip117"><path d="M655.5,1293.99l-63.833,-60.655l250,166.667l-21.417,29.025l-164.75,-135.037Z"/></clipPath><g clip-path="url(#_clip117)"><rect x="550" y="1191.67" width="333.333" height="279.025" style="fill:#1d3643;fill-rule:nonzero;"/></g><clipPath id="_clip118"><path d="M898.108,2897.14l-23.108,52.858l183.55,-725l55.208,18.363l-215.65,653.779Z"/></clipPath><g clip-path="url(#_clip118)"><rect x="833.333" y="2183.33" width="322.092" height="808.333" style="fill:#1d3643;fill-rule:nonzero;"/></g><clipPath id="_clip119"><path d="M1748.67,208.529l0.012,-0.196l-0.012,0.196Zm0.029,-0.029l67.967,681.683l-51.246,0.655l-16.721,-682.338Z"/></clipPath><g clip-path="url(#_clip119)"><rect x="1707" y="166.667" width="151.329" height="765.838" style="fill:#1d3643;fill-rule:nonzero;"/></g><clipPath id="_clip120"><path d="M1220.51,965.533c4.829,25.005 11.329,52.421 19.499,82.246c8.171,29.821 16.963,59.221 26.384,88.192c9.417,28.971 19.729,58.75 30.946,89.333c11.212,30.583 22.554,60.071 34.025,88.463c16.512,40.879 30.275,72.966 41.283,96.275l-90.45,75.637c-7.971,-15.783 -16.787,-35.641 -26.462,-59.587c-7.117,-17.617 -14.642,-37.529 -22.571,-59.742c-7.929,-22.213 -15.888,-45.533 -23.867,-69.963c-7.979,-24.429 -15.071,-46.233 -21.279,-65.412c-6.208,-19.175 -11.854,-36.046 -16.938,-50.6l-1.025,0.412c-1.041,26.484 0.663,57.105 5.109,91.863c4.445,34.762 10.162,68.983 17.158,102.667c6.992,33.679 14.183,64.596 21.579,92.741l-56.925,38.967c-33.446,-63.579 -61.9,-124.4 -85.358,-182.467c-12.196,-30.187 -22.304,-58.283 -30.325,-84.287l-1.025,0.412c0.583,24.834 2.746,48.78 6.492,71.838c3.745,23.054 8.454,45.425 14.129,67.104c5.679,21.679 12.762,45.8 21.254,72.358c8.491,26.563 13.537,42.554 15.129,47.979l-103.308,71.134c-29.95,-106.871 -52.571,-243.609 -67.859,-410.221l123.134,-118.833c5.829,31.662 12.058,59.762 18.687,84.287c6.625,24.529 14.192,47.313 22.688,68.35c8.396,20.779 17.841,40.588 28.337,59.425l1.746,-0.108c-8.104,-65.858 -12.004,-131.525 -11.704,-197.004l111.517,-91.459Z"/></clipPath><g clip-path="url(#_clip120)"><path d="M761.183,1106.17l482.35,-194.883l220.538,545.846l-482.35,194.879l-220.538,-545.842Z" style="fill:#1d3643;fill-rule:nonzero;"/></g><clipPath id="_clip121"><path d="M1655.28,1156.98c2.267,44.179 1.304,81.342 -2.887,111.492c-4.192,30.145 -11.842,55.141 -22.95,74.987c-11.113,19.846 -25.892,35.75 -44.338,47.713c-18.45,11.966 -41.525,21.7 -69.237,29.208c-25.704,4.533 -49.517,1.075 -71.434,-10.371c-21.92,-11.45 -40.316,-29.325 -55.183,-53.629c-14.871,-24.304 -25.154,-52.621 -30.854,-84.958c-3.7,-20.984 -5.279,-42.946 -4.738,-65.892c0.605,-23.146 2.842,-45.642 6.713,-67.492c3.875,-21.85 11.137,-43.991 21.791,-66.425c10.655,-22.437 26.325,-42.595 47.005,-60.479c20.683,-17.883 47.037,-30.816 79.062,-38.804c22.346,-3.942 43.35,-0.596 63.017,10.029c19.671,10.629 36.437,27.504 50.3,50.625c13.862,23.125 23.621,50.717 29.275,82.779c2.066,11.717 3.554,25.454 4.458,41.217Zm-103.125,38.975c-0.621,-21.054 -2.892,-42.708 -6.816,-64.962c-4.725,-26.796 -10.78,-48.371 -18.155,-64.721c-7.379,-16.354 -15.658,-23.721 -24.829,-22.105c-11.816,4.705 -21.179,15.746 -28.087,33.121c-6.913,17.371 -11.505,37.8 -13.78,61.288c-2.27,23.487 -2.829,46.741 -1.675,69.762c1.055,18.734 3.209,37.321 6.459,55.759c9.308,52.77 25.354,77.383 48.141,73.833c7.809,-1.379 14.817,-9.708 21.021,-24.992c6.2,-15.279 10.879,-33.758 14.034,-55.433c3.158,-21.675 4.387,-42.192 3.687,-61.55Z"/></clipPath><g clip-path="url(#_clip121)"><path d="M1263.5,973.167l392.296,-69.171l91.321,517.912l-392.296,69.175l-91.321,-517.916Z" style="fill:#1d3643;fill-rule:nonzero;"/></g><clipPath id="_clip122"><path d="M1986.4,1194.42c-8.492,43.412 -18.417,79.242 -29.775,107.475c-11.358,28.238 -24.829,50.642 -40.413,67.213c-15.579,16.566 -33.766,28.424 -54.562,35.57c-20.792,7.142 -45.542,11.009 -74.242,11.588c-26.037,-1.821 -48.308,-10.938 -66.808,-27.346c-18.496,-16.408 -32.021,-38.204 -40.567,-65.383c-8.55,-27.179 -11.675,-57.146 -9.387,-89.9c1.487,-21.255 5.27,-42.946 11.346,-65.079c6.183,-22.313 13.8,-43.6 22.841,-63.863c9.046,-20.262 21.45,-39.992 37.217,-59.183c15.767,-19.192 35.846,-34.963 60.237,-47.309c24.392,-12.346 53.092,-18.525 86.1,-18.525c22.634,1.584 42.209,9.909 58.721,24.975c16.513,15.071 28.7,35.5 36.559,61.292c7.858,25.788 10.65,54.925 8.379,87.4c-0.83,11.871 -2.713,25.563 -5.646,41.075Zm-109.492,12.867c4.492,-20.58 7.525,-42.142 9.1,-64.684c1.9,-27.141 1.246,-49.537 -1.958,-67.191c-3.2,-17.65 -9.45,-26.8 -18.742,-27.45c-12.604,1.704 -24.358,10.154 -35.266,25.337c-10.909,15.188 -20.305,33.9 -28.196,56.138c-7.888,22.237 -14.054,44.666 -18.504,67.287c-3.505,18.429 -5.913,36.984 -7.217,55.663c-3.742,53.454 5.875,81.216 28.846,83.283c7.912,0.554 16.725,-5.833 26.441,-19.162c9.717,-13.325 18.725,-30.125 27.029,-50.392c8.309,-20.267 14.463,-39.879 18.467,-58.829Z"/></clipPath><g clip-path="url(#_clip122)"><path d="M1650.72,921.296l397.375,27.787l-36.684,524.621l-397.379,-27.787l36.688,-524.621Z" style="fill:#1d3643;fill-rule:nonzero;"/></g><clipPath id="_clip123"><path d="M2482.65,1097.76c-24.962,21.229 -53.946,53.099 -86.946,95.616c-33.004,42.517 -65.491,88.171 -97.454,136.971c-31.967,48.8 -60.525,94.608 -85.683,137.425l-97.613,-9.342c3.609,-12.97 8.3,-32.204 14.084,-57.695c5.779,-25.496 10.675,-48.321 14.683,-68.488c4.008,-20.162 8.008,-41.779 12,-64.85c3.992,-23.071 6.917,-42.162 8.771,-57.275l-1.796,-0.075c-14.546,24.867 -29.262,51.458 -44.146,79.779c-14.887,28.321 -28.292,55.271 -40.221,80.85c-10.912,23.404 -19.545,44.208 -25.9,62.417l-106.262,-13.375c6.754,-12.521 27.058,-52.029 60.912,-118.521c33.855,-66.492 62.242,-121.358 85.154,-164.608c22.917,-43.254 42.255,-76.975 58.017,-101.175l137.838,2.3c-2.909,5.362 -6.838,13.35 -11.788,23.966c-9.508,20.396 -17.583,40.93 -24.217,61.596c-6.637,20.667 -12.5,41.646 -17.591,62.929c-5.092,21.288 -10.392,43.621 -15.904,67.004c-5.509,23.38 -10.871,43.063 -16.088,59.05l1.004,0.471c16.325,-26.279 30.642,-49.62 42.959,-70.033c12.316,-20.408 26.829,-44.604 43.541,-72.583c16.709,-27.98 30.163,-50.175 40.359,-66.584c10.2,-16.412 21.383,-33.637 33.558,-51.67c35.342,9.762 68.475,21.854 99.404,36.275c8.942,4.17 15.383,7.379 19.325,9.625Z"/></clipPath><g clip-path="url(#_clip123)"><path d="M2145.39,893.904l392.87,183.2l-254.587,545.971l-392.875,-183.2l254.592,-545.971Z" style="fill:#1d3643;fill-rule:nonzero;"/></g><clipPath id="_clip124"><path d="M1178.85,915.533c4.829,25.005 11.329,52.421 19.5,82.246c8.171,29.821 16.962,59.221 26.383,88.192c9.417,28.971 19.729,58.75 30.946,89.333c11.213,30.583 22.554,60.071 34.025,88.463c16.512,40.879 30.275,72.966 41.283,96.275l-90.45,75.637c-7.97,-15.783 -16.787,-35.641 -26.462,-59.587c-7.117,-17.617 -14.642,-37.529 -22.571,-59.742c-7.929,-22.213 -15.887,-45.533 -23.867,-69.963c-7.979,-24.429 -15.071,-46.233 -21.279,-65.412c-6.208,-19.175 -11.854,-36.046 -16.937,-50.6l-1.025,0.412c-1.042,26.484 0.662,57.105 5.108,91.863c4.446,34.762 10.163,68.983 17.158,102.667c6.992,33.679 14.184,64.596 21.58,92.741l-56.926,38.967c-33.445,-63.579 -61.899,-124.4 -85.358,-182.467c-12.196,-30.187 -22.304,-58.283 -30.325,-84.287l-1.025,0.412c0.583,24.834 2.746,48.78 6.492,71.838c3.746,23.054 8.454,45.425 14.129,67.104c5.679,21.679 12.763,45.8 21.254,72.358c8.492,26.563 13.538,42.554 15.129,47.979l-103.308,71.134c-29.95,-106.871 -52.571,-243.609 -67.858,-410.221l123.133,-118.833c5.829,31.662 12.058,59.762 18.687,84.287c6.626,24.529 14.192,47.313 22.688,68.35c8.396,20.779 17.842,40.588 28.338,59.425l1.745,-0.108c-8.104,-65.858 -12.004,-131.525 -11.704,-197.004l111.517,-91.459Z"/></clipPath><g clip-path="url(#_clip124)"><path d="M719.517,1056.17l482.35,-194.883l220.537,545.846l-482.35,194.879l-220.537,-545.842Z" style="fill:#fff;fill-rule:nonzero;"/></g><clipPath id="_clip125"><path d="M1613.61,1106.98c2.267,44.179 1.305,81.342 -2.887,111.492c-4.192,30.145 -11.842,55.141 -22.95,74.987c-11.113,19.846 -25.892,35.75 -44.338,47.713c-18.449,11.966 -41.524,21.7 -69.237,29.208c-25.704,4.533 -49.517,1.075 -71.433,-10.371c-21.921,-11.45 -40.317,-29.325 -55.184,-53.629c-14.87,-24.304 -25.154,-52.621 -30.854,-84.958c-3.7,-20.984 -5.279,-42.946 -4.737,-65.892c0.604,-23.146 2.841,-45.642 6.712,-67.492c3.875,-21.85 11.138,-43.991 21.792,-66.425c10.654,-22.437 26.325,-42.595 47.004,-60.479c20.683,-17.883 47.038,-30.816 79.063,-38.804c22.345,-3.942 43.349,-0.596 63.016,10.029c19.671,10.629 36.438,27.504 50.3,50.625c13.863,23.125 23.621,50.717 29.275,82.779c2.067,11.717 3.554,25.454 4.458,41.217Zm-103.125,38.975c-0.62,-21.054 -2.891,-42.708 -6.816,-64.962c-4.725,-26.796 -10.779,-48.371 -18.154,-64.721c-7.38,-16.354 -15.659,-23.721 -24.829,-22.105c-11.817,4.705 -21.18,15.746 -28.088,33.121c-6.912,17.371 -11.504,37.8 -13.779,61.288c-2.271,23.487 -2.829,46.741 -1.675,69.762c1.054,18.734 3.208,37.321 6.458,55.759c9.308,52.77 25.354,77.383 48.142,73.833c7.808,-1.379 14.816,-9.708 21.021,-24.992c6.2,-15.279 10.879,-33.758 14.033,-55.433c3.158,-21.675 4.387,-42.192 3.687,-61.55Z"/></clipPath><g clip-path="url(#_clip125)"><path d="M1221.83,923.167l392.296,-69.171l91.321,517.912l-392.296,69.175l-91.321,-517.916Z" style="fill:#fff;fill-rule:nonzero;"/></g><clipPath id="_clip126"><path d="M1944.73,1144.42c-8.492,43.412 -18.416,79.242 -29.775,107.475c-11.358,28.238 -24.829,50.642 -40.412,67.213c-15.579,16.566 -33.767,28.424 -54.563,35.57c-20.792,7.142 -45.542,11.009 -74.242,11.588c-26.037,-1.821 -48.308,-10.938 -66.808,-27.346c-18.496,-16.408 -32.021,-38.204 -40.566,-65.383c-8.551,-27.179 -11.676,-57.146 -9.388,-89.9c1.488,-21.254 5.271,-42.946 11.346,-65.079c6.183,-22.313 13.8,-43.6 22.841,-63.863c9.046,-20.262 21.451,-39.992 37.217,-59.183c15.767,-19.192 35.846,-34.963 60.238,-47.309c24.391,-12.346 53.091,-18.525 86.1,-18.525c22.633,1.584 42.208,9.909 58.72,24.975c16.513,15.071 28.7,35.5 36.559,61.292c7.858,25.788 10.65,54.925 8.379,87.4c-0.829,11.871 -2.713,25.563 -5.646,41.075Zm-109.491,12.867c4.491,-20.58 7.525,-42.142 9.099,-64.684c1.9,-27.141 1.246,-49.537 -1.958,-67.191c-3.2,-17.65 -9.45,-26.8 -18.741,-27.45c-12.605,1.704 -24.359,10.154 -35.267,25.337c-10.908,15.188 -20.304,33.9 -28.196,56.138c-7.887,22.237 -14.054,44.666 -18.504,67.287c-3.504,18.429 -5.913,36.984 -7.217,55.663c-3.741,53.454 5.875,81.216 28.846,83.283c7.913,0.554 16.725,-5.833 26.442,-19.162c9.716,-13.325 18.725,-30.125 27.029,-50.392c8.308,-20.267 14.462,-39.879 18.467,-58.829Z"/></clipPath><g clip-path="url(#_clip126)"><path d="M1609.05,871.296l397.375,27.787l-36.683,524.621l-397.379,-27.787l36.687,-524.621Z" style="fill:#fff;fill-rule:nonzero;"/></g><clipPath id="_clip127"><path d="M2440.99,1047.76c-24.962,21.229 -53.945,53.099 -86.945,95.616c-33.004,42.517 -65.492,88.171 -97.455,136.971c-31.966,48.8 -60.525,94.608 -85.683,137.425l-97.612,-9.342c3.608,-12.97 8.3,-32.204 14.083,-57.695c5.779,-25.496 10.675,-48.321 14.683,-68.488c4.009,-20.162 8.009,-41.779 12,-64.85c3.992,-23.071 6.917,-42.162 8.771,-57.275l-1.796,-0.075c-14.545,24.867 -29.262,51.458 -44.145,79.779c-14.888,28.321 -28.292,55.271 -40.221,80.85c-10.913,23.404 -19.546,44.208 -25.9,62.417l-106.263,-13.375c6.754,-12.521 27.059,-52.029 60.913,-118.521c33.854,-66.492 62.241,-121.358 85.154,-164.608c22.916,-43.254 42.254,-76.975 58.017,-101.175l137.837,2.3c-2.908,5.362 -6.838,13.35 -11.788,23.966c-9.508,20.396 -17.583,40.93 -24.216,61.596c-6.638,20.667 -12.5,41.646 -17.592,62.929c-5.091,21.288 -10.392,43.621 -15.904,67.004c-5.508,23.38 -10.871,43.063 -16.087,59.05l1.004,0.471c16.325,-26.279 30.641,-49.62 42.958,-70.033c12.317,-20.408 26.829,-44.604 43.542,-72.583c16.708,-27.98 30.162,-50.175 40.358,-66.584c10.2,-16.412 21.383,-33.637 33.558,-51.67c35.342,9.762 68.475,21.854 99.404,36.275c8.942,4.17 15.384,7.379 19.325,9.625Z"/></clipPath><g clip-path="url(#_clip127)"><path d="M2103.72,843.904l392.871,183.2l-254.588,545.971l-392.875,-183.2l254.592,-545.971Z" style="fill:#fff;fill-rule:nonzero;"/></g><clipPath id="_clip128"><path d="M924.987,2050.57c-5.9,13.125 -10.962,26 -15.183,38.629c-4.216,12.625 -8.892,27.642 -14.017,45.046c-5.124,17.4 -9.454,31.137 -12.987,41.204c-9.9,-4.721 -23.375,-11.338 -40.429,-19.842c-17.054,-8.504 -34.629,-17.433 -52.729,-26.779c-18.104,-9.35 -29.859,-15.829 -35.275,-19.437c6.641,14.741 14.421,33.22 23.337,55.437c8.917,22.217 15.9,38.825 20.946,49.821c-9.242,5.712 -18.446,13.85 -27.604,24.413c-9.163,10.562 -22.196,26.333 -39.104,47.304c-11.334,-25.825 -22.8,-51.804 -34.4,-77.942c-11.6,-26.133 -27.205,-61.771 -46.813,-106.908c-19.608,-45.142 -36.637,-85.338 -51.087,-120.592c-14.45,-35.25 -26.488,-66.342 -36.117,-93.275c37.279,-40.688 70.396,-68.733 99.35,-84.129c26.625,-14.154 53.062,-19.825 79.321,-17.013c22.812,2.15 42.516,18.834 59.112,50.046c12.871,24.209 20.213,52.384 22.025,84.521c1.809,32.137 -3.775,63.788 -16.758,94.954c18.15,6.725 57.621,18.238 118.412,34.542Zm-194.566,-124.804c-1.029,-4.942 -2.767,-9.709 -5.209,-14.304c-3.891,-7.317 -8.804,-11.867 -14.745,-13.65c-5.942,-1.784 -12.025,-1.021 -18.255,2.291c-4.67,2.484 -8.554,5.596 -11.654,9.342c2.154,5.746 6.709,18.675 13.659,38.791c6.954,20.121 13.325,38.346 19.116,54.688c5.796,16.342 10.35,28.475 13.663,36.396c4.946,-24.496 7.737,-45.3 8.375,-62.417c0.637,-17.112 -1.013,-34.158 -4.95,-51.137Z"/></clipPath><g clip-path="url(#_clip128)"><path d="M460.221,1864.08l321.816,-171.112l254.496,478.633l-321.82,171.113l-254.492,-478.634Z" style="fill:#1d3643;fill-rule:nonzero;"/></g><clipPath id="_clip129"><path d="M1258.29,2032.63l-108.167,61.284c-9.921,-26.53 -17.379,-47.263 -22.375,-62.188c-4.996,-14.929 -10.392,-33.279 -16.183,-55.05c-22.617,11.704 -41.03,23.833 -55.242,36.379c0.988,12.029 3.383,25.858 7.192,41.479c3.808,15.625 6.312,26.775 7.516,33.446l-98.591,43.575c-3.767,-25.796 -7.509,-57.633 -11.234,-95.512c-3.725,-37.88 -7.116,-78.529 -10.179,-121.959c-3.062,-43.429 -5.437,-85.012 -7.129,-124.762c-1.692,-39.746 -2.408,-72.746 -2.158,-99c12.691,-10.942 26.45,-20.613 41.275,-29.013c14.821,-8.4 32.345,-17.37 52.575,-26.916c20.229,-9.542 32.608,-15.517 37.146,-17.921c14.17,38.808 32.954,85.762 56.345,140.866c48.021,113.126 91.088,204.892 129.209,275.292Zm-217.309,-267.925l-1.458,0.621c-1.183,16.4 -0.975,34.033 0.612,52.896c1.592,18.862 4.226,44.129 7.901,75.804c3.674,31.675 5.804,55.529 6.383,71.562c14.442,-7.945 30.416,-16.116 47.925,-24.508c-5.279,-16.721 -12.417,-37.371 -21.413,-61.95c-8.995,-24.579 -16.821,-46.062 -23.479,-64.454c-6.654,-18.387 -12.146,-35.046 -16.471,-49.971Z"/></clipPath><g clip-path="url(#_clip129)"><path d="M747.862,1709.11l354.496,-150.475l216.096,509.096l-354.496,150.471l-216.096,-509.092Z" style="fill:#1d3643;fill-rule:nonzero;"/></g><clipPath id="_clip130"><path d="M1424.04,1630.52l-48.8,85.529c-16.63,-38.796 -30.538,-56.592 -41.721,-53.383c-11.696,3.354 -18.846,15.125 -21.45,35.316c-2.6,20.188 -2.484,42.671 0.358,67.446c2.837,24.775 6.696,49.667 11.579,74.683c4.184,19.713 7.783,34.821 10.796,45.33c14.433,50.337 28.937,73.42 43.517,69.237c7.116,-2.038 14.033,-9.592 20.741,-22.662c6.709,-13.067 12.196,-27.984 16.467,-44.755c4.271,-16.771 6.567,-30.841 6.883,-42.212l69.488,65.783c-3.938,23.046 -14.792,46.2 -32.567,69.454c-17.775,23.259 -41.533,39.15 -71.279,47.679c-74.121,19.146 -125.383,-20.816 -153.792,-119.887c-0.483,-1.696 -1.154,-4.346 -2.004,-7.954c-0.85,-3.609 -1.558,-6.388 -2.116,-8.334c-10.321,-41.433 -12.613,-81.887 -6.871,-121.366c5.737,-39.475 16,-73.646 30.791,-102.513c14.788,-28.866 29.521,-49.212 44.2,-61.033c12.209,-9.554 24.246,-16.033 36.113,-19.433c18.641,-5.346 35.929,-3.996 51.854,4.046c15.925,8.045 28.529,21.054 37.813,39.029Z"/></clipPath><g clip-path="url(#_clip130)"><path d="M1105.37,1609.76l329.008,-94.341l143.767,501.383l-329.004,94.342l-143.771,-501.384Z" style="fill:#1d3643;fill-rule:nonzero;"/></g><clipPath id="_clip131"><path d="M1840.53,1613.98c-71.237,71.238 -117.608,124.488 -139.121,159.75c10.842,24.159 27.396,51.996 49.659,83.513c22.258,31.516 45.07,60.895 68.433,88.141l-73.658,75.905c-7.317,-9.871 -19.35,-25.676 -36.104,-47.409c-16.751,-21.733 -29.005,-37.754 -36.763,-48.071c-7.758,-10.312 -15.804,-21.312 -24.133,-32.991c-8.334,-11.684 -16.992,-24.667 -25.988,-38.946c-1.85,21.421 -2.775,42.887 -2.775,64.4c0,5.379 0.088,12.829 0.263,22.35c0.179,9.521 0.266,16.529 0.266,21.025l0,17.325l-93.1,28.167c-0.354,-8.992 -0.529,-23.405 -0.529,-43.242c0,-43.025 1.192,-89.529 3.571,-139.517c2.379,-49.987 5.687,-97.883 9.917,-143.683c4.233,-45.8 8.775,-81.967 13.62,-108.504l118.096,-31.342c-5.995,17.458 -11.241,39.429 -15.737,65.925c-4.496,26.492 -9.567,60.633 -15.208,102.421c56.512,-81.021 100.591,-140.575 132.241,-178.658l67.05,83.441Z"/></clipPath><g clip-path="url(#_clip131)"><rect x="1485.31" y="1488.87" width="396.883" height="574.083" style="fill:#1d3643;fill-rule:nonzero;"/></g><clipPath id="_clip132"><path d="M2066.68,1984.07c-23.121,2.266 -55.804,4.704 -98.05,7.312c-42.25,2.604 -72.383,4.304 -90.404,5.1l-44.483,-80.442c7.712,-22.095 20.254,-53.6 37.629,-94.52c17.375,-40.925 35.183,-81.834 53.421,-122.738c18.242,-40.9 35.308,-78.837 51.208,-113.808c29.621,0.329 65.059,2.675 106.321,7.029c41.263,4.358 72.317,7.921 93.167,10.692l-18.85,53.75l-105.209,-2.517l-32.512,70.196l101.925,-1.867l-20.988,65.521l-106.487,3.858c-15.213,29.388 -25.967,55.054 -32.263,77.004c-2.791,9.746 -4.495,16.963 -5.104,21.651c6.625,-1.038 16.133,-1.817 28.529,-2.346c12.396,-0.525 32.28,-1.267 59.659,-2.221c27.375,-0.954 46.412,-1.871 57.121,-2.742l-34.63,101.088Z"/></clipPath><g clip-path="url(#_clip132)"><path d="M1914.17,1484.41l318.583,91.35l-149.892,522.737l-318.583,-91.354l149.892,-522.733Z" style="fill:#1d3643;fill-rule:nonzero;"/></g><clipPath id="_clip133"><path d="M2504.37,1777.96c-7.767,-3.787 -24.813,-8.104 -51.142,-12.95c-26.325,-4.846 -39.708,-7.329 -40.142,-7.441c-10.541,10.554 -26.35,33.616 -47.429,69.191c-21.079,35.575 -40.546,71.667 -58.404,108.279c-17.467,35.813 -28.192,61.925 -32.171,78.326c-7.537,-1.03 -20.771,-1.255 -39.692,-0.671c-18.92,0.579 -38.604,1.67 -59.05,3.27c-20.449,1.605 -35.3,3.138 -44.55,4.609c11.5,-21.363 25.659,-45.821 42.48,-73.371c16.821,-27.55 33.846,-54.412 51.075,-80.583c17.229,-26.175 34.175,-51.213 50.833,-75.113c16.658,-23.9 30.888,-43.717 42.679,-59.446c-8.833,-3.816 -24.187,-6.82 -46.075,-9.008c-21.883,-2.192 -39.137,-3.617 -51.762,-4.279l69.37,-90.346c9.53,2.587 27.517,7.583 53.971,14.992c26.45,7.408 54.796,15.3 85.042,23.675c30.25,8.379 53.446,14.712 69.596,19.008c16.15,4.296 30.683,7.979 43.608,11.046c-5.704,13.304 -18.45,40.241 -38.237,80.812Z"/></clipPath><g clip-path="url(#_clip133)"><path d="M2272.15,1518.88l327.121,159.546l-242.909,498.038l-327.12,-159.546l242.908,-498.038Z" style="fill:#1d3643;fill-rule:nonzero;"/></g><clipPath id="_clip134"><path d="M2747.9,1780.86c-15.304,11.62 -41.267,32.437 -77.892,62.454c-36.62,30.016 -72.595,60.804 -107.925,92.362c-35.333,31.558 -58.233,54.654 -68.708,69.292l-69.488,-15.592c7.709,-12.975 23.659,-35.908 47.859,-68.804c24.2,-32.896 47.379,-63.929 69.533,-93.1c22.158,-29.171 38.459,-50.504 48.904,-63.996c14.217,-1.583 29.959,-1.717 47.225,-0.396c17.267,1.317 34.138,3.305 50.617,5.959c16.479,2.658 29.579,5.041 39.304,7.15c9.725,2.108 16.579,3.666 20.571,4.671Zm-282.858,334.25c-26.754,23.891 -57.429,29.387 -92.029,16.495c-12.726,-5.666 -20.863,-13.729 -24.409,-24.187c-3.546,-10.459 -2.9,-21.121 1.942,-31.996c2.437,-5.475 5.287,-10.142 8.55,-14c12.654,-14.338 27.591,-22.575 44.8,-24.708c17.212,-2.134 31.896,-0.492 44.058,4.921c12.754,6.258 21.963,14.725 27.629,25.404c5.671,10.679 6.138,21.333 1.404,31.962c-2.795,6.284 -6.779,11.654 -11.945,16.109Z"/></clipPath><g clip-path="url(#_clip134)"><path d="M2504.62,1626.94l298.295,132.809l-226.237,508.146l-298.3,-132.813l226.242,-508.142Z" style="fill:#1d3643;fill-rule:nonzero;"/></g><clipPath id="_clip135"><path d="M899.987,2000.57c-5.9,13.125 -10.962,26 -15.183,38.629c-4.216,12.625 -8.892,27.642 -14.017,45.046c-5.124,17.4 -9.454,31.137 -12.987,41.204c-9.9,-4.721 -23.375,-11.338 -40.429,-19.842c-17.054,-8.504 -34.629,-17.433 -52.729,-26.779c-18.104,-9.35 -29.859,-15.829 -35.275,-19.437c6.641,14.741 14.421,33.22 23.337,55.437c8.917,22.217 15.9,38.825 20.946,49.821c-9.242,5.712 -18.446,13.85 -27.604,24.412c-9.163,10.563 -22.196,26.334 -39.104,47.305c-11.334,-25.825 -22.8,-51.804 -34.4,-77.942c-11.6,-26.133 -27.205,-61.771 -46.813,-106.908c-19.608,-45.142 -36.637,-85.338 -51.087,-120.592c-14.45,-35.25 -26.488,-66.342 -36.117,-93.275c37.279,-40.688 70.396,-68.733 99.35,-84.129c26.625,-14.154 53.062,-19.825 79.321,-17.013c22.812,2.15 42.516,18.834 59.112,50.046c12.871,24.209 20.213,52.384 22.025,84.521c1.809,32.137 -3.775,63.788 -16.758,94.954c18.15,6.725 57.621,18.238 118.412,34.542Zm-194.566,-124.804c-1.029,-4.942 -2.767,-9.709 -5.209,-14.304c-3.891,-7.317 -8.804,-11.867 -14.745,-13.65c-5.942,-1.784 -12.025,-1.021 -18.255,2.291c-4.67,2.484 -8.554,5.596 -11.654,9.342c2.154,5.746 6.709,18.675 13.659,38.791c6.954,20.121 13.325,38.346 19.116,54.688c5.796,16.342 10.35,28.475 13.663,36.396c4.946,-24.496 7.737,-45.3 8.375,-62.417c0.637,-17.112 -1.013,-34.158 -4.95,-51.137Z"/></clipPath><g clip-path="url(#_clip135)"><path d="M435.221,1814.08l321.816,-171.112l254.496,478.633l-321.82,171.113l-254.492,-478.634Z" style="fill:#58c2d1;fill-rule:nonzero;"/></g><clipPath id="_clip136"><path d="M1224.96,1982.63l-108.166,61.284c-9.921,-26.53 -17.379,-47.263 -22.375,-62.188c-4.996,-14.929 -10.392,-33.279 -16.184,-55.05c-22.616,11.704 -41.029,23.833 -55.241,36.379c0.987,12.029 3.383,25.858 7.191,41.479c3.809,15.625 6.313,26.775 7.517,33.446l-98.592,43.575c-3.766,-25.796 -7.508,-57.633 -11.233,-95.512c-3.725,-37.88 -7.117,-78.529 -10.179,-121.959c-3.063,-43.429 -5.438,-85.012 -7.129,-124.762c-1.692,-39.746 -2.409,-72.746 -2.159,-99c12.692,-10.942 26.45,-20.613 41.275,-29.013c14.821,-8.4 32.346,-17.37 52.575,-26.916c20.23,-9.542 32.609,-15.517 37.146,-17.921c14.171,38.808 32.954,85.762 56.346,140.866c48.021,113.126 91.088,204.892 129.208,275.292Zm-217.308,-267.925l-1.458,0.621c-1.184,16.4 -0.975,34.033 0.612,52.896c1.592,18.862 4.225,44.129 7.9,75.804c3.675,31.675 5.804,55.529 6.384,71.562c14.441,-7.945 30.416,-16.116 47.924,-24.508c-5.279,-16.721 -12.416,-37.371 -21.412,-61.95c-8.996,-24.579 -16.821,-46.062 -23.479,-64.454c-6.654,-18.387 -12.146,-35.046 -16.471,-49.971Z"/></clipPath><g clip-path="url(#_clip136)"><path d="M714.529,1659.11l354.496,-150.475l216.096,509.096l-354.496,150.471l-216.096,-509.092Z" style="fill:#58c2d1;fill-rule:nonzero;"/></g><clipPath id="_clip137"><path d="M1390.7,1580.52l-48.8,85.529c-16.629,-38.796 -30.537,-56.592 -41.721,-53.383c-11.696,3.354 -18.846,15.125 -21.45,35.316c-2.6,20.188 -2.483,42.671 0.359,67.446c2.837,24.775 6.695,49.667 11.579,74.683c4.183,19.713 7.783,34.821 10.796,45.33c14.433,50.337 28.937,73.42 43.516,69.237c7.117,-2.038 14.034,-9.592 20.742,-22.662c6.708,-13.067 12.196,-27.984 16.467,-44.755c4.271,-16.771 6.566,-30.841 6.883,-42.212l69.487,65.783c-3.937,23.046 -14.791,46.2 -32.566,69.454c-17.775,23.259 -41.534,39.15 -71.279,47.679c-74.121,19.146 -125.384,-20.816 -153.792,-119.887c-0.483,-1.696 -1.154,-4.346 -2.004,-7.954c-0.85,-3.609 -1.558,-6.388 -2.117,-8.334c-10.321,-41.433 -12.612,-81.887 -6.871,-121.366c5.738,-39.475 16,-73.646 30.792,-102.513c14.788,-28.866 29.521,-49.212 44.2,-61.033c12.208,-9.554 24.246,-16.033 36.112,-19.433c18.642,-5.346 35.93,-3.996 51.855,4.046c15.925,8.045 28.529,21.054 37.812,39.029Z"/></clipPath><g clip-path="url(#_clip137)"><path d="M1072.04,1559.76l329.008,-94.341l143.767,501.383l-329.005,94.342l-143.77,-501.384Z" style="fill:#58c2d1;fill-rule:nonzero;"/></g><clipPath id="_clip138"><path d="M1807.2,1563.98c-71.238,71.238 -117.608,124.488 -139.121,159.75c10.842,24.159 27.396,51.996 49.658,83.513c22.259,31.516 45.071,60.895 68.434,88.141l-73.659,75.905c-7.316,-9.871 -19.35,-25.676 -36.104,-47.409c-16.75,-21.733 -29.004,-37.754 -36.762,-48.071c-7.759,-10.312 -15.804,-21.312 -24.134,-32.991c-8.333,-11.684 -16.991,-24.667 -25.987,-38.946c-1.85,21.421 -2.775,42.887 -2.775,64.4c-0,5.379 0.087,12.829 0.262,22.35c0.179,9.521 0.267,16.529 0.267,21.025l0,17.325l-93.1,28.167c-0.354,-8.992 -0.529,-23.405 -0.529,-43.242c-0,-43.025 1.191,-89.529 3.571,-139.517c2.379,-49.987 5.687,-97.883 9.916,-143.683c4.234,-45.8 8.775,-81.967 13.621,-108.504l118.096,-31.342c-5.996,17.458 -11.242,39.429 -15.738,65.925c-4.495,26.492 -9.566,60.633 -15.208,102.421c56.513,-81.021 100.592,-140.575 132.242,-178.658l67.05,83.441Z"/></clipPath><g clip-path="url(#_clip138)"><rect x="1451.98" y="1438.87" width="396.883" height="574.083" style="fill:#58c2d1;fill-rule:nonzero;"/></g><clipPath id="_clip139"><path d="M2033.35,1934.07c-23.121,2.266 -55.804,4.704 -98.05,7.312c-42.25,2.604 -72.383,4.304 -90.404,5.1l-44.484,-80.442c7.713,-22.095 20.255,-53.6 37.63,-94.52c17.375,-40.925 35.183,-81.834 53.42,-122.738c18.242,-40.9 35.309,-78.837 51.209,-113.808c29.621,0.329 65.058,2.675 106.321,7.029c41.262,4.358 72.316,7.921 93.166,10.692l-18.85,53.75l-105.208,-2.517l-32.513,70.196l101.925,-1.867l-20.987,65.521l-106.488,3.858c-15.212,29.388 -25.966,55.054 -32.262,77.004c-2.792,9.746 -4.496,16.963 -5.104,21.651c6.625,-1.038 16.133,-1.817 28.529,-2.346c12.396,-0.525 32.279,-1.267 59.658,-2.221c27.375,-0.954 46.413,-1.871 57.121,-2.742l-34.629,101.088Z"/></clipPath><g clip-path="url(#_clip139)"><path d="M1880.83,1434.41l318.584,91.35l-149.892,522.737l-318.583,-91.354l149.891,-522.733Z" style="fill:#58c2d1;fill-rule:nonzero;"/></g><clipPath id="_clip140"><path d="M2471.03,1727.96c-7.766,-3.787 -24.812,-8.104 -51.141,-12.95c-26.325,-4.846 -39.709,-7.329 -40.142,-7.441c-10.542,10.554 -26.35,33.616 -47.429,69.191c-21.079,35.575 -40.546,71.667 -58.404,108.279c-17.467,35.813 -28.192,61.925 -32.171,78.326c-7.538,-1.03 -20.771,-1.255 -39.692,-0.671c-18.921,0.579 -38.604,1.67 -59.05,3.27c-20.45,1.605 -35.3,3.138 -44.55,4.609c11.5,-21.363 25.658,-45.821 42.479,-73.371c16.821,-27.55 33.846,-54.412 51.075,-80.583c17.229,-26.175 34.175,-51.213 50.834,-75.113c16.658,-23.9 30.887,-43.717 42.679,-59.446c-8.833,-3.816 -24.188,-6.82 -46.075,-9.008c-21.883,-2.192 -39.138,-3.617 -51.763,-4.279l69.371,-90.346c9.529,2.587 27.517,7.583 53.971,14.992c26.45,7.408 54.796,15.3 85.042,23.675c30.25,8.379 53.445,14.712 69.595,19.008c16.151,4.296 30.684,7.979 43.609,11.046c-5.704,13.304 -18.45,40.241 -38.238,80.812Z"/></clipPath><g clip-path="url(#_clip140)"><path d="M2238.82,1468.88l327.121,159.546l-242.909,498.038l-327.121,-159.546l242.909,-498.038Z" style="fill:#58c2d1;fill-rule:nonzero;"/></g><clipPath id="_clip141"><path d="M2714.57,1730.86c-15.305,11.62 -41.267,32.437 -77.892,62.454c-36.621,30.016 -72.596,60.804 -107.925,92.362c-35.333,31.558 -58.233,54.654 -68.708,69.292l-69.488,-15.592c7.709,-12.975 23.659,-35.908 47.858,-68.804c24.2,-32.896 47.38,-63.929 69.534,-93.1c22.158,-29.171 38.458,-50.504 48.904,-63.996c14.217,-1.583 29.958,-1.717 47.225,-0.396c17.267,1.317 34.138,3.305 50.617,5.959c16.479,2.658 29.579,5.041 39.304,7.15c9.725,2.108 16.579,3.666 20.571,4.671Zm-282.859,334.25c-26.754,23.891 -57.429,29.387 -92.029,16.495c-12.725,-5.666 -20.862,-13.729 -24.408,-24.187c-3.546,-10.459 -2.9,-21.121 1.941,-31.996c2.438,-5.475 5.288,-10.142 8.55,-14c12.655,-14.338 27.592,-22.575 44.8,-24.708c17.213,-2.134 31.896,-0.492 44.059,4.921c12.754,6.258 21.962,14.725 27.629,25.404c5.671,10.679 6.137,21.333 1.404,31.962c-2.796,6.284 -6.779,11.654 -11.946,16.109Z"/></clipPath><g clip-path="url(#_clip141)"><path d="M2471.28,1576.94l298.296,132.809l-226.237,508.146l-298.3,-132.813l226.241,-508.142Z" style="fill:#58c2d1;fill-rule:nonzero;"/></g></g></svg>