<?xml version="1.0" encoding="UTF-8" standalone="no"?><!DOCTYPE svg PUBLIC "-//W3C//DTD SVG 1.1//EN" "http://www.w3.org/Graphics/SVG/1.1/DTD/svg11.dtd"><svg width="100%" height="100%" viewBox="0 0 2503 364" version="1.1" xmlns="http://www.w3.org/2000/svg" xmlns:xlink="http://www.w3.org/1999/xlink" xml:space="preserve" xmlns:serif="http://www.serif.com/" style="fill-rule:evenodd;clip-rule:evenodd;stroke-linejoin:round;stroke-miterlimit:2;"><g id="Layer1"></g><g id="Layer3"></g><g id="Layer11" serif:id="Layer1"></g><g id="Layer2"><path d="M1303.06,50.03l0.827,0.002l0.406,0.002l0.414,0.002l0.405,0.004l0.414,0.003l0.405,0.004l0.406,0.005l0.414,0.004l0.405,0.006l0.414,0.007l0.405,0.006l0.414,0.007l0.406,0.008l0.405,0.009l0.414,0.009l0.405,0.009l0.414,0.011l0.405,0.01l0.414,0.012l0.406,0.012l0.405,0.012l0.414,0.014l0.405,0.013l0.414,0.014l0.406,0.015l0.405,0.016l0.414,0.016l0.405,0.018l0.414,0.017l0.406,0.018l0.405,0.019l0.414,0.02l0.405,0.02l0.414,0.021l0.405,0.021l0.406,0.022l0.414,0.023l0.405,0.024l0.406,0.024l1.63,0.098l1.63,0.097l1.63,0.095l1.63,0.095l1.622,0.093l1.63,0.093l1.631,0.091l1.63,0.091l1.63,0.089l1.622,0.089l1.63,0.087l1.63,0.086l1.63,0.086l1.631,0.084l1.63,0.084l1.63,0.082l1.63,0.081l1.622,0.081l1.63,0.079l1.63,0.079l1.631,0.078l1.63,0.076l1.63,0.076l1.63,0.075l1.63,0.074l1.631,0.073l1.63,0.072l1.63,0.071l1.622,0.07l1.63,0.069l1.63,0.069l1.63,0.067l1.631,0.067l1.63,0.065l1.63,0.065l1.63,0.064l1.63,0.063l1.63,0.063l1.631,0.061l1.63,0.06l1.63,0.06l1.63,0.059l1.63,0.057l1.631,0.058l1.63,0.056l3.26,0.11l1.63,0.054l3.261,0.105l1.638,0.052l1.63,0.05l1.63,0.05l1.631,0.05l1.63,0.048l1.63,0.047l1.63,0.047l1.63,0.046l1.63,0.045l3.261,0.089l1.63,0.042l1.63,0.043l1.63,0.041l1.631,0.041l1.63,0.04l1.63,0.04l1.63,0.039l3.26,0.075l1.631,0.036l1.638,0.036l1.63,0.036l1.63,0.034l1.631,0.034l3.26,0.066l1.63,0.032l1.63,0.031l3.261,0.061l1.63,0.029l1.63,0.029l3.26,0.056l1.631,0.026l1.638,0.027l1.622,0.025l1.638,0.026l1.631,0.024l3.26,0.047l3.26,0.045l1.631,0.022l3.26,0.041l1.63,0.02l1.63,0.02l1.63,0.019l3.261,0.036l3.26,0.034l1.63,0.016l3.261,0.031l1.63,0.015l1.63,0.014l1.63,0.014l3.261,0.026l3.26,0.025l3.26,0.022l3.261,0.021l3.26,0.018l3.26,0.018l3.261,0.015l3.26,0.014l3.26,0.012l3.253,0.011l3.26,0.01l3.26,0.007l3.261,0.007l3.252,0.005l3.26,0.003l3.26,0.003l3.261,0.001l3.252,0l3.26,-0.001l3.252,-0.002l3.261,-0.003l3.252,-0.005l3.26,-0.005l3.252,-0.007l3.261,-0.007l6.504,-0.017l3.26,-0.009l3.252,-0.011l3.252,-0.011l3.252,-0.011l3.252,-0.013l3.253,-0.013l3.252,-0.013l3.26,-0.014l6.496,-0.029l6.504,-0.031l6.504,-0.031l12.992,-0.065l12.992,-0.065l12.975,-0.063l6.488,-0.029l6.487,-0.028l6.488,-0.026l3.235,-0.011l3.244,-0.012l3.244,-0.011l3.236,-0.01l3.243,-0.009l3.236,-0.008l3.235,-0.008l3.236,-0.007l3.236,-0.006l3.243,-0.005l3.236,-0.004l3.227,-0.002l3.236,-0.002l3.235,-0.001l2.259,0.313l1.995,0.901l1.481,1.381l0.786,1.695l-0,1.803l-0.786,1.695l-1.481,1.381l-1.986,0.902l-2.268,0.314l-3.227,0.001l-3.227,0.002l-3.228,0.002l-3.235,0.004l-3.227,0.005l-3.236,0.005l-3.227,0.008l-3.236,0.007l-3.235,0.009l-3.236,0.009l-3.235,0.01l-6.471,0.022l-3.236,0.012l-3.244,0.012l-3.235,0.014l-6.488,0.027l-6.479,0.03l-6.488,0.031l-6.487,0.031l-12.992,0.065l-6.496,0.033l-6.496,0.032l-6.504,0.032l-6.504,0.031l-6.513,0.029l-6.504,0.027l-3.26,0.013l-3.252,0.012l-3.261,0.012l-3.252,0.011l-3.26,0.01l-3.261,0.01l-6.52,0.017l-3.261,0.007l-3.26,0.007l-3.26,0.005l-3.261,0.004l-3.26,0.004l-3.26,0.002l-3.269,0.001l-3.26,-0l-3.261,-0.001l-3.268,-0.003l-3.261,-0.003l-3.268,-0.005l-3.261,-0.007l-3.268,-0.008l-3.269,-0.009l-3.269,-0.011l-3.26,-0.012l-3.269,-0.014l-3.268,-0.016l-3.269,-0.017l-3.269,-0.019l-3.268,-0.02l-3.269,-0.023l-3.269,-0.025l-3.276,-0.026l-1.631,-0.013l-1.638,-0.015l-1.639,-0.015l-1.63,-0.015l-1.638,-0.016l-1.63,-0.016l-1.639,-0.017l-1.638,-0.017l-1.63,-0.019l-1.639,-0.018l-1.638,-0.019l-1.639,-0.019l-1.63,-0.02l-3.277,-0.042l-1.638,-0.022l-1.631,-0.022l-1.638,-0.023l-1.638,-0.023l-1.639,-0.024l-1.63,-0.025l-1.639,-0.025l-3.276,-0.052l-1.639,-0.027l-1.63,-0.027l-3.277,-0.058l-3.277,-0.059l-3.277,-0.063l-1.63,-0.031l-3.277,-0.067l-3.277,-0.068l-3.277,-0.072l-1.638,-0.037l-1.639,-0.037l-1.638,-0.039l-1.639,-0.039l-1.63,-0.039l-1.646,-0.04l-1.639,-0.041l-1.63,-0.042l-3.277,-0.086l-1.638,-0.044l-1.639,-0.044l-1.638,-0.046l-1.639,-0.046l-3.277,-0.095l-1.638,-0.048l-1.639,-0.05l-1.638,-0.05l-3.277,-0.102l-1.638,-0.053l-1.639,-0.053l-3.277,-0.109l-1.638,-0.056l-1.647,-0.056l-1.638,-0.058l-1.639,-0.059l-1.638,-0.059l-1.639,-0.059l-1.638,-0.061l-1.639,-0.062l-1.638,-0.062l-1.639,-0.064l-1.638,-0.064l-1.639,-0.065l-1.638,-0.066l-1.638,-0.067l-1.639,-0.068l-1.638,-0.069l-1.647,-0.07l-1.639,-0.07l-1.638,-0.072l-1.638,-0.072l-1.639,-0.074l-1.638,-0.074l-1.639,-0.075l-3.277,-0.153l-1.638,-0.079l-1.639,-0.079l-1.646,-0.08l-1.639,-0.081l-1.638,-0.082l-1.639,-0.083l-1.638,-0.083l-1.639,-0.085l-1.638,-0.086l-1.639,-0.087l-1.638,-0.088l-1.647,-0.089l-1.638,-0.091l-1.639,-0.09l-1.638,-0.093l-1.639,-0.092l-1.638,-0.094l-1.639,-0.096l-1.638,-0.096l-1.638,-0.097l-1.639,-0.098l-0.381,-0.023l-0.38,-0.022l-0.381,-0.022l-0.38,-0.02l-0.381,-0.02l-0.381,-0.02l-0.38,-0.019l-0.381,-0.018l-0.381,-0.017l-0.38,-0.017l-0.389,-0.017l-0.381,-0.016l-0.761,-0.03l-0.389,-0.014l-0.381,-0.013l-0.38,-0.013l-0.389,-0.012l-0.381,-0.012l-0.389,-0.012l-0.761,-0.02l-0.389,-0.01l-0.381,-0.009l-0.389,-0.009l-0.389,-0.007l-0.38,-0.007l-0.389,-0.008l-0.389,-0.006l-0.381,-0.006l-0.389,-0.005l-0.389,-0.005l-0.38,-0.004l-0.389,-0.004l-0.389,-0.003l-0.778,-0.006l-0.389,-0.001l-0.381,-0.001l-0.389,-0.001l-0.777,-0l-0.787,0.001l-0.777,0.004l-0.778,0.005l-0.778,0.006l-0.786,0.01l-0.778,0.01l-0.786,0.012l-0.778,0.014l-0.786,0.015l-0.786,0.017l-0.786,0.018l-0.787,0.021l-0.786,0.021l-0.786,0.023l-0.794,0.024l-0.786,0.026l-0.787,0.026l-0.794,0.029l-0.786,0.029l-0.794,0.031l-0.795,0.032l-0.794,0.033l-0.786,0.035l-0.795,0.035l-0.794,0.036l-0.803,0.038l-0.794,0.038l-0.795,0.039l-0.794,0.041l-0.803,0.041l-0.794,0.042l-0.795,0.043l-0.802,0.043l-0.803,0.045l-0.794,0.045l-1.606,0.092l-0.802,0.047l-0.795,0.048l-1.605,0.096l-1.614,0.098l-1.605,0.101l-1.605,0.101l-3.228,0.205l-3.227,0.208l-1.614,0.103l-1.621,0.103l-1.614,0.103l-1.622,0.101l-1.622,0.1l-1.622,0.098l-0.811,0.049l-0.811,0.048l-1.622,0.095l-0.811,0.046l-0.811,0.045l-0.811,0.045l-0.81,0.044l-0.82,0.044l-0.811,0.042l-0.811,0.042l-0.811,0.041l-0.811,0.04l-0.81,0.039l-0.82,0.038l-0.811,0.037l-0.811,0.036l-0.819,0.035l-0.811,0.034l-0.811,0.032l-0.811,0.031l-0.819,0.03l-0.811,0.029l-0.811,0.028l-0.819,0.026l-0.811,0.024l-0.811,0.024l-0.819,0.021l-0.811,0.021l-0.811,0.018l-0.811,0.018l-0.819,0.014l-0.811,0.015l-0.811,0.011l-0.819,0.011l-0.811,0.008l-0.811,0.007l-0.82,0.005l-0.81,0.003l-0.803,0.001l-2.797,0l-2.789,0.001l-2.78,0.002l-5.578,0.005l-2.788,0.004l-2.781,0.005l-5.577,0.01l-2.78,0.007l-5.578,0.014l-2.78,0.008l-5.578,0.018l-2.78,0.01l-5.577,0.02l-2.781,0.012l-2.788,0.012l-5.57,0.024l-5.569,0.028l-5.569,0.028l-5.569,0.031l-5.569,0.031l-5.569,0.034l-5.569,0.035l-5.577,0.036l-5.57,0.038l-5.569,0.038l-11.138,0.08l-5.569,0.042l-11.138,0.086l-5.569,0.044l-11.138,0.089l-11.139,0.09l-11.138,0.091l-11.138,0.091l-11.138,0.091l-11.147,0.089l-5.569,0.044l-11.138,0.085l-5.577,0.042l-5.569,0.041l-5.569,0.039l-5.578,0.039l-5.569,0.037l-5.577,0.037l-5.578,0.035l-5.571,0.033l-5.575,0.032l-5.576,0.031l-5.575,0.028l-5.577,0.027l-5.577,0.025l-2.789,0.012l-2.789,0.011l-2.788,0.011l-2.79,0.01l-2.789,0.01l-2.789,0.009l-2.79,0.009l-2.79,0.008l-2.79,0.007l-2.79,0.007l-2.79,0.007l-5.581,0.01l-2.79,0.005l-2.791,0.004l-5.583,0.005l-2.791,0.002l-5.582,0.001l-2.264,-0.313l-1.991,-0.901l-1.479,-1.382l-0.786,-1.694l-0.001,-1.803l0.786,-1.695l1.478,-1.382l1.991,-0.901l2.264,-0.314l5.576,-0.001l2.787,-0.002l5.574,-0.005l2.787,-0.004l2.787,-0.005l2.786,-0.005l2.787,-0.005l2.786,-0.007l2.787,-0.007l2.787,-0.007l2.786,-0.008l2.786,-0.009l2.785,-0.009l2.787,-0.009l5.572,-0.021l5.571,-0.024l5.571,-0.024l5.571,-0.028l5.571,-0.028l5.571,-0.031l5.57,-0.031l5.571,-0.034l5.569,-0.035l5.569,-0.036l5.569,-0.038l5.569,-0.038l11.139,-0.08l5.569,-0.042l11.138,-0.086l5.569,-0.044l11.138,-0.089l11.138,-0.09l11.147,-0.091l11.138,-0.091l11.138,-0.09l11.138,-0.09l5.578,-0.043l11.138,-0.086l5.569,-0.042l5.577,-0.041l5.57,-0.039l5.569,-0.038l5.577,-0.038l5.569,-0.036l5.577,-0.035l5.578,-0.034l5.569,-0.032l5.577,-0.031l5.578,-0.028l5.577,-0.027l5.569,-0.025l5.577,-0.023l5.578,-0.021l2.788,-0.01l2.789,-0.009l2.789,-0.008l2.797,-0.009l5.577,-0.014l2.789,-0.007l5.577,-0.01l2.789,-0.005l2.797,-0.003l5.577,-0.006l2.789,-0.002l2.797,-0l2.78,-0.001l0.778,-0.001l0.778,-0.003l0.77,-0.004l0.777,-0.007l0.778,-0.008l0.778,-0.009l0.778,-0.012l0.778,-0.013l0.778,-0.015l0.778,-0.016l0.777,-0.018l0.787,-0.02l0.777,-0.021l0.787,-0.022l0.786,-0.024l0.786,-0.025l0.786,-0.027l0.786,-0.027l0.786,-0.029l0.786,-0.031l0.786,-0.031l0.795,-0.033l0.786,-0.034l0.794,-0.035l0.786,-0.036l0.795,-0.037l0.794,-0.038l1.589,-0.079l0.794,-0.041l0.795,-0.041l0.794,-0.043l0.795,-0.044l0.802,-0.044l0.795,-0.044l0.794,-0.046l0.803,-0.046l0.794,-0.047l0.803,-0.047l0.803,-0.048l1.605,-0.097l1.597,-0.099l1.614,-0.101l1.605,-0.102l1.614,-0.102l1.613,-0.103l3.228,-0.208l1.613,-0.103l3.244,-0.205l1.622,-0.101l1.622,-0.1l2.433,-0.146l0.819,-0.047l0.811,-0.048l0.811,-0.046l0.819,-0.046l1.622,-0.089l0.819,-0.044l0.811,-0.043l0.819,-0.042l0.811,-0.042l0.82,-0.04l0.81,-0.039l0.82,-0.039l0.811,-0.037l0.819,-0.036l0.819,-0.036l0.819,-0.033l0.811,-0.034l0.82,-0.031l0.819,-0.031l0.811,-0.029l0.819,-0.028l0.819,-0.027l0.819,-0.024l0.82,-0.024l0.811,-0.022l0.819,-0.021l0.819,-0.02l0.819,-0.017l0.819,-0.016l0.82,-0.015l0.811,-0.012l0.819,-0.011l0.819,-0.009l0.819,-0.008l0.82,-0.005l0.819,-0.004l0.819,-0.001l0.811,-0Z" style="fill:#fff;"/><path d="M905.952,34.948l1.77,1.151l1.162,1.556l0.413,1.774l0,0.053l0.001,0.027l0.002,0.033l0.001,0.037l0.003,0.04l0.003,0.044l0.004,0.049l0.005,0.052l0.007,0.056l0.006,0.059l0.009,0.063l0.009,0.067l0.01,0.068l0.011,0.072l0.013,0.076l0.013,0.078l0.014,0.079l0.016,0.082l0.016,0.086l0.018,0.088l0.018,0.09l0.02,0.092l0.02,0.095l0.021,0.092l0.047,0.205l0.05,0.207l0.053,0.215l0.057,0.221l0.06,0.229l0.063,0.234l0.067,0.24l0.069,0.245l0.072,0.251l0.075,0.256l0.077,0.26l0.079,0.265l0.081,0.27l0.083,0.27l0.172,0.559l0.177,0.57l0.181,0.581l0.185,0.591l0.186,0.599l0.185,0.604l0.094,0.306l0.092,0.307l0.092,0.308l0.092,0.308l0.091,0.31l0.089,0.311l0.089,0.31l0.087,0.311l0.085,0.312l0.084,0.312l0.082,0.312l0.08,0.313l0.078,0.312l0.076,0.312l0.073,0.313l0.069,0.307l0.035,0.159l0.066,0.313l0.032,0.157l0.03,0.154l0.03,0.156l0.03,0.157l0.028,0.155l0.027,0.156l0.027,0.156l0.025,0.155l0.024,0.156l0.024,0.156l0.022,0.156l0.021,0.156l0.02,0.155l0.019,0.156l0.018,0.157l0.016,0.156l0.014,0.149l0.036,0.398l0.035,0.391l0.034,0.391l0.033,0.39l0.064,0.782l0.032,0.39l0.03,0.391l0.03,0.391l0.03,0.392l0.056,0.779l0.055,0.781l0.051,0.782l0.05,0.78l0.047,0.781l0.044,0.781l0.044,0.78l0.04,0.781l0.038,0.781l0.036,0.78l0.034,0.78l0.032,0.78l0.03,0.78l0.028,0.78l0.026,0.78l0.024,0.78l0.023,0.779l0.02,0.78l0.019,0.779l0.017,0.78l0.016,0.778l0.014,0.779l0.012,0.779l0.011,0.779l0.009,0.778l0.008,0.779l0.007,0.778l0.005,0.779l0.004,0.777l0.002,0.778l0.002,0.778l0,0.777l-0.001,0.778l-0.005,1.554l-0.004,0.777l-0.005,0.777l-0.006,0.776l-0.014,1.553l-0.009,0.776l-0.009,0.776l-0.01,0.775l-0.011,0.776l-0.011,0.776l-0.024,1.55l-0.026,1.549l-0.028,1.548l-0.029,1.548l-0.03,1.547l-0.062,3.091l-0.062,3.088l-0.03,1.543l-0.029,1.541l-0.027,1.541l-0.026,1.54l-0.024,1.539l-0.022,1.537l-0.01,0.769l-0.009,0.768l-0.008,0.768l-0.008,0.767l-0.006,0.768l-0.006,0.767l-0.005,0.767l-0.004,0.766l-0.003,0.767l-0.002,0.766l-0.001,0.765l0,0.766l0.002,0.765l0.002,0.765l0.004,0.764l0.005,0.765l0.007,0.764l0.007,0.763l0.01,0.764l0.01,0.762l0.013,0.763l0.013,0.763l0.015,0.762l0.017,0.762l0.018,0.761l0.02,0.761l0.023,0.761l0.023,0.761l0.025,0.76l0.028,0.76l0.029,0.759l0.031,0.76l0.033,0.758l0.035,0.758l0.037,0.758l0.039,0.759l0.042,0.757l0.043,0.757l0.046,0.757l0.048,0.756l0.05,0.756l0.053,0.756l0.055,0.757l0.028,0.376l0.058,0.754l0.031,0.378l0.03,0.377l0.032,0.377l0.032,0.377l0.032,0.377l0.034,0.377l0.034,0.38l0.032,0.348l0.061,0.704l0.058,0.703l0.054,0.704l0.027,0.352l0.025,0.351l0.025,0.352l0.025,0.351l0.023,0.351l0.023,0.352l0.043,0.704l0.021,0.35l0.021,0.352l0.019,0.351l0.019,0.352l0.018,0.351l0.017,0.351l0.017,0.353l0.032,0.701l0.029,0.702l0.027,0.702l0.025,0.703l0.021,0.701l0.02,0.702l0.017,0.701l0.016,0.701l0.013,0.701l0.011,0.701l0.009,0.701l0.008,0.701l0.005,0.701l0.003,0.7l0.001,0.7l-0,0.7l-0.003,0.7l-0.003,0.699l-0.006,0.7l-0.007,0.699l-0.009,0.699l-0.01,0.699l-0.011,0.698l-0.013,0.699l-0.015,0.701l-0.015,0.695l-0.018,0.701l-0.018,0.694l-0.019,0.695l-0.02,0.701l-0.022,0.694l-0.022,0.701l-0.023,0.695l-0.024,0.694l-0.026,0.695l-0.026,0.701l-0.026,0.694l-0.057,1.389l-0.057,1.389l-0.061,1.389l-0.061,1.389l-0.064,1.382l-0.064,1.389l-0.129,2.765l-0.065,1.383l-0.064,1.382l-0.063,1.376l-0.062,1.383l-0.06,1.376l-0.058,1.376l-0.028,0.688l-0.027,0.688l-0.053,1.376l-0.025,0.681l-0.025,0.688l-0.023,0.682l-0.023,0.687l-0.021,0.688l-0.021,0.682l-0.019,0.688l-0.018,0.681l-0.017,0.682l-0.016,0.688l-0.015,0.681l-0.013,0.682l-0.012,0.681l-0.011,0.682l-0.009,0.681l-0.007,0.682l-0.006,0.681l-0.005,0.682l-0.002,0.675l-0.001,0.681l-0,0.682l0.002,0.675l0.004,0.681l0.006,0.675l0.008,0.682l0.01,0.675l0.012,0.675l0.014,0.675l0.016,0.675l0.018,0.682l0.02,0.675l0.023,0.675l0.025,0.668l0.026,0.675l0.03,0.675l0.032,0.675l0.017,0.338l0.017,0.331l0.018,0.337l0.038,0.675l0.02,0.331l0.02,0.338l0.022,0.337l0.021,0.331l0.047,0.675l0.024,0.331l0.024,0.338l0.025,0.337l0.026,0.331l0.026,0.338l0.028,0.331l0.028,0.337l0.029,0.331l0.029,0.338l0.03,0.331l0.031,0.337l0.032,0.331l0.032,0.338l0.066,0.662l0.067,0.662l0.068,0.668l0.069,0.662l0.071,0.669l0.072,0.668l0.073,0.669l0.073,0.668l0.075,0.662l0.077,0.675l0.077,0.669l0.077,0.668l0.079,0.676l0.08,0.668l0.08,0.675l0.082,0.669l0.166,1.35l0.084,0.675l0.171,1.35l0.086,0.675l0.174,1.35l0.178,1.356l0.179,1.357l0.181,1.356l0.184,1.363l0.185,1.363l0.186,1.363l0.188,1.363l0.188,1.363l0.378,2.739l0.38,2.739l0.379,2.746l0.189,1.369l0.188,1.376l0.187,1.376l0.185,1.376l0.184,1.376l0.183,1.376l0.179,1.376l0.178,1.376l0.089,0.688l0.087,0.688l0.087,0.688l0.086,0.694l0.086,0.688l0.084,0.688l0.167,1.376l0.082,0.688l0.081,0.695l0.081,0.688l0.08,0.688l0.078,0.688l0.154,1.376l0.076,0.694l0.074,0.688l0.074,0.688l0.072,0.688l0.071,0.688l0.07,0.688l0.069,0.688l0.067,0.688l0.066,0.688l0.065,0.688l0.064,0.688l0.062,0.688l0.061,0.688l0.059,0.688l0.058,0.688l0.057,0.688l0.055,0.688l0.054,0.688l0.052,0.681l0.05,0.688l0.049,0.688l0.046,0.688l0.046,0.682l0.044,0.688l0.042,0.688l0.041,0.681l0.038,0.688l0.036,0.682l0.035,0.681l0.033,0.688l0.031,0.682l0.029,0.688l0.028,0.681l0.024,0.682l0.024,0.681l0.02,0.682l0.019,0.688l0.017,0.675l0.015,0.681l0.012,0.682l0.011,0.681l0.007,0.682l0.006,0.681l0.004,0.675l0.001,0.675l-0.396,1.779l-1.147,1.558l-1.759,1.161l-2.159,0.623l-2.299,0l-2.162,-0.616l-1.763,-1.156l-1.153,-1.557l-0.402,-1.779l-0.001,-0.655l-0.003,-0.656l-0.006,-0.649l-0.007,-0.655l-0.01,-0.656l-0.013,-0.655l-0.014,-0.656l-0.016,-0.655l-0.018,-0.656l-0.02,-0.655l-0.023,-0.663l-0.024,-0.655l-0.026,-0.662l-0.028,-0.662l-0.03,-0.656l-0.032,-0.662l-0.033,-0.662l-0.036,-0.668l-0.037,-0.662l-0.039,-0.662l-0.041,-0.669l-0.043,-0.662l-0.044,-0.668l-0.046,-0.669l-0.047,-0.662l-0.049,-0.668l-0.05,-0.669l-0.052,-0.668l-0.054,-0.669l-0.056,-0.675l-0.056,-0.668l-0.058,-0.669l-0.059,-0.675l-0.061,-0.669l-0.062,-0.675l-0.064,-0.668l-0.064,-0.675l-0.066,-0.675l-0.136,-1.35l-0.141,-1.35l-0.072,-0.675l-0.073,-0.675l-0.074,-0.682l-0.075,-0.675l-0.077,-0.675l-0.077,-0.681l-0.079,-0.675l-0.079,-0.682l-0.08,-0.675l-0.081,-0.681l-0.082,-0.682l-0.083,-0.675l-0.083,-0.681l-0.085,-0.682l-0.17,-1.363l-0.174,-1.363l-0.176,-1.363l-0.179,-1.363l-0.18,-1.363l-0.183,-1.369l-0.185,-1.363l-0.185,-1.37l-0.187,-1.369l-0.188,-1.363l-0.378,-2.739l-0.38,-2.739l-0.568,-4.109l-0.188,-1.369l-0.187,-1.369l-0.186,-1.37l-0.185,-1.369l-0.183,-1.37l-0.18,-1.369l-0.179,-1.363l-0.176,-1.37l-0.088,-0.681l-0.086,-0.688l-0.086,-0.682l-0.085,-0.681l-0.085,-0.682l-0.083,-0.681l-0.083,-0.682l-0.082,-0.688l-0.081,-0.681l-0.08,-0.682l-0.08,-0.681l-0.078,-0.682l-0.077,-0.675l-0.076,-0.681l-0.076,-0.682l-0.074,-0.681l-0.073,-0.682l-0.072,-0.675l-0.071,-0.681l-0.07,-0.682l-0.068,-0.675l-0.067,-0.681l-0.034,-0.351l-0.033,-0.35l-0.033,-0.351l-0.032,-0.357l-0.061,-0.701l-0.058,-0.701l-0.028,-0.35l-0.028,-0.357l-0.026,-0.351l-0.026,-0.35l-0.049,-0.701l-0.024,-0.357l-0.023,-0.351l-0.022,-0.35l-0.022,-0.351l-0.02,-0.35l-0.04,-0.701l-0.019,-0.357l-0.018,-0.351l-0.018,-0.35l-0.033,-0.701l-0.03,-0.701l-0.028,-0.701l-0.026,-0.701l-0.024,-0.707l-0.021,-0.701l-0.019,-0.701l-0.016,-0.701l-0.014,-0.701l-0.013,-0.701l-0.01,-0.701l-0.008,-0.701l-0.007,-0.701l-0.004,-0.701l-0.002,-0.701l-0,-0.695l0.001,-0.701l0.002,-0.7l0.005,-0.701l0.006,-0.701l0.008,-0.695l0.009,-0.701l0.011,-0.701l0.012,-0.694l0.014,-0.701l0.014,-0.695l0.017,-0.701l0.017,-0.701l0.038,-1.389l0.022,-0.701l0.022,-0.694l0.023,-0.695l0.023,-0.701l0.025,-0.694l0.025,-0.695l0.027,-0.694l0.027,-0.701l0.027,-0.694l0.029,-0.695l0.058,-1.389l0.061,-1.389l0.062,-1.382l0.064,-1.389l0.064,-1.383l0.065,-1.389l0.13,-2.765l0.063,-1.376l0.063,-1.382l0.061,-1.376l0.06,-1.376l0.058,-1.376l0.054,-1.376l0.027,-0.688l0.026,-0.688l0.024,-0.681l0.024,-0.688l0.024,-0.688l0.021,-0.682l0.022,-0.688l0.019,-0.681l0.02,-0.688l0.017,-0.682l0.016,-0.681l0.016,-0.682l0.014,-0.686l0.013,-0.682l0.011,-0.682l0.01,-0.682l0.008,-0.681l0.007,-0.681l0.006,-0.68l0.003,-0.681l0.003,-0.679l-0,-0.68l-0.001,-0.679l-0.003,-0.678l-0.005,-0.679l-0.007,-0.677l-0.009,-0.677l-0.011,-0.677l-0.012,-0.677l-0.015,-0.676l-0.017,-0.676l-0.019,-0.675l-0.021,-0.675l-0.024,-0.674l-0.025,-0.675l-0.028,-0.674l-0.031,-0.675l-0.016,-0.334l-0.017,-0.337l-0.035,-0.672l-0.019,-0.336l-0.019,-0.336l-0.02,-0.336l-0.041,-0.671l-0.022,-0.335l-0.023,-0.336l-0.046,-0.67l-0.025,-0.336l-0.025,-0.334l-0.053,-0.67l-0.027,-0.335l-0.027,-0.334l-0.058,-0.668l-0.031,-0.339l-0.035,-0.386l-0.034,-0.391l-0.034,-0.391l-0.033,-0.391l-0.065,-0.781l-0.031,-0.391l-0.031,-0.39l-0.03,-0.391l-0.03,-0.392l-0.056,-0.78l-0.054,-0.781l-0.052,-0.781l-0.049,-0.781l-0.048,-0.781l-0.044,-0.78l-0.043,-0.781l-0.041,-0.78l-0.038,-0.781l-0.036,-0.78l-0.033,-0.781l-0.033,-0.78l-0.029,-0.78l-0.029,-0.78l-0.026,-0.78l-0.024,-0.78l-0.022,-0.779l-0.021,-0.78l-0.019,-0.779l-0.017,-0.779l-0.015,-0.779l-0.015,-0.779l-0.012,-0.779l-0.011,-0.779l-0.009,-0.778l-0.008,-0.778l-0.007,-0.779l-0.005,-0.779l-0.004,-0.777l-0.002,-0.778l-0.002,-0.778l0,-0.777l0.001,-0.778l0.005,-1.554l0.004,-0.777l0.005,-0.777l0.006,-0.777l0.015,-1.552l0.008,-0.776l0.009,-0.776l0.01,-0.776l0.011,-0.775l0.011,-0.776l0.024,-1.55l0.026,-1.549l0.028,-1.549l0.029,-1.547l0.03,-1.547l0.062,-3.091l0.062,-3.089l0.03,-1.542l0.029,-1.541l0.027,-1.541l0.027,-1.54l0.024,-1.539l0.01,-0.768l0.011,-0.769l0.01,-0.769l0.009,-0.768l0.008,-0.767l0.008,-0.768l0.006,-0.768l0.006,-0.767l0.005,-0.767l0.004,-0.766l0.003,-0.767l0.002,-0.766l0.001,-0.765l0,-0.766l-0.002,-0.765l-0.002,-0.765l-0.004,-0.764l-0.005,-0.765l-0.007,-0.764l-0.007,-0.763l-0.009,-0.763l-0.011,-0.763l-0.012,-0.763l-0.014,-0.763l-0.015,-0.762l-0.017,-0.762l-0.018,-0.761l-0.02,-0.761l-0.022,-0.761l-0.024,-0.76l-0.025,-0.761l-0.028,-0.759l-0.028,-0.759l-0.032,-0.76l-0.033,-0.759l-0.035,-0.758l-0.037,-0.758l-0.039,-0.758l-0.041,-0.758l-0.044,-0.757l-0.046,-0.757l-0.048,-0.756l-0.05,-0.756l-0.052,-0.755l-0.056,-0.758l-0.028,-0.376l-0.058,-0.754l-0.03,-0.377l-0.031,-0.378l-0.031,-0.377l-0.033,-0.376l-0.032,-0.377l-0.034,-0.377l-0.033,-0.37l-0.009,-0.093l-0.009,-0.088l-0.01,-0.09l-0.011,-0.093l-0.012,-0.095l-0.014,-0.097l-0.014,-0.098l-0.015,-0.101l-0.016,-0.103l-0.017,-0.104l-0.018,-0.107l-0.019,-0.107l-0.02,-0.109l-0.02,-0.111l-0.022,-0.113l-0.023,-0.115l-0.023,-0.115l-0.025,-0.116l-0.025,-0.118l-0.026,-0.117l-0.055,-0.247l-0.058,-0.247l-0.061,-0.253l-0.064,-0.257l-0.067,-0.261l-0.069,-0.264l-0.072,-0.267l-0.075,-0.271l-0.076,-0.274l-0.079,-0.276l-0.08,-0.279l-0.083,-0.281l-0.083,-0.283l-0.085,-0.285l-0.087,-0.287l-0.087,-0.286l-0.18,-0.582l-0.18,-0.583l-0.183,-0.585l-0.183,-0.586l-0.182,-0.586l-0.179,-0.581l-0.089,-0.293l-0.088,-0.29l-0.086,-0.29l-0.086,-0.288l-0.084,-0.287l-0.081,-0.286l-0.082,-0.286l-0.077,-0.284l-0.077,-0.283l-0.075,-0.281l-0.072,-0.281l-0.069,-0.279l-0.066,-0.278l-0.063,-0.272l-0.032,-0.142l-0.03,-0.139l-0.029,-0.137l-0.029,-0.138l-0.027,-0.138l-0.026,-0.137l-0.026,-0.138l-0.025,-0.138l-0.023,-0.137l-0.022,-0.137l-0.023,-0.138l-0.02,-0.138l-0.019,-0.138l-0.018,-0.139l-0.016,-0.139l-0.016,-0.139l-0.013,-0.142l-0.013,-0.14l-0.01,-0.142l-0.01,-0.143l-0.007,-0.144l-0.006,-0.145l-0.003,-0.147l-0.001,-0.117l0.386,-1.778l1.138,-1.566l1.751,-1.168l2.156,-0.627l2.3,-0.011l2.164,0.607Z" style="fill:#fff;"/><path d="M1719.85,298.469l3.401,-0l0.563,0.006l0.571,0l1.126,0.013l0.571,0.007l0.562,0.006l0.571,0.007l0.563,0.006l0.571,0.006l1.125,0.026l0.571,0.007l1.126,0.026l0.571,0.019l0.562,0.013l0.571,0.013l1.126,0.039l0.571,0.013l0.562,0.02l0.563,0.026l0.571,0.019l0.563,0.02l0.563,0.026l0.562,0.019l0.571,0.026l1.126,0.052l0.562,0.032l0.563,0.026l0.571,0.026l2.813,0.163l0.563,0.039l0.563,0.032l1.125,0.078l0.555,0.039l1.125,0.078l0.563,0.045l0.563,0.039l0.554,0.046l1.125,0.09l0.555,0.046l0.562,0.052l0.555,0.045l0.563,0.052l0.554,0.052l0.563,0.052l1.109,0.104l0.554,0.058l0.563,0.052l1.663,0.175l0.554,0.065l0.547,0.059l0.695,0.078l0.339,0.032l0.348,0.039l0.347,0.032l0.348,0.039l1.779,0.163l0.364,0.032l0.356,0.033l0.364,0.032l0.364,0.026l0.364,0.032l0.364,0.026l0.372,0.033l0.365,0.026l0.372,0.026l0.364,0.026l1.49,0.104l0.364,0.019l0.372,0.026l0.372,0.019l0.381,0.026l0.372,0.02l0.365,0.019l0.372,0.02l0.381,0.019l0.744,0.039l0.364,0.02l0.373,0.013l0.372,0.019l0.373,0.013l0.372,0.02l0.364,0.013l0.372,0.013l0.729,0.026l0.372,0.013l0.364,0.012l0.364,0.007l0.356,0.013l0.364,0.006l0.356,0.013l0.364,0.007l1.067,0.019l1.043,0.02l0.348,-0l0.347,0.006l0.34,0l0.339,0.007l1.183,-0l0.157,0.006l0.158,0l0.165,0.007l0.306,0.006l0.34,0.02l0.355,0.013l0.381,0.019l0.397,0.02l0.414,0.026l0.43,0.026l0.877,0.052l0.447,0.032l0.447,0.026l0.439,0.032l0.43,0.033l0.422,0.032l0.406,0.033l0.388,0.032l0.199,0.02l0.182,0.019l0.182,0.013l0.182,0.02l0.174,0.019l0.182,0.02l0.174,0.019l0.182,0.026l0.198,0.026l0.216,0.032l0.223,0.039l0.182,0.039l0.182,0.033l0.224,0.052l0.289,0.078l0.381,0.116l0.232,0.085l0.579,0.246l0.008,0.007l0.976,0.558l0,0.007l1.01,0.876l0,0.006l0.703,0.993l0.009,0.007l0.455,1.317l-0,0.007l-0.042,1.564l0,0.007l-0.562,1.376l-0.861,1.051l0,0.006l-1.225,0.896l-0.008,0l-1.042,0.487l-0.017,0.006l-0.703,0.221l-0.257,0.072l-0.414,0.084l-0.306,0.045l-0.248,0.033l-0.19,0.019l-0.174,0.02l-0.166,0.013l-0.231,0.013l-0.232,0.006l-0.224,0.013l-0.215,0l-0.231,0.007l-0.472,-0l-2.259,-0.305l-0.24,-0.111l-0.273,-0.019l-0.397,-0.026l-0.406,-0.026l-0.794,-0.052l-0.381,-0.026l-0.372,-0.02l-0.34,-0.012l-0.322,-0.02l-0.282,-0.013l-0.248,-0.006l-0.199,-0.007l-0.057,-0.006l-1.167,-0l-0.364,-0.007l-0.381,0l-0.372,-0.006l-0.373,-0l-0.38,-0.007l-0.373,-0.006l-0.761,-0.013l-0.389,-0.013l-0.381,-0.007l-0.389,-0.006l-0.388,-0.013l-0.389,-0.007l-1.556,-0.052l-0.795,-0.026l-0.388,-0.013l-0.398,-0.019l-0.397,-0.013l-0.397,-0.02l-0.397,-0.013l-1.192,-0.058l-0.405,-0.019l-0.398,-0.02l-0.397,-0.026l-0.405,-0.019l-0.397,-0.026l-0.398,-0.02l-0.405,-0.026l-1.192,-0.078l-0.405,-0.026l-0.795,-0.052l-0.397,-0.032l-0.397,-0.026l-0.397,-0.032l-0.397,-0.026l-0.398,-0.033l-0.389,-0.032l-0.794,-0.065l-0.389,-0.039l-0.778,-0.065l-0.397,-0.039l-0.381,-0.032l-0.777,-0.078l-0.381,-0.039l-0.389,-0.039l-0.761,-0.078l-0.381,-0.045l-0.364,-0.039l-0.53,-0.059l-0.521,-0.058l-0.521,-0.052l-0.522,-0.059l-0.529,-0.052l-1.043,-0.103l-0.529,-0.052l-0.522,-0.052l-0.529,-0.046l-0.522,-0.052l-2.118,-0.181l-0.521,-0.046l-0.53,-0.039l-0.538,-0.039l-0.53,-0.045l-1.588,-0.117l-0.53,-0.032l-0.538,-0.039l-0.529,-0.033l-0.538,-0.032l-0.53,-0.039l-0.538,-0.033l-0.529,-0.032l-0.538,-0.026l-0.53,-0.032l-1.076,-0.052l-0.537,-0.033l-0.538,-0.026l-0.53,-0.026l-0.538,-0.019l-0.538,-0.026l-0.538,-0.02l-0.537,-0.026l-1.614,-0.058l-0.546,-0.019l-0.538,-0.02l-0.538,-0.013l-0.538,-0.019l-0.538,-0.013l-0.546,-0.013l-1.076,-0.026l-0.546,-0.013l-1.076,-0.026l-0.546,-0.007l-0.538,-0.006l-0.546,-0.007l-0.538,-0.013l-0.546,-0.006l-0.538,-0l-0.546,-0.007l-0.538,-0.006l-0.546,-0l-0.538,-0.007l-3.26,0l-0.546,0.007l-0.538,-0l-1.092,0.013l-0.538,0.006l-1.093,0.013l-0.537,0.007l-1.093,0.013l-0.538,0.013l-0.546,0.006l-0.546,0.013l-0.538,0.013l-1.092,0.026l-0.538,0.013l-0.546,0.013l-0.538,0.02l-0.546,0.013l-0.546,0.019l-0.538,0.013l-0.546,0.019l-0.538,0.02l-0.546,0.019l-0.538,0.02l-0.546,0.019l-0.538,0.02l-0.546,0.026l-1.076,0.039l-0.546,0.026l-0.538,0.026l-0.546,0.026l-1.076,0.052l-0.538,0.019l-0.546,0.032l-1.076,0.052l-0.538,0.033l-0.538,0.026l-0.546,0.032l-0.538,0.033l-0.538,0.026l-1.613,0.097l-0.53,0.032l-0.538,0.033l-0.538,0.039l-1.075,0.065l-0.53,0.039l-0.538,0.039l-0.529,0.032l-1.076,0.078l-0.803,0.058l-0.811,0.052l-1.622,0.117l-0.811,0.052l-0.802,0.052l-0.811,0.058l-1.622,0.104l-0.803,0.052l-1.622,0.104l-0.802,0.052l-0.811,0.045l-0.811,0.052l-0.803,0.046l-0.811,0.052l-0.811,0.045l-0.803,0.052l-0.811,0.045l-0.802,0.046l-0.811,0.045l-0.803,0.046l-0.811,0.045l-0.802,0.039l-0.811,0.046l-0.803,0.045l-0.811,0.039l-0.803,0.039l-0.811,0.045l-0.802,0.039l-0.811,0.039l-1.606,0.078l-0.811,0.039l-0.802,0.039l-0.811,0.039l-0.803,0.039l-1.614,0.071l-1.605,0.072l-1.614,0.071l-1.605,0.065l-1.614,0.065l-1.605,0.065l-1.614,0.058l-1.605,0.059l-1.614,0.058l-1.605,0.058l-1.605,0.052l-1.606,0.059l-1.605,0.045l-1.614,0.052l-6.421,0.182l-3.211,0.078l-1.605,0.045l-1.605,0.033l-1.606,0.039l-3.21,0.064l-1.598,0.033l-1.605,0.032l-4.816,0.078l-1.597,0.026l-1.605,0.026l-3.211,0.039l-1.597,0.026l-1.606,0.013l-1.605,0.02l-1.597,0.019l-1.605,0.013l-1.606,0.019l-1.597,0.013l-1.605,0.013l-1.605,0.007l-1.598,0.013l-1.605,0.013l-1.605,0.006l-1.597,0.007l-1.606,0.006l-1.597,0.007l-3.21,0.013l-1.598,-0l-1.605,0.006l-1.605,0l-1.597,0.007l-8.019,-0l-1.605,-0.007l-3.203,0l-3.21,-0.006l-3.203,-0.013l-3.211,-0.007l-12.842,-0.052l-12.86,-0.064l-9.657,-0.039l-3.219,-0.02l-3.227,-0.013l-3.227,-0.006l-3.227,-0.013l-6.455,-0.013l-1.622,-0.007l-1.614,0l-1.613,-0.006l-14.407,-0l-4.783,-0.007l-9.549,-0.013l-4.783,-0.006l-4.775,-0.007l-4.783,-0.006l-9.558,-0.013l-9.566,-0.02l-4.782,-0.006l-4.775,-0.007l-4.783,-0.006l-4.783,-0l-9.566,-0.013l-14.357,-0l-2.383,0.006l-4.792,0l-2.391,0.007l-2.392,-0l-4.783,0.013l-2.391,-0l-7.175,0.019l-2.391,0.013l-4.783,0.013l-19.132,0.104l-14.349,0.117l-2.391,0.026l-2.392,0.019l-4.783,0.052l-2.383,0.026l-2.391,0.033l-2.392,0.026l-7.174,0.097l-2.383,0.032l-2.392,0.039l-2.391,0.033l-4.783,0.078l-2.384,0.045l-2.391,0.039l-2.392,0.046l-2.383,0.045l-2.391,0.045l-2.383,0.046l-4.783,0.104l-2.384,0.045l-2.391,0.059l-2.383,0.051l-2.392,0.059l-2.383,0.058l-2.392,0.059l-2.383,0.065l-2.391,0.065l-4.767,0.129l-2.391,0.065l-4.767,0.143l-2.391,0.078l-2.383,0.071l-4.767,0.156l-4.766,0.169l-2.392,0.084l-2.383,0.085l-1.191,0.045l-1.192,0.039l-1.192,0.052l-5.958,0.227l-1.183,0.052l-1.2,0.045l-1.183,0.052l-1.192,0.046l-8.341,0.363l-1.183,0.052l-1.192,0.059l-1.191,0.051l-1.192,0.059l-1.192,0.052l-1.191,0.058l-1.184,0.059l-1.191,0.052l-1.192,0.064l-0.654,0.026l-1.307,0.065l-0.654,0.026l-0.653,0.033l-0.654,0.026l-0.662,0.026l-1.961,0.078l-0.654,0.019l-0.654,0.026l-0.654,0.019l-0.653,0.026l-0.662,0.02l-1.961,0.058l-0.654,0.013l-0.662,0.02l-0.654,0.019l-1.307,0.026l-0.662,0.02l-1.308,0.026l-0.662,0.006l-1.307,0.026l-0.654,0.007l-0.662,0.013l-0.654,0.006l-0.653,0.013l-0.662,0.007l-1.308,0.013l-0.662,-0l-0.654,0.006l-0.662,0.006l-0.653,0l-0.654,0.007l-1.316,-0l-0.662,0.006l-1.969,0l-0.654,-0.006l-1.316,-0l-0.662,-0.007l-0.653,0l-0.654,-0.006l-0.662,-0.006l-0.654,-0.007l-0.662,-0.006l-0.654,-0.007l-0.662,-0.006l-0.653,-0.007l-0.662,-0.006l-0.654,-0.013l-0.662,-0.007l-0.654,-0.013l-0.662,-0.006l-0.654,-0.013l-0.662,-0.013l-0.653,-0.007l-0.662,-0.013l-0.654,-0.013l-0.662,-0.013l-0.654,-0.013l-0.662,-0.019l-1.315,-0.026l-1.316,-0.033l-1.316,-0.039l-1.316,-0.032l-3.947,-0.117l-5.263,-0.182l-5.263,-0.207l-1.315,-0.059l-1.308,-0.052l-2.631,-0.116l-1.316,-0.065l-1.316,-0.059l-2.631,-0.13l-1.308,-0.064l-2.631,-0.13l-1.316,-0.072l-1.307,-0.065l-2.632,-0.142l-1.307,-0.072l-1.316,-0.071l-1.307,-0.078l-1.316,-0.071l-1.308,-0.078l-1.315,-0.078l-1.308,-0.072l-1.307,-0.078l-1.316,-0.077l-2.615,-0.156l-1.307,-0.085l-2.615,-0.155l-5.23,-0.325l-2.607,-0.169l-2.615,-0.162l-5.205,-0.331l-5.205,-0.324l-2.598,-0.169l-2.59,-0.162l-2.598,-0.163l-2.59,-0.155l-2.591,-0.163l-5.163,-0.311l-1.291,-0.072l-1.283,-0.078l-1.291,-0.071l-1.291,-0.078l-2.565,-0.143l-1.291,-0.071l-1.282,-0.071l-1.283,-0.065l-1.283,-0.072l-1.282,-0.065l-1.283,-0.071l-1.274,-0.065l-1.283,-0.065l-1.274,-0.058l-1.283,-0.065l-2.548,-0.117l-0.588,-0.032l-0.579,-0.026l-0.588,-0.02l-0.579,-0.026l-0.588,-0.026l-0.579,-0.026l-0.587,-0.019l-0.588,-0.026l-0.579,-0.02l-0.588,-0.019l-0.579,-0.026l-1.175,-0.039l-0.579,-0.019l-1.175,-0.039l-0.58,-0.013l-0.587,-0.02l-0.588,-0.013l-0.587,-0.019l-0.579,-0.013l-0.588,-0.02l-0.579,-0.013l-2.35,-0.052l-0.579,-0.013l-0.588,-0.013l-0.588,-0.006l-1.166,-0.02l-1.175,-0.019l-1.167,-0.02l-2.35,-0.025l-1.167,-0.013l-1.175,-0.013l-3.525,-0.02l-4.692,0l-1.175,0.007l-1.175,-0l-2.35,0.013l-1.175,0.013l-1.176,0.006l-3.525,0.039l-1.175,0.019l-1.175,0.013l-1.183,0.02l-3.525,0.058l-1.184,0.026l-1.175,0.02l-1.175,0.026l-1.183,0.026l-2.35,0.052l-1.183,0.026l-1.176,0.032l-1.183,0.026l-1.175,0.032l-1.183,0.026l-1.175,0.033l-1.182,0.032l-1.18,0.033l-1.18,0.039l-2.36,0.065l-1.18,0.039l-2.363,0.071l-2.361,0.071l-2.364,0.078l-2.363,0.072l-4.728,0.155l-2.366,0.078l-4.733,0.162l-2.366,0.078l-2.369,0.078l-2.367,0.078l-2.369,0.072l-2.369,0.077l-4.74,0.143l-1.186,0.039l-1.186,0.033l-1.185,0.032l-1.186,0.033l-1.186,0.032l-3.558,0.097l-1.186,0.033l-2.374,0.052l-1.186,0.032l-1.187,0.026l-1.187,0.026l-1.187,0.026l-1.188,0.02l-1.186,0.025l-1.188,0.02l-1.188,0.019l-1.187,0.02l-1.188,0.019l-1.187,0.02l-1.189,0.013l-1.187,0.019l-2.377,0.026l-1.188,0.007l-1.188,0.013l-1.189,0.006l-1.189,0.007l-1.188,0.006l-1.189,0.007l-2.372,-0l-2.265,-0.312l-1.991,-0.902l-1.48,-1.376l-0.788,-1.694l-0.002,-1.804l0.784,-1.694l1.476,-1.383l1.991,-0.902l2.264,-0.318l2.339,-0l2.335,-0.013l2.337,-0.013l1.169,-0.013l1.169,-0.006l3.51,-0.039l1.17,-0.02l1.171,-0.013l3.515,-0.058l1.173,-0.026l1.172,-0.02l1.173,-0.026l1.173,-0.026l1.175,-0.019l1.174,-0.033l2.348,-0.052l1.175,-0.025l3.528,-0.098l1.177,-0.032l1.176,-0.033l1.176,-0.032l1.178,-0.033l1.178,-0.032l1.177,-0.039l2.357,-0.065l2.359,-0.078l2.359,-0.071l2.361,-0.078l2.362,-0.078l2.363,-0.078l2.364,-0.078l4.733,-0.156l2.367,-0.077l2.369,-0.078l2.37,-0.078l2.371,-0.078l2.372,-0.078l2.375,-0.071l2.373,-0.072l1.188,-0.039l2.377,-0.065l1.188,-0.039l2.378,-0.064l1.187,-0.033l1.192,-0.026l2.383,-0.065l1.191,-0.026l1.184,-0.032l3.574,-0.078l1.192,-0.02l1.192,-0.025l1.191,-0.02l1.192,-0.026l1.2,-0.019l1.191,-0.02l1.192,-0.013l1.192,-0.019l1.191,-0.013l1.2,-0.02l1.192,-0.013l1.191,-0.006l1.2,-0.013l1.192,-0.013l1.2,-0.007l1.191,-0.006l1.192,-0l1.2,-0.007l4.783,0l1.2,0.007l1.191,0.006l1.2,0.007l2.4,0.026l1.191,0.013l1.2,0.013l3.6,0.058l0.596,0.013l0.604,0.013l0.596,0.013l0.604,0.013l0.595,0.013l0.605,0.013l0.595,0.013l0.604,0.013l0.596,0.019l0.604,0.013l0.596,0.02l0.604,0.013l0.596,0.019l0.604,0.02l0.596,0.019l0.604,0.02l0.596,0.019l0.604,0.02l0.596,0.019l0.604,0.02l0.604,0.026l0.596,0.019l0.604,0.026l0.595,0.02l1.209,0.051l0.595,0.026l0.604,0.026l0.596,0.026l0.604,0.026l1.291,0.065l1.291,0.059l2.582,0.129l1.299,0.065l2.582,0.13l1.299,0.072l1.291,0.064l1.299,0.072l1.291,0.071l2.598,0.143l1.291,0.078l1.3,0.071l1.299,0.078l1.299,0.072l1.291,0.077l7.795,0.468l2.598,0.162l2.607,0.162l2.598,0.163l2.599,0.168l5.205,0.325l5.213,0.331l2.607,0.162l2.598,0.169l2.606,0.162l2.607,0.156l2.607,0.162l2.598,0.156l1.308,0.078l2.598,0.156l1.307,0.077l1.3,0.072l1.299,0.078l1.307,0.071l1.299,0.078l2.599,0.143l1.307,0.065l2.599,0.143l1.299,0.064l1.299,0.072l2.598,0.13l1.299,0.058l1.3,0.065l6.496,0.292l1.299,0.052l1.291,0.052l2.598,0.104l1.291,0.052l1.299,0.045l1.291,0.046l1.299,0.045l1.291,0.039l1.299,0.039l2.582,0.078l1.291,0.032l1.299,0.033l2.582,0.065l3.873,0.077l0.637,0.013l0.645,0.007l0.646,0.013l0.645,0.006l0.646,0.013l0.645,0.007l0.637,0.006l2.582,0.026l0.637,0.007l0.646,0.006l0.637,0.007l0.645,-0l0.646,0.006l1.282,0l0.646,0.007l1.92,-0l0.645,-0.007l1.283,0l0.637,-0.006l0.645,-0l0.638,-0.007l0.637,0l0.645,-0.006l1.275,-0.013l0.645,-0.007l0.637,-0.013l1.274,-0.013l0.638,-0.013l0.645,-0.006l3.823,-0.078l0.637,-0.02l0.638,-0.012l0.637,-0.02l0.637,-0.013l3.186,-0.097l0.637,-0.026l0.629,-0.02l0.637,-0.026l0.637,-0.019l0.629,-0.026l1.274,-0.052l0.629,-0.026l0.638,-0.026l0.637,-0.032l0.629,-0.026l0.637,-0.033l0.637,-0.026l1.192,-0.058l1.199,-0.059l1.192,-0.058l2.4,-0.117l1.2,-0.052l1.191,-0.058l2.4,-0.104l1.2,-0.058l1.192,-0.052l4.799,-0.208l1.192,-0.046l2.399,-0.103l1.2,-0.046l1.2,-0.052l2.4,-0.091l1.192,-0.052l3.599,-0.136l1.2,-0.039l1.2,-0.045l2.391,-0.091l4.8,-0.169l2.391,-0.078l2.4,-0.084l2.4,-0.071l2.4,-0.078l2.399,-0.072l2.392,-0.078l2.4,-0.065l2.399,-0.071l2.4,-0.065l2.392,-0.065l4.799,-0.13l7.199,-0.175l2.4,-0.052l2.4,-0.058l2.391,-0.052l2.4,-0.052l2.4,-0.045l2.4,-0.052l7.199,-0.137l2.391,-0.039l2.4,-0.039l2.4,-0.045l2.4,-0.032l2.4,-0.039l2.399,-0.033l2.4,-0.039l2.4,-0.032l2.391,-0.033l2.4,-0.032l4.8,-0.052l2.399,-0.032l2.4,-0.026l2.4,-0.02l2.391,-0.026l2.4,-0.026l7.199,-0.058l2.392,-0.02l2.4,-0.019l2.399,-0.013l2.4,-0.02l2.392,-0.013l7.199,-0.039l2.391,-0.013l4.8,-0.026l2.391,-0.006l2.4,-0.006l2.4,-0.013l2.391,-0.007l2.4,-0.006l2.392,-0.007l2.399,0l2.4,-0.006l2.392,-0.007l2.399,0l2.392,-0.006l4.791,-0l2.392,-0.007l14.373,0l4.783,0.007l4.791,0.006l4.783,0l9.566,0.013l4.792,0.007l9.557,0.019l9.566,0.013l28.648,0.039l14.415,-0l1.622,0.006l1.622,0l1.622,0.007l6.471,0.013l6.471,0.026l3.228,0.006l3.227,0.02l3.219,0.013l6.446,0.026l6.43,0.032l6.421,0.033l3.211,0.013l3.202,0.013l3.211,0.013l3.202,0.013l3.203,0.006l3.194,0.013l3.202,0.007l3.195,-0l1.597,0.006l7.985,0l1.589,-0.006l1.597,-0l1.597,-0.007l1.597,0l1.589,-0.006l1.597,-0.007l1.589,-0.006l3.194,-0.013l1.589,-0.007l1.597,-0.013l1.589,-0.013l1.597,-0.006l3.177,-0.026l1.597,-0.02l1.589,-0.013l1.589,-0.019l1.597,-0.013l3.178,-0.039l1.589,-0.026l1.597,-0.02l7.944,-0.129l1.597,-0.033l6.355,-0.13l6.355,-0.155l1.589,-0.046l1.597,-0.045l4.766,-0.137l4.767,-0.155l4.766,-0.176l1.597,-0.058l4.767,-0.195l1.589,-0.071l1.597,-0.065l1.588,-0.078l0.795,-0.032l3.178,-0.156l0.802,-0.039l2.383,-0.117l0.795,-0.045l0.794,-0.039l0.803,-0.039l1.589,-0.091l0.794,-0.039l0.794,-0.045l0.803,-0.046l2.383,-0.136l0.795,-0.052l0.802,-0.046l0.795,-0.045l0.794,-0.052l0.795,-0.045l0.802,-0.052l1.589,-0.104l0.803,-0.046l0.794,-0.058l0.795,-0.052l0.802,-0.052l1.589,-0.104l0.795,-0.058l0.802,-0.052l0.795,-0.058l0.802,-0.059l0.546,-0.039l0.555,-0.039l0.546,-0.032l1.663,-0.117l0.546,-0.032l0.555,-0.033l0.554,-0.039l2.772,-0.162l0.563,-0.033l1.109,-0.064l0.563,-0.026l0.554,-0.033l0.555,-0.026l0.562,-0.026l0.563,-0.032l0.554,-0.026l0.563,-0.026l0.554,-0.026l0.563,-0.02l0.555,-0.026l0.562,-0.026l0.563,-0.019l0.563,-0.026l1.688,-0.058l0.554,-0.02l0.563,-0.026l0.563,-0.013l1.125,-0.039l0.563,-0.013l0.571,-0.019l3.376,-0.078l0.571,-0.013l0.563,-0.007l0.562,-0.013l0.563,-0.006l0.571,-0.006l1.125,-0.013l0.571,-0.007l1.126,-0.013l0.571,0l0.562,-0.006Z" style="fill:#fff;"/><path d="M1720.94,38.148l-0,0.001l2.102,0.715l-0,0.002l1.431,1.002l0,0.002l0.894,1.084l-0,0.007l0.405,0.836l0.009,0.01l0.14,0.478l0.042,0.173l0.041,0.288l0.017,0.201l0.008,0.155l0.008,0.135l0,0.078l-0.38,1.778l-0.017,0.018l-0.017,0.122l-0.033,0.159l-0.033,0.173l-0.025,0.185l-0.033,0.196l-0.033,0.208l-0.033,0.22l-0.041,0.23l-0.033,0.241l-0.033,0.251l-0.034,0.262l-0.041,0.272l-0.033,0.282l-0.041,0.291l-0.034,0.301l-0.041,0.31l-0.033,0.319l-0.041,0.327l-0.033,0.337l-0.034,0.345l-0.041,0.353l-0.033,0.362l-0.033,0.369l-0.033,0.377l-0.033,0.385l-0.033,0.391l-0.034,0.401l-0.033,0.406l-0.024,0.414l-0.034,0.42l-0.024,0.427l-0.025,0.433l-0.025,0.44l-0.025,0.445l-0.025,0.452l-0.016,0.457l-0.025,0.463l-0.017,0.468l-0.016,0.474l-0.008,0.479l-0.017,0.484l-0.008,0.487l-0.009,0.494l0,0.497l-0.008,0.502l0,1.958l-0.008,0.727l-0,0.726l-0.008,0.725l-0,0.727l-0.009,0.725l-0.008,0.727l-0.016,1.451l-0.017,0.726l-0.017,1.451l-0.016,0.725l-0.017,0.725l-0.008,0.725l-0.016,0.726l-0.017,0.725l-0.025,0.726l-0.016,0.725l-0.017,0.724l-0.025,0.725l-0.016,0.725l-0.025,0.724l-0.025,0.725l-0.017,0.725l-0.049,1.448l-0.025,0.725l-0.033,0.724l-0.05,1.449l-0.033,0.723l-0.025,0.724l-0.033,0.724l-0.025,0.723l-0.066,1.449l-0.066,1.445l-0.066,1.447l-0.066,1.446l-0.224,4.337l-0.074,1.444l-0.166,2.888l-0.083,1.443l-0.165,2.886l-0.091,1.439l-0.041,0.657l-0.034,0.654l-0.041,0.655l-0.033,0.654l-0.033,0.655l-0.033,0.654l-0.1,1.965l-0.024,0.656l-0.033,0.654l-0.05,1.311l-0.025,0.655l-0.025,0.657l-0.025,0.655l-0.016,0.656l-0.025,0.656l-0.033,1.312l-0.025,0.656l-0.016,0.656l-0.017,0.657l-0.008,0.656l-0.033,1.314l-0.009,0.656l-0.016,0.657l-0.017,1.314l-0.008,0.657l-0.008,0.657l-0.009,0.658l0,0.657l-0.008,0.658l0,0.657l-0.008,0.658l-0,3.948l0.008,0.659l0,0.658l0.008,0.658l0,0.659l0.034,2.635l0.008,0.659l0.008,0.659l0.008,0.659l0.009,0.659l0.033,1.319l0.008,0.66l0.033,1.319l0.008,0.66l0.017,0.66l0.016,0.66l0.025,0.66l0.05,1.98l0.025,0.659l0.041,1.322l0.042,1.322l0.099,2.643l0.049,1.322l0.058,1.323l0.05,1.322l0.058,1.323l0.058,1.324l0.066,1.323l0.058,1.324l0.066,1.324l0.075,1.324l0.066,1.325l0.066,1.325l0.224,3.976l0.074,1.326l0.083,1.327l0.074,1.329l0.083,1.324l0.083,1.33l0.165,2.648l0.166,2.661l0.091,1.324l0.083,1.331l0.091,1.331l0.173,2.654l0.364,5.322l0.174,2.655l0.364,5.329l0.364,5.322l0.182,2.667l0.174,2.661l0.091,1.337l0.091,1.331l0.083,1.331l0.083,1.337l0.083,1.33l0.091,1.331l0.082,1.337l0.075,1.33l0.083,1.337l0.082,1.331l0.075,1.337l0.082,1.33l0.149,2.674l0.075,1.331l0.066,1.337l0.066,1.331l0.075,1.337l0.066,1.337l0.058,1.33l0.066,1.337l0.058,1.337l0.058,1.331l0.116,2.674l0.049,1.337l0.05,1.331l0.05,1.337l0.083,2.674l0.024,0.668l0.033,1.337l0.025,0.669l0.017,0.662l0.066,2.674l0.008,0.668l0.033,1.337l0.017,1.337l0.016,0.669l0.017,1.337l0.008,0.662l0.025,2.006l0,0.668l0.008,0.669l0,0.668l0.009,0.669l-0,2.803l0.008,0.396l-0,0.799l0.008,0.402l0.009,0.396l-0,0.402l0.008,0.396l0.008,0.403l0.008,0.396l0.009,0.402l0.016,0.396l0.008,0.402l0.009,0.396l0.016,0.403l0.009,0.396l0.016,0.402l0.008,0.396l0.017,0.402l0.033,0.799l0.033,0.805l0.041,0.798l0.034,0.798l0.041,0.805l0.041,0.798l0.05,0.805l0.041,0.798l0.1,1.61l0.049,0.798l0.1,1.61l0.058,0.805l0.049,0.805l0.058,0.805l0.464,6.464l0.115,1.623l0.108,1.622l0.058,0.818l0.058,0.811l0.058,0.818l0.049,0.811l0.05,0.818l0.058,0.818l0.05,0.818l0.041,0.818l0.05,0.817l0.041,0.818l0.05,0.818l0.041,0.824l0.033,0.825l0.041,0.817l0.067,1.649l0.016,0.415l0.017,0.409l0.008,0.416l0.017,0.415l0.008,0.409l0.016,0.415l0.017,0.831l0.017,0.416l0.008,0.408l0.016,0.831l0,0.416l0.017,0.83l-0,0.416l0.008,0.422l0,1.395l0.008,0.097l0,0.221l0.009,0.13l0.008,0.136l0.008,0.15l0.017,0.311l0.025,0.357l0.024,0.383l0.034,0.409l0.033,0.435l0.041,0.461l0.041,0.48l0.042,0.5l0.049,0.519l0.05,0.539l0.05,0.551l0.058,0.571l0.058,0.578l0.066,0.597l0.058,0.604l0.066,0.61l0.132,1.246l0.075,0.636l0.066,0.636l0.075,0.636l0.074,0.643l0.223,1.908l0.083,0.63l0.075,0.623l0.074,0.616l0.075,0.61l0.082,0.598l0.075,0.584l0.074,0.577l0.075,0.559l0.074,0.545l0.075,0.532l0.066,0.506l0.074,0.493l0.067,0.468l0.066,0.441l0.066,0.422l0.058,0.35l0.372,0.507l0.389,1.778l0,0.344l-0.008,0.175l-0.008,0.169l-0.017,0.351l-0.016,0.175l-0.017,0.123l-0.017,0.111l-0.016,0.116l-0.025,0.15l-0.033,0.162l-0.05,0.182l-0.074,0.233l-0.108,0.312l-0.182,0.396l-0.132,0.214l-0.422,0.604l-0.008,0.013l-0.646,0.662l-0.008,0.006l-0.546,0.422l-0,0.006l-0.82,0.481l-1.166,0.467l-1.142,0.26l-1.622,0.084l-0.008,-0l-1.324,-0.162l-1.151,-0.331l-0.008,-0l-1.167,-0.558l-0.008,-0.007l-0.993,-0.727l-0.008,-0.006l-0.505,-0.52l-0.174,-0.201l-0.248,-0.35l-0.157,-0.273l-0.116,-0.214l-0.083,-0.182l-0.074,-0.156l-0.058,-0.155l-0.067,-0.195l-0.066,-0.188l-0.049,-0.169l-0.042,-0.156l-0.033,-0.156l-0.041,-0.149l-0.033,-0.149l-0.067,-0.312l-0.066,-0.324l-0.033,-0.169l-0.033,-0.175l-0.025,-0.182l-0.033,-0.188l-0.066,-0.39l-0.066,-0.408l-0.075,-0.435l-0.066,-0.455l-0.074,-0.473l-0.075,-0.494l-0.074,-0.519l-0.075,-0.526l-0.074,-0.551l-0.075,-0.565l-0.074,-0.578l-0.083,-0.59l-0.075,-0.597l-0.082,-0.617l-0.075,-0.617l-0.082,-0.636l-0.075,-0.636l-0.074,-0.642l-0.083,-0.643l-0.149,-1.298l-0.075,-0.656l-0.149,-1.298l-0.074,-0.642l-0.132,-1.272l-0.067,-0.63l-0.066,-0.617l-0.066,-0.603l-0.058,-0.597l-0.058,-0.591l-0.058,-0.571l-0.049,-0.552l-0.05,-0.545l-0.05,-0.519l-0.041,-0.506l-0.042,-0.487l-0.033,-0.468l-0.033,-0.447l-0.033,-0.422l-0.025,-0.403l-0.008,-0.194l-0.016,-0.182l-0.017,-0.364l-0.017,-0.337l0,-0.162l-0.008,-0.156l0,-1.499l-0.008,-0.403l-0,-0.396l-0.008,-0.402l-0,-0.396l-0.009,-0.402l-0.008,-0.396l-0.008,-0.403l-0.008,-0.396l-0.009,-0.402l-0.016,-0.396l-0.009,-0.402l-0.008,-0.396l-0.016,-0.403l-0.009,-0.402l-0.016,-0.396l-0.009,-0.403l-0.016,-0.395l-0.033,-0.805l-0.033,-0.799l-0.042,-0.798l-0.033,-0.798l-0.041,-0.805l-0.041,-0.798l-0.042,-0.805l-0.05,-0.805l-0.049,-0.798l-0.199,-3.22l-0.058,-0.804l-0.049,-0.805l-0.174,-2.415l-0.232,-3.232l-0.232,-3.245l-0.107,-1.623l-0.116,-1.622l-0.058,-0.818l-0.05,-0.818l-0.049,-0.811l-0.058,-0.818l-0.05,-0.818l-0.041,-0.818l-0.05,-0.818l-0.041,-0.817l-0.05,-0.825l-0.041,-0.817l-0.033,-0.825l-0.042,-0.824l-0.033,-0.818l-0.033,-0.824l-0.033,-0.831l-0.008,-0.409l-0.017,-0.415l-0.008,-0.416l-0.017,-0.408l-0.016,-0.831l-0.017,-0.416l-0.008,-0.415l-0.008,-0.409l-0.009,-0.415l0,-0.416l-0.016,-0.83l-0,-0.838l-0.008,-0.415l-0,-2.804l-0.009,-0.662l0,-0.656l-0.008,-0.655l0,-0.662l-0.008,-0.656l-0.008,-0.662l-0.009,-0.655l-0.008,-0.662l-0.008,-0.656l-0.009,-0.662l-0.016,-0.655l-0.008,-0.662l-0.009,-0.656l-0.016,-0.662l-0.008,-0.662l-0.017,-0.655l-0.033,-1.325l-0.017,-0.655l-0.033,-1.324l-0.016,-0.656l-0.025,-0.662l-0.017,-0.662l-0.016,-0.655l-0.042,-1.324l-0.049,-1.318l-0.042,-1.324l-0.049,-1.324l-0.058,-1.318l-0.05,-1.324l-0.058,-1.324l-0.058,-1.317l-0.116,-2.648l-0.198,-3.972l-0.075,-1.325l-0.066,-1.324l-0.074,-1.33l-0.224,-3.972l-0.074,-1.331l-0.166,-2.648l-0.074,-1.331l-0.083,-1.324l-0.091,-1.33l-0.083,-1.324l-0.165,-2.661l-0.091,-1.324l-0.091,-1.331l-0.174,-2.654l-0.182,-2.662l-0.174,-2.661l-0.91,-13.305l-0.182,-2.668l-0.174,-2.661l-0.091,-1.337l-0.083,-1.33l-0.091,-1.331l-0.083,-1.337l-0.082,-1.33l-0.083,-1.338l-0.083,-1.33l-0.083,-1.337l-0.082,-1.331l-0.083,-1.335l-0.074,-1.334l-0.075,-1.334l-0.083,-1.334l-0.066,-1.335l-0.149,-2.669l-0.331,-6.675l-0.058,-1.335l-0.116,-2.672l-0.049,-1.335l-0.058,-1.336l-0.042,-1.335l-0.049,-1.336l-0.05,-1.336l-0.041,-1.335l-0.017,-0.669l-0.025,-0.668l-0.016,-0.668l-0.017,-0.668l-0.016,-0.669l-0.017,-0.668l-0.016,-0.668l-0.033,-1.336l-0.017,-0.668l-0.008,-0.668l-0.017,-0.669l-0.008,-0.668l-0.017,-0.668l-0.008,-0.669l-0.008,-0.668l-0.017,-1.337l-0.008,-0.667l-0.017,-1.338l0,-0.667l-0.008,-0.669l0,-0.668l-0.008,-0.669l-0,-4.01l0.008,-0.668l0,-0.669l0.008,-0.668l0,-0.669l0.009,-0.668l0.008,-0.668l0.016,-1.337l0.017,-0.669l0.017,-1.337l0.016,-0.668l0.017,-0.668l0.082,-3.343l0.025,-0.668l0.017,-0.669l0.099,-2.674l0.025,-0.668l0.025,-0.668l0.033,-0.669l0.025,-0.668l0.099,-2.006l0.033,-0.668l0.033,-0.669l0.042,-0.668l0.033,-0.668l0.041,-0.669l0.041,-0.665l0.083,-1.438l0.091,-1.435l0.083,-1.434l0.083,-1.435l0.074,-1.435l0.083,-1.434l0.074,-1.434l0.224,-4.302l0.066,-1.433l0.066,-1.433l0.066,-1.435l0.034,-0.716l0.033,-0.716l0.024,-0.717l0.034,-0.716l0.024,-0.716l0.033,-0.717l0.025,-0.716l0.05,-1.433l0.074,-2.148l0.025,-0.716l0.025,-0.715l0.017,-0.716l0.024,-0.716l0.034,-1.432l0.024,-0.715l0.017,-0.716l0.05,-2.146l0.008,-0.716l0.016,-0.715l0.009,-0.715l0.016,-0.715l0.008,-0.715l0.017,-1.431l0.017,-1.429l-0,-0.714l0.008,-0.716l-0,-0.714l0.008,-0.715l0,-1.971l0.008,-0.539l0,-0.533l0.009,-0.528l0.016,-0.524l0.009,-0.519l0.016,-0.513l0.017,-0.507l0.016,-0.501l0.025,-0.496l0.017,-0.49l0.024,-0.483l0.025,-0.478l0.025,-0.471l0.033,-0.465l0.025,-0.457l0.033,-0.451l0.033,-0.444l0.033,-0.436l0.033,-0.429l0.033,-0.422l0.042,-0.415l0.033,-0.406l0.033,-0.399l0.041,-0.39l0.042,-0.383l0.041,-0.374l0.033,-0.364l0.042,-0.358l0.041,-0.349l0.041,-0.338l0.042,-0.331l0.041,-0.322l0.041,-0.312l0.034,-0.302l0.041,-0.293l0.041,-0.284l0.042,-0.274l0.041,-0.264l0.041,-0.256l0.034,-0.244l0.041,-0.236l0.041,-0.224l0.033,-0.215l0.042,-0.207l0.033,-0.198l0.041,-0.187l0.033,-0.18l0.033,-0.171l0.042,-0.166l0.033,-0.161l0.041,-0.158l0.042,-0.166l0.049,-0.176l0.058,-0.184l0.05,-0.138l0.05,-0.146l0.082,-0.183l0.108,-0.234l0.074,-0.139l0.257,-0.42l0.008,-0.01l0.538,-0.661l0.008,-0.008l0.869,-0.738l0,-0.002l1.299,-0.713l0,-0.002l2.036,-0.542l0,-0l1.324,-0.068l1.316,0.14Zm-7.15,7.886l0.248,0.233l-0.579,-0.773l0.331,0.54Zm-0.993,-2.641l0,0.095l0.008,0.107l0.017,0.159l0.041,0.253l0.091,0.387l0.232,0.649l-0.389,-1.65Z" style="fill:#fff;"/><path d="M1720.79,61.402l0,242.513l-808.416,0l-0,-242.513l808.416,-0Zm-373.678,188.213c1.251,-0 1.877,-0.677 1.877,-2.03l-0,-149.759c-0,-1.053 -0.548,-1.579 -1.643,-1.579l-34.257,0c-1.095,0 -1.642,0.602 -1.642,1.804l-0,147.73c-0,2.556 0.86,3.834 2.581,3.834l33.084,-0Zm75.788,-30.448l0,-121.341c0,-1.053 -0.547,-1.579 -1.642,-1.579l-34.257,0c-1.095,0 -1.643,0.602 -1.643,1.804l0,149.985c0,1.052 0.86,1.579 2.581,1.579l99.018,-0c1.408,-0 2.229,-0.339 2.464,-1.015c0.235,-0.677 0.352,-1.541 0.352,-2.594l-0,-23.682c-0,-0.601 -0.196,-1.278 -0.587,-2.03c-0.391,-0.751 -1.29,-1.127 -2.698,-1.127l-63.588,-0Zm-348.205,30.448c6.414,-0 12.279,-0.602 17.598,-1.805c5.318,-1.203 9.855,-3.044 13.609,-5.525c3.754,-2.481 6.687,-5.639 8.799,-9.473c2.112,-3.834 3.168,-8.458 3.168,-13.871l-0,-26.388c-0,-4.511 -1.76,-8.533 -5.28,-12.066c-3.519,-3.534 -8.017,-6.052 -13.492,-7.556l0,-1.579c6.101,-2.857 10.559,-5.902 13.375,-9.134c2.816,-3.233 4.223,-7.481 4.223,-12.743l0,-23.457c0,-5.112 -0.938,-9.51 -2.815,-13.194c-1.877,-3.683 -4.458,-6.766 -7.743,-9.247c-3.285,-2.481 -7.118,-4.323 -11.498,-5.526c-4.38,-1.202 -9.151,-1.804 -14.313,-1.804l-79.777,0c-2.19,0 -3.52,0.414 -3.989,1.241c-0.47,0.827 -0.704,1.917 -0.704,3.27l-0,143.218c-0,3.759 1.486,5.639 4.458,5.639l74.381,-0Zm164.717,-0c10.324,-0 18.85,-2.895 25.576,-8.684c6.726,-5.788 10.089,-14.998 10.089,-27.628l0,-114.124c0,-1.955 -0.782,-2.932 -2.346,-2.932l-32.85,0c-1.251,0 -1.955,0.376 -2.111,1.128c-0.157,0.752 -0.235,1.729 -0.235,2.932l-0,111.868c-0,2.406 -0.274,4.172 -0.821,5.3c-0.548,1.128 -1.76,1.692 -3.637,1.692l-42.47,-0c-1.251,-0 -2.346,-0.564 -3.285,-1.692c-0.939,-1.128 -1.408,-3.045 -1.408,-5.751l0,-112.77c0,-0.903 -0.352,-1.579 -1.056,-2.03c-0.704,-0.451 -1.212,-0.677 -1.525,-0.677l-30.972,0c-1.095,0 -2.034,0.226 -2.816,0.677c-0.782,0.451 -1.173,1.579 -1.173,3.383l-0,116.604c-0,4.962 0.821,9.473 2.463,13.533c1.643,4.059 3.872,7.518 6.688,10.375c2.815,2.856 6.061,5.037 9.737,6.54c3.676,1.504 7.548,2.256 11.615,2.256l60.537,-0Zm339.759,-0c17.832,-0 31.833,-4.21 42,-12.631c10.168,-8.42 15.252,-21.2 15.252,-38.341l-0,-51.198c-0,-8.42 -1.369,-15.826 -4.106,-22.216c-2.738,-6.39 -6.531,-11.728 -11.38,-16.013c-4.85,-4.286 -10.559,-7.518 -17.129,-9.699c-6.57,-2.18 -13.687,-3.27 -21.352,-3.27l-68.046,0c-2.19,0.301 -3.52,0.789 -3.989,1.466c-0.469,0.677 -0.704,1.692 -0.704,3.045l0,143.218c0,3.759 1.486,5.639 4.458,5.639l64.996,-0Zm-511.985,-64.054c5.475,0 9.034,1.09 10.676,3.271c1.643,2.18 2.464,5.225 2.464,9.134l0,11.728c0,7.668 -3.911,11.503 -11.732,11.503l-35.196,-0l0,-35.636l33.788,0Zm505.649,-58.866c3.755,0 7.196,0.301 10.325,0.902c3.128,0.602 5.866,1.692 8.212,3.271c2.346,1.578 4.184,3.721 5.514,6.427c1.33,2.707 1.994,6.165 1.994,10.375l0,50.973c0,6.465 -1.759,11.502 -5.279,15.111c-3.52,3.608 -8.799,5.413 -15.838,5.413l-30.503,-0l-0,-92.472l25.575,0Zm-507.995,-1.579c4.224,0 7.86,0.79 10.911,2.368c3.05,1.579 4.575,4.774 4.575,9.586l0,10.6c0,4.06 -0.704,6.879 -2.112,8.458c-1.407,1.579 -3.519,2.368 -6.335,2.368l-38.481,0l0,-33.38l31.442,0Z" style="fill:#fff;"/><g><path d="M265.876,198.118c0.005,8.003 -7.111,15.331 -21.348,21.986c-32.271,14.94 -68.48,23.779 -108.626,26.517c-4.883,0.275 -9.358,0.413 -13.427,0.416c-28.619,0.018 -42.933,-7.772 -42.943,-23.37c-0.003,-3.798 1.012,-8.003 3.044,-12.616c2.708,-6.512 7.318,-9.431 13.829,-8.757c6.511,0.81 9.361,3.792 8.55,8.946c-0.54,3.256 0.241,5.934 2.345,8.035c2.104,2.101 4.851,3.286 8.242,3.555c16.548,1.346 40.147,-1.653 70.795,-8.996c7.459,-2.039 18.85,-5.03 34.174,-8.973c8.815,-2.176 13.56,-5.027 14.236,-8.554c0.541,-3.256 -1.36,-5.899 -5.701,-7.931c-3.392,-1.49 -6.851,-2.302 -10.378,-2.435c-17.633,-0.938 -43.946,-2.075 -78.941,-3.409l-43.335,-0.787c-9.223,-0.129 -16.209,-0.464 -20.956,-1.004c-9.495,-0.943 -16.142,-2.838 -19.942,-5.684c-5.971,-4.336 -9.57,-12.947 -10.799,-25.831c-0.41,-4.476 5.894,-9.159 18.912,-14.05c17.899,-6.793 38.308,-12.977 61.227,-18.553c29.428,-6.936 55.466,-12.784 78.114,-17.546c2.577,-0.544 5.357,-0.613 8.341,-0.208c2.713,0.405 4.682,3.659 5.906,9.762c0.273,1.763 0.409,3.458 0.41,5.086c0.003,3.39 -1.148,6.748 -3.452,10.073c-2.304,3.324 -5.083,5.326 -8.338,6.007c-3.12,-1.219 -6.172,-2.506 -9.157,-3.86c-2.713,-0.948 -6.24,-1.081 -10.58,-0.4c-30.379,5.037 -57.773,11.226 -82.182,18.565c-14.239,4.35 -21.358,7.813 -21.356,10.39c-0.135,1.763 4.817,2.845 14.854,3.246c5.29,0.268 12.275,0.331 20.955,0.19c7.053,-0.005 13.564,0.059 19.532,0.191c47.337,1.191 79.687,4.019 97.051,8.484c8.139,2.165 15.059,5.823 20.759,10.973c6.785,5.964 10.181,12.811 10.185,20.542Z" style="fill:#fff;fill-rule:nonzero;"/><path d="M422.525,97.311c0.817,4.611 0.48,8.003 -1.011,10.174c-1.49,2.171 -4.541,3.461 -9.152,3.871c-18.581,1.639 -46.384,4.641 -83.41,9.004c3.814,24.683 6.61,49.367 8.389,74.051c0.821,11.528 1.304,25.363 1.45,41.503c0.009,15.191 -0.39,27.602 -1.197,37.232c-0.673,8.274 -3.994,11.464 -9.963,9.569c-9.497,-2.978 -13.976,-7.994 -13.438,-15.047c0.135,-2.306 1.285,-5.426 3.453,-9.361c1.897,-3.528 2.912,-6.648 3.046,-9.361c0.531,-18.039 0.113,-36.485 -1.256,-55.337c-1.642,-22.922 -4.029,-44.893 -7.162,-65.914c-0.136,-0.678 -0.544,-2.102 -1.223,-4.272c-25.225,4.628 -44.346,10.269 -57.363,16.923c-2.305,1.086 -4.202,3.122 -5.692,6.107c-1.897,3.392 -3.523,5.699 -4.879,6.92c-2.44,2.036 -5.559,2.784 -9.357,2.244c-3.663,-0.54 -6.886,-3.352 -9.669,-8.437c-2.784,-5.084 -3.295,-9.119 -1.534,-12.104c1.491,-2.443 3.456,-4.614 5.896,-6.514c13.557,-10.724 39.728,-19.828 78.515,-27.312c1.761,-2.85 4.676,-4.683 8.745,-5.499c3.933,-0.681 6.714,0.199 8.343,2.64c11.799,-1.907 23.394,-3.609 34.787,-5.108l31.125,-3.886c2.713,-0.408 5.764,-1.597 9.153,-3.566c3.39,-1.969 6.17,-3.089 8.34,-3.362c8.137,-1.226 13.158,3.722 15.064,14.842Z" style="fill:#fff;fill-rule:nonzero;"/><path d="M609.371,134.018c0.545,2.713 0.817,5.086 0.819,7.121c0.004,6.51 -2.706,10.513 -8.131,12.008c-2.712,0.68 -5.764,0.682 -9.155,0.006c-3.663,-0.676 -6.782,-0.742 -9.359,-0.198c-49.092,11.696 -106.862,27.669 -173.31,47.921c0.001,0.678 -0.134,1.424 -0.405,2.238c-0.947,4.069 -1.081,7.392 -0.401,9.969c1.496,5.831 9.84,9.42 25.031,10.767c5.969,0.539 11.801,0.671 17.497,0.396c5.426,-0.275 9.359,-0.616 11.8,-1.025c26.988,-4.628 56.821,-14.887 89.499,-30.777c2.44,-1.222 4.711,-3.156 6.812,-5.803c2.1,-2.646 3.896,-4.444 5.388,-5.395c2.576,-1.493 5.627,-1.834 9.154,-1.023c3.527,0.948 6.31,4.269 8.348,9.964c1.087,2.984 1.631,5.425 1.632,7.323c0.002,1.899 -0.472,3.392 -1.421,4.477c-1.898,2.172 -4.134,4.004 -6.71,5.498c-13.423,7.739 -31.051,15.278 -52.883,22.616c-20.612,6.93 -39.123,11.825 -55.533,14.683c-10.307,1.77 -19.665,2.658 -28.075,2.663c-26.448,0.017 -42.188,-9.4 -47.218,-28.25c-1.088,-4.068 -1.633,-8.205 -1.635,-12.409c-0.407,0.136 -1.628,0.475 -3.662,1.019c-2.712,0.816 -5.492,1.089 -8.341,0.819c-2.713,-0.269 -4.749,-3.455 -6.109,-9.558c-1.089,-5.018 -0.583,-9.46 1.517,-13.327c2.1,-3.867 5.659,-6.209 10.677,-7.026c2.17,-0.272 6.103,-0.411 11.8,-0.414c1.083,-3.12 3.114,-8.683 6.093,-16.687c0.271,-0.814 0.406,-1.492 0.405,-2.035c-0.001,-2.034 -1.697,-3.186 -5.088,-3.455c-4.34,-0.133 -6.715,-2.166 -7.125,-6.099c-0.409,-3.526 0.064,-7.189 1.418,-10.987c1.624,-4.477 3.996,-6.92 7.116,-7.329c2.441,-0.815 6.849,-1.157 13.223,-1.026c5.968,0.132 10.308,-0.277 13.02,-1.229c63.597,-24.182 108.687,-37.232 135.27,-39.147c4.612,-0.41 7.935,0.164 9.971,1.723c2.035,1.558 3.326,4.711 3.871,9.458c1.227,10.578 -2.228,16.209 -10.365,16.893c-2.984,0.273 -6.307,0.071 -9.97,-0.604c-3.255,-0.677 -8.002,-0.47 -14.241,0.619c-4.882,0.817 -9.764,1.634 -14.647,2.451c-11.799,1.635 -31.055,7.343 -57.769,17.126c-13.425,4.891 -27.662,10.8 -42.713,17.727c-1.354,3.934 -3.453,9.836 -6.296,17.704c0,0.407 -0.135,0.814 -0.406,1.221c58.72,-14.55 117.439,-31.066 176.157,-49.549c2.712,-0.816 5.492,-1.089 8.341,-0.819c2.713,0.405 4.749,3.659 6.109,9.761Z" style="fill:#fff;fill-rule:nonzero;"/><path d="M762.195,97.097c0.816,4.612 0.479,8.003 -1.011,10.174c-1.491,2.171 -4.542,3.461 -9.153,3.871c-18.581,1.639 -46.384,4.641 -83.409,9.004c3.813,24.683 6.609,49.367 8.388,74.051c0.821,11.528 1.305,25.363 1.45,41.503c0.01,15.191 -0.389,27.602 -1.197,37.232c-0.673,8.274 -3.994,11.464 -9.963,9.569c-9.496,-2.978 -13.975,-7.994 -13.437,-15.047c0.134,-2.306 1.285,-5.426 3.453,-9.361c1.896,-3.528 2.912,-6.648 3.046,-9.361c0.531,-18.039 0.112,-36.485 -1.256,-55.337c-1.642,-22.922 -4.03,-44.893 -7.162,-65.914c-0.136,-0.678 -0.544,-2.102 -1.224,-4.272c-25.225,4.628 -44.345,10.269 -57.362,16.923c-2.305,1.086 -4.203,3.122 -5.693,6.107c-1.897,3.392 -3.523,5.699 -4.878,6.92c-2.44,2.036 -5.56,2.784 -9.358,2.244c-3.662,-0.54 -6.885,-3.352 -9.669,-8.437c-2.784,-5.084 -3.295,-9.119 -1.533,-12.104c1.49,-2.443 3.455,-4.614 5.896,-6.514c13.556,-10.724 39.728,-19.828 78.514,-27.312c1.762,-2.85 4.677,-4.682 8.745,-5.499c3.933,-0.68 6.714,0.199 8.343,2.64c11.799,-1.907 23.395,-3.609 34.787,-5.108l31.126,-3.886c2.712,-0.408 5.763,-1.597 9.153,-3.566c3.389,-1.969 6.169,-3.089 8.339,-3.362c8.137,-1.226 13.159,3.722 15.065,14.842Z" style="fill:#fff;fill-rule:nonzero;"/><path d="M799.162,235.217c-1.762,2.307 -3.931,4.072 -6.507,5.294c0.272,1.22 0.408,2.373 0.409,3.458c0.004,6.782 -3.656,10.379 -10.98,10.79l-19.734,1.233c-5.832,0.411 -9.496,-2.706 -10.992,-9.352c-0.408,-1.491 -0.612,-2.847 -0.613,-4.068c-0.003,-4.476 2.03,-7.8 6.097,-9.973l27.05,-14.462c2.576,-1.358 5.221,-2.174 7.933,-2.447c2.713,-0.272 5.02,2.371 6.922,7.931c1.903,5.559 2.041,9.425 0.415,11.596Z" style="fill:#fff;fill-rule:nonzero;"/></g></g><g id="Layer4"></g></svg>