<?xml version="1.0" encoding="UTF-8" standalone="no"?><!DOCTYPE svg PUBLIC "-//W3C//DTD SVG 1.1//EN" "http://www.w3.org/Graphics/SVG/1.1/DTD/svg11.dtd"><svg width="100%" height="100%" viewBox="0 0 750 380" version="1.1" xmlns="http://www.w3.org/2000/svg" xmlns:xlink="http://www.w3.org/1999/xlink" xml:space="preserve" xmlns:serif="http://www.serif.com/" style="fill-rule:evenodd;clip-rule:evenodd;stroke-linejoin:round;stroke-miterlimit:2;"><rect id="Artboard1" x="0" y="3.518" width="750" height="375" style="fill:none;"/><clipPath id="_clip1"><rect id="Artboard11" serif:id="Artboard1" x="0" y="3.518" width="750" height="375"/></clipPath><g clip-path="url(#_clip1)"><rect x="0" y="-191.942" width="750" height="750" style="fill:#fd6a7c;"/><rect x="20.833" y="25.546" width="708.333" height="333.333" style="fill-opacity:0.8;"/><g><path d="M212.436,272.234l57.477,-3.7c-7.401,-8.881 -23.682,-28.616 -30.589,-37.249l-42.183,-52.544l68.331,-82.886l-56.49,0c-9.867,13.321 -24.422,33.303 -32.316,43.417l-21.954,29.355l-0,-37.003c-0,-9.62 0.246,-29.355 0.986,-36.509c-8.14,0.987 -42.676,1.234 -52.297,1.234c1.234,11.84 1.727,43.663 1.727,59.45l0,54.517c0,16.035 -0.493,47.61 -1.727,59.451l52.297,0c-0.74,-6.907 -0.986,-26.148 -0.986,-35.522l-0,-38.236l57.724,76.225Z" style="fill:#fff;fill-rule:nonzero;"/><path d="M266.953,269.767l51.31,0c1.48,-3.453 8.634,-22.941 11.841,-31.082l60.437,0l13.321,33.056l52.544,-1.974c-6.908,-15.294 -16.282,-35.276 -22.695,-50.57l-54.024,-125.315l-39.716,2.467c-4.687,13.814 -10.361,26.641 -18.995,47.116l-54.023,126.302Zm92.999,-115.201l19.982,53.53l-39.716,0l19.734,-53.53Z" style="fill:#fff;fill-rule:nonzero;"/><path d="M457.146,269.767l51.31,0c1.48,-3.453 8.634,-22.941 11.841,-31.082l60.437,0l13.321,33.056l52.544,-1.974c-6.907,-15.294 -16.281,-35.276 -22.695,-50.57l-54.024,-125.315l-39.716,2.467c-4.687,13.814 -10.361,26.641 -18.995,47.116l-54.023,126.302Zm92.999,-115.201l19.982,53.53l-39.716,0l19.734,-53.53Z" style="fill:#fff;fill-rule:nonzero;"/></g></g></svg>