<?xml version="1.0" encoding="UTF-8" standalone="no"?><!DOCTYPE svg PUBLIC "-//W3C//DTD SVG 1.1//EN" "http://www.w3.org/Graphics/SVG/1.1/DTD/svg11.dtd"><svg width="100%" height="100%" viewBox="0 0 216 54" version="1.1" xmlns="http://www.w3.org/2000/svg" xmlns:xlink="http://www.w3.org/1999/xlink" xml:space="preserve" xmlns:serif="http://www.serif.com/" style="fill-rule:evenodd;clip-rule:evenodd;stroke-linejoin:round;stroke-miterlimit:2;"><g id="Layer1"></g><g id="Layer3"></g><g id="Layer11" serif:id="Layer1"></g><g id="Layer2"><path d="M105.914,22.737l0.059,-0l0.029,-0l0.03,0l0.029,0l0.03,0.001l0.029,-0l0.029,0l0.029,0.001l0.029,-0l0.03,0l0.029,0.001l0.03,0l0.029,0.001l0.029,0.001l0.03,0l0.029,0.001l0.029,0.001l0.03,0l0.029,0.001l0.029,0.001l0.029,0.001l0.03,0.001l0.029,0.001l0.03,0.001l0.029,0.001l0.029,0.001l0.03,0.001l0.029,0.002l0.029,0.001l0.029,0.001l0.03,0.001l0.029,0.002l0.029,0.001l0.03,0.002l0.029,0.001l0.029,0.002l0.03,0.002l0.029,0.001l0.029,0.002l0.117,0.007l0.117,0.007l0.117,0.007l0.117,0.007l0.116,0.006l0.117,0.007l0.117,0.006l0.117,0.007l0.117,0.006l0.116,0.007l0.117,0.006l0.117,0.006l0.117,0.006l0.116,0.006l0.117,0.006l0.117,0.006l0.117,0.006l0.117,0.006l0.116,0.006l0.117,0.005l0.117,0.006l0.117,0.005l0.117,0.006l0.117,0.005l0.117,0.005l0.117,0.006l0.117,0.005l0.117,0.005l0.116,0.005l0.117,0.005l0.117,0.005l0.117,0.005l0.117,0.004l0.116,0.005l0.117,0.005l0.117,0.004l0.117,0.005l0.117,0.004l0.117,0.005l0.117,0.004l0.117,0.004l0.117,0.005l0.117,0.004l0.117,0.004l0.116,0.004l0.234,0.008l0.117,0.004l0.234,0.007l0.117,0.004l0.117,0.003l0.117,0.004l0.117,0.004l0.117,0.003l0.117,0.003l0.117,0.004l0.117,0.003l0.117,0.003l0.234,0.007l0.116,0.003l0.117,0.003l0.117,0.003l0.117,0.003l0.117,0.003l0.117,0.002l0.117,0.003l0.234,0.006l0.117,0.002l0.117,0.003l0.117,0.002l0.117,0.003l0.117,0.002l0.234,0.005l0.117,0.002l0.116,0.002l0.234,0.005l0.117,0.002l0.117,0.002l0.234,0.004l0.117,0.002l0.117,0.002l0.117,0.002l0.117,0.001l0.117,0.002l0.234,0.004l0.234,0.003l0.117,0.001l0.233,0.003l0.117,0.002l0.117,0.001l0.117,0.001l0.234,0.003l0.234,0.003l0.117,0.001l0.233,0.002l0.117,0.001l0.117,0.001l0.117,0.001l0.234,0.002l0.234,0.002l0.234,0.001l0.233,0.002l0.234,0.001l0.234,0.001l0.234,0.001l0.234,0.001l0.234,0.001l0.233,0.001l0.234,0.001l0.233,0l0.234,0.001l0.233,0l0.234,0l0.234,0.001l0.234,-0l0.233,-0l0.234,-0l0.233,-0.001l0.234,0l0.233,-0l0.234,-0.001l0.233,0l0.234,-0.001l0.466,-0.001l0.234,-0l0.234,-0.001l0.233,-0.001l0.233,-0.001l0.233,-0.001l0.233,-0.001l0.234,-0.001l0.233,-0.001l0.466,-0.002l0.467,-0.002l0.466,-0.002l0.932,-0.005l0.932,-0.004l0.93,-0.005l0.465,-0.002l0.466,-0.002l0.465,-0.002l0.232,-0.001l0.233,-0.001l0.232,-0l0.232,-0.001l0.233,-0.001l0.232,-0l0.232,-0.001l0.232,-0l0.232,-0.001l0.233,-0l0.232,-0l0.231,-0.001l0.232,0l0.232,0l0.162,0.023l0.143,0.064l0.106,0.099l0.057,0.122l-0,0.129l-0.057,0.122l-0.106,0.099l-0.142,0.065l-0.163,0.022l-0.231,0l-0.232,0l-0.231,0l-0.232,0.001l-0.232,-0l-0.232,0l-0.231,0.001l-0.232,0l-0.232,0.001l-0.232,0.001l-0.232,0l-0.464,0.002l-0.232,0.001l-0.233,0.001l-0.232,0.001l-0.465,0.002l-0.465,0.002l-0.465,0.002l-0.465,0.002l-0.932,0.005l-0.466,0.002l-0.466,0.003l-0.466,0.002l-0.467,0.002l-0.467,0.002l-0.466,0.002l-0.234,0.001l-0.233,0.001l-0.234,0.001l-0.233,0.001l-0.234,0l-0.234,0.001l-0.468,0.001l-0.233,0.001l-0.234,0l-0.234,0.001l-0.234,-0l-0.234,0l-0.233,0l-0.235,0l-0.234,0l-0.234,0l-0.234,0l-0.234,-0l-0.234,-0.001l-0.234,0l-0.234,-0.001l-0.235,-0l-0.234,-0.001l-0.234,-0.001l-0.234,-0.001l-0.235,-0.001l-0.234,-0.001l-0.235,-0.002l-0.234,-0.001l-0.234,-0.002l-0.235,-0.001l-0.235,-0.002l-0.117,-0.001l-0.117,-0.001l-0.118,-0.001l-0.117,-0.002l-0.117,-0.001l-0.117,-0.001l-0.118,-0.001l-0.117,-0.001l-0.117,-0.002l-0.118,-0.001l-0.117,-0.001l-0.118,-0.002l-0.116,-0.001l-0.235,-0.003l-0.118,-0.002l-0.117,-0.001l-0.117,-0.002l-0.118,-0.001l-0.117,-0.002l-0.117,-0.002l-0.118,-0.002l-0.235,-0.004l-0.117,-0.001l-0.117,-0.002l-0.235,-0.005l-0.235,-0.004l-0.235,-0.004l-0.117,-0.003l-0.235,-0.004l-0.235,-0.005l-0.235,-0.005l-0.118,-0.003l-0.117,-0.003l-0.118,-0.002l-0.117,-0.003l-0.117,-0.003l-0.118,-0.003l-0.118,-0.003l-0.116,-0.003l-0.235,-0.006l-0.118,-0.003l-0.117,-0.003l-0.118,-0.004l-0.117,-0.003l-0.235,-0.007l-0.118,-0.003l-0.117,-0.004l-0.118,-0.003l-0.235,-0.008l-0.118,-0.004l-0.117,-0.003l-0.235,-0.008l-0.118,-0.004l-0.118,-0.004l-0.117,-0.004l-0.118,-0.005l-0.117,-0.004l-0.118,-0.004l-0.117,-0.004l-0.118,-0.005l-0.117,-0.004l-0.118,-0.005l-0.117,-0.004l-0.118,-0.005l-0.117,-0.005l-0.118,-0.005l-0.117,-0.005l-0.118,-0.005l-0.118,-0.004l-0.117,-0.006l-0.118,-0.005l-0.117,-0.005l-0.118,-0.005l-0.117,-0.005l-0.118,-0.006l-0.235,-0.011l-0.117,-0.005l-0.118,-0.006l-0.118,-0.006l-0.117,-0.006l-0.118,-0.006l-0.117,-0.006l-0.118,-0.006l-0.117,-0.006l-0.118,-0.006l-0.117,-0.006l-0.118,-0.006l-0.118,-0.007l-0.117,-0.006l-0.118,-0.007l-0.117,-0.006l-0.118,-0.007l-0.117,-0.007l-0.118,-0.007l-0.117,-0.006l-0.118,-0.007l-0.117,-0.007l-0.028,-0.002l-0.027,-0.002l-0.027,-0.001l-0.028,-0.002l-0.027,-0.001l-0.027,-0.002l-0.028,-0.001l-0.027,-0.001l-0.027,-0.001l-0.027,-0.002l-0.028,-0.001l-0.028,-0.001l-0.054,-0.002l-0.028,-0.001l-0.027,-0.001l-0.028,-0.001l-0.028,-0.001l-0.027,-0.001l-0.028,-0.001l-0.054,-0.001l-0.028,-0.001l-0.028,-0l-0.027,-0.001l-0.028,-0.001l-0.028,-0l-0.028,-0.001l-0.027,-0l-0.028,-0l-0.028,-0.001l-0.027,-0l-0.028,-0l-0.028,-0.001l-0.028,-0l-0.055,-0l-0.028,-0l-0.028,-0.001l-0.027,0l-0.056,0l-0.057,0l-0.055,0.001l-0.056,0l-0.056,0.001l-0.056,0l-0.056,0.001l-0.056,0.001l-0.056,0.001l-0.057,0.001l-0.056,0.001l-0.056,0.001l-0.057,0.002l-0.056,0.001l-0.057,0.002l-0.057,0.002l-0.056,0.002l-0.056,0.002l-0.057,0.002l-0.057,0.002l-0.057,0.002l-0.057,0.002l-0.057,0.003l-0.056,0.002l-0.057,0.003l-0.057,0.002l-0.057,0.003l-0.057,0.003l-0.057,0.002l-0.057,0.003l-0.058,0.003l-0.057,0.003l-0.057,0.003l-0.057,0.003l-0.058,0.004l-0.057,0.003l-0.115,0.007l-0.058,0.003l-0.057,0.003l-0.115,0.007l-0.115,0.007l-0.116,0.007l-0.115,0.008l-0.231,0.014l-0.232,0.015l-0.115,0.008l-0.117,0.007l-0.115,0.008l-0.117,0.007l-0.116,0.007l-0.116,0.007l-0.058,0.003l-0.059,0.004l-0.116,0.007l-0.058,0.003l-0.058,0.003l-0.058,0.003l-0.059,0.004l-0.058,0.003l-0.058,0.003l-0.059,0.003l-0.058,0.003l-0.058,0.003l-0.058,0.002l-0.059,0.003l-0.058,0.003l-0.058,0.002l-0.059,0.003l-0.058,0.002l-0.058,0.003l-0.058,0.002l-0.059,0.002l-0.058,0.002l-0.058,0.002l-0.059,0.002l-0.058,0.002l-0.058,0.001l-0.059,0.002l-0.058,0.001l-0.059,0.002l-0.058,0.001l-0.058,0.001l-0.059,0.001l-0.058,0.001l-0.058,0.001l-0.059,0l-0.058,0.001l-0.059,0l-0.058,0l-0.057,0l-0.201,0l-0.2,0l-0.199,0.001l-0.4,-0l-0.2,0l-0.2,0.001l-0.4,0l-0.199,0.001l-0.4,0.001l-0.199,0l-0.4,0.002l-0.2,0l-0.4,0.002l-0.199,0.001l-0.2,0.001l-0.399,0.001l-0.4,0.002l-0.399,0.002l-0.4,0.002l-0.399,0.003l-0.399,0.002l-0.4,0.003l-0.4,0.002l-0.399,0.003l-0.4,0.003l-0.798,0.005l-0.4,0.003l-0.798,0.007l-0.4,0.003l-0.799,0.006l-0.798,0.007l-0.799,0.006l-0.799,0.007l-0.799,0.006l-0.799,0.007l-0.399,0.003l-0.799,0.006l-0.4,0.003l-0.4,0.003l-0.399,0.003l-0.4,0.002l-0.399,0.003l-0.4,0.003l-0.4,0.002l-0.4,0.003l-0.4,0.002l-0.4,0.002l-0.399,0.002l-0.4,0.002l-0.4,0.002l-0.2,0.001l-0.2,0l-0.2,0.001l-0.2,0.001l-0.2,0.001l-0.2,0l-0.2,0.001l-0.2,0.001l-0.201,0l-0.2,0.001l-0.2,0l-0.4,0.001l-0.2,0l-0.2,0l-0.401,0.001l-0.2,-0l-0.4,-0l-0.162,-0.022l-0.143,-0.065l-0.106,-0.099l-0.057,-0.122l0,-0.129l0.057,-0.122l0.106,-0.099l0.142,-0.064l0.163,-0.023l0.4,0l0.2,0l0.399,-0l0.2,-0.001l0.2,0l0.2,-0l0.2,-0.001l0.2,-0l0.199,-0.001l0.2,-0l0.2,-0.001l0.2,-0l0.2,-0.001l0.199,-0.001l0.4,-0.001l0.4,-0.002l0.399,-0.002l0.4,-0.002l0.399,-0.002l0.4,-0.002l0.399,-0.002l0.4,-0.003l0.399,-0.002l0.399,-0.003l0.4,-0.002l0.399,-0.003l0.799,-0.006l0.399,-0.003l0.799,-0.006l0.399,-0.003l0.799,-0.007l0.799,-0.006l0.799,-0.007l0.799,-0.006l0.799,-0.007l0.799,-0.006l0.4,-0.003l0.798,-0.006l0.4,-0.003l0.4,-0.003l0.399,-0.003l0.4,-0.003l0.4,-0.002l0.399,-0.003l0.4,-0.003l0.4,-0.002l0.399,-0.002l0.4,-0.002l0.4,-0.002l0.4,-0.002l0.4,-0.002l0.4,-0.002l0.4,-0.001l0.2,-0.001l0.199,-0.001l0.2,-0l0.201,-0.001l0.4,-0.001l0.2,-0l0.4,-0.001l0.2,-0l0.201,-0.001l0.4,-0l0.2,-0l0.2,-0l0.2,-0l0.055,-0l0.056,-0.001l0.055,0l0.056,-0l0.056,-0.001l0.056,-0.001l0.055,-0.001l0.056,-0l0.056,-0.002l0.056,-0.001l0.056,-0.001l0.056,-0.001l0.056,-0.002l0.056,-0.002l0.056,-0.001l0.057,-0.002l0.056,-0.002l0.057,-0.002l0.056,-0.002l0.056,-0.002l0.057,-0.002l0.057,-0.003l0.056,-0.002l0.057,-0.003l0.056,-0.002l0.057,-0.003l0.057,-0.003l0.114,-0.005l0.057,-0.003l0.057,-0.003l0.057,-0.003l0.057,-0.003l0.058,-0.004l0.057,-0.003l0.057,-0.003l0.057,-0.003l0.057,-0.004l0.058,-0.003l0.057,-0.004l0.115,-0.007l0.115,-0.007l0.116,-0.007l0.115,-0.007l0.116,-0.008l0.115,-0.007l0.232,-0.015l0.115,-0.007l0.233,-0.015l0.116,-0.007l0.117,-0.007l0.174,-0.011l0.059,-0.003l0.058,-0.004l0.058,-0.003l0.059,-0.003l0.116,-0.007l0.059,-0.003l0.058,-0.003l0.059,-0.003l0.058,-0.003l0.059,-0.003l0.058,-0.002l0.059,-0.003l0.058,-0.003l0.059,-0.003l0.058,-0.002l0.059,-0.003l0.058,-0.002l0.059,-0.002l0.059,-0.002l0.058,-0.002l0.059,-0.002l0.059,-0.002l0.058,-0.002l0.059,-0.002l0.058,-0.001l0.059,-0.002l0.059,-0.001l0.058,-0.002l0.059,-0.001l0.059,-0.001l0.058,-0.001l0.059,-0l0.059,-0.001l0.058,-0.001l0.059,-0l0.059,-0l0.059,-0l0.058,-0Z"/><path d="M77.436,21.655l0.127,0.083l0.083,0.111l0.03,0.127l-0,0.004l-0,0.002l-0,0.002l-0,0.003l-0,0.003l0,0.003l0.001,0.004l-0,0.003l0,0.004l0.001,0.005l0,0.004l0.001,0.005l0.001,0.005l0.001,0.005l0.001,0.005l0,0.006l0.001,0.006l0.002,0.006l0.001,0.006l0.001,0.006l0.001,0.007l0.002,0.006l0.001,0.007l0.002,0.007l0.003,0.014l0.004,0.015l0.003,0.015l0.005,0.016l0.004,0.017l0.004,0.017l0.005,0.017l0.005,0.017l0.005,0.018l0.006,0.019l0.005,0.018l0.006,0.019l0.006,0.02l0.006,0.019l0.012,0.04l0.013,0.041l0.013,0.042l0.013,0.042l0.013,0.043l0.014,0.043l0.006,0.022l0.007,0.022l0.006,0.022l0.007,0.023l0.007,0.022l0.006,0.022l0.006,0.022l0.007,0.023l0.006,0.022l0.006,0.022l0.006,0.023l0.005,0.022l0.006,0.022l0.005,0.023l0.006,0.022l0.005,0.022l0.002,0.012l0.005,0.022l0.002,0.011l0.002,0.012l0.002,0.011l0.003,0.011l0.002,0.011l0.001,0.011l0.002,0.011l0.002,0.012l0.002,0.011l0.002,0.011l0.001,0.011l0.002,0.011l0.001,0.011l0.002,0.012l0.001,0.011l0.001,0.011l0.001,0.011l0.003,0.028l0.002,0.028l0.002,0.028l0.003,0.028l0.004,0.056l0.003,0.028l0.002,0.028l0.002,0.028l0.002,0.029l0.004,0.055l0.004,0.056l0.004,0.057l0.003,0.056l0.004,0.055l0.003,0.056l0.003,0.056l0.003,0.056l0.003,0.056l0.002,0.056l0.003,0.056l0.002,0.056l0.002,0.056l0.002,0.056l0.002,0.056l0.002,0.056l0.001,0.056l0.002,0.056l0.001,0.056l0.001,0.056l0.002,0.055l0.001,0.056l0,0.056l0.001,0.056l0.001,0.056l0,0.056l0.001,0.055l0,0.056l0.001,0.056l-0,0.056l-0,0.056l-0,0.055l-0,0.056l-0.001,0.112l0,0.055l-0,0.056l-0.001,0.056l-0.001,0.111l-0,0.056l-0.001,0.055l-0.001,0.056l-0,0.056l-0.001,0.055l-0.002,0.111l-0.002,0.111l-0.002,0.111l-0.002,0.112l-0.002,0.11l-0.004,0.222l-0.005,0.222l-0.002,0.11l-0.002,0.111l-0.002,0.11l-0.002,0.111l-0.002,0.11l-0.001,0.11l-0.001,0.055l-0.001,0.055l-0,0.056l-0.001,0.055l-0,0.055l-0.001,0.055l-0,0.055l-0,0.055l-0.001,0.055l0,0.055l0,0.054l0,0.055l0,0.055l0.001,0.055l-0,0.055l0,0.055l0.001,0.054l0,0.055l0.001,0.055l0.001,0.055l0.001,0.054l0,0.055l0.002,0.055l0.001,0.054l0.001,0.055l0.002,0.055l0.001,0.054l0.002,0.055l0.002,0.054l0.002,0.055l0.002,0.054l0.002,0.055l0.002,0.054l0.003,0.054l0.002,0.055l0.003,0.054l0.003,0.054l0.003,0.055l0.004,0.054l0.003,0.054l0.004,0.054l0.003,0.055l0.004,0.054l0.002,0.027l0.005,0.054l0.002,0.027l0.002,0.027l0.002,0.027l0.003,0.027l0.002,0.027l0.002,0.027l0.003,0.028l0.002,0.024l0.004,0.051l0.005,0.05l0.003,0.051l0.002,0.025l0.002,0.025l0.002,0.026l0.002,0.025l0.001,0.025l0.002,0.025l0.003,0.051l0.002,0.025l0.001,0.025l0.001,0.025l0.002,0.025l0.001,0.026l0.001,0.025l0.002,0.025l0.002,0.05l0.002,0.051l0.002,0.05l0.002,0.05l0.001,0.051l0.002,0.05l0.001,0.05l0.001,0.051l0.001,0.05l0.001,0.05l0,0.05l0.001,0.051l0,0.05l0.001,0.05l-0,0.05l-0,0.051l-0.001,0.05l0,0.05l-0,0.05l-0.001,0.05l-0,0.05l-0.001,0.05l-0.001,0.051l-0.001,0.05l-0.001,0.05l-0.001,0.05l-0.001,0.05l-0.002,0.05l-0.001,0.05l-0.001,0.05l-0.002,0.05l-0.002,0.05l-0.001,0.05l-0.002,0.05l-0.002,0.049l-0.002,0.051l-0.002,0.049l-0.004,0.1l-0.004,0.1l-0.004,0.099l-0.004,0.1l-0.005,0.099l-0.005,0.1l-0.009,0.198l-0.005,0.099l-0.004,0.099l-0.005,0.099l-0.004,0.099l-0.004,0.099l-0.005,0.098l-0.002,0.05l-0.002,0.049l-0.003,0.099l-0.002,0.049l-0.002,0.049l-0.002,0.049l-0.001,0.049l-0.002,0.049l-0.001,0.049l-0.002,0.05l-0.001,0.049l-0.001,0.048l-0.001,0.05l-0.001,0.049l-0.001,0.049l-0.001,0.048l-0.001,0.049l-0,0.049l-0.001,0.049l-0,0.049l-0.001,0.049l0,0.048l-0,0.049l-0,0.049l0,0.048l0,0.049l0.001,0.049l0,0.048l0.001,0.049l0.001,0.048l0.001,0.049l0.001,0.048l0.001,0.049l0.002,0.048l0.002,0.049l0.001,0.048l0.002,0.048l0.002,0.049l0.003,0.048l0.001,0.024l0.001,0.024l0.001,0.024l0.003,0.049l0.001,0.023l0.002,0.024l0.002,0.025l0.001,0.023l0.003,0.049l0.002,0.024l0.002,0.024l0.002,0.024l0.002,0.024l0.001,0.024l0.002,0.024l0.002,0.024l0.002,0.024l0.003,0.024l0.002,0.024l0.002,0.024l0.002,0.023l0.002,0.025l0.005,0.047l0.005,0.048l0.005,0.048l0.005,0.047l0.005,0.048l0.005,0.048l0.005,0.048l0.006,0.048l0.005,0.047l0.005,0.049l0.006,0.048l0.006,0.048l0.005,0.048l0.006,0.048l0.006,0.048l0.006,0.048l0.011,0.097l0.007,0.049l0.012,0.096l0.006,0.049l0.012,0.097l0.013,0.097l0.013,0.097l0.013,0.097l0.013,0.098l0.013,0.098l0.014,0.098l0.013,0.097l0.014,0.098l0.027,0.197l0.027,0.196l0.027,0.197l0.014,0.098l0.013,0.099l0.014,0.098l0.013,0.099l0.013,0.099l0.013,0.098l0.013,0.099l0.013,0.099l0.006,0.049l0.007,0.05l0.006,0.049l0.006,0.05l0.006,0.049l0.006,0.049l0.012,0.099l0.006,0.049l0.006,0.05l0.006,0.049l0.005,0.05l0.006,0.049l0.011,0.099l0.005,0.05l0.006,0.049l0.005,0.049l0.005,0.05l0.005,0.049l0.005,0.049l0.005,0.05l0.005,0.049l0.005,0.049l0.005,0.05l0.004,0.049l0.005,0.049l0.004,0.05l0.004,0.049l0.004,0.049l0.004,0.05l0.004,0.049l0.004,0.049l0.004,0.049l0.004,0.05l0.003,0.049l0.003,0.049l0.004,0.049l0.003,0.05l0.003,0.049l0.003,0.049l0.002,0.049l0.003,0.049l0.003,0.049l0.002,0.049l0.002,0.049l0.002,0.049l0.002,0.049l0.002,0.049l0.002,0.049l0.001,0.049l0.001,0.049l0.002,0.049l0.001,0.048l0.001,0.049l0,0.049l0.001,0.049l0,0.049l0.001,0.048l-0,0.049l-0.029,0.127l-0.082,0.112l-0.126,0.083l-0.155,0.045l-0.165,0l-0.155,-0.044l-0.126,-0.083l-0.083,-0.112l-0.029,-0.127l0,-0.047l-0,-0.047l-0.001,-0.047l-0,-0.047l-0.001,-0.047l-0.001,-0.047l-0.001,-0.047l-0.001,-0.047l-0.001,-0.047l-0.002,-0.047l-0.001,-0.047l-0.002,-0.047l-0.002,-0.048l-0.002,-0.047l-0.002,-0.047l-0.002,-0.048l-0.003,-0.047l-0.002,-0.048l-0.003,-0.048l-0.003,-0.047l-0.003,-0.048l-0.003,-0.048l-0.003,-0.048l-0.003,-0.048l-0.003,-0.047l-0.004,-0.048l-0.004,-0.048l-0.003,-0.048l-0.004,-0.048l-0.004,-0.048l-0.004,-0.048l-0.004,-0.048l-0.005,-0.048l-0.004,-0.048l-0.004,-0.049l-0.005,-0.048l-0.005,-0.048l-0.004,-0.049l-0.01,-0.096l-0.01,-0.097l-0.005,-0.049l-0.006,-0.048l-0.005,-0.049l-0.005,-0.048l-0.006,-0.049l-0.005,-0.049l-0.006,-0.048l-0.006,-0.049l-0.005,-0.048l-0.006,-0.049l-0.006,-0.049l-0.006,-0.048l-0.006,-0.049l-0.006,-0.049l-0.012,-0.098l-0.013,-0.098l-0.012,-0.097l-0.013,-0.098l-0.013,-0.098l-0.013,-0.098l-0.014,-0.098l-0.013,-0.098l-0.013,-0.098l-0.014,-0.098l-0.027,-0.196l-0.027,-0.197l-0.041,-0.295l-0.013,-0.098l-0.014,-0.098l-0.013,-0.098l-0.013,-0.098l-0.013,-0.099l-0.013,-0.098l-0.013,-0.098l-0.013,-0.098l-0.006,-0.049l-0.006,-0.049l-0.006,-0.049l-0.007,-0.049l-0.006,-0.049l-0.006,-0.048l-0.006,-0.049l-0.005,-0.05l-0.006,-0.049l-0.006,-0.048l-0.006,-0.049l-0.005,-0.049l-0.006,-0.049l-0.005,-0.048l-0.006,-0.049l-0.005,-0.049l-0.005,-0.049l-0.005,-0.049l-0.006,-0.048l-0.004,-0.049l-0.005,-0.049l-0.005,-0.049l-0.003,-0.025l-0.002,-0.025l-0.002,-0.025l-0.003,-0.026l-0.004,-0.05l-0.004,-0.05l-0.002,-0.025l-0.002,-0.026l-0.002,-0.025l-0.002,-0.025l-0.003,-0.05l-0.002,-0.026l-0.002,-0.025l-0.001,-0.025l-0.002,-0.025l-0.001,-0.025l-0.003,-0.051l-0.002,-0.025l-0.001,-0.026l-0.001,-0.025l-0.003,-0.05l-0.002,-0.05l-0.002,-0.05l-0.002,-0.051l-0.001,-0.05l-0.002,-0.051l-0.001,-0.05l-0.001,-0.05l-0.001,-0.051l-0.001,-0.05l-0.001,-0.05l-0.001,-0.05l-0,-0.051l-0,-0.05l-0.001,-0.05l0,-0.05l0.001,-0.05l-0,-0.05l0,-0.051l0,-0.05l0.001,-0.05l0.001,-0.05l0,-0.05l0.001,-0.05l0.001,-0.05l0.001,-0.05l0.002,-0.051l0.001,-0.05l0.003,-0.099l0.001,-0.051l0.002,-0.049l0.001,-0.05l0.002,-0.051l0.002,-0.049l0.002,-0.05l0.001,-0.05l0.002,-0.05l0.002,-0.05l0.002,-0.05l0.005,-0.099l0.004,-0.1l0.004,-0.099l0.005,-0.1l0.005,-0.099l0.004,-0.1l0.01,-0.198l0.004,-0.099l0.005,-0.099l0.004,-0.098l0.004,-0.099l0.004,-0.099l0.004,-0.098l0.002,-0.05l0.002,-0.049l0.002,-0.049l0.002,-0.049l0.001,-0.05l0.002,-0.048l0.001,-0.05l0.002,-0.049l0.001,-0.049l0.001,-0.049l0.002,-0.049l0.001,-0.049l0.001,-0.049l0.001,-0.049l0,-0.049l0.001,-0.049l0.001,-0.048l0,-0.049l0.001,-0.049l-0,-0.049l0,-0.049l0,-0.048l0,-0.049l-0,-0.049l-0.001,-0.048l-0,-0.049l-0.001,-0.048l-0,-0.049l-0.001,-0.049l-0.001,-0.048l-0.002,-0.049l-0.001,-0.048l-0.002,-0.048l-0.001,-0.049l-0.002,-0.048l-0.002,-0.048l-0.002,-0.049l-0.001,-0.024l-0.002,-0.024l-0.002,-0.048l-0.001,-0.024l-0.002,-0.024l-0.001,-0.024l-0.003,-0.049l-0.002,-0.024l-0.001,-0.024l-0.004,-0.048l-0.002,-0.024l-0.001,-0.024l-0.004,-0.048l-0.002,-0.024l-0.002,-0.024l-0.004,-0.048l-0.002,-0.024l-0.003,-0.028l-0.002,-0.028l-0.003,-0.028l-0.002,-0.028l-0.005,-0.056l-0.002,-0.028l-0.002,-0.028l-0.002,-0.028l-0.003,-0.028l-0.004,-0.056l-0.003,-0.056l-0.004,-0.056l-0.004,-0.056l-0.003,-0.056l-0.003,-0.056l-0.003,-0.056l-0.003,-0.056l-0.003,-0.056l-0.003,-0.056l-0.002,-0.056l-0.002,-0.056l-0.002,-0.056l-0.002,-0.056l-0.002,-0.056l-0.002,-0.055l-0.002,-0.056l-0.001,-0.056l-0.002,-0.056l-0.001,-0.056l-0.001,-0.056l-0.001,-0.056l-0.001,-0.056l-0.001,-0.055l-0,-0.056l-0.001,-0.056l-0,-0.056l-0.001,-0.056l0,-0.055l-0,-0.056l-0,-0.056l-0,-0.056l-0,-0.056l0,-0.111l0,-0.056l0.001,-0.055l0,-0.056l0.001,-0.112l0.001,-0.055l0.001,-0.056l0,-0.055l0.001,-0.056l0.001,-0.056l0.002,-0.111l0.001,-0.111l0.002,-0.111l0.003,-0.111l0.002,-0.111l0.004,-0.222l0.005,-0.221l0.002,-0.111l0.002,-0.11l0.002,-0.111l0.002,-0.11l0.001,-0.111l0.001,-0.055l0.001,-0.055l0.001,-0.055l0,-0.055l0.001,-0.055l0,-0.055l0.001,-0.055l0,-0.055l0.001,-0.055l-0,-0.055l0,-0.055l0,-0.055l0,-0.055l0,-0.055l0,-0.055l0,-0.054l-0,-0.055l-0.001,-0.055l-0,-0.055l-0.001,-0.055l-0,-0.054l-0.001,-0.055l-0.001,-0.055l-0.001,-0.055l-0.001,-0.054l-0.001,-0.055l-0.001,-0.054l-0.002,-0.055l-0.002,-0.055l-0.001,-0.054l-0.002,-0.055l-0.002,-0.054l-0.002,-0.055l-0.002,-0.054l-0.003,-0.054l-0.002,-0.055l-0.003,-0.054l-0.003,-0.055l-0.003,-0.054l-0.003,-0.054l-0.003,-0.054l-0.003,-0.055l-0.004,-0.054l-0.004,-0.054l-0.004,-0.054l-0.002,-0.027l-0.004,-0.054l-0.002,-0.028l-0.002,-0.027l-0.003,-0.027l-0.002,-0.027l-0.002,-0.027l-0.003,-0.027l-0.002,-0.026l-0.001,-0.007l-0,-0.006l-0.001,-0.007l-0.001,-0.006l-0.001,-0.007l-0.001,-0.007l-0.001,-0.007l-0.001,-0.007l-0.001,-0.008l-0.001,-0.007l-0.001,-0.008l-0.002,-0.007l-0.001,-0.008l-0.002,-0.008l-0.001,-0.008l-0.002,-0.009l-0.002,-0.008l-0.001,-0.008l-0.002,-0.009l-0.002,-0.008l-0.004,-0.018l-0.004,-0.018l-0.004,-0.018l-0.005,-0.018l-0.005,-0.019l-0.005,-0.019l-0.005,-0.019l-0.005,-0.019l-0.006,-0.02l-0.005,-0.02l-0.006,-0.02l-0.006,-0.02l-0.006,-0.02l-0.006,-0.021l-0.006,-0.02l-0.007,-0.021l-0.013,-0.042l-0.013,-0.041l-0.013,-0.042l-0.013,-0.042l-0.013,-0.042l-0.013,-0.042l-0.006,-0.021l-0.006,-0.021l-0.006,-0.021l-0.007,-0.02l-0.006,-0.021l-0.006,-0.02l-0.005,-0.021l-0.006,-0.02l-0.005,-0.02l-0.006,-0.021l-0.005,-0.02l-0.005,-0.02l-0.005,-0.02l-0.004,-0.019l-0.002,-0.01l-0.003,-0.01l-0.002,-0.01l-0.002,-0.01l-0.002,-0.01l-0.002,-0.01l-0.001,-0.01l-0.002,-0.01l-0.002,-0.009l-0.001,-0.01l-0.002,-0.01l-0.001,-0.01l-0.002,-0.01l-0.001,-0.01l-0.001,-0.01l-0.001,-0.01l-0.001,-0.01l-0.001,-0.01l-0.001,-0.01l-0.001,-0.011l-0,-0.01l-0.001,-0.01l0,-0.011l0,-0.008l0.028,-0.128l0.081,-0.112l0.126,-0.084l0.154,-0.045l0.165,-0.001l0.156,0.044Z"/><path d="M135.804,40.553l0.244,0l0.04,0.001l0.041,-0l0.081,0.001l0.041,0l0.04,0.001l0.041,0l0.041,0.001l0.041,0l0.08,0.002l0.041,0l0.081,0.002l0.041,0.002l0.04,0.001l0.041,0l0.081,0.003l0.041,0.001l0.04,0.002l0.041,0.001l0.04,0.002l0.041,0.001l0.04,0.002l0.041,0.001l0.041,0.002l0.08,0.004l0.041,0.002l0.04,0.002l0.041,0.002l0.202,0.012l0.04,0.003l0.04,0.002l0.081,0.005l0.04,0.003l0.081,0.006l0.04,0.003l0.04,0.003l0.04,0.003l0.081,0.007l0.039,0.003l0.041,0.004l0.04,0.003l0.04,0.004l0.04,0.003l0.04,0.004l0.08,0.008l0.039,0.004l0.041,0.003l0.119,0.013l0.04,0.005l0.039,0.004l0.05,0.005l0.024,0.003l0.025,0.003l0.025,0.002l0.025,0.003l0.127,0.011l0.027,0.003l0.025,0.002l0.026,0.002l0.026,0.002l0.026,0.002l0.027,0.002l0.026,0.003l0.026,0.002l0.027,0.001l0.026,0.002l0.107,0.008l0.026,0.001l0.027,0.002l0.026,0.001l0.028,0.002l0.026,0.002l0.027,0.001l0.026,0.001l0.028,0.002l0.053,0.003l0.026,0.001l0.027,0.001l0.027,0.001l0.026,0.001l0.027,0.002l0.026,0.001l0.027,0.001l0.052,0.001l0.027,0.001l0.026,0.001l0.026,0.001l0.025,0.001l0.027,0l0.025,0.001l0.026,0l0.077,0.002l0.074,0.001l0.025,0l0.025,0.001l0.025,-0l0.024,0l0.085,0l0.011,0.001l0.011,-0l0.012,0l0.022,0.001l0.025,0.001l0.025,0.001l0.027,0.001l0.029,0.002l0.03,0.002l0.03,0.001l0.063,0.004l0.032,0.003l0.032,0.001l0.032,0.003l0.031,0.002l0.03,0.002l0.029,0.003l0.028,0.002l0.014,0.001l0.013,0.002l0.013,0.001l0.013,0.001l0.013,0.002l0.013,0.001l0.012,0.001l0.013,0.002l0.015,0.002l0.015,0.002l0.016,0.003l0.013,0.003l0.013,0.002l0.016,0.004l0.021,0.006l0.027,0.008l0.017,0.006l0.041,0.018l0.001,0l0.07,0.04l0,0.001l0.072,0.063l0,-0l0.051,0.071l0,0.001l0.033,0.094l0,0.001l-0.003,0.112l0,0l-0.04,0.099l-0.062,0.075l0,0.001l-0.088,0.064l-0,0l-0.075,0.035l-0.001,0l-0.051,0.016l-0.018,0.005l-0.03,0.006l-0.022,0.004l-0.018,0.002l-0.013,0.001l-0.013,0.002l-0.012,0.001l-0.016,0.001l-0.017,0l-0.016,0.001l-0.015,0l-0.017,0l-0.034,0l-0.162,-0.021l-0.017,-0.008l-0.019,-0.002l-0.029,-0.002l-0.029,-0.001l-0.057,-0.004l-0.027,-0.002l-0.027,-0.001l-0.024,-0.001l-0.023,-0.002l-0.021,-0.001l-0.017,-0l-0.015,-0.001l-0.004,-0l-0.084,-0l-0.026,-0.001l-0.027,0l-0.027,0l-0.026,0l-0.028,-0l-0.026,-0.001l-0.055,-0.001l-0.028,-0.001l-0.027,-0l-0.028,-0.001l-0.028,-0.001l-0.028,-0l-0.111,-0.004l-0.057,-0.002l-0.028,-0.001l-0.029,-0.001l-0.028,-0.001l-0.029,-0.001l-0.028,-0.001l-0.086,-0.004l-0.029,-0.002l-0.028,-0.001l-0.029,-0.002l-0.029,-0.002l-0.028,-0.001l-0.029,-0.002l-0.029,-0.002l-0.085,-0.005l-0.029,-0.002l-0.057,-0.004l-0.029,-0.002l-0.028,-0.002l-0.029,-0.002l-0.028,-0.002l-0.029,-0.003l-0.028,-0.002l-0.057,-0.004l-0.027,-0.003l-0.056,-0.005l-0.029,-0.003l-0.027,-0.002l-0.056,-0.006l-0.027,-0.002l-0.028,-0.003l-0.055,-0.006l-0.027,-0.003l-0.026,-0.003l-0.038,-0.004l-0.037,-0.004l-0.038,-0.004l-0.037,-0.004l-0.038,-0.004l-0.075,-0.007l-0.038,-0.004l-0.037,-0.004l-0.038,-0.003l-0.038,-0.004l-0.152,-0.013l-0.037,-0.003l-0.038,-0.003l-0.039,-0.003l-0.038,-0.003l-0.113,-0.008l-0.038,-0.003l-0.039,-0.002l-0.038,-0.003l-0.039,-0.002l-0.038,-0.003l-0.038,-0.002l-0.038,-0.002l-0.039,-0.002l-0.038,-0.003l-0.077,-0.003l-0.038,-0.003l-0.039,-0.002l-0.038,-0.001l-0.038,-0.002l-0.039,-0.002l-0.039,-0.001l-0.038,-0.002l-0.116,-0.004l-0.039,-0.002l-0.039,-0.001l-0.038,-0.001l-0.039,-0.001l-0.038,-0.001l-0.04,-0.001l-0.077,-0.002l-0.039,-0.001l-0.077,-0.002l-0.039,-0l-0.039,-0.001l-0.039,-0l-0.039,-0.001l-0.039,-0.001l-0.038,0l-0.039,-0l-0.039,-0.001l-0.039,0l-0.039,0l-0.234,0l-0.039,0l-0.038,0l-0.079,0.001l-0.038,0.001l-0.079,0.001l-0.038,0l-0.078,0.001l-0.039,0.001l-0.039,0.001l-0.039,0.001l-0.039,0l-0.078,0.002l-0.039,0.001l-0.039,0.001l-0.039,0.002l-0.039,0.001l-0.039,0.001l-0.038,0.001l-0.04,0.001l-0.038,0.002l-0.039,0.001l-0.039,0.001l-0.039,0.002l-0.039,0.001l-0.039,0.002l-0.077,0.003l-0.039,0.002l-0.039,0.002l-0.039,0.001l-0.077,0.004l-0.039,0.002l-0.039,0.002l-0.077,0.004l-0.039,0.002l-0.038,0.002l-0.039,0.002l-0.039,0.002l-0.038,0.002l-0.116,0.007l-0.038,0.003l-0.039,0.002l-0.038,0.003l-0.077,0.004l-0.038,0.003l-0.039,0.003l-0.038,0.002l-0.077,0.006l-0.058,0.004l-0.058,0.004l-0.116,0.008l-0.058,0.004l-0.058,0.004l-0.058,0.004l-0.116,0.007l-0.058,0.004l-0.116,0.007l-0.058,0.004l-0.058,0.003l-0.058,0.004l-0.058,0.003l-0.058,0.004l-0.058,0.003l-0.058,0.004l-0.058,0.003l-0.057,0.004l-0.058,0.003l-0.058,0.003l-0.058,0.003l-0.058,0.003l-0.058,0.003l-0.057,0.004l-0.059,0.003l-0.057,0.002l-0.058,0.004l-0.058,0.002l-0.058,0.003l-0.115,0.006l-0.058,0.003l-0.058,0.002l-0.058,0.003l-0.058,0.003l-0.115,0.005l-0.115,0.005l-0.116,0.005l-0.115,0.005l-0.116,0.005l-0.115,0.004l-0.116,0.004l-0.115,0.005l-0.116,0.004l-0.115,0.004l-0.115,0.004l-0.115,0.004l-0.115,0.003l-0.116,0.004l-0.46,0.013l-0.231,0.006l-0.115,0.003l-0.115,0.002l-0.115,0.003l-0.23,0.005l-0.115,0.002l-0.115,0.002l-0.345,0.006l-0.115,0.002l-0.115,0.002l-0.23,0.002l-0.115,0.002l-0.115,0.001l-0.115,0.001l-0.115,0.002l-0.115,0.001l-0.115,0.001l-0.114,0.001l-0.116,0.001l-0.115,0.001l-0.114,0l-0.115,0.001l-0.115,0.001l-0.115,0l-0.115,0.001l-0.115,0l-0.23,0.001l-0.114,0l-0.116,0.001l-0.115,-0l-0.114,0l-0.575,0l-0.115,-0l-0.23,-0l-0.23,-0.001l-0.23,-0.001l-0.23,-0l-0.921,-0.004l-0.922,-0.005l-0.693,-0.002l-0.231,-0.002l-0.231,-0.001l-0.232,-0l-0.231,-0.001l-0.463,-0.001l-0.116,-0l-0.116,-0l-0.116,-0.001l-1.033,0l-0.343,-0l-0.685,-0.001l-0.343,-0.001l-0.342,-0l-0.343,-0.001l-0.686,-0.001l-0.686,-0.001l-0.343,-0.001l-0.342,-0l-0.343,-0l-0.343,-0l-0.686,-0.001l-1.03,-0l-0.171,0l-0.343,0l-0.172,0.001l-0.171,-0l-0.343,0l-0.172,0l-0.514,0.002l-0.172,0.001l-0.343,0.001l-1.372,0.007l-1.029,0.009l-0.171,0.001l-0.172,0.002l-0.343,0.004l-0.171,0.001l-0.171,0.003l-0.172,0.002l-0.514,0.007l-0.171,0.002l-0.172,0.003l-0.171,0.002l-0.343,0.006l-0.171,0.003l-0.172,0.003l-0.171,0.003l-0.171,0.003l-0.172,0.003l-0.17,0.004l-0.343,0.007l-0.171,0.003l-0.172,0.005l-0.171,0.003l-0.171,0.004l-0.171,0.005l-0.172,0.004l-0.171,0.005l-0.171,0.004l-0.342,0.009l-0.171,0.005l-0.342,0.01l-0.172,0.006l-0.171,0.005l-0.342,0.011l-0.341,0.012l-0.172,0.006l-0.171,0.006l-0.085,0.004l-0.086,0.003l-0.085,0.003l-0.427,0.017l-0.085,0.003l-0.086,0.004l-0.085,0.003l-0.086,0.003l-0.598,0.027l-0.085,0.003l-0.085,0.004l-0.086,0.004l-0.085,0.004l-0.085,0.004l-0.086,0.004l-0.085,0.004l-0.085,0.004l-0.086,0.005l-0.047,0.002l-0.093,0.004l-0.047,0.002l-0.047,0.003l-0.047,0.001l-0.047,0.002l-0.141,0.006l-0.047,0.001l-0.047,0.002l-0.047,0.002l-0.047,0.001l-0.047,0.002l-0.141,0.004l-0.047,0.001l-0.047,0.001l-0.047,0.002l-0.094,0.002l-0.047,0.001l-0.094,0.002l-0.047,0l-0.094,0.002l-0.047,0.001l-0.048,0.001l-0.046,0l-0.047,0.001l-0.048,0l-0.094,0.001l-0.047,0l-0.047,0.001l-0.047,0l-0.047,0l-0.047,0.001l-0.095,-0l-0.047,0l-0.141,0l-0.047,-0l-0.095,-0l-0.047,-0.001l-0.047,0l-0.047,-0l-0.047,-0.001l-0.047,-0l-0.048,-0.001l-0.046,-0l-0.048,-0.001l-0.047,0l-0.047,-0l-0.047,-0.001l-0.048,-0.001l-0.047,-0.001l-0.047,-0l-0.047,-0.001l-0.047,-0.001l-0.047,-0.001l-0.048,-0.001l-0.047,-0l-0.047,-0.001l-0.047,-0.001l-0.047,-0.002l-0.095,-0.002l-0.094,-0.002l-0.095,-0.003l-0.094,-0.002l-0.283,-0.008l-0.377,-0.013l-0.378,-0.015l-0.094,-0.005l-0.094,-0.003l-0.189,-0.009l-0.094,-0.004l-0.094,-0.004l-0.189,-0.01l-0.094,-0.004l-0.189,-0.01l-0.094,-0.005l-0.094,-0.004l-0.188,-0.011l-0.094,-0.005l-0.094,-0.005l-0.094,-0.006l-0.095,-0.005l-0.093,-0.005l-0.095,-0.006l-0.093,-0.005l-0.094,-0.006l-0.095,-0.005l-0.187,-0.011l-0.094,-0.006l-0.187,-0.012l-0.375,-0.023l-0.187,-0.012l-0.188,-0.012l-0.373,-0.023l-0.373,-0.024l-0.187,-0.012l-0.186,-0.011l-0.186,-0.012l-0.186,-0.011l-0.185,-0.012l-0.371,-0.022l-0.092,-0.005l-0.092,-0.006l-0.093,-0.005l-0.092,-0.005l-0.184,-0.011l-0.093,-0.005l-0.092,-0.005l-0.092,-0.005l-0.092,-0.005l-0.092,-0.004l-0.092,-0.006l-0.091,-0.004l-0.092,-0.005l-0.092,-0.004l-0.092,-0.005l-0.182,-0.008l-0.043,-0.002l-0.041,-0.002l-0.042,-0.002l-0.042,-0.002l-0.042,-0.001l-0.041,-0.002l-0.043,-0.002l-0.042,-0.001l-0.041,-0.002l-0.042,-0.001l-0.042,-0.002l-0.084,-0.003l-0.042,-0.001l-0.084,-0.003l-0.042,-0.001l-0.042,-0.001l-0.042,-0.001l-0.042,-0.002l-0.041,-0.001l-0.043,-0.001l-0.041,-0.001l-0.169,-0.004l-0.041,-0.001l-0.042,-0.001l-0.043,-0l-0.083,-0.001l-0.084,-0.002l-0.084,-0.001l-0.169,-0.002l-0.083,-0.001l-0.085,-0.001l-0.252,-0.001l-0.337,-0l-0.084,0l-0.084,0l-0.169,0.001l-0.084,0.001l-0.085,0l-0.252,0.003l-0.085,0.002l-0.084,0.001l-0.085,0.001l-0.253,0.004l-0.084,0.002l-0.085,0.001l-0.084,0.002l-0.085,0.002l-0.168,0.004l-0.085,0.002l-0.084,0.002l-0.085,0.002l-0.085,0.002l-0.084,0.002l-0.085,0.002l-0.084,0.003l-0.085,0.002l-0.085,0.003l-0.169,0.004l-0.085,0.003l-0.169,0.005l-0.169,0.006l-0.17,0.005l-0.169,0.005l-0.339,0.011l-0.17,0.006l-0.339,0.012l-0.17,0.005l-0.17,0.006l-0.17,0.005l-0.17,0.005l-0.17,0.006l-0.34,0.01l-0.085,0.003l-0.085,0.002l-0.085,0.003l-0.085,0.002l-0.085,0.002l-0.255,0.007l-0.085,0.003l-0.17,0.003l-0.085,0.003l-0.085,0.002l-0.086,0.001l-0.085,0.002l-0.085,0.002l-0.085,0.002l-0.085,0.001l-0.085,0.001l-0.085,0.002l-0.086,0.001l-0.085,0.002l-0.085,0.001l-0.085,0.001l-0.171,0.002l-0.085,0l-0.085,0.001l-0.085,0.001l-0.085,0l-0.086,0.001l-0.085,0l-0.17,0l-0.162,-0.022l-0.143,-0.065l-0.106,-0.099l-0.057,-0.121l-0,-0.13l0.056,-0.121l0.106,-0.099l0.143,-0.065l0.162,-0.023l0.168,0l0.167,-0.001l0.168,-0.001l0.084,-0l0.084,-0.001l0.251,-0.003l0.084,-0.001l0.084,-0.001l0.252,-0.004l0.084,-0.002l0.084,-0.002l0.085,-0.001l0.084,-0.002l0.084,-0.002l0.084,-0.002l0.169,-0.004l0.084,-0.002l0.253,-0.007l0.084,-0.002l0.085,-0.002l0.084,-0.003l0.084,-0.002l0.085,-0.002l0.084,-0.003l0.169,-0.005l0.169,-0.005l0.17,-0.005l0.169,-0.006l0.169,-0.005l0.17,-0.006l0.169,-0.006l0.34,-0.011l0.17,-0.005l0.169,-0.006l0.17,-0.006l0.17,-0.005l0.171,-0.006l0.17,-0.005l0.17,-0.005l0.085,-0.003l0.171,-0.004l0.085,-0.003l0.17,-0.005l0.086,-0.002l0.085,-0.002l0.171,-0.005l0.085,-0.002l0.085,-0.002l0.257,-0.006l0.085,-0.001l0.085,-0.002l0.086,-0.001l0.085,-0.002l0.086,-0.001l0.086,-0.002l0.085,-0.001l0.086,-0.001l0.085,-0.001l0.086,-0.001l0.086,-0.001l0.085,-0.001l0.086,-0.001l0.086,-0.001l0.086,-0l0.085,-0.001l0.086,0l0.086,-0l0.343,-0l0.086,0l0.085,0.001l0.086,0l0.172,0.002l0.086,0.001l0.086,0.001l0.258,0.004l0.043,0.001l0.043,0.001l0.043,0.001l0.043,0.001l0.043,0.001l0.043,0.001l0.043,0.001l0.043,0.001l0.043,0.001l0.043,0.001l0.043,0.001l0.043,0.001l0.043,0.002l0.043,0.001l0.043,0.001l0.043,0.002l0.043,0.001l0.043,0.002l0.043,0.001l0.044,0.001l0.043,0.002l0.043,0.002l0.043,0.002l0.043,0.001l0.086,0.004l0.043,0.002l0.043,0.001l0.043,0.002l0.043,0.002l0.093,0.005l0.093,0.004l0.185,0.009l0.093,0.005l0.185,0.009l0.093,0.005l0.093,0.005l0.093,0.005l0.092,0.005l0.187,0.011l0.092,0.005l0.094,0.005l0.093,0.006l0.093,0.005l0.092,0.006l0.56,0.033l0.186,0.012l0.187,0.011l0.186,0.012l0.186,0.012l0.374,0.023l0.374,0.024l0.187,0.012l0.186,0.012l0.187,0.011l0.187,0.012l0.187,0.011l0.186,0.011l0.094,0.006l0.186,0.011l0.094,0.006l0.093,0.005l0.093,0.005l0.094,0.006l0.093,0.005l0.187,0.01l0.093,0.005l0.187,0.01l0.093,0.005l0.093,0.005l0.186,0.009l0.093,0.005l0.094,0.004l0.465,0.021l0.094,0.004l0.092,0.004l0.187,0.007l0.092,0.004l0.093,0.003l0.093,0.003l0.093,0.004l0.093,0.002l0.093,0.003l0.185,0.006l0.093,0.002l0.093,0.002l0.185,0.005l0.278,0.006l0.045,0.001l0.047,0l0.046,0.001l0.046,0l0.046,0.001l0.047,0.001l0.045,0l0.186,0.002l0.045,0.001l0.047,0l0.045,0.001l0.047,-0l0.046,-0l0.092,-0l0.046,0l0.138,0l0.046,-0l0.092,-0l0.046,-0l0.046,-0l0.046,-0.001l0.045,0l0.047,-0l0.091,-0.001l0.046,-0.001l0.046,-0.001l0.091,-0.001l0.046,-0.001l0.046,-0l0.275,-0.006l0.045,-0.001l0.046,-0.001l0.046,-0.001l0.045,-0.001l0.229,-0.007l0.046,-0.002l0.045,-0.002l0.045,-0.001l0.046,-0.002l0.045,-0.002l0.092,-0.003l0.045,-0.002l0.045,-0.002l0.046,-0.002l0.045,-0.002l0.046,-0.003l0.046,-0.001l0.085,-0.005l0.086,-0.004l0.085,-0.004l0.173,-0.008l0.086,-0.004l0.085,-0.004l0.172,-0.008l0.086,-0.004l0.086,-0.004l0.344,-0.015l0.085,-0.003l0.172,-0.007l0.086,-0.004l0.087,-0.003l0.172,-0.007l0.085,-0.004l0.258,-0.009l0.086,-0.003l0.086,-0.003l0.172,-0.007l0.344,-0.012l0.172,-0.006l0.172,-0.006l0.172,-0.005l0.172,-0.005l0.172,-0.005l0.171,-0.006l0.173,-0.005l0.172,-0.005l0.172,-0.004l0.171,-0.005l0.344,-0.009l0.517,-0.013l0.172,-0.004l0.172,-0.004l0.171,-0.004l0.173,-0.003l0.172,-0.004l0.172,-0.003l0.516,-0.01l0.172,-0.003l0.172,-0.003l0.172,-0.003l0.172,-0.002l0.172,-0.003l0.172,-0.002l0.172,-0.003l0.172,-0.003l0.172,-0.002l0.172,-0.002l0.344,-0.004l0.172,-0.002l0.172,-0.002l0.172,-0.001l0.172,-0.002l0.172,-0.002l0.516,-0.004l0.172,-0.002l0.172,-0.001l0.172,-0.001l0.172,-0.002l0.171,-0l0.517,-0.003l0.171,-0.001l0.344,-0.002l0.172,-0l0.172,-0.001l0.172,-0.001l0.172,-0l0.172,-0.001l0.171,-0l0.172,-0l0.172,-0.001l0.172,-0l0.172,-0l0.172,-0.001l0.343,0l0.172,-0l1.03,-0l0.343,0l0.344,0.001l0.343,-0l0.686,0.001l0.344,0l0.685,0.002l0.686,0.001l2.055,0.002l1.033,0l0.117,0.001l0.116,-0l0.116,0l0.464,0.001l0.464,0.002l0.232,0l0.231,0.002l0.231,0.001l0.463,0.002l0.461,0.002l0.46,0.002l0.23,0.001l0.23,0.001l0.23,0.001l0.23,0.001l0.23,0.001l0.229,0l0.229,0.001l0.229,-0l0.115,0l0.573,0l0.114,-0l0.114,-0l0.115,-0.001l0.114,0l0.114,-0l0.115,-0l0.114,-0.001l0.229,-0.001l0.114,-0l0.114,-0.001l0.114,-0.001l0.115,-0.001l0.227,-0.002l0.115,-0.001l0.114,-0.001l0.114,-0.001l0.114,-0.001l0.228,-0.003l0.114,-0.002l0.115,-0.001l0.569,-0.01l0.115,-0.002l0.456,-0.009l0.456,-0.011l0.113,-0.004l0.115,-0.003l0.342,-0.01l0.342,-0.011l0.341,-0.012l0.115,-0.005l0.342,-0.014l0.114,-0.005l0.114,-0.004l0.114,-0.006l0.057,-0.002l0.228,-0.011l0.058,-0.003l0.171,-0.009l0.057,-0.003l0.057,-0.003l0.057,-0.002l0.114,-0.007l0.057,-0.003l0.057,-0.003l0.058,-0.003l0.17,-0.01l0.057,-0.004l0.058,-0.003l0.057,-0.003l0.057,-0.004l0.057,-0.003l0.057,-0.004l0.114,-0.007l0.058,-0.004l0.057,-0.004l0.057,-0.004l0.057,-0.003l0.114,-0.008l0.057,-0.004l0.058,-0.004l0.057,-0.004l0.057,-0.004l0.04,-0.003l0.039,-0.003l0.04,-0.002l0.119,-0.008l0.039,-0.003l0.04,-0.002l0.04,-0.003l0.198,-0.011l0.041,-0.003l0.079,-0.004l0.041,-0.002l0.039,-0.003l0.04,-0.001l0.04,-0.002l0.041,-0.003l0.04,-0.001l0.04,-0.002l0.04,-0.002l0.04,-0.002l0.04,-0.001l0.04,-0.002l0.04,-0.002l0.041,-0.002l0.121,-0.004l0.04,-0.001l0.04,-0.002l0.04,-0.001l0.081,-0.003l0.04,-0.001l0.041,-0.001l0.242,-0.006l0.041,-0.001l0.041,-0l0.04,-0.001l0.041,-0l0.04,-0.001l0.081,-0.001l0.041,-0l0.081,-0.001l0.041,-0l0.04,-0.001Z"/><path d="M135.882,21.885l0,-0l0.151,0.051l0,-0l0.103,0.072l-0,0l0.064,0.078l-0,0l0.029,0.06l0.001,0.001l0.01,0.034l0.003,0.013l0.003,0.02l0.001,0.015l0,0.011l0.001,0.009l0,0.006l-0.027,0.128l-0.001,0.001l-0.002,0.009l-0.002,0.011l-0.002,0.012l-0.002,0.014l-0.003,0.014l-0.002,0.015l-0.002,0.015l-0.003,0.017l-0.003,0.017l-0.002,0.018l-0.002,0.019l-0.003,0.02l-0.003,0.02l-0.003,0.021l-0.002,0.021l-0.003,0.022l-0.002,0.023l-0.003,0.024l-0.003,0.024l-0.002,0.025l-0.003,0.025l-0.002,0.026l-0.003,0.026l-0.002,0.027l-0.003,0.028l-0.002,0.028l-0.002,0.029l-0.003,0.029l-0.002,0.03l-0.002,0.03l-0.002,0.03l-0.001,0.031l-0.002,0.032l-0.002,0.032l-0.002,0.032l-0.001,0.033l-0.002,0.033l-0.001,0.034l-0.001,0.034l-0.001,0.034l-0.001,0.035l-0,0.035l-0.001,0.035l-0,0.036l-0.001,0.036l0,0.14l-0,0.052l-0,0.053l-0.001,0.052l0,0.052l-0,0.052l-0.001,0.052l-0.001,0.104l-0.001,0.052l-0.002,0.104l-0.001,0.052l-0.001,0.052l-0.001,0.052l-0.001,0.052l-0.001,0.052l-0.002,0.052l-0.001,0.052l-0.001,0.052l-0.002,0.052l-0.001,0.052l-0.002,0.052l-0.002,0.052l-0.001,0.052l-0.003,0.104l-0.002,0.052l-0.003,0.052l-0.003,0.104l-0.002,0.051l-0.002,0.052l-0.003,0.052l-0.001,0.052l-0.005,0.104l-0.005,0.104l-0.005,0.103l-0.004,0.104l-0.016,0.311l-0.006,0.104l-0.012,0.207l-0.006,0.103l-0.011,0.207l-0.007,0.103l-0.003,0.048l-0.002,0.046l-0.003,0.047l-0.003,0.047l-0.002,0.047l-0.002,0.047l-0.008,0.141l-0.001,0.047l-0.003,0.047l-0.003,0.094l-0.002,0.047l-0.002,0.047l-0.002,0.047l-0.001,0.047l-0.002,0.047l-0.002,0.094l-0.002,0.047l-0.001,0.047l-0.001,0.048l-0.001,0.047l-0.002,0.094l-0.001,0.047l-0.001,0.047l-0.001,0.094l-0.001,0.047l-0,0.047l-0.001,0.048l0,0.047l-0,0.047l-0,0.047l-0.001,0.047l0,0.283l0.001,0.048l-0,0.047l0,0.047l0,0.047l0.003,0.189l0,0.048l0.001,0.047l0,0.047l0.001,0.047l0.002,0.095l0.001,0.047l0.002,0.095l0.001,0.047l0.001,0.047l0.001,0.048l0.002,0.047l0.004,0.142l0.001,0.047l0.003,0.095l0.003,0.095l0.007,0.19l0.004,0.094l0.004,0.095l0.004,0.095l0.004,0.095l0.004,0.095l0.005,0.095l0.004,0.095l0.005,0.095l0.005,0.095l0.005,0.095l0.005,0.095l0.016,0.285l0.005,0.095l0.006,0.095l0.005,0.095l0.006,0.095l0.006,0.096l0.012,0.19l0.012,0.19l0.006,0.095l0.006,0.096l0.007,0.095l0.012,0.191l0.026,0.381l0.013,0.191l0.026,0.382l0.026,0.381l0.013,0.192l0.013,0.191l0.006,0.095l0.007,0.096l0.006,0.095l0.005,0.096l0.006,0.096l0.007,0.095l0.006,0.096l0.005,0.095l0.006,0.096l0.006,0.096l0.005,0.096l0.006,0.095l0.011,0.192l0.005,0.095l0.005,0.096l0.005,0.095l0.005,0.096l0.005,0.096l0.004,0.096l0.005,0.096l0.004,0.095l0.004,0.096l0.008,0.192l0.004,0.095l0.004,0.096l0.003,0.096l0.006,0.192l0.002,0.047l0.002,0.096l0.002,0.048l0.001,0.048l0.005,0.192l0.001,0.048l0.002,0.095l0.001,0.096l0.001,0.048l0.001,0.096l0.001,0.048l0.002,0.143l-0,0.048l0,0.048l0,0.048l0.001,0.048l0,0.201l0.001,0.029l-0,0.057l0,0.029l0.001,0.028l-0,0.029l0,0.028l0.001,0.029l0.001,0.029l0,0.029l0.001,0.028l0.001,0.029l0.001,0.028l0.001,0.029l0,0.028l0.002,0.029l0,0.029l0.001,0.029l0.003,0.057l0.002,0.057l0.003,0.058l0.002,0.057l0.003,0.058l0.003,0.057l0.004,0.058l0.003,0.057l0.007,0.115l0.004,0.058l0.007,0.115l0.004,0.058l0.003,0.057l0.005,0.058l0.033,0.464l0.008,0.116l0.008,0.117l0.004,0.058l0.004,0.058l0.004,0.059l0.004,0.058l0.003,0.059l0.005,0.058l0.003,0.059l0.003,0.059l0.004,0.058l0.003,0.059l0.003,0.059l0.003,0.059l0.002,0.059l0.003,0.059l0.005,0.118l0.001,0.03l0.002,0.029l0,0.03l0.001,0.03l0.001,0.029l0.001,0.03l0.001,0.059l0.002,0.03l0,0.029l0.001,0.06l0,0.03l0.001,0.059l0,0.03l0.001,0.03l0,0.1l0.001,0.007l-0,0.016l0,0.01l0.001,0.009l0,0.011l0.002,0.022l0.001,0.026l0.002,0.027l0.003,0.03l0.002,0.031l0.003,0.033l0.003,0.034l0.003,0.036l0.003,0.037l0.004,0.039l0.004,0.04l0.004,0.041l0.004,0.041l0.005,0.043l0.004,0.043l0.004,0.044l0.01,0.089l0.005,0.046l0.005,0.046l0.005,0.045l0.006,0.046l0.016,0.137l0.006,0.045l0.005,0.045l0.005,0.044l0.006,0.044l0.006,0.043l0.005,0.042l0.005,0.041l0.006,0.04l0.005,0.039l0.005,0.038l0.005,0.037l0.005,0.035l0.005,0.034l0.005,0.031l0.005,0.03l0.004,0.026l0.027,0.036l0.027,0.127l0,0.025l-0,0.013l-0.001,0.012l-0.001,0.025l-0.001,0.012l-0.001,0.009l-0.001,0.008l-0.002,0.009l-0.001,0.01l-0.003,0.012l-0.003,0.013l-0.006,0.017l-0.007,0.022l-0.014,0.028l-0.009,0.016l-0.03,0.043l-0.001,0.001l-0.046,0.047l-0.001,0.001l-0.039,0.03l0,0.001l-0.059,0.034l-0.083,0.034l-0.082,0.018l-0.117,0.006l-0,0l-0.095,-0.011l-0.083,-0.024l-0,-0l-0.084,-0.04l-0,-0.001l-0.072,-0.052l-0,-0l-0.036,-0.037l-0.013,-0.015l-0.018,-0.025l-0.011,-0.02l-0.008,-0.015l-0.006,-0.013l-0.006,-0.011l-0.004,-0.011l-0.004,-0.014l-0.005,-0.014l-0.004,-0.012l-0.003,-0.011l-0.002,-0.011l-0.003,-0.011l-0.002,-0.011l-0.005,-0.022l-0.005,-0.023l-0.002,-0.012l-0.003,-0.013l-0.001,-0.013l-0.003,-0.013l-0.005,-0.028l-0.004,-0.03l-0.006,-0.031l-0.004,-0.032l-0.006,-0.034l-0.005,-0.036l-0.005,-0.037l-0.006,-0.038l-0.005,-0.039l-0.005,-0.041l-0.006,-0.041l-0.006,-0.043l-0.005,-0.042l-0.006,-0.045l-0.005,-0.044l-0.006,-0.045l-0.006,-0.046l-0.005,-0.046l-0.006,-0.046l-0.011,-0.093l-0.005,-0.047l-0.011,-0.093l-0.005,-0.046l-0.009,-0.092l-0.005,-0.045l-0.005,-0.044l-0.005,-0.043l-0.004,-0.043l-0.004,-0.043l-0.004,-0.04l-0.004,-0.04l-0.003,-0.039l-0.004,-0.037l-0.003,-0.037l-0.003,-0.035l-0.002,-0.033l-0.003,-0.032l-0.002,-0.03l-0.002,-0.029l-0,-0.014l-0.001,-0.013l-0.002,-0.026l-0.001,-0.025l0,-0.011l-0,-0.011l-0,-0.108l-0.001,-0.029l-0,-0.028l-0.001,-0.029l0,-0.028l-0,-0.029l-0.001,-0.029l-0,-0.029l-0.001,-0.028l-0.001,-0.029l-0.001,-0.028l-0,-0.029l-0.001,-0.028l-0.001,-0.029l-0.001,-0.029l-0.001,-0.029l-0.001,-0.028l-0.001,-0.029l-0.002,-0.058l-0.002,-0.057l-0.003,-0.057l-0.003,-0.057l-0.003,-0.058l-0.003,-0.057l-0.003,-0.058l-0.003,-0.058l-0.004,-0.057l-0.014,-0.231l-0.004,-0.058l-0.004,-0.057l-0.012,-0.173l-0.017,-0.232l-0.016,-0.233l-0.008,-0.116l-0.008,-0.117l-0.005,-0.058l-0.003,-0.059l-0.004,-0.058l-0.004,-0.059l-0.003,-0.058l-0.003,-0.059l-0.004,-0.059l-0.003,-0.058l-0.004,-0.059l-0.003,-0.059l-0.002,-0.059l-0.003,-0.059l-0.002,-0.059l-0.003,-0.059l-0.002,-0.06l-0.001,-0.029l-0.001,-0.03l-0,-0.03l-0.002,-0.029l-0.001,-0.06l-0.001,-0.029l-0,-0.03l-0.001,-0.029l-0.001,-0.03l0,-0.03l-0.001,-0.06l0,-0.06l-0,-0.029l-0,-0.201l-0.001,-0.048l-0,-0.047l-0.001,-0.047l0,-0.047l-0,-0.047l-0.001,-0.048l-0,-0.047l-0.001,-0.047l-0.001,-0.047l-0,-0.048l-0.001,-0.047l-0.001,-0.047l-0.001,-0.047l-0.001,-0.048l-0,-0.047l-0.002,-0.047l-0.002,-0.095l-0.001,-0.047l-0.002,-0.095l-0.002,-0.047l-0.001,-0.048l-0.002,-0.047l-0.001,-0.047l-0.003,-0.095l-0.003,-0.095l-0.003,-0.095l-0.004,-0.095l-0.004,-0.094l-0.004,-0.095l-0.004,-0.095l-0.004,-0.095l-0.008,-0.189l-0.014,-0.285l-0.006,-0.095l-0.005,-0.095l-0.005,-0.096l-0.016,-0.284l-0.005,-0.096l-0.012,-0.19l-0.005,-0.095l-0.006,-0.095l-0.007,-0.096l-0.006,-0.095l-0.012,-0.19l-0.006,-0.095l-0.007,-0.096l-0.012,-0.19l-0.013,-0.191l-0.013,-0.191l-0.065,-0.954l-0.013,-0.191l-0.013,-0.191l-0.006,-0.096l-0.006,-0.095l-0.007,-0.096l-0.005,-0.096l-0.006,-0.095l-0.006,-0.096l-0.006,-0.095l-0.006,-0.096l-0.006,-0.096l-0.006,-0.096l-0.005,-0.095l-0.006,-0.096l-0.006,-0.096l-0.004,-0.095l-0.011,-0.192l-0.024,-0.478l-0.004,-0.096l-0.008,-0.192l-0.004,-0.095l-0.004,-0.096l-0.003,-0.096l-0.004,-0.096l-0.003,-0.096l-0.003,-0.095l-0.001,-0.048l-0.002,-0.048l-0.001,-0.048l-0.001,-0.048l-0.002,-0.048l-0.001,-0.048l-0.001,-0.048l-0.002,-0.096l-0.002,-0.048l-0,-0.048l-0.001,-0.047l-0.001,-0.048l-0.001,-0.048l-0.001,-0.048l-0,-0.048l-0.002,-0.096l-0,-0.048l-0.001,-0.096l-0,-0.048l-0.001,-0.048l0,-0.048l-0,-0.048l-0,-0.287l0,-0.048l0,-0.048l0.001,-0.048l-0,-0.048l0,-0.048l0.001,-0.048l0.001,-0.096l0.001,-0.048l0.001,-0.095l0.002,-0.048l0.001,-0.048l0.006,-0.24l0.002,-0.048l0.001,-0.048l0.007,-0.192l0.002,-0.048l0.001,-0.047l0.003,-0.048l0.002,-0.048l0.007,-0.144l0.002,-0.048l0.002,-0.048l0.003,-0.048l0.003,-0.048l0.003,-0.048l0.003,-0.048l0.006,-0.103l0.006,-0.103l0.006,-0.102l0.006,-0.103l0.005,-0.103l0.006,-0.103l0.006,-0.103l0.016,-0.308l0.004,-0.103l0.005,-0.103l0.005,-0.103l0.002,-0.051l0.003,-0.052l0.001,-0.051l0.003,-0.051l0.002,-0.052l0.002,-0.051l0.002,-0.051l0.003,-0.103l0.006,-0.154l0.001,-0.052l0.002,-0.051l0.001,-0.051l0.002,-0.052l0.003,-0.102l0.001,-0.052l0.002,-0.051l0.003,-0.154l0.001,-0.051l0.001,-0.051l0,-0.052l0.002,-0.051l0,-0.051l0.001,-0.103l0.002,-0.102l-0,-0.052l0,-0.051l0,-0.051l0.001,-0.051l-0,-0.142l0,-0.038l0,-0.039l0.001,-0.038l0.001,-0.037l0.001,-0.037l0.001,-0.037l0.001,-0.036l0.001,-0.036l0.002,-0.036l0.001,-0.035l0.002,-0.035l0.002,-0.034l0.002,-0.034l0.002,-0.033l0.002,-0.033l0.002,-0.032l0.003,-0.032l0.002,-0.031l0.002,-0.031l0.003,-0.03l0.003,-0.03l0.002,-0.029l0.002,-0.029l0.003,-0.028l0.003,-0.027l0.003,-0.027l0.003,-0.026l0.003,-0.026l0.003,-0.025l0.003,-0.024l0.003,-0.024l0.002,-0.023l0.003,-0.022l0.003,-0.022l0.003,-0.021l0.003,-0.02l0.003,-0.02l0.003,-0.019l0.003,-0.018l0.002,-0.018l0.003,-0.017l0.003,-0.016l0.002,-0.015l0.003,-0.015l0.003,-0.014l0.003,-0.014l0.002,-0.013l0.002,-0.012l0.003,-0.012l0.003,-0.011l0.003,-0.012l0.003,-0.012l0.003,-0.012l0.004,-0.013l0.004,-0.01l0.004,-0.011l0.005,-0.013l0.008,-0.017l0.006,-0.01l0.018,-0.03l0.001,-0l0.038,-0.048l0.001,-0l0.062,-0.053l-0,-0.001l0.093,-0.051l0,0l0.146,-0.039l0,0l0.095,-0.005l0.094,0.011Zm-0.512,0.565l0.018,0.017l-0.042,-0.056l0.024,0.039Zm-0.071,-0.189l-0,0.006l0,0.008l0.001,0.012l0.003,0.018l0.007,0.027l0.016,0.047l-0.027,-0.118Z"/><path d="M135.871,23.552l0,17.392l-57.975,-0l0,-17.392l57.975,0Zm-26.798,13.498c0.09,-0 0.135,-0.049 0.135,-0.146l-0,-10.74c-0,-0.075 -0.039,-0.113 -0.118,-0.113l-2.457,0c-0.078,0 -0.117,0.043 -0.117,0.129l-0,10.595c-0,0.183 0.061,0.275 0.185,0.275l2.372,-0Zm5.435,-2.184l0,-8.702c0,-0.075 -0.039,-0.113 -0.117,-0.113l-2.457,0c-0.079,0 -0.118,0.043 -0.118,0.129l0,10.757c0,0.075 0.062,0.113 0.185,0.113l7.101,-0c0.101,-0 0.16,-0.025 0.177,-0.073c0.017,-0.049 0.025,-0.111 0.025,-0.186l0,-1.698c0,-0.044 -0.014,-0.092 -0.042,-0.146c-0.028,-0.054 -0.092,-0.081 -0.193,-0.081l-4.561,0Zm-24.971,2.184c0.46,-0 0.881,-0.043 1.262,-0.13c0.381,-0.086 0.707,-0.218 0.976,-0.396c0.269,-0.178 0.48,-0.404 0.631,-0.679c0.151,-0.275 0.227,-0.607 0.227,-0.995l0,-1.892c0,-0.324 -0.126,-0.612 -0.378,-0.866c-0.253,-0.253 -0.575,-0.434 -0.968,-0.542l0,-0.113c0.438,-0.205 0.757,-0.423 0.959,-0.655c0.202,-0.232 0.303,-0.536 0.303,-0.914l0,-1.682c0,-0.367 -0.067,-0.682 -0.202,-0.946c-0.134,-0.264 -0.32,-0.485 -0.555,-0.663c-0.236,-0.178 -0.511,-0.31 -0.825,-0.397c-0.314,-0.086 -0.656,-0.129 -1.026,-0.129l-5.721,0c-0.157,0 -0.253,0.03 -0.286,0.089c-0.034,0.059 -0.051,0.138 -0.051,0.235l0,10.27c0,0.27 0.107,0.405 0.32,0.405l5.334,-0Zm11.813,-0c0.74,-0 1.351,-0.208 1.834,-0.623c0.482,-0.415 0.723,-1.076 0.723,-1.981l0,-8.185c0,-0.14 -0.056,-0.21 -0.168,-0.21l-2.356,0c-0.089,0 -0.14,0.027 -0.151,0.081c-0.011,0.054 -0.017,0.124 -0.017,0.21l0,8.023c0,0.172 -0.02,0.299 -0.059,0.38c-0.039,0.081 -0.126,0.121 -0.261,0.121l-3.045,0c-0.09,0 -0.169,-0.04 -0.236,-0.121c-0.067,-0.081 -0.101,-0.218 -0.101,-0.413l0,-8.087c0,-0.065 -0.025,-0.113 -0.076,-0.145c-0.05,-0.033 -0.087,-0.049 -0.109,-0.049l-2.221,0c-0.079,0 -0.146,0.016 -0.202,0.049c-0.056,0.032 -0.084,0.113 -0.084,0.242l-0,8.362c-0,0.356 0.059,0.68 0.176,0.971c0.118,0.291 0.278,0.539 0.48,0.744c0.202,0.205 0.435,0.361 0.698,0.469c0.264,0.108 0.542,0.162 0.833,0.162l4.342,-0Zm24.365,-0c1.279,-0 2.283,-0.302 3.012,-0.906c0.729,-0.604 1.094,-1.52 1.094,-2.75l0,-3.671c0,-0.604 -0.098,-1.135 -0.294,-1.594c-0.197,-0.458 -0.469,-0.841 -0.817,-1.148c-0.347,-0.307 -0.757,-0.539 -1.228,-0.695c-0.471,-0.157 -0.981,-0.235 -1.531,-0.235l-4.88,0c-0.157,0.022 -0.252,0.057 -0.286,0.105c-0.034,0.049 -0.051,0.122 -0.051,0.219l0,10.27c0,0.27 0.107,0.405 0.32,0.405l4.661,-0Zm-36.716,-4.594c0.392,0 0.647,0.078 0.765,0.235c0.118,0.156 0.177,0.374 0.177,0.655l-0,0.841c-0,0.55 -0.281,0.825 -0.842,0.825l-2.524,-0l0,-2.556l2.424,0Zm36.262,-4.221c0.269,-0 0.516,0.021 0.74,0.064c0.225,0.043 0.421,0.122 0.589,0.235c0.169,0.113 0.3,0.267 0.396,0.461c0.095,0.194 0.143,0.442 0.143,0.744l-0,3.655c-0,0.464 -0.126,0.825 -0.379,1.084c-0.252,0.259 -0.631,0.388 -1.136,0.388l-2.187,0l-0,-6.631l1.834,-0Zm-36.431,-0.114c0.303,0 0.564,0.057 0.783,0.17c0.218,0.113 0.328,0.343 0.328,0.688l-0,0.76c-0,0.291 -0.051,0.493 -0.152,0.606c-0.101,0.114 -0.252,0.17 -0.454,0.17l-2.76,0l0,-2.394l2.255,0Z"/><g><path d="M95.339,14.769c0,0.574 -0.51,1.1 -1.531,1.577c-2.314,1.071 -4.911,1.705 -7.79,1.902c-0.35,0.019 -0.671,0.029 -0.963,0.029c-2.052,0.002 -3.079,-0.557 -3.08,-1.676c0,-0.272 0.073,-0.574 0.219,-0.904c0.194,-0.467 0.525,-0.677 0.991,-0.628c0.467,0.058 0.672,0.272 0.614,0.641c-0.039,0.234 0.017,0.426 0.168,0.576c0.151,0.151 0.348,0.236 0.591,0.255c1.187,0.097 2.879,-0.118 5.077,-0.645c0.535,-0.146 1.352,-0.361 2.451,-0.643c0.632,-0.156 0.972,-0.361 1.021,-0.614c0.038,-0.233 -0.098,-0.423 -0.409,-0.568c-0.244,-0.107 -0.492,-0.166 -0.744,-0.175c-1.265,-0.067 -3.152,-0.149 -5.662,-0.245l-3.107,-0.056c-0.662,-0.009 -1.163,-0.033 -1.503,-0.072c-0.681,-0.068 -1.158,-0.204 -1.43,-0.408c-0.429,-0.311 -0.687,-0.928 -0.775,-1.852c-0.029,-0.321 0.423,-0.657 1.356,-1.008c1.284,-0.487 2.748,-0.93 4.391,-1.33c2.111,-0.498 3.978,-0.917 5.602,-1.258c0.185,-0.039 0.384,-0.044 0.598,-0.015c0.195,0.029 0.336,0.262 0.424,0.7c0.019,0.126 0.029,0.248 0.029,0.364c0,0.244 -0.082,0.484 -0.247,0.723c-0.165,0.238 -0.365,0.382 -0.598,0.431c-0.224,-0.088 -0.443,-0.18 -0.657,-0.277c-0.195,-0.068 -0.447,-0.078 -0.759,-0.029c-2.178,0.361 -4.143,0.805 -5.893,1.331c-1.021,0.312 -1.532,0.561 -1.532,0.746c-0.01,0.126 0.346,0.204 1.065,0.232c0.38,0.02 0.881,0.024 1.503,0.014c0.506,-0 0.973,0.004 1.401,0.014c3.395,0.085 5.715,0.288 6.96,0.608c0.584,0.155 1.08,0.418 1.489,0.787c0.486,0.428 0.73,0.919 0.73,1.473Z" style="fill-rule:nonzero;"/><path d="M106.573,7.54c0.059,0.331 0.034,0.574 -0.072,0.729c-0.107,0.156 -0.326,0.249 -0.657,0.278c-1.332,0.118 -3.326,0.333 -5.981,0.646c0.273,1.77 0.473,3.54 0.601,5.31c0.059,0.827 0.094,1.819 0.104,2.977c0.001,1.089 -0.028,1.979 -0.086,2.67c-0.048,0.593 -0.286,0.822 -0.714,0.686c-0.681,-0.214 -1.003,-0.573 -0.964,-1.079c0.01,-0.165 0.092,-0.389 0.248,-0.671c0.136,-0.253 0.209,-0.477 0.218,-0.672c0.038,-1.293 0.008,-2.616 -0.09,-3.968c-0.118,-1.644 -0.289,-3.22 -0.514,-4.727c-0.009,-0.049 -0.039,-0.151 -0.087,-0.307c-1.809,0.332 -3.181,0.737 -4.114,1.214c-0.165,0.078 -0.301,0.224 -0.408,0.438c-0.136,0.243 -0.253,0.409 -0.35,0.496c-0.175,0.146 -0.399,0.2 -0.671,0.161c-0.263,-0.038 -0.494,-0.24 -0.694,-0.605c-0.199,-0.364 -0.236,-0.654 -0.11,-0.868c0.107,-0.175 0.248,-0.331 0.423,-0.467c0.972,-0.769 2.849,-1.422 5.631,-1.959c0.126,-0.204 0.335,-0.335 0.627,-0.394c0.282,-0.049 0.482,0.014 0.598,0.189c0.846,-0.136 1.678,-0.259 2.495,-0.366l2.232,-0.279c0.195,-0.029 0.414,-0.114 0.657,-0.255c0.243,-0.142 0.442,-0.222 0.598,-0.242c0.583,-0.087 0.943,0.267 1.08,1.065Z" style="fill-rule:nonzero;"/><path d="M119.973,10.172c0.039,0.195 0.058,0.365 0.058,0.511c0.001,0.467 -0.194,0.754 -0.583,0.861c-0.194,0.049 -0.413,0.049 -0.656,0.001c-0.263,-0.049 -0.487,-0.054 -0.672,-0.015c-3.52,0.839 -7.663,1.985 -12.428,3.437c-0,0.049 -0.01,0.102 -0.029,0.16c-0.068,0.292 -0.078,0.531 -0.029,0.715c0.107,0.419 0.705,0.676 1.795,0.773c0.428,0.038 0.846,0.048 1.255,0.028c0.389,-0.02 0.671,-0.044 0.846,-0.074c1.935,-0.331 4.075,-1.067 6.418,-2.207c0.175,-0.087 0.338,-0.226 0.489,-0.416c0.15,-0.19 0.279,-0.319 0.386,-0.387c0.185,-0.107 0.404,-0.131 0.657,-0.073c0.253,0.068 0.452,0.306 0.598,0.714c0.078,0.214 0.117,0.389 0.117,0.526c0.001,0.136 -0.033,0.243 -0.101,0.321c-0.137,0.155 -0.297,0.287 -0.482,0.394c-0.962,0.555 -2.226,1.096 -3.792,1.622c-1.478,0.497 -2.806,0.848 -3.983,1.053c-0.739,0.127 -1.41,0.19 -2.013,0.191c-1.897,0.001 -3.026,-0.674 -3.386,-2.026c-0.078,-0.292 -0.117,-0.589 -0.118,-0.89c-0.029,0.01 -0.116,0.034 -0.262,0.073c-0.195,0.059 -0.394,0.078 -0.598,0.059c-0.195,-0.02 -0.341,-0.248 -0.438,-0.686c-0.078,-0.36 -0.042,-0.678 0.108,-0.955c0.151,-0.278 0.406,-0.446 0.766,-0.504c0.156,-0.02 0.438,-0.03 0.846,-0.03c0.078,-0.224 0.224,-0.623 0.437,-1.197c0.02,-0.058 0.029,-0.107 0.029,-0.146c0,-0.146 -0.121,-0.228 -0.365,-0.247c-0.311,-0.01 -0.481,-0.156 -0.511,-0.438c-0.029,-0.253 0.005,-0.515 0.102,-0.788c0.117,-0.321 0.287,-0.496 0.51,-0.525c0.175,-0.059 0.492,-0.083 0.949,-0.074c0.428,0.01 0.739,-0.02 0.933,-0.088c4.561,-1.734 7.795,-2.67 9.701,-2.807c0.331,-0.03 0.569,0.011 0.715,0.123c0.146,0.112 0.239,0.338 0.278,0.678c0.088,0.759 -0.16,1.163 -0.743,1.212c-0.214,0.019 -0.453,0.005 -0.715,-0.043c-0.234,-0.049 -0.574,-0.034 -1.022,0.044c-0.35,0.059 -0.7,0.117 -1.05,0.176c-0.846,0.117 -2.227,0.526 -4.143,1.228c-0.963,0.351 -1.984,0.774 -3.063,1.271c-0.097,0.282 -0.248,0.706 -0.452,1.27c0,0.029 -0.009,0.058 -0.029,0.087c4.211,-1.043 8.422,-2.228 12.633,-3.553c0.195,-0.059 0.394,-0.078 0.598,-0.059c0.195,0.029 0.341,0.263 0.439,0.7Z" style="fill-rule:nonzero;"/><path d="M130.932,7.525c0.059,0.33 0.035,0.573 -0.072,0.729c-0.107,0.156 -0.326,0.248 -0.657,0.278c-1.332,0.117 -3.326,0.333 -5.981,0.645c0.273,1.771 0.474,3.541 0.601,5.311c0.059,0.827 0.094,1.819 0.104,2.976c0.001,1.09 -0.028,1.98 -0.086,2.67c-0.048,0.594 -0.286,0.823 -0.714,0.687c-0.681,-0.214 -1.002,-0.574 -0.964,-1.079c0.01,-0.166 0.092,-0.39 0.248,-0.672c0.136,-0.253 0.209,-0.476 0.218,-0.671c0.038,-1.294 0.008,-2.617 -0.09,-3.969c-0.117,-1.643 -0.289,-3.219 -0.513,-4.727c-0.01,-0.048 -0.039,-0.15 -0.088,-0.306c-1.809,0.332 -3.18,0.737 -4.114,1.214c-0.165,0.078 -0.301,0.224 -0.408,0.438c-0.136,0.243 -0.253,0.408 -0.35,0.496c-0.175,0.146 -0.399,0.2 -0.671,0.161c-0.263,-0.039 -0.494,-0.241 -0.693,-0.605c-0.2,-0.365 -0.237,-0.654 -0.11,-0.868c0.107,-0.175 0.247,-0.331 0.422,-0.467c0.973,-0.769 2.85,-1.422 5.631,-1.959c0.126,-0.204 0.335,-0.336 0.627,-0.394c0.282,-0.049 0.482,0.014 0.599,0.189c0.846,-0.137 1.677,-0.259 2.494,-0.366l2.232,-0.279c0.195,-0.029 0.414,-0.115 0.657,-0.256c0.243,-0.141 0.442,-0.221 0.598,-0.241c0.583,-0.088 0.944,0.267 1.08,1.065Z" style="fill-rule:nonzero;"/><path d="M133.583,17.43c-0.126,0.165 -0.282,0.292 -0.466,0.379c0.019,0.088 0.029,0.171 0.029,0.248c0,0.487 -0.262,0.745 -0.787,0.774l-1.416,0.089c-0.418,0.029 -0.681,-0.194 -0.788,-0.671c-0.029,-0.107 -0.044,-0.204 -0.044,-0.292c-0,-0.321 0.146,-0.559 0.437,-0.715l1.94,-1.037c0.185,-0.098 0.375,-0.156 0.569,-0.176c0.195,-0.019 0.36,0.17 0.497,0.569c0.136,0.399 0.146,0.676 0.029,0.832Z" style="fill-rule:nonzero;"/></g><path d="M144.141,46.115c-0.243,0.415 -0.586,0.77 -1.031,1.066c-0.228,0.152 -0.455,0.28 -0.683,0.384c-0.49,0.228 -1.019,0.376 -1.585,0.445c-0.172,0.02 -0.339,0.03 -0.501,0.031c-0.367,-0 -0.707,-0.053 -1.021,-0.159c-0.425,-0.142 -0.7,-0.371 -0.827,-0.69c-0.048,-0.119 -0.072,-0.242 -0.072,-0.368c-0,-0.182 0.046,-0.373 0.14,-0.573c0.308,-0.653 1.115,-1.251 2.423,-1.796c0.685,-0.283 1.547,-0.541 2.586,-0.771c0.068,-0.099 0.122,-0.142 0.16,-0.13c0.037,0.013 0.072,0.037 0.102,0.073c0.045,-0.008 0.105,-0.034 0.178,-0.078c0.074,-0.045 0.132,-0.072 0.175,-0.082c0.086,-0.018 0.153,-0 0.203,0.053c0.049,0.053 0.07,0.123 0.062,0.209c-0.007,0.091 -0.029,0.154 -0.066,0.189c-0.037,0.036 -0.1,0.062 -0.191,0.08c-0.023,0.008 -0.048,0.013 -0.076,0.015c0.21,0.347 0.315,0.707 0.315,1.081c0,0.347 -0.097,0.687 -0.291,1.021Zm-0.054,-0.914c-0,-0.362 -0.142,-0.726 -0.425,-1.093c-1.942,0.419 -3.336,0.951 -4.18,1.596c-0.475,0.362 -0.713,0.697 -0.712,1.006c-0,0.068 0.012,0.134 0.038,0.197c0.093,0.238 0.316,0.415 0.668,0.531c0.296,0.098 0.614,0.147 0.956,0.147c0.151,0 0.307,-0.01 0.466,-0.03c0.531,-0.064 1.027,-0.201 1.487,-0.413c0.46,-0.211 0.839,-0.469 1.138,-0.773c0.376,-0.382 0.564,-0.771 0.564,-1.168Zm-0.872,0.888c-0.69,0.339 -1.476,0.644 -2.359,0.916c-0.296,0.091 -0.564,0.157 -0.804,0.197c-0.109,0.018 -0.203,0.027 -0.284,0.027c-0.165,0 -0.275,-0.04 -0.33,-0.121c-0.033,-0.053 -0.05,-0.11 -0.05,-0.171c-0,-0.192 0.184,-0.436 0.553,-0.732c0.461,-0.367 1.069,-0.747 1.824,-1.139c0.198,-0.104 0.352,-0.173 0.463,-0.206c0.147,-0.045 0.272,-0.053 0.376,-0.023c0.045,0.013 0.088,0.036 0.129,0.069c0.017,0.017 0.026,0.044 0.026,0.079c0,0.036 -0.009,0.081 -0.026,0.137c-0.063,0.184 -0.162,0.257 -0.296,0.216c-0.033,-0.01 -0.063,-0.021 -0.091,-0.034c-0.033,-0.015 -0.073,-0.015 -0.121,0c-0.112,0.036 -0.248,0.095 -0.41,0.179c-0.715,0.372 -1.301,0.738 -1.756,1.097c-0.129,0.101 -0.197,0.161 -0.204,0.179c0.022,0.005 0.097,0.005 0.223,-0c0.764,-0.072 1.706,-0.39 2.826,-0.954c0.035,-0.018 0.077,-0.05 0.125,-0.097c0.048,-0.047 0.089,-0.079 0.121,-0.097c0.056,-0.028 0.114,-0.036 0.175,-0.023c0.056,0.013 0.088,0.072 0.099,0.178c0.007,0.086 -0.005,0.151 -0.036,0.196c-0.032,0.044 -0.089,0.086 -0.173,0.127Z" style="fill-rule:nonzero;"/></g><g id="Layer4"></g></svg>