<?xml version="1.0" encoding="UTF-8" standalone="no"?>
<!DOCTYPE svg PUBLIC "-//W3C//DTD SVG 1.1//EN" "http://www.w3.org/Graphics/SVG/1.1/DTD/svg11.dtd">
<svg width="100%" height="100%" viewBox="0 0 2480 1748" version="1.1" xmlns="http://www.w3.org/2000/svg" xmlns:xlink="http://www.w3.org/1999/xlink" xml:space="preserve" xmlns:serif="http://www.serif.com/" style="fill-rule:evenodd;clip-rule:evenodd;stroke-linejoin:round;stroke-miterlimit:2;">
    <g transform="matrix(0.745107,0,0,0.745107,316.107,222.78)">
        <g id="noun-folder-7403612-2.svg" serif:id="noun-folder-7403612 2.svg" transform="matrix(7.81276,0,0,7.81276,1240.16,874.016)">
            <g id="Layer1">
                <g id="noun-folder-7403612-2.svg1" serif:id="noun-folder-7403612 2.svg" transform="matrix(1,0,0,1,-55,-67.5)">
                    <g transform="matrix(1,0,0,1,5,10)">
                        <path d="M19,76L15,76L15,24L19,24L19,76ZM19,24L19,20L45,20L45,24L19,24ZM45,24L77,24L77,28L45,28L45,24ZM77,28L81,28L81,36L85,36L85,76L81,76L81,40L27,40L27,36L77,36L77,28ZM81,76L81,80L19,80L19,76L23,76L23,40L27,40L27,76L81,76Z"/>
                    </g>
                </g>
                <g id="noun-folder-7403612-2.svg2" serif:id="noun-folder-7403612 2.svg">
                </g>
            </g>
        </g>
    </g>
</svg>
