<?xml version="1.0" encoding="UTF-8" standalone="no"?>
<!DOCTYPE svg PUBLIC "-//W3C//DTD SVG 1.1//EN" "http://www.w3.org/Graphics/SVG/1.1/DTD/svg11.dtd">
<svg width="100%" height="100%" viewBox="0 0 2500 1000" version="1.1" xmlns="http://www.w3.org/2000/svg" xmlns:xlink="http://www.w3.org/1999/xlink" xml:space="preserve" xmlns:serif="http://www.serif.com/" style="fill-rule:evenodd;clip-rule:evenodd;stroke-linejoin:round;stroke-miterlimit:2;">
    <g transform="matrix(0.963243,0,0,0.963243,-130.29,-172.597)">
        <path d="M1513.7,412.834L1499.4,417.02L1456.06,414.06L1445.44,418.894L1446.79,441.084L1474.89,475.968L1491.43,500.229L1508,502.63C1513.74,490.506 1516.9,475.271 1518.03,457.584L1477.9,455.508L1478.33,449.916L1516.89,436.656C1517.97,428.01 1516.87,420.084 1513.7,412.834Z"/>
        <g transform="matrix(1,0,0,1,-2,0)">
            <circle cx="1463.75" cy="427.75" r="10.75" style="fill:white;"/>
        </g>
        <g transform="matrix(0.627907,0,0,0.627907,542.651,159.163)">
            <circle cx="1463.75" cy="427.75" r="10.75"/>
        </g>
        <path d="M1421,340C1426.45,348.813 1427.22,357.151 1423,369C1390.8,409.834 1370.97,452.82 1358,497C1291.59,591.465 1318.13,720.644 1388,866C1407.35,825.713 1413.99,752.022 1417,627C1421.47,716.173 1426.79,805.654 1388,879C1382.52,970.818 1387,1066.33 1408,1088C1415.89,1096.14 1431.11,1103.25 1442,1087C1451.74,1099.27 1463.39,1103.78 1481,1084C1496.98,1028.44 1486.31,953.979 1477,878C1443.92,878.468 1433.33,708.391 1442,627C1448.39,729.65 1446.54,830.109 1472.26,867.704C1506.47,813.358 1526.55,732.882 1541,642C1547.77,589.44 1539.18,540.018 1509,495C1496,517.221 1482.07,467.639 1459,448C1446.94,437.729 1445.33,424.5 1450,419C1454.67,413.5 1471.13,416.843 1481,417C1491.5,417.167 1514.46,423.431 1515,412C1515.54,400.569 1495.58,366.278 1484.24,348.414C1466.57,320.58 1421,299 1421,299C1437.08,315.424 1449.06,338.181 1451.6,346.396C1439.54,326.574 1428.69,320.908 1418,317C1431.51,324.364 1435.56,337.76 1436,354C1433.88,346.718 1429.21,341.753 1421,340Z" style="fill:rgb(238,34,37);"/>
        <g transform="matrix(1,0,0,1,-0.00185475,1)">
            <path d="M1478,451C1479.67,440.26 1488.83,430.007 1509,418C1532.9,433.002 1544.67,446.18 1546.18,457C1546.18,457 1517.36,447.833 1506,447C1494.79,446.178 1478,451 1478,451Z" style="fill:rgb(238,109,34);"/>
        </g>
        <path d="M1478,454C1501.7,447.367 1522.89,451.7 1543.18,460C1522.38,468.496 1493.86,470 1483,469C1477.75,468.517 1478,454 1478,454Z" style="fill:rgb(238,109,34);"/>
    </g>
</svg>
