<?xml version="1.0" encoding="UTF-8" standalone="no"?>
<!DOCTYPE svg PUBLIC "-//W3C//DTD SVG 1.1//EN" "http://www.w3.org/Graphics/SVG/1.1/DTD/svg11.dtd">
<svg width="100%" height="100%" viewBox="0 0 100 50" version="1.1" xmlns="http://www.w3.org/2000/svg" xmlns:xlink="http://www.w3.org/1999/xlink" xml:space="preserve" xmlns:serif="http://www.serif.com/" style="fill-rule:evenodd;clip-rule:evenodd;stroke-linejoin:round;stroke-miterlimit:2;">
    <g transform="matrix(0.196542,0,0,0.196542,50,26.7666)">
        <g transform="matrix(1,0,0,1,-55,-67.5)">
            <g transform="matrix(1.01124,0,0,1.03333,-1.1236,-2)">
                <rect x="11" y="30" width="89" height="60" style="fill:white;"/>
            </g>
            <g transform="matrix(1,0,0,1,5,10)">
                <path d="M45.09,30.207C47.278,30.207 49.262,31.094 50.696,32.527C52.129,33.961 53.016,35.945 53.016,38.133C53.016,40.316 52.129,42.301 50.692,43.734C49.262,45.172 47.278,46.059 45.09,46.059C42.906,46.059 40.926,45.172 39.485,43.731C38.047,42.289 37.16,40.313 37.16,38.129C37.16,35.941 38.047,33.957 39.481,32.523L39.578,32.43C41.008,31.051 42.949,30.199 45.086,30.199L45.09,30.207ZM37.965,50.441L47.606,58.324L61.778,39.129C62.305,38.418 63.309,38.269 64.02,38.797C64.157,38.898 64.274,39.016 64.367,39.148L85.961,68.386C86.489,69.097 86.34,70.101 85.629,70.629C85.344,70.839 85.008,70.945 84.676,70.945L15.332,70.953C14.446,70.953 13.723,70.23 13.723,69.343C13.723,68.824 13.969,68.359 14.352,68.066L35.918,50.433C36.523,49.937 37.387,49.956 37.969,50.441L37.965,50.441ZM8.102,21.175L91.903,21.175C92.79,21.175 93.512,21.894 93.512,22.784L93.512,77.214C93.512,78.101 92.79,78.824 91.903,78.824L8.102,78.824C7.215,78.824 6.493,78.105 6.493,77.214L6.493,22.784C6.493,21.898 7.211,21.175 8.102,21.175ZM93.11,17.183L6.895,17.183C5.719,17.183 4.649,17.648 3.829,18.437C2.997,19.273 2.5,20.37 2.5,21.577L2.5,78.425C2.5,79.636 2.993,80.734 3.786,81.527C4.583,82.328 5.684,82.82 6.895,82.82L93.11,82.82C94.317,82.82 95.415,82.324 96.212,81.527C97.012,80.734 97.505,79.636 97.505,78.425L97.505,21.577C97.505,20.37 97.009,19.273 96.212,18.476C95.415,17.679 94.317,17.183 93.11,17.183L93.11,17.183Z" style="fill-rule:nonzero;"/>
            </g>
        </g>
    </g>
</svg>
