<?xml version="1.0" encoding="UTF-8" standalone="no"?>
<!DOCTYPE svg PUBLIC "-//W3C//DTD SVG 1.1//EN" "http://www.w3.org/Graphics/SVG/1.1/DTD/svg11.dtd">
<svg width="100%" height="100%" viewBox="0 0 100 100" version="1.1" xmlns="http://www.w3.org/2000/svg" xmlns:xlink="http://www.w3.org/1999/xlink" xml:space="preserve" xmlns:serif="http://www.serif.com/" style="fill-rule:evenodd;clip-rule:evenodd;stroke-linejoin:round;stroke-miterlimit:2;">
    <g transform="matrix(1,0,0,1,-229,-44)">
        <g id="Artboard1" transform="matrix(27.244,0,0,7.01758,-25118.9,-5333.36)">
            <rect x="922" y="760" width="17" height="44" style="fill:none;"/>
            <g transform="matrix(0.0367054,0,0,0.142499,922,760)">
                <path d="M341.986,28.085C341.986,27.808 341.762,27.585 341.486,27.585L110.741,27.585C110.465,27.585 110.241,27.808 110.241,28.085L110.241,159.502C110.241,159.778 110.465,160.002 110.741,160.002L341.486,160.002C341.762,160.002 341.986,159.778 341.986,159.502L341.986,28.085ZM340.986,28.585L340.986,159.002C340.986,159.002 111.241,159.002 111.241,159.002C111.241,159.002 111.241,28.585 111.241,28.585C122.757,28.585 329.469,28.585 340.986,28.585L340.986,28.585Z" style="fill:white;"/>
                <rect x="110.741" y="28.085" width="230.745" height="131.418" style="fill:rgb(250,250,250);"/>
            </g>
            <g id="Layer1">
            </g>
            <g transform="matrix(0.0352513,0,0,0.136854,926.454,760.52)">
                <g transform="matrix(0.968173,0,0,0.853892,-1.90505,23.0733)">
                    <path d="M190.325,37.979C190.296,37.976 190.177,37.963 190.073,37.95C189.682,37.9 189.051,37.812 188.743,37.792C188.587,37.782 188.474,37.796 188.425,37.808C188.24,37.857 188.146,37.973 188.096,38.05C188.053,38.115 188.024,38.183 188.006,38.254C188.007,38.25 178.863,65.184 178.863,65.184C178.756,65.497 178.888,65.849 179.161,65.98C179.433,66.111 179.748,65.974 179.872,65.669L190.834,38.862C190.92,38.653 190.896,38.407 190.773,38.224C190.666,38.064 190.499,37.974 190.325,37.979ZM185.794,48.23L188.909,39.055C189.089,39.073 189.307,39.101 189.516,39.129L185.794,48.23ZM189.025,38.713C189.081,38.597 189.094,38.471 189.079,38.343C189.091,38.446 189.08,38.551 189.047,38.648L189.025,38.713Z" style="fill:white;"/>
                    <path d="M179.375,65.408L188.535,38.425C188.526,38.342 190.244,38.617 190.337,38.6L179.375,65.408Z" style="fill:rgb(2,0,73);"/>
                </g>
                <g transform="matrix(1.01927,0.2128,-0.2128,1.01927,11.9061,-35.1305)">
                    <path d="M175.697,65.72C175.621,65.983 175.766,66.26 176.026,66.347C176.286,66.433 176.568,66.299 176.665,66.042L182.842,49.573C182.894,49.435 182.883,49.281 182.813,49.151L181.912,47.493C181.813,47.312 181.615,47.208 181.409,47.23C181.204,47.252 181.032,47.396 180.974,47.594L175.697,65.72ZM180.447,53.054L181.607,49.069C181.607,49.069 181.805,49.433 181.805,49.433L180.447,53.054Z" style="fill:white;"/>
                    <path d="M176.187,65.863L181.464,47.737L182.365,49.394L176.187,65.863Z" style="fill:rgb(2,0,73);"/>
                </g>
                <g transform="matrix(0.382753,-0.968349,0.968349,0.382753,14.7242,228.328)">
                    <path d="M175.697,65.72C175.621,65.983 175.766,66.26 176.026,66.347C176.286,66.433 176.568,66.299 176.665,66.042L182.842,49.573C182.894,49.435 182.883,49.281 182.813,49.151L181.912,47.493C181.813,47.312 181.615,47.208 181.409,47.23C181.204,47.252 181.032,47.396 180.974,47.594L175.697,65.72ZM180.447,53.054L181.607,49.069C181.607,49.069 181.805,49.433 181.805,49.433L180.447,53.054Z" style="fill:white;"/>
                    <path d="M176.187,65.863L181.464,47.737L182.365,49.394L176.187,65.863Z" style="fill:rgb(2,0,73);"/>
                </g>
                <g transform="matrix(-0.832004,-0.626074,0.626074,-0.832004,239.577,286.106)">
                    <path d="M175.697,65.72C175.621,65.983 175.766,66.26 176.026,66.347C176.286,66.433 176.568,66.299 176.665,66.042L182.842,49.573C182.894,49.435 182.883,49.281 182.813,49.151L181.912,47.493C181.813,47.312 181.615,47.208 181.409,47.23C181.204,47.252 181.032,47.396 180.974,47.594L175.697,65.72ZM180.447,53.054L181.607,49.069C181.607,49.069 181.805,49.433 181.805,49.433L180.447,53.054Z" style="fill:white;"/>
                    <path d="M176.187,65.863L181.464,47.737L182.365,49.394L176.187,65.863Z" style="fill:rgb(2,0,73);"/>
                </g>
                <g transform="matrix(0.204599,-1.02095,1.02095,0.204599,35.9089,246.478)">
                    <path d="M175.697,65.72C175.621,65.983 175.766,66.26 176.026,66.347C176.286,66.433 176.568,66.299 176.665,66.042L182.842,49.573C182.894,49.435 182.883,49.281 182.813,49.151L181.912,47.493C181.813,47.312 181.615,47.208 181.409,47.23C181.204,47.252 181.032,47.396 180.974,47.594L175.697,65.72ZM180.447,53.054L181.607,49.069C181.607,49.069 181.805,49.433 181.805,49.433L180.447,53.054Z" style="fill:white;"/>
                    <path d="M176.187,65.863L181.464,47.737L182.365,49.394L176.187,65.863Z" style="fill:rgb(2,0,73);"/>
                </g>
                <g transform="matrix(-0.90517,-0.514652,0.514652,-0.90517,267.196,267.455)">
                    <path d="M175.697,65.72C175.621,65.983 175.766,66.26 176.026,66.347C176.286,66.433 176.568,66.299 176.665,66.042L182.842,49.573C182.894,49.435 182.883,49.281 182.813,49.151L181.912,47.493C181.813,47.312 181.615,47.208 181.409,47.23C181.204,47.252 181.032,47.396 180.974,47.594L175.697,65.72ZM180.447,53.054L181.607,49.069C181.607,49.069 181.805,49.433 181.805,49.433L180.447,53.054Z" style="fill:white;"/>
                    <path d="M176.187,65.863L181.464,47.737L182.365,49.394L176.187,65.863Z" style="fill:rgb(2,0,73);"/>
                </g>
                <g transform="matrix(1.02534,0.181301,-0.181301,1.02534,16.2603,-32.5596)">
                    <path d="M178.565,122.68C178.43,122.444 178.133,122.356 177.891,122.48C177.648,122.605 177.546,122.897 177.659,123.145L182.991,134.902C183.077,135.091 183.268,135.209 183.475,135.201C183.682,135.193 183.864,135.061 183.935,134.867L184.491,133.347C184.543,133.206 184.529,133.049 184.454,132.918L178.565,122.68ZM182.966,132.376L183.451,133.22C183.451,133.22 183.405,133.345 183.405,133.345C183.405,133.345 182.966,132.376 182.966,132.376Z" style="fill:white;"/>
                    <path d="M178.123,122.934L183.456,134.692L184.012,133.172L178.123,122.934Z" style="fill:rgb(2,0,73);"/>
                </g>
                <g transform="matrix(1.04125,0,0,1.04125,-10.8108,-10.033)">
                    <path d="M178.565,122.68C178.43,122.444 178.133,122.356 177.891,122.48C177.648,122.605 177.546,122.897 177.659,123.145L182.991,134.902C183.077,135.091 183.268,135.209 183.475,135.201C183.682,135.193 183.864,135.061 183.935,134.867L184.491,133.347C184.543,133.206 184.529,133.049 184.454,132.918L178.565,122.68ZM182.966,132.376L183.451,133.22C183.451,133.22 183.405,133.345 183.405,133.345C183.405,133.345 182.966,132.376 182.966,132.376Z" style="fill:white;"/>
                    <path d="M178.123,122.934L183.456,134.692L184.012,133.172L178.123,122.934Z" style="fill:rgb(2,0,73);"/>
                </g>
                <g transform="matrix(1.01379,0.23754,-0.23754,1.01379,12.8284,-44.2432)">
                    <path d="M195.292,86.21C195.067,86.356 194.997,86.654 195.134,86.884C195.271,87.115 195.566,87.196 195.802,87.069L207.571,80.701C207.672,80.646 207.751,80.559 207.795,80.453L208.522,78.702C208.606,78.499 208.548,78.266 208.38,78.126C208.211,77.986 207.971,77.971 207.787,78.091L195.292,86.21ZM206.284,80.26L206.979,79.808C206.979,79.808 206.939,79.906 206.939,79.906L206.284,80.26Z" style="fill:white;"/>
                    <path d="M195.564,86.629L208.06,78.51L207.333,80.261L195.564,86.629Z" style="fill:rgb(2,0,73);"/>
                </g>
                <g transform="matrix(1.0009,0.287035,-0.324585,1.13184,19.6058,-63.6799)">
                    <path d="M195.245,85.18C195.038,85.332 195.004,85.601 195.167,85.79C195.331,85.978 195.634,86.019 195.853,85.882L204.635,80.392C204.823,80.275 204.896,80.06 204.812,79.87C204.729,79.681 204.511,79.567 204.283,79.592L202.749,79.766C202.655,79.777 202.567,79.811 202.494,79.865L195.245,85.18Z" style="fill:white;"/>
                    <path d="M195.564,85.521L204.347,80.031L202.813,80.205L195.564,85.521Z" style="fill:rgb(2,0,73);"/>
                </g>
                <g transform="matrix(0.515518,0.361665,-0.471724,0.672397,120.89,-35.5162)">
                    <path d="M139.768,76.944C140.086,77.179 140.589,77.18 140.909,76.947C141.23,76.714 141.255,76.329 140.966,76.073L128.986,65.455C128.75,65.245 128.364,65.178 128.032,65.288L126.353,65.847C126.099,65.931 125.917,66.107 125.868,66.316C125.819,66.525 125.91,66.738 126.109,66.885L139.768,76.944Z" style="fill:white;"/>
                    <path d="M140.34,76.487L126.682,66.428L128.361,65.869L140.34,76.487Z" style="fill:rgb(2,0,73);"/>
                </g>
                <g transform="matrix(29.5119,0,0,29.5119,-2941.59,-1699.35)">
                    <g transform="matrix(0.908009,-0.425769,0.492584,1.0505,54.2888,64.4351)">
                        <path d="M46.309,15.141C46.934,15.378 47.367,15.111 47.551,14.757C47.688,15.037 47.857,15.16 48.078,15.018C48.178,15.449 48.433,15.58 48.842,15.412C48.354,15.899 48.309,16.249 48.581,16.502C48.009,16.38 47.748,16.496 47.86,16.9C47.624,16.46 47.412,16.569 47.213,16.956C46.963,16.482 46.717,16.446 46.168,16.657C46.453,16.377 46.32,16.07 46.077,15.915C46.651,15.656 46.518,15.38 46.309,15.141Z" style="fill:rgb(2,0,73);"/>
                    </g>
                    <g transform="matrix(0.809177,-0.379427,0.428917,0.914721,59.8295,64.2796)">
                        <path d="M46.309,15.141C46.934,15.378 47.367,15.111 47.551,14.757C47.688,15.037 47.857,15.16 48.078,15.018C48.178,15.449 48.433,15.58 48.842,15.412C48.354,15.899 48.309,16.249 48.581,16.502C48.009,16.38 47.748,16.496 47.86,16.9C47.624,16.46 47.412,16.569 47.213,16.956C46.963,16.482 46.717,16.446 46.168,16.657C46.453,16.377 46.32,16.07 46.077,15.915C46.651,15.656 46.518,15.38 46.309,15.141Z" style="fill:rgb(212,212,212);"/>
                    </g>
                    <g transform="matrix(0.809177,-0.379427,0.428917,0.914721,59.8295,64.2796)">
                        <path d="M46.309,15.141C46.934,15.378 47.367,15.111 47.551,14.757C47.688,15.037 47.857,15.16 48.078,15.018C48.178,15.449 48.433,15.58 48.842,15.412C48.354,15.899 48.309,16.249 48.581,16.502C48.009,16.38 47.748,16.496 47.86,16.9C47.624,16.46 47.412,16.569 47.213,16.956C46.963,16.482 46.717,16.446 46.168,16.657C46.453,16.377 46.32,16.07 46.077,15.915C46.651,15.656 46.518,15.38 46.309,15.141Z" style="fill:rgb(105,186,201);"/>
                    </g>
                </g>
                <g transform="matrix(0.953308,0,0,1.05391,117.352,-19.8249)">
                    <g transform="matrix(1.06991,0,0,1.06991,-1.12882,-5.3721)">
                        <g transform="matrix(1,0,0,1,-0.221258,7.10543e-15)">
                            <path d="M63.425,107.237L57.607,107.836C57.624,107.314 57.645,106.845 57.67,106.43C57.696,106.016 57.726,105.616 57.76,105.232C57.794,104.848 57.836,104.448 57.887,104.034C57.938,103.619 58.006,103.143 58.092,102.605C57.938,102.62 57.739,102.639 57.492,102.662C57.245,102.685 56.981,102.72 56.701,102.766C56.42,102.812 56.135,102.862 55.846,102.916C55.557,102.97 55.284,103.035 55.029,103.112C54.91,103.45 54.821,103.742 54.761,103.988C54.702,104.233 54.651,104.471 54.608,104.702C54.566,104.932 54.523,105.174 54.481,105.428C54.438,105.681 54.374,105.969 54.289,106.292L49.211,106.361C49.415,105.624 49.679,104.771 50.002,103.803C50.325,102.835 50.683,101.814 51.074,100.738C51.465,99.663 51.878,98.557 52.312,97.42C52.745,96.283 53.179,95.18 53.613,94.113C54.047,93.045 54.468,92.035 54.876,91.082C55.284,90.13 55.659,89.292 55.999,88.57C56.611,88.386 57.249,88.24 57.913,88.132C58.576,88.025 59.223,87.948 59.852,87.902C60.482,87.856 61.073,87.833 61.626,87.833C62.179,87.833 62.651,87.84 63.042,87.856C62.991,88.685 62.953,89.615 62.927,90.644C62.902,91.674 62.889,92.757 62.889,93.894C62.889,95.031 62.898,96.202 62.915,97.408C62.932,98.614 62.961,99.797 63.004,100.957C63.046,102.117 63.102,103.235 63.17,104.31C63.238,105.386 63.323,106.361 63.425,107.237ZM58.934,93.133L58.857,93.133C58.551,93.686 58.266,94.309 58.002,95C57.739,95.691 57.488,96.402 57.249,97.132C57.011,97.861 56.777,98.58 56.548,99.286C56.318,99.993 56.076,100.638 55.82,101.222C56.195,101.191 56.641,101.161 57.16,101.13C57.679,101.099 58.074,101.076 58.347,101.061C58.415,100.4 58.47,99.724 58.513,99.033C58.555,98.341 58.593,97.654 58.627,96.97C58.661,96.287 58.7,95.622 58.742,94.977C58.785,94.332 58.849,93.717 58.934,93.133Z" style="fill:rgb(0,71,104);fill-rule:nonzero;"/>
                        </g>
                        <path d="M50.487,107.237L44.669,107.836C44.686,107.314 44.707,106.845 44.732,106.43C44.758,106.016 44.788,105.616 44.822,105.232C44.856,104.848 44.898,104.448 44.949,104.034C45,103.619 45.068,103.143 45.153,102.605C45,102.62 44.8,102.639 44.554,102.662C44.307,102.685 44.043,102.72 43.763,102.766C43.482,102.812 43.197,102.862 42.908,102.916C42.619,102.97 42.346,103.035 42.091,103.112C41.972,103.45 41.883,103.742 41.823,103.988C41.764,104.233 41.713,104.471 41.67,104.702C41.628,104.932 41.585,105.174 41.543,105.428C41.5,105.681 41.436,105.969 41.351,106.292L36.273,106.361C36.477,105.624 36.741,104.771 37.064,103.803C37.387,102.835 37.745,101.814 38.136,100.738C38.527,99.663 38.94,98.557 39.374,97.42C39.807,96.283 40.241,95.18 40.675,94.113C41.109,93.045 41.53,92.035 41.938,91.082C42.346,90.13 42.721,89.292 43.061,88.57C43.673,88.386 44.311,88.24 44.975,88.132C45.638,88.025 46.285,87.948 46.914,87.902C47.544,87.856 48.135,87.833 48.688,87.833C49.241,87.833 49.713,87.84 50.104,87.856C50.053,88.685 50.015,89.615 49.989,90.644C49.964,91.674 49.951,92.757 49.951,93.894C49.951,95.031 49.96,96.202 49.977,97.408C49.994,98.614 50.023,99.797 50.066,100.957C50.108,102.117 50.164,103.235 50.232,104.31C50.3,105.386 50.385,106.361 50.487,107.237ZM45.996,93.133L45.919,93.133C45.613,93.686 45.328,94.309 45.064,95C44.8,95.691 44.55,96.402 44.311,97.132C44.073,97.861 43.839,98.58 43.61,99.286C43.38,99.993 43.138,100.638 42.882,101.222C43.257,101.191 43.703,101.161 44.222,101.13C44.741,101.099 45.136,101.076 45.409,101.061C45.477,100.4 45.532,99.724 45.575,99.033C45.617,98.341 45.655,97.654 45.689,96.97C45.723,96.287 45.762,95.622 45.804,94.977C45.847,94.332 45.911,93.717 45.996,93.133Z" style="fill:rgb(0,71,104);fill-rule:nonzero;"/>
                        <path d="M39.692,91.244C39.199,91.689 38.646,92.2 38.034,92.776C37.421,93.352 36.809,93.944 36.196,94.55C35.584,95.157 35.01,95.764 34.474,96.371C33.938,96.978 33.491,97.543 33.134,98.065C33.406,98.618 33.759,99.213 34.193,99.851C34.627,100.488 35.095,101.13 35.597,101.775C36.099,102.42 36.617,103.054 37.153,103.676C37.689,104.299 38.204,104.863 38.697,105.37L35.227,108.597C34.257,107.398 33.262,106.219 32.241,105.059C31.22,103.899 30.285,102.705 29.434,101.476C29.383,102.09 29.353,102.636 29.345,103.112C29.336,103.588 29.332,104.034 29.332,104.448C29.332,104.863 29.336,105.259 29.345,105.635C29.353,106.012 29.349,106.4 29.332,106.799L24.943,107.997C24.909,107.137 24.9,106.181 24.917,105.128C24.934,104.076 24.964,102.981 25.006,101.844C25.049,100.707 25.109,99.555 25.185,98.388C25.262,97.22 25.351,96.091 25.453,95C25.555,93.909 25.67,92.891 25.798,91.946C25.925,91.002 26.057,90.183 26.193,89.492L31.756,88.132C31.603,88.563 31.458,89.058 31.322,89.619C31.186,90.18 31.059,90.775 30.94,91.405C30.82,92.035 30.71,92.684 30.608,93.352C30.506,94.02 30.404,94.677 30.302,95.323C30.761,94.739 31.259,94.101 31.794,93.41C32.33,92.718 32.879,92.031 33.44,91.347C34.002,90.664 34.546,90.007 35.074,89.377C35.601,88.747 36.086,88.194 36.528,87.718L39.692,91.244Z" style="fill:rgb(0,71,104);fill-rule:nonzero;"/>
                    </g>
                    <g transform="matrix(1,0,0,1,1.27594,-0.115226)">
                        <path d="M57.448,103.177L57.334,103.978L57.205,105.192L57.114,106.402L57.05,107.821C57.045,107.967 57.111,108.108 57.23,108.207C57.349,108.306 57.509,108.353 57.67,108.337L63.488,107.738C63.792,107.706 64.011,107.459 63.979,107.184C63.926,106.729 63.877,106.246 63.834,105.736C63.794,105.273 63.758,104.789 63.726,104.281L63.561,100.94L63.472,97.402L63.446,93.894L63.484,90.656L63.598,87.884C63.607,87.749 63.555,87.617 63.455,87.518C63.355,87.418 63.215,87.358 63.066,87.352L61.626,87.329C61.332,87.329 61.028,87.335 60.714,87.348C60.421,87.36 60.119,87.377 59.807,87.4C59.478,87.424 59.145,87.456 58.807,87.496C58.48,87.536 58.149,87.582 57.815,87.636C57.474,87.692 57.139,87.757 56.811,87.832C56.475,87.908 56.146,87.995 55.823,88.092C55.672,88.138 55.549,88.24 55.487,88.373L54.357,90.9L53.09,93.939L51.785,97.255L50.545,100.581L49.469,103.657C49.318,104.111 49.179,104.539 49.054,104.941C48.909,105.407 48.781,105.84 48.671,106.239C48.629,106.391 48.667,106.552 48.774,106.674C48.882,106.797 49.046,106.867 49.219,106.865L54.298,106.796C54.552,106.792 54.772,106.633 54.831,106.409L55.031,105.503L55.158,104.785L55.305,104.095L55.481,103.524C55.481,103.524 55.958,103.409 55.958,103.409L56.8,103.262L57.448,103.177ZM62.816,106.792L58.19,107.269C58.19,107.269 58.227,106.458 58.227,106.458L58.315,105.272L58.441,104.089L58.643,102.676C58.667,102.522 58.611,102.366 58.492,102.254C58.372,102.142 58.201,102.087 58.03,102.104L57.435,102.161L56.601,102.27L55.734,102.422L54.853,102.634C54.684,102.685 54.553,102.805 54.499,102.959L54.217,103.88L54.059,104.619L53.93,105.352L53.832,105.794C53.832,105.794 49.934,105.847 49.934,105.847C49.994,105.644 50.058,105.433 50.126,105.215C50.25,104.817 50.386,104.395 50.535,103.949L51.603,100.896L52.838,97.584L54.136,94.286L55.396,91.264L56.418,88.978C56.636,88.916 56.858,88.86 57.083,88.809C57.387,88.74 57.696,88.679 58.011,88.628C58.329,88.577 58.643,88.533 58.953,88.496C59.272,88.457 59.587,88.427 59.897,88.404C60.195,88.382 60.483,88.366 60.763,88.355C61.061,88.343 61.348,88.337 61.626,88.337L62.464,88.35C62.464,88.35 62.37,90.633 62.37,90.633L62.332,93.894L62.358,97.415L62.447,100.974L62.614,104.339C62.646,104.853 62.683,105.345 62.723,105.814L62.816,106.792ZM58.821,93.521C58.745,93.256 58.597,92.629 58.918,92.629C59.473,92.629 59.1,93.351 58.972,93.573L59.116,93.492L59.486,93.199C59.443,93.492 59.406,93.792 59.374,94.1C59.344,94.395 59.319,94.697 59.298,95.007L59.184,96.993L59.069,99.061L58.901,101.108C58.876,101.355 58.655,101.548 58.381,101.564L57.196,101.633L55.871,101.724C55.678,101.74 55.49,101.664 55.374,101.524C55.258,101.384 55.231,101.2 55.302,101.037C55.432,100.741 55.558,100.429 55.68,100.1C55.794,99.796 55.905,99.477 56.013,99.144L56.715,96.989C56.834,96.624 56.956,96.264 57.082,95.909C57.21,95.546 57.341,95.188 57.476,94.836C57.606,94.495 57.741,94.17 57.881,93.862C58.034,93.525 58.194,93.206 58.359,92.908C58.285,93.041 58.281,93.196 58.345,93.331C58.356,93.242 58.369,93.154 58.381,93.067L58.821,93.521ZM58.104,96.366L58.071,96.948L57.956,99.005L57.827,100.586C57.827,100.586 57.124,100.627 57.124,100.627L56.646,100.66C56.676,100.582 56.706,100.503 56.736,100.423C56.854,100.106 56.97,99.774 57.082,99.428L57.784,97.274L58.104,96.366Z" style="fill:white;"/>
                        <path d="M63.425,107.237L57.607,107.836C57.624,107.314 57.645,106.845 57.67,106.43C57.696,106.016 57.726,105.616 57.76,105.232C57.794,104.848 57.836,104.448 57.887,104.034C57.938,103.619 58.006,103.143 58.092,102.605C57.938,102.62 57.739,102.639 57.492,102.662C57.245,102.685 56.981,102.72 56.701,102.766C56.42,102.812 56.135,102.862 55.846,102.916C55.557,102.97 55.284,103.035 55.029,103.112C54.91,103.45 54.821,103.742 54.761,103.988C54.702,104.233 54.651,104.471 54.608,104.702C54.566,104.932 54.523,105.174 54.481,105.428C54.438,105.681 54.374,105.969 54.289,106.292L49.211,106.361C49.415,105.624 49.679,104.771 50.002,103.803C50.325,102.835 50.683,101.814 51.074,100.738C51.465,99.663 51.878,98.557 52.312,97.42C52.745,96.283 53.179,95.18 53.613,94.113C54.047,93.045 54.468,92.035 54.876,91.082C55.284,90.13 55.659,89.292 55.999,88.57C56.611,88.386 57.249,88.24 57.913,88.132C58.576,88.025 59.223,87.948 59.852,87.902C60.482,87.856 61.073,87.833 61.626,87.833C62.179,87.833 62.651,87.84 63.042,87.856C62.991,88.685 62.953,89.615 62.927,90.644C62.902,91.674 62.889,92.757 62.889,93.894C62.889,95.031 62.898,96.202 62.915,97.408C62.932,98.614 62.961,99.797 63.004,100.957C63.046,102.117 63.102,103.235 63.17,104.31C63.238,105.386 63.323,106.361 63.425,107.237ZM58.934,93.133L58.857,93.133C58.551,93.686 58.266,94.309 58.002,95C57.739,95.691 57.488,96.402 57.249,97.132C57.011,97.861 56.777,98.58 56.548,99.286C56.318,99.993 56.076,100.638 55.82,101.222C56.195,101.191 56.641,101.161 57.16,101.13C57.679,101.099 58.074,101.076 58.347,101.061C58.415,100.4 58.47,99.724 58.513,99.033C58.555,98.341 58.593,97.654 58.627,96.97C58.661,96.287 58.7,95.622 58.742,94.977C58.785,94.332 58.849,93.717 58.934,93.133Z" style="fill:rgb(2,0,73);fill-rule:nonzero;"/>
                    </g>
                    <path d="M44.51,103.177L44.396,103.978L44.266,105.192L44.176,106.402L44.112,107.821C44.107,107.967 44.173,108.108 44.292,108.207C44.411,108.306 44.571,108.353 44.732,108.337L50.55,107.738C50.854,107.706 51.073,107.459 51.041,107.184C50.988,106.729 50.939,106.246 50.896,105.736C50.856,105.273 50.82,104.789 50.788,104.281L50.623,100.94L50.534,97.402L50.508,93.894L50.546,90.656L50.66,87.884C50.669,87.749 50.617,87.617 50.517,87.518C50.417,87.418 50.277,87.358 50.128,87.352L48.688,87.329C48.394,87.329 48.09,87.335 47.776,87.348C47.483,87.36 47.181,87.377 46.869,87.4C46.54,87.424 46.207,87.456 45.869,87.496C45.542,87.536 45.211,87.582 44.877,87.636C44.536,87.692 44.201,87.757 43.873,87.832C43.537,87.908 43.208,87.995 42.885,88.092C42.734,88.138 42.611,88.24 42.549,88.373L41.419,90.9L40.152,93.939L38.847,97.255L37.607,100.581L36.531,103.657C36.379,104.111 36.241,104.539 36.116,104.941C35.971,105.407 35.843,105.84 35.733,106.239C35.691,106.391 35.729,106.552 35.836,106.674C35.944,106.797 36.108,106.867 36.281,106.865L41.36,106.796C41.614,106.792 41.834,106.633 41.893,106.409L42.093,105.503L42.22,104.785L42.367,104.095L42.543,103.524C42.543,103.524 43.02,103.409 43.02,103.409L43.862,103.262L44.51,103.177ZM49.878,106.792L45.252,107.269C45.252,107.269 45.289,106.458 45.289,106.458L45.377,105.272L45.503,104.089L45.705,102.676C45.729,102.522 45.673,102.366 45.554,102.254C45.434,102.142 45.263,102.087 45.092,102.104L44.497,102.161L43.663,102.27L42.796,102.422L41.915,102.634C41.746,102.685 41.615,102.805 41.561,102.959L41.279,103.88L41.121,104.619L40.992,105.352L40.894,105.794C40.894,105.794 36.996,105.847 36.996,105.847C37.056,105.644 37.12,105.433 37.188,105.215C37.312,104.817 37.448,104.395 37.597,103.949L38.665,100.896L39.9,97.584L41.198,94.286L42.458,91.264L43.48,88.978C43.698,88.916 43.92,88.86 44.145,88.809C44.449,88.74 44.758,88.679 45.073,88.628C45.391,88.577 45.705,88.533 46.015,88.496C46.334,88.457 46.649,88.427 46.959,88.404C47.257,88.382 47.545,88.366 47.825,88.355C48.123,88.343 48.41,88.337 48.688,88.337L49.526,88.35C49.526,88.35 49.432,90.633 49.432,90.633L49.394,93.894L49.42,97.415L49.509,100.974L49.676,104.339C49.708,104.853 49.745,105.345 49.785,105.814L49.878,106.792ZM45.883,93.521C45.807,93.256 45.659,92.629 45.98,92.629C46.535,92.629 46.162,93.351 46.034,93.573L46.178,93.492L46.548,93.199C46.505,93.492 46.468,93.792 46.436,94.1C46.406,94.395 46.381,94.697 46.36,95.007L46.246,96.993L46.131,99.061L45.963,101.108C45.938,101.355 45.717,101.548 45.443,101.564L44.258,101.633L42.933,101.724C42.74,101.74 42.552,101.664 42.436,101.524C42.32,101.384 42.293,101.2 42.364,101.037C42.494,100.741 42.62,100.429 42.742,100.1C42.856,99.796 42.967,99.477 43.075,99.144L43.777,96.989C43.896,96.624 44.018,96.264 44.144,95.909C44.272,95.546 44.403,95.188 44.538,94.836C44.668,94.495 44.803,94.17 44.943,93.862C45.096,93.525 45.256,93.206 45.421,92.908C45.347,93.041 45.343,93.196 45.407,93.331C45.418,93.242 45.431,93.154 45.443,93.067L45.883,93.521ZM45.166,96.366L45.133,96.948L45.018,99.005L44.889,100.586C44.889,100.586 44.186,100.627 44.186,100.627L43.708,100.66C43.738,100.582 43.768,100.503 43.798,100.423C43.916,100.106 44.032,99.774 44.144,99.428L44.846,97.274L45.166,96.366Z" style="fill:white;"/>
                    <path d="M50.487,107.237L44.669,107.836C44.686,107.314 44.707,106.845 44.732,106.43C44.758,106.016 44.788,105.616 44.822,105.232C44.856,104.848 44.898,104.448 44.949,104.034C45,103.619 45.068,103.143 45.153,102.605C45,102.62 44.8,102.639 44.554,102.662C44.307,102.685 44.043,102.72 43.763,102.766C43.482,102.812 43.197,102.862 42.908,102.916C42.619,102.97 42.346,103.035 42.091,103.112C41.972,103.45 41.883,103.742 41.823,103.988C41.764,104.233 41.713,104.471 41.67,104.702C41.628,104.932 41.585,105.174 41.543,105.428C41.5,105.681 41.436,105.969 41.351,106.292L36.273,106.361C36.477,105.624 36.741,104.771 37.064,103.803C37.387,102.835 37.745,101.814 38.136,100.738C38.527,99.663 38.94,98.557 39.374,97.42C39.807,96.283 40.241,95.18 40.675,94.113C41.109,93.045 41.53,92.035 41.938,91.082C42.346,90.13 42.721,89.292 43.061,88.57C43.673,88.386 44.311,88.24 44.975,88.132C45.638,88.025 46.285,87.948 46.914,87.902C47.544,87.856 48.135,87.833 48.688,87.833C49.241,87.833 49.713,87.84 50.104,87.856C50.053,88.685 50.015,89.615 49.989,90.644C49.964,91.674 49.951,92.757 49.951,93.894C49.951,95.031 49.96,96.202 49.977,97.408C49.994,98.614 50.023,99.797 50.066,100.957C50.108,102.117 50.164,103.235 50.232,104.31C50.3,105.386 50.385,106.361 50.487,107.237ZM45.996,93.133L45.919,93.133C45.613,93.686 45.328,94.309 45.064,95C44.8,95.691 44.55,96.402 44.311,97.132C44.073,97.861 43.839,98.58 43.61,99.286C43.38,99.993 43.138,100.638 42.882,101.222C43.257,101.191 43.703,101.161 44.222,101.13C44.741,101.099 45.136,101.076 45.409,101.061C45.477,100.4 45.532,99.724 45.575,99.033C45.617,98.341 45.655,97.654 45.689,96.97C45.723,96.287 45.762,95.622 45.804,94.977C45.847,94.332 45.911,93.717 45.996,93.133Z" style="fill:rgb(2,0,73);fill-rule:nonzero;"/>
                    <g transform="matrix(1,0,0,1,-1.24369,0.760347)">
                        <path d="M31.175,93.329L31.489,91.49L31.866,89.727C31.929,89.47 31.993,89.227 32.059,88.998C32.133,88.743 32.208,88.506 32.286,88.287C32.349,88.111 32.3,87.918 32.159,87.785C32.018,87.651 31.808,87.598 31.611,87.646L26.048,89.006C25.84,89.057 25.682,89.212 25.645,89.404C25.57,89.78 25.498,90.194 25.426,90.645C25.365,91.031 25.304,91.445 25.245,91.885C25.178,92.377 25.115,92.889 25.056,93.421C25,93.916 24.947,94.428 24.898,94.957L24.629,98.358L24.45,101.827L24.36,105.121C24.352,105.625 24.35,106.106 24.353,106.566C24.357,107.076 24.368,107.559 24.386,108.015C24.392,108.172 24.478,108.316 24.619,108.407C24.759,108.498 24.938,108.525 25.104,108.48L29.493,107.281C29.72,107.219 29.879,107.033 29.889,106.818L29.902,105.625L29.889,104.448L29.902,103.12L29.906,103.047C30.045,103.231 30.185,103.413 30.327,103.595C30.798,104.196 31.291,104.789 31.805,105.373C32.313,105.95 32.815,106.533 33.311,107.12C33.806,107.707 34.295,108.298 34.777,108.894C34.874,109.014 35.024,109.089 35.188,109.099C35.351,109.11 35.512,109.054 35.626,108.948L39.096,105.722C39.299,105.533 39.308,105.235 39.115,105.037C38.863,104.778 38.605,104.503 38.342,104.214C38.097,103.944 37.847,103.662 37.593,103.367C37.328,103.059 37.067,102.748 36.81,102.435C36.553,102.121 36.301,101.805 36.052,101.485C35.808,101.171 35.572,100.858 35.343,100.545C35.11,100.225 34.884,99.905 34.668,99.587C34.468,99.293 34.286,99.009 34.121,98.734C33.992,98.518 33.874,98.308 33.767,98.104C33.908,97.906 34.062,97.703 34.228,97.495C34.436,97.234 34.663,96.964 34.909,96.686C35.177,96.382 35.454,96.079 35.742,95.776C36.021,95.481 36.31,95.185 36.608,94.89L38.435,93.125L40.086,91.6C40.288,91.418 40.305,91.126 40.125,90.926L36.961,87.4C36.856,87.283 36.699,87.215 36.533,87.214C36.367,87.212 36.209,87.278 36.102,87.393C35.864,87.649 35.614,87.927 35.353,88.227C35.121,88.491 34.88,88.773 34.63,89.073L32.993,91.047L31.338,93.12L31.175,93.329ZM30.951,88.851C30.892,89.06 30.834,89.28 30.778,89.511L30.39,91.32L30.056,93.283L29.75,95.251C29.714,95.481 29.856,95.704 30.095,95.79C30.333,95.877 30.606,95.804 30.755,95.615L32.251,93.699L33.888,91.648L35.518,89.681C35.763,89.388 36,89.111 36.226,88.852C36.328,88.735 36.427,88.623 36.525,88.514L38.947,91.212L37.632,92.427L35.785,94.211C35.479,94.514 35.183,94.817 34.896,95.12C34.6,95.432 34.314,95.744 34.039,96.057C33.78,96.349 33.542,96.632 33.324,96.906C33.077,97.216 32.856,97.514 32.66,97.8C32.563,97.942 32.55,98.118 32.625,98.27C32.774,98.572 32.946,98.887 33.141,99.213C33.315,99.504 33.508,99.805 33.719,100.115C33.942,100.442 34.173,100.771 34.414,101.1C34.648,101.421 34.89,101.743 35.141,102.065C35.395,102.391 35.652,102.714 35.915,103.034C36.177,103.354 36.443,103.672 36.714,103.986C36.975,104.289 37.23,104.578 37.481,104.854C37.636,105.025 37.79,105.19 37.941,105.351C37.941,105.35 35.286,107.819 35.286,107.819C34.926,107.38 34.563,106.943 34.196,106.508C33.696,105.916 33.19,105.328 32.677,104.745C32.176,104.176 31.695,103.598 31.236,103.012C30.771,102.419 30.328,101.818 29.906,101.208C29.778,101.024 29.534,100.934 29.3,100.986C29.067,101.039 28.896,101.221 28.878,101.438L28.788,103.104L28.775,104.448L28.788,105.646L28.779,106.424C28.779,106.424 25.479,107.325 25.479,107.325C25.473,107.077 25.469,106.822 25.467,106.56C25.464,106.106 25.466,105.632 25.474,105.136L25.563,101.861L25.741,98.417L26.008,95.042C26.057,94.519 26.109,94.012 26.164,93.523C26.223,92.998 26.285,92.493 26.35,92.007C26.409,91.574 26.468,91.168 26.529,90.789C26.579,90.472 26.63,90.174 26.682,89.895L30.951,88.851Z" style="fill:white;"/>
                        <path d="M39.692,91.244C39.199,91.689 38.646,92.2 38.034,92.776C37.421,93.352 36.809,93.944 36.196,94.55C35.584,95.157 35.01,95.764 34.474,96.371C33.938,96.978 33.491,97.543 33.134,98.065C33.406,98.618 33.759,99.213 34.193,99.851C34.627,100.488 35.095,101.13 35.597,101.775C36.099,102.42 36.617,103.054 37.153,103.676C37.689,104.299 38.204,104.863 38.697,105.37L35.227,108.597C34.257,107.398 33.262,106.219 32.241,105.059C31.22,103.899 30.285,102.705 29.434,101.476C29.383,102.09 29.353,102.636 29.345,103.112C29.336,103.588 29.332,104.034 29.332,104.448C29.332,104.863 29.336,105.259 29.345,105.635C29.353,106.012 29.349,106.4 29.332,106.799L24.943,107.997C24.909,107.137 24.9,106.181 24.917,105.128C24.934,104.076 24.964,102.981 25.006,101.844C25.049,100.707 25.109,99.555 25.185,98.388C25.262,97.22 25.351,96.091 25.453,95C25.555,93.909 25.67,92.891 25.798,91.946C25.925,91.002 26.057,90.183 26.193,89.492L31.756,88.132C31.603,88.563 31.458,89.058 31.322,89.619C31.186,90.18 31.059,90.775 30.94,91.405C30.82,92.035 30.71,92.684 30.608,93.352C30.506,94.02 30.404,94.677 30.302,95.323C30.761,94.739 31.259,94.101 31.794,93.41C32.33,92.718 32.879,92.031 33.44,91.347C34.002,90.664 34.546,90.007 35.074,89.377C35.601,88.747 36.086,88.194 36.528,87.718L39.692,91.244Z" style="fill:rgb(2,0,73);fill-rule:nonzero;"/>
                    </g>
                </g>
                <g transform="matrix(0.603147,0,0,0.667518,73.9574,-0.0551947)">
                    <g transform="matrix(1,0,0,1,3.39668,2.86884)">
                        <path d="M176.443,145.346C175.877,146.1 175.298,147.139 174.705,148.464C174.112,149.789 173.519,151.284 172.926,152.949C172.333,154.615 171.761,156.408 171.208,158.328C170.656,160.249 170.15,162.194 169.692,164.163C169.234,166.132 168.823,168.071 168.459,169.979C168.095,171.887 167.819,173.656 167.631,175.285L160.88,177.363C160.772,175.978 160.691,174.556 160.637,173.097C160.583,171.638 160.516,170.192 160.435,168.757C160.354,167.323 160.267,165.931 160.172,164.582C160.078,163.233 159.937,161.975 159.748,160.808C159.452,161.78 159.148,162.753 158.838,163.725C158.529,164.698 158.246,165.737 157.99,166.843C157.734,167.949 157.525,169.146 157.363,170.435C157.201,171.723 157.12,173.146 157.12,174.701L149.521,178.421C149.17,177.254 148.847,175.953 148.551,174.519C148.254,173.085 147.985,171.584 147.742,170.016C147.5,168.448 147.277,166.843 147.075,165.202C146.873,163.561 146.705,161.957 146.57,160.389C146.435,158.821 146.334,157.313 146.267,155.867C146.199,154.42 146.166,153.101 146.166,151.91L153.967,148.191C153.725,149.285 153.556,150.537 153.462,151.947C153.368,153.357 153.334,154.797 153.361,156.268C153.388,157.739 153.455,159.167 153.563,160.553C153.671,161.938 153.806,163.166 153.967,164.236C154.264,163.409 154.567,162.425 154.877,161.282C155.187,160.139 155.504,158.942 155.827,157.69C156.15,156.438 156.46,155.18 156.757,153.916C157.053,152.652 157.323,151.485 157.565,150.415L163.184,148.993C163.076,149.698 163.002,150.555 162.962,151.564C162.921,152.573 162.908,153.618 162.921,154.7C162.935,155.782 162.975,156.827 163.043,157.836C163.11,158.845 163.224,159.702 163.386,160.407C163.548,159.556 163.79,158.535 164.114,157.344C164.437,156.152 164.821,154.906 165.266,153.606C165.71,152.305 166.189,150.999 166.701,149.686C167.213,148.373 167.725,147.157 168.237,146.039L176.443,145.346Z" style="fill:rgb(0,71,103);fill-rule:nonzero;"/>
                        <path d="M145.438,160.407C145.061,163.227 144.535,165.573 143.862,167.445C143.188,169.317 142.332,170.824 141.295,171.967C140.257,173.109 139.004,173.954 137.535,174.501C136.067,175.048 134.349,175.394 132.381,175.54C130.737,175.662 129.269,175.327 127.975,174.537C126.681,173.747 125.63,172.641 124.822,171.219C124.014,169.797 123.495,168.125 123.266,166.205C123.037,164.284 123.165,162.242 123.65,160.079C123.892,158.96 124.276,157.684 124.802,156.25C125.327,154.815 126.109,153.442 127.146,152.129C128.184,150.816 129.525,149.686 131.169,148.738C132.812,147.79 134.887,147.23 137.394,147.06C138.714,146.963 139.927,147.23 141.032,147.862C142.137,148.495 143.06,149.406 143.801,150.597C144.542,151.789 145.067,153.223 145.377,154.9C145.687,156.578 145.708,158.413 145.438,160.407ZM137.717,161.683C137.879,160.638 137.98,159.507 138.02,158.292C138.061,157.076 138.02,155.952 137.899,154.919C137.778,153.885 137.569,153.041 137.272,152.384C136.976,151.728 136.585,151.448 136.1,151.546C135.373,151.691 134.726,152.093 134.16,152.749C133.594,153.405 133.102,154.208 132.684,155.156C132.267,156.104 131.923,157.131 131.654,158.237C131.384,159.343 131.182,160.407 131.047,161.428C130.913,162.449 130.825,163.482 130.784,164.527C130.744,165.573 130.791,166.521 130.926,167.372C131.061,168.223 131.31,168.916 131.674,169.45C132.038,169.985 132.556,170.265 133.23,170.289C133.661,170.313 134.113,170.052 134.584,169.505C135.056,168.958 135.501,168.259 135.918,167.408C136.336,166.557 136.707,165.621 137.03,164.6C137.353,163.579 137.582,162.607 137.717,161.683Z" style="fill:rgb(0,71,103);fill-rule:nonzero;"/>
                        <path d="M125.307,155.593C125.092,156.979 124.566,158.286 123.731,159.513C122.895,160.741 121.932,161.847 120.84,162.832C119.749,163.816 118.604,164.655 117.404,165.348C116.205,166.041 115.12,166.545 114.15,166.861C114.096,167.372 114.069,167.986 114.069,168.703C114.069,169.42 114.11,170.168 114.191,170.945C114.271,171.723 114.399,172.483 114.575,173.225C114.75,173.966 114.972,174.616 115.242,175.176C114.891,175.248 114.312,175.394 113.503,175.613C112.695,175.832 111.833,176.057 110.916,176.288C110,176.519 109.138,176.75 108.329,176.981C107.521,177.212 106.941,177.388 106.591,177.509C106.537,175.151 106.544,172.629 106.611,169.943C106.679,167.256 106.793,164.588 106.955,161.938C107.116,159.288 107.339,156.736 107.622,154.28C107.905,151.825 108.262,149.625 108.693,147.68C109.043,147.607 109.623,147.504 110.431,147.37C111.24,147.236 112.142,147.133 113.14,147.06C114.137,146.987 115.174,146.963 116.252,146.987C117.33,147.012 118.314,147.133 119.203,147.352C120.092,147.571 120.948,147.862 121.77,148.227C122.592,148.592 123.299,149.084 123.892,149.704C124.485,150.324 124.923,151.114 125.206,152.074C125.489,153.035 125.523,154.208 125.307,155.593ZM115.322,152.785C115.08,153.393 114.885,154.122 114.736,154.973C114.588,155.824 114.46,156.687 114.352,157.562C114.245,158.438 114.157,159.282 114.09,160.097C114.022,160.911 113.962,161.574 113.908,162.084C114.608,161.476 115.255,160.82 115.848,160.115C116.441,159.41 116.933,158.711 117.323,158.018C117.714,157.325 117.99,156.663 118.152,156.031C118.314,155.399 118.327,154.84 118.193,154.353C118.058,153.867 117.761,153.484 117.303,153.205C116.845,152.925 116.185,152.785 115.322,152.785Z" style="fill:rgb(0,71,103);fill-rule:nonzero;"/>
                    </g>
                    <path d="M176.443,145.346C175.877,146.1 175.298,147.139 174.705,148.464C174.112,149.789 173.519,151.284 172.926,152.949C172.333,154.615 171.761,156.408 171.208,158.328C170.656,160.249 170.15,162.194 169.692,164.163C169.234,166.132 168.823,168.071 168.459,169.979C168.095,171.887 167.819,173.656 167.631,175.285L160.88,177.363C160.772,175.978 160.691,174.556 160.637,173.097C160.583,171.638 160.516,170.192 160.435,168.757C160.354,167.323 160.267,165.931 160.172,164.582C160.078,163.233 159.937,161.975 159.748,160.808C159.452,161.78 159.148,162.753 158.838,163.725C158.529,164.698 158.246,165.737 157.99,166.843C157.734,167.949 157.525,169.146 157.363,170.435C157.201,171.723 157.12,173.146 157.12,174.701L149.521,178.421C149.17,177.254 148.847,175.953 148.551,174.519C148.254,173.085 147.985,171.584 147.742,170.016C147.5,168.448 147.277,166.843 147.075,165.202C146.873,163.561 146.705,161.957 146.57,160.389C146.435,158.821 146.334,157.313 146.267,155.867C146.199,154.42 146.166,153.101 146.166,151.91L153.967,148.191C153.725,149.285 153.556,150.537 153.462,151.947C153.368,153.357 153.334,154.797 153.361,156.268C153.388,157.739 153.455,159.167 153.563,160.553C153.671,161.938 153.806,163.166 153.967,164.236C154.264,163.409 154.567,162.425 154.877,161.282C155.187,160.139 155.504,158.942 155.827,157.69C156.15,156.438 156.46,155.18 156.757,153.916C157.053,152.652 157.323,151.485 157.565,150.415L163.184,148.993C163.076,149.698 163.002,150.555 162.962,151.564C162.921,152.573 162.908,153.618 162.921,154.7C162.935,155.782 162.975,156.827 163.043,157.836C163.11,158.845 163.224,159.702 163.386,160.407C163.548,159.556 163.79,158.535 164.114,157.344C164.437,156.152 164.821,154.906 165.266,153.606C165.71,152.305 166.189,150.999 166.701,149.686C167.213,148.373 167.725,147.157 168.237,146.039L176.443,145.346Z" style="fill:none;fill-rule:nonzero;stroke:white;stroke-width:1.64px;"/>
                    <path d="M176.443,145.346C175.877,146.1 175.298,147.139 174.705,148.464C174.112,149.789 173.519,151.284 172.926,152.949C172.333,154.615 171.761,156.408 171.208,158.328C170.656,160.249 170.15,162.194 169.692,164.163C169.234,166.132 168.823,168.071 168.459,169.979C168.095,171.887 167.819,173.656 167.631,175.285L160.88,177.363C160.772,175.978 160.691,174.556 160.637,173.097C160.583,171.638 160.516,170.192 160.435,168.757C160.354,167.323 160.267,165.931 160.172,164.582C160.078,163.233 159.937,161.975 159.748,160.808C159.452,161.78 159.148,162.753 158.838,163.725C158.529,164.698 158.246,165.737 157.99,166.843C157.734,167.949 157.525,169.146 157.363,170.435C157.201,171.723 157.12,173.146 157.12,174.701L149.521,178.421C149.17,177.254 148.847,175.953 148.551,174.519C148.254,173.085 147.985,171.584 147.742,170.016C147.5,168.448 147.277,166.843 147.075,165.202C146.873,163.561 146.705,161.957 146.57,160.389C146.435,158.821 146.334,157.313 146.267,155.867C146.199,154.42 146.166,153.101 146.166,151.91L153.967,148.191C153.725,149.285 153.556,150.537 153.462,151.947C153.368,153.357 153.334,154.797 153.361,156.268C153.388,157.739 153.455,159.167 153.563,160.553C153.671,161.938 153.806,163.166 153.967,164.236C154.264,163.409 154.567,162.425 154.877,161.282C155.187,160.139 155.504,158.942 155.827,157.69C156.15,156.438 156.46,155.18 156.757,153.916C157.053,152.652 157.323,151.485 157.565,150.415L163.184,148.993C163.076,149.698 163.002,150.555 162.962,151.564C162.921,152.573 162.908,153.618 162.921,154.7C162.935,155.782 162.975,156.827 163.043,157.836C163.11,158.845 163.224,159.702 163.386,160.407C163.548,159.556 163.79,158.535 164.114,157.344C164.437,156.152 164.821,154.906 165.266,153.606C165.71,152.305 166.189,150.999 166.701,149.686C167.213,148.373 167.725,147.157 168.237,146.039L176.443,145.346Z" style="fill:rgb(2,0,73);fill-rule:nonzero;"/>
                    <path d="M145.438,160.407C145.061,163.227 144.535,165.573 143.862,167.445C143.188,169.317 142.332,170.824 141.295,171.967C140.257,173.109 139.004,173.954 137.535,174.501C136.067,175.048 134.349,175.394 132.381,175.54C130.737,175.662 129.269,175.327 127.975,174.537C126.681,173.747 125.63,172.641 124.822,171.219C124.014,169.797 123.495,168.125 123.266,166.205C123.037,164.284 123.165,162.242 123.65,160.079C123.892,158.96 124.276,157.684 124.802,156.25C125.327,154.815 126.109,153.442 127.146,152.129C128.184,150.816 129.525,149.686 131.169,148.738C132.812,147.79 134.887,147.23 137.394,147.06C138.714,146.963 139.927,147.23 141.032,147.862C142.137,148.495 143.06,149.406 143.801,150.597C144.542,151.789 145.067,153.223 145.377,154.9C145.687,156.578 145.708,158.413 145.438,160.407ZM137.717,161.683C137.879,160.638 137.98,159.507 138.02,158.292C138.061,157.076 138.02,155.952 137.899,154.919C137.778,153.885 137.569,153.041 137.272,152.384C136.976,151.728 136.585,151.448 136.1,151.546C135.373,151.691 134.726,152.093 134.16,152.749C133.594,153.405 133.102,154.208 132.684,155.156C132.267,156.104 131.923,157.131 131.654,158.237C131.384,159.343 131.182,160.407 131.047,161.428C130.913,162.449 130.825,163.482 130.784,164.527C130.744,165.573 130.791,166.521 130.926,167.372C131.061,168.223 131.31,168.916 131.674,169.45C132.038,169.985 132.556,170.265 133.23,170.289C133.661,170.313 134.113,170.052 134.584,169.505C135.056,168.958 135.501,168.259 135.918,167.408C136.336,166.557 136.707,165.621 137.03,164.6C137.353,163.579 137.582,162.607 137.717,161.683Z" style="fill:none;fill-rule:nonzero;stroke:white;stroke-width:1.64px;"/>
                    <path d="M145.438,160.407C145.061,163.227 144.535,165.573 143.862,167.445C143.188,169.317 142.332,170.824 141.295,171.967C140.257,173.109 139.004,173.954 137.535,174.501C136.067,175.048 134.349,175.394 132.381,175.54C130.737,175.662 129.269,175.327 127.975,174.537C126.681,173.747 125.63,172.641 124.822,171.219C124.014,169.797 123.495,168.125 123.266,166.205C123.037,164.284 123.165,162.242 123.65,160.079C123.892,158.96 124.276,157.684 124.802,156.25C125.327,154.815 126.109,153.442 127.146,152.129C128.184,150.816 129.525,149.686 131.169,148.738C132.812,147.79 134.887,147.23 137.394,147.06C138.714,146.963 139.927,147.23 141.032,147.862C142.137,148.495 143.06,149.406 143.801,150.597C144.542,151.789 145.067,153.223 145.377,154.9C145.687,156.578 145.708,158.413 145.438,160.407ZM137.717,161.683C137.879,160.638 137.98,159.507 138.02,158.292C138.061,157.076 138.02,155.952 137.899,154.919C137.778,153.885 137.569,153.041 137.272,152.384C136.976,151.728 136.585,151.448 136.1,151.546C135.373,151.691 134.726,152.093 134.16,152.749C133.594,153.405 133.102,154.208 132.684,155.156C132.267,156.104 131.923,157.131 131.654,158.237C131.384,159.343 131.182,160.407 131.047,161.428C130.913,162.449 130.825,163.482 130.784,164.527C130.744,165.573 130.791,166.521 130.926,167.372C131.061,168.223 131.31,168.916 131.674,169.45C132.038,169.985 132.556,170.265 133.23,170.289C133.661,170.313 134.113,170.052 134.584,169.505C135.056,168.958 135.501,168.259 135.918,167.408C136.336,166.557 136.707,165.621 137.03,164.6C137.353,163.579 137.582,162.607 137.717,161.683Z" style="fill:rgb(2,0,73);fill-rule:nonzero;"/>
                    <path d="M125.307,155.593C125.092,156.979 124.566,158.286 123.731,159.513C122.895,160.741 121.932,161.847 120.84,162.832C119.749,163.816 118.604,164.655 117.404,165.348C116.205,166.041 115.12,166.545 114.15,166.861C114.096,167.372 114.069,167.986 114.069,168.703C114.069,169.42 114.11,170.168 114.191,170.945C114.271,171.723 114.399,172.483 114.575,173.225C114.75,173.966 114.972,174.616 115.242,175.176C114.891,175.248 114.312,175.394 113.503,175.613C112.695,175.832 111.833,176.057 110.916,176.288C110,176.519 109.138,176.75 108.329,176.981C107.521,177.212 106.941,177.388 106.591,177.509C106.537,175.151 106.544,172.629 106.611,169.943C106.679,167.256 106.793,164.588 106.955,161.938C107.116,159.288 107.339,156.736 107.622,154.28C107.905,151.825 108.262,149.625 108.693,147.68C109.043,147.607 109.623,147.504 110.431,147.37C111.24,147.236 112.142,147.133 113.14,147.06C114.137,146.987 115.174,146.963 116.252,146.987C117.33,147.012 118.314,147.133 119.203,147.352C120.092,147.571 120.948,147.862 121.77,148.227C122.592,148.592 123.299,149.084 123.892,149.704C124.485,150.324 124.923,151.114 125.206,152.074C125.489,153.035 125.523,154.208 125.307,155.593ZM115.322,152.785C115.08,153.393 114.885,154.122 114.736,154.973C114.588,155.824 114.46,156.687 114.352,157.562C114.245,158.438 114.157,159.282 114.09,160.097C114.022,160.911 113.962,161.574 113.908,162.084C114.608,161.476 115.255,160.82 115.848,160.115C116.441,159.41 116.933,158.711 117.323,158.018C117.714,157.325 117.99,156.663 118.152,156.031C118.314,155.399 118.327,154.84 118.193,154.353C118.058,153.867 117.761,153.484 117.303,153.205C116.845,152.925 116.185,152.785 115.322,152.785Z" style="fill:none;fill-rule:nonzero;stroke:white;stroke-width:1.64px;"/>
                    <path d="M125.307,155.593C125.092,156.979 124.566,158.286 123.731,159.513C122.895,160.741 121.932,161.847 120.84,162.832C119.749,163.816 118.604,164.655 117.404,165.348C116.205,166.041 115.12,166.545 114.15,166.861C114.096,167.372 114.069,167.986 114.069,168.703C114.069,169.42 114.11,170.168 114.191,170.945C114.271,171.723 114.399,172.483 114.575,173.225C114.75,173.966 114.972,174.616 115.242,175.176C114.891,175.248 114.312,175.394 113.503,175.613C112.695,175.832 111.833,176.057 110.916,176.288C110,176.519 109.138,176.75 108.329,176.981C107.521,177.212 106.941,177.388 106.591,177.509C106.537,175.151 106.544,172.629 106.611,169.943C106.679,167.256 106.793,164.588 106.955,161.938C107.116,159.288 107.339,156.736 107.622,154.28C107.905,151.825 108.262,149.625 108.693,147.68C109.043,147.607 109.623,147.504 110.431,147.37C111.24,147.236 112.142,147.133 113.14,147.06C114.137,146.987 115.174,146.963 116.252,146.987C117.33,147.012 118.314,147.133 119.203,147.352C120.092,147.571 120.948,147.862 121.77,148.227C122.592,148.592 123.299,149.084 123.892,149.704C124.485,150.324 124.923,151.114 125.206,152.074C125.489,153.035 125.523,154.208 125.307,155.593ZM115.322,152.785C115.08,153.393 114.885,154.122 114.736,154.973C114.588,155.824 114.46,156.687 114.352,157.562C114.245,158.438 114.157,159.282 114.09,160.097C114.022,160.911 113.962,161.574 113.908,162.084C114.608,161.476 115.255,160.82 115.848,160.115C116.441,159.41 116.933,158.711 117.323,158.018C117.714,157.325 117.99,156.663 118.152,156.031C118.314,155.399 118.327,154.84 118.193,154.353C118.058,153.867 117.761,153.484 117.303,153.205C116.845,152.925 116.185,152.785 115.322,152.785Z" style="fill:rgb(2,0,73);fill-rule:nonzero;"/>
                </g>
            </g>
        </g>
    </g>
</svg>
